<?xml version="1.0" encoding="UTF-8"?>
<svg width="52px" height="50px" viewBox="0 0 52 50" version="1.1" xmlns="http://www.w3.org/2000/svg" xmlns:xlink="http://www.w3.org/1999/xlink">
    <!-- Generator: Sketch 53.2 (72643) - https://sketchapp.com -->
    <title>heart</title>
    <desc>Created with Sketch.</desc>
    <g id="Page-1" stroke="none" stroke-width="1" fill="none" fill-rule="evenodd">
        <g id="Desktop-HD" transform="translate(-1107.000000, -973.000000)" fill="#000000" fill-rule="nonzero">
            <g id="FEATTURES-Bar" transform="translate(170.000000, 941.000000)">
                <g id="Group-32" transform="translate(825.000000, 32.000000)">
                    <g id="heart" transform="translate(112.000000, 0.000000)">
                        <path d="M51.911,15.242 C51.152,6.888 45.239,0.827 37.839,0.827 C32.909,0.827 28.395,3.48 25.855,7.732 C23.338,3.425 19.009,0.826 14.158,0.826 C6.759,0.826 0.845,6.887 0.087,15.241 C0.027,15.61 -0.219,17.552 0.529,20.719 C1.607,25.287 4.097,29.442 7.728,32.732 L25.843,49.171 L44.269,32.733 C47.9,29.442 50.39,25.288 51.468,20.719 C52.216,17.553 51.97,15.611 51.911,15.242 Z M49.521,20.261 C48.537,24.433 46.256,28.234 42.931,31.246 L25.855,46.481 L9.072,31.25 C5.741,28.232 3.461,24.432 2.476,20.26 C1.768,17.263 2.059,15.57 2.06,15.559 L2.075,15.458 C2.725,8.139 7.806,2.826 14.158,2.826 C18.845,2.826 22.971,5.706 24.929,10.341 L25.85,12.524 L26.771,10.341 C28.698,5.777 33.042,2.827 37.84,2.827 C44.191,2.827 49.273,8.14 49.936,15.554 C49.938,15.57 50.229,17.264 49.521,20.261 Z" id="Shape"></path>
                        <path d="M15.999,6.904 C10.485,6.904 5.999,11.39 5.999,16.904 C5.999,17.457 6.446,17.904 6.999,17.904 C7.552,17.904 7.999,17.457 7.999,16.904 C7.999,12.493 11.588,8.904 15.999,8.904 C16.552,8.904 16.999,8.457 16.999,7.904 C16.999,7.351 16.551,6.904 15.999,6.904 Z" id="Path"></path>
                    </g>
                </g>
            </g>
        </g>
    </g>
</svg>