<?xml version="1.0" encoding="UTF-8"?>
<svg width="50px" height="50px" viewBox="0 0 50 50" version="1.1" xmlns="http://www.w3.org/2000/svg" xmlns:xlink="http://www.w3.org/1999/xlink">
    <!-- Generator: Sketch 53.2 (72643) - https://sketchapp.com -->
    <title>icon-coin-control</title>
    <desc>Created with Sketch.</desc>
    <g id="Page-1" stroke="none" stroke-width="1" fill="none" fill-rule="evenodd">
        <g id="Desktop-HD" transform="translate(-833.000000, -973.000000)" fill="#000000" fill-rule="nonzero">
            <g id="FEATTURES-Bar" transform="translate(170.000000, 941.000000)">
                <g id="Group-31" transform="translate(550.000000, 32.000000)">
                    <g id="icon-coin-control" transform="translate(113.000000, 0.000000)">
                        <path d="M45.1612903,27.85172 C45.1612903,25.8733933 44.8435137,23.9186933 44.2178049,22.0403856 C42.7033456,17.4942509 41.9354839,12.7614667 41.9354839,7.97276653 L41.9354839,1.34986139 L37.3460339,2.66113286 C33.479949,3.76685363 29.2193013,3.20414879 25.7725869,1.13564768 L25,0.672568044 L24.2266255,1.13564768 C20.7814863,3.20414879 16.5208386,3.76606603 12.6539661,2.66113286 L8.06451613,1.34986139 L8.06451613,7.97276653 C8.06451613,12.7614667 7.29665444,17.4942509 5.78219506,22.0403856 C5.15648629,23.9186933 4.83870968,25.8733933 4.83870968,27.85172 C4.83870968,34.8573746 8.73078377,41.1550214 14.9969285,44.2871094 L25,49.2888419 L35.0030715,44.2871094 C41.2692162,41.1538401 45.1612903,34.8565871 45.1612903,27.85172 Z M34.2820691,42.844317 L25.8064516,47.0821258 L25.8064516,42.7419355 L24.1935484,42.7419355 L24.1935484,47.0821258 L15.7179309,42.844317 C10.0014964,39.9862966 6.4516129,34.2411164 6.4516129,27.85172 C6.4516129,26.047442 6.7410377,24.2636403 7.31122419,22.5499306 C8.8815997,17.8395917 9.67741935,12.9355153 9.67741935,7.97276653 L9.67741935,3.48884829 L12.2121503,4.21221331 C16.1896736,5.34982984 20.5345892,4.8765121 24.1935484,2.97654677 L24.1935484,14.5515687 C22.0088836,14.7216796 19.9179373,15.5726279 18.2329732,16.9984879 L19.2756899,18.2290354 C20.8759923,16.8748425 22.9078724,16.1290323 25,16.1290323 C29.8910818,16.1290323 33.8709677,20.1089182 33.8709677,25 C33.8709677,27.0921276 33.1251575,29.125189 31.7709646,30.7250977 L33.0007246,31.7670268 C33.3015687,31.4122354 33.5677609,31.0338174 33.8170206,30.6451613 L37.0967742,30.6451613 L37.0967742,34.6774194 L38.7096774,34.6774194 L38.7096774,29.0322581 L34.6628497,29.0322581 C35.0912771,28.0080488 35.3614069,26.9208355 35.4476436,25.8064516 L38.7096774,25.8064516 L38.7096774,24.1935484 L35.4429183,24.1935484 C35.3322675,22.7483933 34.9306168,21.3847499 34.2911259,20.1612903 L38.7096774,20.1612903 L38.7096774,12.9032258 L37.0967742,12.9032258 L37.0967742,18.5483871 L33.2468341,18.5483871 C31.4823274,16.297568 28.8235573,14.7886215 25.8064516,14.5570817 L25.8064516,2.97654677 C29.4661984,4.8757246 33.8095388,5.34982984 37.7878497,4.21221331 L40.3225806,3.48884829 L40.3225806,7.97355403 C40.3225806,12.9355153 41.1184003,17.8403792 42.6887758,22.5507182 C43.2589623,24.2636403 43.5483871,26.0466544 43.5483871,27.85172 C43.5483871,34.2411164 39.9985036,39.9862966 34.2820691,42.844317 Z" id="Shape"></path>
                        <path d="M23.3870968,32.2580645 L25,32.2580645 L25,30.6451613 L25.8064516,30.6451613 C27.585528,30.6451613 29.0322581,29.1984312 29.0322581,27.4193548 C29.0322581,26.457362 28.6089497,25.5910566 27.9379568,25 C28.6089497,24.4089434 29.0322581,23.542638 29.0322581,22.5806452 C29.0322581,20.8015688 27.585528,19.3548387 25.8064516,19.3548387 L25,19.3548387 L25,17.7419355 L23.3870968,17.7419355 L23.3870968,19.3548387 L20.9677419,19.3548387 L20.9677419,30.6451613 L23.3870968,30.6451613 L23.3870968,32.2580645 Z M22.5806452,20.9677419 L25.8064516,20.9677419 C26.6959898,20.9677419 27.4193548,21.691107 27.4193548,22.5806452 C27.4193548,23.4701834 26.6959898,24.1935484 25.8064516,24.1935484 L22.5806452,24.1935484 L22.5806452,20.9677419 Z M22.5806452,25.8064516 L25.8064516,25.8064516 C26.6959898,25.8064516 27.4193548,26.5298166 27.4193548,27.4193548 C27.4193548,28.308893 26.6959898,29.0322581 25.8064516,29.0322581 L22.5806452,29.0322581 L22.5806452,25.8064516 Z" id="Shape"></path>
                        <polygon id="Path" points="11.2903226 9.67741935 12.9032258 9.67741935 12.9032258 11.2903226 11.2903226 11.2903226"></polygon>
                        <polygon id="Path" points="11.2903226 36.2903226 12.9032258 36.2903226 12.9032258 37.9032258 11.2903226 37.9032258"></polygon>
                        <polygon id="Path" points="8.06451613 24.1935484 9.67741935 24.1935484 9.67741935 25.8064516 8.06451613 25.8064516"></polygon>
                        <polygon id="Path" points="37.0967742 9.67741935 38.7096774 9.67741935 38.7096774 11.2903226 37.0967742 11.2903226"></polygon>
                        <polygon id="Path" points="37.0967742 36.2903226 38.7096774 36.2903226 38.7096774 37.9032258 37.0967742 37.9032258"></polygon>
                        <polygon id="Path" points="40.3225806 24.1935484 41.9354839 24.1935484 41.9354839 25.8064516 40.3225806 25.8064516"></polygon>
                        <polygon id="Path" points="1.61290323 45.1612903 3.22580645 45.1612903 3.22580645 46.7741935 1.61290323 46.7741935"></polygon>
                        <polygon id="Path" points="0 46.7741935 1.61290323 46.7741935 1.61290323 48.3870968 0 48.3870968"></polygon>
                        <polygon id="Path" points="1.61290323 48.3870968 3.22580645 48.3870968 3.22580645 50 1.61290323 50"></polygon>
                        <polygon id="Path" points="3.22580645 46.7741935 4.83870968 46.7741935 4.83870968 48.3870968 3.22580645 48.3870968"></polygon>
                        <polygon id="Path" points="9.67741935 45.9677419 11.2903226 45.9677419 11.2903226 47.5806452 9.67741935 47.5806452"></polygon>
                        <polygon id="Path" points="3.22580645 38.7096774 4.83870968 38.7096774 4.83870968 40.3225806 3.22580645 40.3225806"></polygon>
                        <polygon id="Path" points="46.7741935 45.1612903 48.3870968 45.1612903 48.3870968 46.7741935 46.7741935 46.7741935"></polygon>
                        <polygon id="Path" points="48.3870968 46.7741935 50 46.7741935 50 48.3870968 48.3870968 48.3870968"></polygon>
                        <polygon id="Path" points="46.7741935 48.3870968 48.3870968 48.3870968 48.3870968 50 46.7741935 50"></polygon>
                        <polygon id="Path" points="45.1612903 46.7741935 46.7741935 46.7741935 46.7741935 48.3870968 45.1612903 48.3870968"></polygon>
                        <polygon id="Path" points="38.7096774 45.9677419 40.3225806 45.9677419 40.3225806 47.5806452 38.7096774 47.5806452"></polygon>
                        <polygon id="Path" points="45.1612903 38.7096774 46.7741935 38.7096774 46.7741935 40.3225806 45.1612903 40.3225806"></polygon>
                        <polygon id="Path" points="1.61290323 3.22580645 3.22580645 3.22580645 3.22580645 4.83870968 1.61290323 4.83870968"></polygon>
                        <polygon id="Path" points="0 1.61290323 1.61290323 1.61290323 1.61290323 3.22580645 0 3.22580645"></polygon>
                        <polygon id="Path" points="1.61290323 0 3.22580645 0 3.22580645 1.61290323 1.61290323 1.61290323"></polygon>
                        <polygon id="Path" points="3.22580645 1.61290323 4.83870968 1.61290323 4.83870968 3.22580645 3.22580645 3.22580645"></polygon>
                        <polygon id="Path" points="3.22580645 9.67741935 4.83870968 9.67741935 4.83870968 11.2903226 3.22580645 11.2903226"></polygon>
                        <polygon id="Path" points="46.7741935 3.22580645 48.3870968 3.22580645 48.3870968 4.83870968 46.7741935 4.83870968"></polygon>
                        <polygon id="Path" points="48.3870968 1.61290323 50 1.61290323 50 3.22580645 48.3870968 3.22580645"></polygon>
                        <polygon id="Path" points="46.7741935 0 48.3870968 0 48.3870968 1.61290323 46.7741935 1.61290323"></polygon>
                        <polygon id="Path" points="45.1612903 1.61290323 46.7741935 1.61290323 46.7741935 3.22580645 45.1612903 3.22580645"></polygon>
                        <polygon id="Path" points="45.1612903 9.67741935 46.7741935 9.67741935 46.7741935 11.2903226 45.1612903 11.2903226"></polygon>
                        <path d="M30.7243101,31.7709646 C29.1240077,33.1251575 27.0921276,33.8709677 25,33.8709677 C20.1089182,33.8709677 16.1290323,29.8910818 16.1290323,25 C16.1290323,22.9078724 16.8748425,20.874811 18.2290354,19.2749023 L16.9992754,18.2329732 C16.9130387,18.3345671 16.8370401,18.4436429 16.7555286,18.5483871 L12.9032258,18.5483871 L12.9032258,12.9032258 L11.2903226,12.9032258 L11.2903226,20.1612903 L15.7151745,20.1612903 C15.0630828,21.4111329 14.6622197,22.780683 14.5515687,24.1935484 L11.2903226,24.1935484 L11.2903226,25.8064516 L14.5570817,25.8064516 C14.6444998,26.9413117 14.9047852,28.0265562 15.3249433,29.0322581 L11.2903226,29.0322581 L11.2903226,34.6774194 L12.9032258,34.6774194 L12.9032258,30.6451613 L16.1798292,30.6451613 C17.9088962,33.3370086 20.8291331,35.1846018 24.1935484,35.4429183 L24.1935484,41.1290323 L25.8064516,41.1290323 L25.8064516,35.4484312 C27.9911164,35.2783204 30.0820627,34.4273721 31.7670268,33.0015121 L30.7243101,31.7709646 Z" id="Path"></path>
                    </g>
                </g>
            </g>
        </g>
    </g>
</svg>