<?xml version="1.0" encoding="UTF-8"?>
<svg width="60px" height="60px" viewBox="0 0 60 60" version="1.1" xmlns="http://www.w3.org/2000/svg" xmlns:xlink="http://www.w3.org/1999/xlink">
    <!-- Generator: Sketch 53.2 (72643) - https://sketchapp.com -->
    <title>ubuntu</title>
    <desc>Created with Sketch.</desc>
    <g id="Page-1" stroke="none" stroke-width="1" fill="none" fill-rule="evenodd">
        <g id="Desktop-HD" transform="translate(-939.000000, -2954.000000)" fill="#FF7144" fill-rule="nonzero">
            <g id="Group-25" transform="translate(-31.000000, 2341.000000)">
                <g id="Group-24" transform="translate(0.364709, 0.000000)">
                    <g id="Download-Bar-Copy" transform="translate(900.000000, 421.000000)">
                        <g id="Group-22">
                            <g id="Group-20" transform="translate(0.000000, 192.000000)">
                                <g id="ubuntu" transform="translate(70.000000, 0.000000)">
                                    <circle id="Oval" cx="6.33333333" cy="30.3333333" r="6.33333333"></circle>
                                    <circle id="Oval" cx="47" cy="53.6666667" r="6.33333333"></circle>
                                    <circle id="Oval" cx="47" cy="6.33333333" r="6.33333333"></circle>
                                    <path d="M30.5600198,17.0589306 C30.8358993,17.5465682 31.3954148,17.7883203 31.9307344,17.6509692 C38.4050454,15.9503198 45.0230268,19.8466966 46.818385,26.4162816 C46.9686542,26.9587179 47.4538455,27.3332151 48.0062991,27.3333332 L58.0977221,27.3333332 C58.7797221,27.3336875 59.3328703,26.7699931 59.3333333,26.0742621 C59.3333333,26.0074171 59.3281237,25.9405722 59.3178202,25.8745539 C58.603752,21.2921305 56.659861,17.0008251 53.701595,13.4762292 C53.2936222,12.996032 52.5990033,12.9009609 52.0813965,13.2545543 C50.6657632,14.2208538 49.0007618,14.7364813 47.2974405,14.7360089 C42.5763475,14.7188843 38.7352209,10.8541585 38.6532559,6.03872249 C38.6442258,5.40156947 38.17038,4.87165184 37.549275,4.80421637 C33.6770063,4.39039168 29.7636393,4.91345947 26.1266148,6.33102161 C25.4897651,6.57997779 25.1713981,7.30854072 25.4154409,7.95821241 C25.4387106,8.02009715 25.4667269,8.08009228 25.4992582,8.1374892 L30.5600198,17.0589306 Z" id="Path"></path>
                                    <path d="M58.0970787,32.6666667 L48.0019367,32.6666667 C47.4492795,32.6667847 46.9639094,33.0412706 46.8135848,33.5834015 C45.0197654,40.1524883 38.3974921,44.0485818 31.9204476,42.3456863 C31.3849307,42.2083827 30.825209,42.4500513 30.5492279,42.9375204 L25.4992248,51.8558804 C25.1579254,52.4581038 25.360134,53.2283263 25.9508935,53.5762487 C26.0071783,53.6094235 26.0660111,53.637994 26.1266968,53.661724 C29.7613556,55.093436 33.6796392,55.6167953 37.5535666,55.1880019 C38.1749005,55.1205897 38.648921,54.5907371 38.6579543,53.9539222 C38.7126178,49.0969395 42.6193201,45.2046239 47.3838455,45.2603482 C49.0555986,45.2798281 50.685775,45.7940968 52.0761038,46.7405827 C52.5962177,47.0936998 53.2929455,46.9952379 53.6993315,46.5114285 C56.6574138,42.9901751 58.6019053,38.7031854 59.3176264,34.1249421 C59.4254479,33.4381879 58.9667146,32.7924004 58.2930335,32.6824867 C58.2281785,32.6719794 58.1626286,32.6666667 58.0970787,32.6666667 Z" id="Path"></path>
                                    <path d="M25.6557145,39.0357467 C21.0715218,34.1911751 21.0715218,26.4697253 25.6557145,21.6251538 C26.0358515,21.2232465 26.1093052,20.6098953 25.8355337,20.1248873 L20.877012,11.2907789 C20.698901,10.9730272 20.3942676,10.7517379 20.0437398,10.6856324 C19.6954896,10.6238636 19.3379012,10.7144656 19.0574107,10.9356377 C15.5293566,13.8878809 12.8763692,17.7990054 11.3996657,22.2251432 C11.2344234,22.7187074 11.3845194,23.2660703 11.7762723,23.5978871 C15.3903071,26.5639608 15.9838583,31.9836736 13.1019688,35.7032797 C12.7111269,36.2077443 12.266419,36.6654428 11.7762723,37.0677017 C11.3845194,37.3995185 11.2344234,37.9468814 11.3996657,38.4404456 C12.8772803,42.8625983 15.5293566,46.7700894 19.0549053,49.7199884 C19.2718498,49.9015441 19.5430021,50.0003507 19.8225816,49.9999991 C19.8959214,49.9995302 19.9690334,49.9928494 20.0412344,49.9799564 C20.3917622,49.9138509 20.6965095,49.6925616 20.8745066,49.3748099 L25.8330283,40.5357788 C26.107597,40.0515912 26.0350543,39.4383572 25.6557145,39.0357467 Z" id="Path"></path>
                                </g>
                            </g>
                        </g>
                    </g>
                </g>
            </g>
        </g>
    </g>
</svg>