<?xml version="1.0" encoding="UTF-8"?>
<svg width="61px" height="60px" viewBox="0 0 61 60" version="1.1" xmlns="http://www.w3.org/2000/svg" xmlns:xlink="http://www.w3.org/1999/xlink">
    <!-- Generator: Sketch 53.2 (72643) - https://sketchapp.com -->
    <title>003-linux</title>
    <desc>Created with Sketch.</desc>
    <g id="Page-1" stroke="none" stroke-width="1" fill="none" fill-rule="evenodd">
        <g id="Desktop-HD" transform="translate(-1199.000000, -2954.000000)" fill-rule="nonzero">
            <g id="Group-25" transform="translate(-31.000000, 2341.000000)">
                <g id="Group-24" transform="translate(0.364709, 0.000000)">
                    <g id="Download-Bar-Copy" transform="translate(900.000000, 421.000000)">
                        <g id="Group-22">
                            <g id="Group-20" transform="translate(0.000000, 192.000000)">
                                <g id="003-linux" transform="translate(330.000000, 0.000000)">
                                    <path d="M39.2002851,25.0957031 C39.2002851,23.6233594 37.4872043,22.801875 36.3377218,23.72625 C32.9510883,26.4499219 32.8539688,28.2421875 30.027884,28.2421875 C27.200509,28.2421875 27.134707,26.4739453 23.7181635,23.72625 C22.5700886,22.8031641 20.8556003,23.6211328 20.8556003,25.0957031 C20.8556003,30.9031641 16.7162904,32.0240625 16.7162904,38.7503906 C16.7162904,39.3174609 16.9901722,39.8498438 17.4517246,40.1798438 C17.5145942,40.2248438 17.7061355,40.3617188 17.7305327,40.8748828 C18.1096274,48.7655859 21.8360619,52.1144531 18.8713354,55.17375 C18.0359666,56.0358984 18.2927235,57.4653516 19.377225,57.9828516 C22.06502,59.2647656 25.9471039,60 30.027884,60 C34.1114792,60 37.9936803,59.2646484 40.6790122,57.9825 C41.7621062,57.4654687 42.0202706,56.03625 41.1844326,55.17375 C38.2211137,52.1158594 41.946258,48.7614844 42.3253526,40.8740625 C42.3496325,40.3617187 42.5411738,40.2248437 42.6040434,40.1798438 C43.0657131,39.8498438 43.3394777,39.3174609 43.3394777,38.7503906 C43.3394777,32.0348437 39.2002851,30.8921484 39.2002851,25.0957031 Z" id="Path" fill="#F7F7F7"></path>
                                    <path d="M39.2002851,25.0957031 C39.2002851,23.6233594 37.4872043,22.801875 36.3377218,23.72625 C32.9513229,26.4496875 32.8539688,28.2419531 30.0283532,28.2421875 L30.0283532,60 C34.1118311,60 37.9939149,59.2646484 40.6791295,57.9825 C41.7622235,57.4654687 42.0203879,56.03625 41.1844326,55.17375 C38.2211137,52.1158594 41.946258,48.7614844 42.3253526,40.8740625 C42.3496325,40.3617187 42.5411738,40.2248437 42.6040434,40.1798438 C43.0657131,39.8498438 43.3395949,39.3174609 43.3395949,38.7503906 C43.3394777,32.0348437 39.2002851,30.8921484 39.2002851,25.0957031 Z" id="Path" fill="#E0E0E0"></path>
                                    <path d="M47.1766379,15.1828125 C46.7315066,5.52527344 39.621371,0 30.027884,0 C20.4329895,0 13.3242614,5.5265625 12.8791302,15.1830469 C12.3400463,26.9014453 4.22141578,32.1793359 9.24465423,43.2930469 C9.99052761,44.9429297 14.925209,45.9142969 14.5200751,41.8541016 C14.3660679,40.3073437 16.6864977,39.6303516 17.4485576,40.1776172 C18.6098868,41.0123437 20.2351143,40.1807813 20.2351143,38.7505078 C20.2351143,33.2390625 24.3744242,32.0594531 24.3744242,25.0958203 C24.3744242,24.5653125 24.1345577,24.0630469 23.7217996,23.7292969 C23.149287,23.2664063 22.4564306,22.7470313 21.6615282,22.1847656 C22.1916977,22.0532813 22.7427455,21.9303516 23.2991889,21.8190234 C24.6749318,21.5441016 25.1890319,19.8446484 24.1996559,18.8539453 C23.5204056,18.1736719 23.1149198,17.02125 23.1149198,15.7712109 C23.1149198,14.0806641 24.0167944,12.1899609 25.223751,12.1899609 C26.4307076,12.1899609 27.3325822,14.0806641 27.3325822,15.7712109 C27.3325822,16.5775781 27.1656726,17.3411719 26.8562507,17.9742188 C25.368492,18.9651563 26.149319,21.3103125 27.946617,21.1919531 C29.3143838,21.1019531 30.645203,21.095625 32.1093857,21.1919531 C33.906449,21.3094922 34.6875107,18.9651563 33.1997519,17.9742188 C32.89033,17.3411719 32.7235377,16.5775781 32.7235377,15.7712109 C32.7235377,14.0806641 33.6254123,12.1899609 34.8323689,12.1899609 C36.0393255,12.1899609 36.9412001,14.0806641 36.9412001,15.7712109 C36.9412001,17.02125 36.5357143,18.1736719 35.856464,18.8539453 C34.8655632,19.8461719 35.3832994,21.5444531 36.756931,21.8190234 C37.3130225,21.9302344 37.8636011,22.0531641 38.3945917,22.1847656 C37.6002758,22.7465625 36.9070675,23.2662891 36.3343203,23.7292969 C35.9214449,24.0630469 35.6816957,24.5651953 35.6816957,25.0958203 C35.6816957,32.08875 39.8210056,33.2142188 39.8210056,38.7505078 C39.8210056,40.1796094 41.4452947,41.0128125 42.6075623,40.1776172 C43.3709125,39.6294141 45.6899347,40.3078125 45.5360448,41.8541016 C45.1303244,45.9212109 50.0713397,44.9302734 50.8114657,43.2930469 C55.8361117,32.1754688 47.715839,26.9064844 47.1766379,15.1828125 Z" id="Path" fill="#294A4A"></path>
                                    <path d="M47.1766379,15.1828125 C46.7315066,5.52539062 39.6214883,0.0001171875 30.0282359,0 L30.0282359,21.1223437 C30.7032636,21.1223437 31.3900208,21.1446094 32.1092684,21.1919531 C33.9063318,21.3094922 34.6873934,18.9651562 33.1996346,17.9742187 C32.8902127,17.3411719 32.7233031,16.5775781 32.7233031,15.7712109 C32.7233031,14.0806641 33.6251777,12.1899609 34.8321343,12.1899609 C36.0390909,12.1899609 36.9409655,14.0806641 36.9409655,15.7712109 C36.9409655,17.02125 36.5354797,18.1736719 35.8562294,18.8539453 C34.8653286,19.8461719 35.3830649,21.5444531 36.7566964,21.8190234 C37.3127879,21.9302344 37.8633666,22.0531641 38.3943571,22.1847656 C37.6000412,22.7465625 36.9068329,23.2662891 36.3340857,23.7292969 C35.9212103,24.0630469 35.6814611,24.5651953 35.6814611,25.0958203 C35.6814611,32.08875 39.820771,33.2142187 39.820771,38.7505078 C39.820771,40.1796094 41.4450601,41.0128125 42.6073277,40.1776172 C43.3706779,39.6294141 45.6897002,40.3078125 45.5358103,41.8541016 C45.1300899,45.9212109 50.0711051,44.9302734 50.8112311,43.2930469 C55.8361117,32.1754688 47.715839,26.9064844 47.1766379,15.1828125 Z" id="Path" fill="#1C2323"></path>
                                    <path d="M34.8322516,8.67421875 C32.774678,8.67421875 31.0084629,9.99996094 30.027884,12.0253125 C29.0473051,9.99996094 27.2810901,8.67421875 25.2235164,8.67421875 C22.1602629,8.67421875 19.5958613,11.7333984 19.5958613,15.7710937 C19.5958613,17.9636719 20.36578,19.9923047 21.7083286,21.3367969 C22.1224942,21.7515234 22.7179965,21.9345703 23.298016,21.8192578 C24.927466,21.4976953 26.2846764,21.3015234 28.1598577,21.1778906 C28.7005836,21.1423828 29.1948611,20.8598437 29.4995912,20.4120703 C29.6964108,20.1227344 29.8721174,19.8139453 30.0280013,19.4907422 C30.1838852,19.8139453 30.3595918,20.1227344 30.5564114,20.4120703 C30.8611415,20.8598437 31.3553017,21.1423828 31.8961449,21.1778906 C33.7825864,21.3022266 35.1048432,21.4979297 36.7579867,21.8192578 C37.3376543,21.9345703 37.9335084,21.7516406 38.347674,21.3367969 C39.6901054,19.9923047 40.4601413,17.9636719 40.4601413,15.7710937 C40.4599067,11.7031641 37.8735711,8.67421875 34.8322516,8.67421875 Z" id="Path" fill="#F7F7F7"></path>
                                    <path d="M34.8322516,8.67421875 C32.7749126,8.67421875 31.0089321,9.99972656 30.0282359,12.0246094 L30.0282359,19.4914453 C30.1840025,19.8144141 30.3595918,20.1229687 30.5562941,20.4119531 C30.8610242,20.8597266 31.3553017,21.1422656 31.8960276,21.1777734 C33.7824691,21.3021094 35.1047259,21.4978125 36.7578694,21.8191406 C37.337537,21.9344531 37.9333912,21.7515234 38.3475567,21.3366797 C39.6899881,19.9921875 40.460024,17.9635547 40.460024,15.7709766 C40.4599067,11.7031641 37.8735711,8.67421875 34.8322516,8.67421875 Z" id="Path" fill="#E0E0E0"></path>
                                    <path d="M21.2453687,40.7071875 C21.0592229,36.795 16.9178017,35.4221484 13.6562038,37.3024219 C12.2574713,38.1086719 11.3527816,39.3516797 11.0801901,40.7744531 C9.60275321,40.2186328 7.05899539,39.478125 5.03320846,41.5023047 C3.01621858,43.5175781 3.71775478,45.9855469 4.30352167,47.5432031 C0.833843978,48.2015625 -0.922635634,52.5004688 0.489468409,55.3600781 C1.18361508,56.7658594 2.54927064,57.61875 4.23607754,57.6998437 C9.43255943,57.9501563 12.7332163,59.9976563 16.1218437,59.9976563 C17.9901046,59.9976563 19.7495166,59.3398828 21.3994931,57.6191016 C26.1427505,52.7247656 21.6078075,48.2560547 21.2453687,40.7071875 Z" id="Path" fill="#FFD664"></path>
                                    <path d="M55.7522464,47.5432031 C56.3380133,45.9855469 57.0395494,43.5175781 55.0225596,41.5023047 C52.9968899,39.4783594 50.4528975,40.2186328 48.9755779,40.7744531 C48.7031037,39.3515625 47.7982967,38.1086719 46.3995642,37.3024219 C43.1332746,35.4196875 38.9961933,36.79875 38.8103994,40.7063672 C38.4444417,48.3239063 33.8473328,52.7551172 38.7733344,57.7376953 C40.4778527,59.44125 42.190347,59.9976563 43.9345108,59.9976563 C47.3233728,59.9976563 50.622974,57.9502734 55.8196905,57.6999609 L55.8195732,57.6999609 C57.5064974,57.6188672 58.872153,56.7659766 59.5662996,55.3601953 C60.9710141,52.5155859 59.2364685,48.2041406 55.7522464,47.5432031 Z" id="Path" fill="#FF9842"></path>
                                    <path d="M39.2463817,18.7736719 C33.1031015,17.25 27.1628576,17.1979688 20.8103247,18.7734375 C17.8879415,19.49625 17.1717435,23.319375 19.6278826,25.0538672 C21.9395153,26.6883984 22.5849849,27.3648047 23.6884881,28.543125 C25.1686228,30.1236328 26.6991939,31.7578125 30.027884,31.7578125 C33.3565742,31.7578125 34.8871453,30.1236328 36.3672799,28.543125 C37.4436882,27.3936328 38.0947879,26.7036328 40.4278854,25.0538672 C42.8841418,23.3179687 42.1673574,19.4961328 39.2463817,18.7736719 Z" id="Path" fill="#FFD664"></path>
                                    <path d="M39.2463817,18.7736719 C36.1484091,18.0052734 33.1019286,17.6117578 30.0282359,17.611875 L30.0282359,31.7578125 C33.3566915,31.7576953 34.8872626,30.1235156 36.3672799,28.543125 C37.4436882,27.3936328 38.0947879,26.7036328 40.4278854,25.0538672 C42.8841418,23.3179687 42.1673574,19.4961328 39.2463817,18.7736719 Z" id="Path" fill="#FF9842"></path>
                                    <ellipse id="Oval" fill="#1C2323" cx="35.0897122" cy="14.3917969" rx="1.84679609" ry="1.84511719"></ellipse>
                                    <ellipse id="Oval" fill="#294A4A" cx="24.9648828" cy="14.3917969" rx="1.84679609" ry="1.84511719"></ellipse>
                                </g>
                            </g>
                        </g>
                    </g>
                </g>
            </g>
        </g>
    </g>
</svg>