<?xml version="1.0" encoding="UTF-8"?>
<svg width="61px" height="60px" viewBox="0 0 61 60" version="1.1" xmlns="http://www.w3.org/2000/svg" xmlns:xlink="http://www.w3.org/1999/xlink">
    <!-- Generator: Sketch 53.2 (72643) - https://sketchapp.com -->
    <title>001-finder</title>
    <desc>Created with Sketch.</desc>
    <g id="Page-1" stroke="none" stroke-width="1" fill="none" fill-rule="evenodd">
        <g id="Desktop-HD" transform="translate(-939.000000, -2762.000000)" fill-rule="nonzero">
            <g id="Group-25" transform="translate(-31.000000, 2341.000000)">
                <g id="Group-24" transform="translate(0.364709, 0.000000)">
                    <g id="Download-Bar-Copy" transform="translate(900.000000, 421.000000)">
                        <g id="Group-22">
                            <g id="Group-23">
                                <g id="Group-21">
                                    <g id="001-finder" transform="translate(70.000000, 0.000000)">
                                        <path d="M60.0545951,9.38484375 L60.0545951,50.6348438 C60.0545951,51.6848437 59.2288444,52.5098438 58.177889,52.5098438 L34.0434486,52.5098438 C33.3303003,45.8348438 33.9683803,35.4473438 35.6574158,31.8848438 C35.6574158,31.8848438 27.9253867,31.8848438 24.3971793,31.8848438 C24.3971793,24.0473438 28.0379891,14.0723437 31.716333,7.50984375 L58.177889,7.50984375 C59.2288444,7.50984375 60.0545951,8.33484375 60.0545951,9.38484375 Z" id="Path" fill="#CFD8DC"></path>
                                        <path d="M34.0434486,52.5098438 L1.8767061,52.5098438 C0.825750682,52.5098438 0,51.6848437 0,50.6348438 L0,9.38484375 C0,8.33484375 0.825750682,7.50984375 1.8767061,7.50984375 L31.716333,7.50984375 C28.0379891,14.0723437 24.3971793,24.0473438 24.3971793,31.8848438 C27.9253867,31.8848438 35.6574158,31.8848438 35.6574158,31.8848438 C33.9683803,35.4473437 33.3303003,45.8348438 34.0434486,52.5098438 Z" id="Path" fill="#2196F3"></path>
                                        <g id="Group" transform="translate(11.260237, 0.000000)" fill="#455A64">
                                            <path d="M24.3483849,59.9910937 C23.8867152,59.9910937 23.4287989,59.8185937 23.0684713,59.4585937 C19.9306187,56.3235937 20.0657416,41.1473437 21.8298453,33.7598437 L13.1369427,33.7598437 C12.1010009,33.7598437 11.2602366,32.9198437 11.2602366,31.8848437 C11.2602366,20.5560937 18.3128981,5.31234375 23.0684713,0.55734375 C23.8003867,-0.17390625 24.9902184,-0.17390625 25.7221338,0.55734375 C26.4540491,1.28859375 26.4540491,2.47734375 25.7221338,3.20859375 C22.1789126,6.75234375 15.8093722,19.6935937 15.0812102,30.0098438 L24.3971793,30.0098438 C25.0390127,30.0098438 25.6358053,30.3360938 25.9811192,30.8760938 C26.3264331,31.4198437 26.3714741,32.0985938 26.097475,32.6760937 C23.7966333,37.5923438 23.8867152,54.7710938 25.7258872,56.8110938 C26.4090082,57.5648438 26.3939945,58.7610938 25.6545723,59.4585937 C25.2867379,59.8110937 24.813808,59.9910937 24.3483849,59.9910937 Z" id="Path"></path>
                                            <path d="M18.767061,45.0098438 C15.1938126,45.0098438 8.70416288,43.9935938 1.20859873,41.1360938 C0.24021838,40.7685938 -0.243971793,39.6848437 0.123862602,38.7173438 C0.491696997,37.7460938 1.57643312,37.2548438 2.54856688,37.6335938 C9.5749545,40.3110938 15.6780027,41.2598438 18.767061,41.2598438 C21.8561192,41.2598438 27.9591674,40.3110938 34.9893085,37.6335938 C35.950182,37.2585938 37.0424249,37.7423438 37.4102593,38.7173438 C37.7818471,39.6848437 37.297657,40.7685938 36.3255232,41.1360938 C28.8299591,43.9935938 22.3403094,45.0098438 18.767061,45.0098438 Z" id="Path"></path>
                                            <path d="M5.63011829,22.5098438 C4.59417652,22.5098438 3.75341219,21.6698438 3.75341219,20.6348438 L3.75341219,16.8848438 C3.75341219,15.8498438 4.59417652,15.0098437 5.63011829,15.0098437 C6.66606005,15.0098437 7.50682439,15.8498438 7.50682439,16.8848438 L7.50682439,20.6348438 C7.50682439,21.6698438 6.66606005,22.5098438 5.63011829,22.5098438 Z" id="Path"></path>
                                            <path d="M28.1505914,22.5098438 C27.1146497,22.5098438 26.2738854,21.6698438 26.2738854,20.6348438 L26.2738854,16.8848438 C26.2738854,15.8498438 27.1146497,15.0098437 28.1505914,15.0098437 C29.1865332,15.0098437 30.0272975,15.8498438 30.0272975,16.8848438 L30.0272975,20.6348438 C30.0272975,21.6698438 29.1865332,22.5098438 28.1505914,22.5098438 Z" id="Path"></path>
                                        </g>
                                    </g>
                                </g>
                            </g>
                        </g>
                    </g>
                </g>
            </g>
        </g>
    </g>
</svg>