<svg width="61" height="60" xmlns="http://www.w3.org/2000/svg"><g transform="translate(.365)" fill-rule="nonzero" fill="none"><path d="M39.2 25.096c0-1.473-1.713-2.294-2.862-1.37-3.387 2.724-3.484 4.516-6.31 4.516-2.827 0-2.893-1.768-6.31-4.516-1.148-.923-2.862-.105-2.862 1.37 0 5.807-4.14 6.928-4.14 13.654 0 .567.274 1.1.736 1.43.063.045.254.182.279.695.379 7.89 4.105 11.24 1.14 14.299a1.758 1.758 0 0 0 .506 2.809C22.065 59.265 25.947 60 30.027 60c4.084 0 7.967-.735 10.652-2.017a1.758 1.758 0 0 0 .505-2.81c-2.963-3.057.762-6.412 1.141-14.299.025-.512.216-.65.279-.694.462-.33.735-.863.735-1.43 0-6.715-4.139-7.858-4.139-13.654z" fill="#F7F7F7"/><path d="M39.2 25.096c0-1.473-1.713-2.294-2.862-1.37-3.387 2.724-3.484 4.516-6.31 4.516V60c4.084 0 7.966-.735 10.651-2.017a1.758 1.758 0 0 0 .505-2.81c-2.963-3.057.762-6.412 1.141-14.299.025-.512.216-.65.279-.694.462-.33.736-.863.736-1.43 0-6.715-4.14-7.858-4.14-13.654z" fill="#E0E0E0"/><path d="M47.177 15.183C46.732 5.525 39.62 0 30.027 0 20.434 0 13.325 5.527 12.88 15.183c-.539 11.718-8.658 16.996-3.634 28.11.746 1.65 5.68 2.621 5.275-1.439-.154-1.547 2.166-2.224 2.929-1.676 1.16.834 2.786.003 2.786-1.427 0-5.512 4.14-6.692 4.14-13.655 0-.53-.24-1.033-.653-1.367a40.83 40.83 0 0 0-2.06-1.544c.53-.132 1.08-.255 1.637-.366 1.376-.275 1.89-1.974.9-2.965-.679-.68-1.084-1.833-1.084-3.083 0-1.69.902-3.581 2.109-3.581 1.207 0 2.109 1.89 2.109 3.581 0 .807-.167 1.57-.477 2.203-1.488.991-.707 3.336 1.09 3.218a31.026 31.026 0 0 1 4.163 0c1.797.117 2.579-2.227 1.09-3.218-.309-.633-.475-1.396-.475-2.203 0-1.69.901-3.581 2.108-3.581s2.11 1.89 2.11 3.581c0 1.25-.406 2.403-1.086 3.083-.99.992-.473 2.69.9 2.965.557.111 1.108.234 1.639.366a40.85 40.85 0 0 0-2.06 1.544 1.757 1.757 0 0 0-.653 1.367c0 6.993 4.139 8.118 4.139 13.655 0 1.429 1.624 2.262 2.787 1.427.763-.549 3.082.13 2.928 1.676-.406 4.067 4.535 3.076 5.275 1.439 5.025-11.118-3.095-16.387-3.634-28.11z" fill="#294A4A"/><path d="M47.177 15.183C46.732 5.525 39.62 0 30.028 0v21.122c.675 0 1.362.023 2.081.07 1.797.117 2.578-2.227 1.09-3.218-.309-.633-.476-1.396-.476-2.203 0-1.69.902-3.581 2.11-3.581 1.206 0 2.108 1.89 2.108 3.581 0 1.25-.406 2.403-1.085 3.083-.99.992-.473 2.69.9 2.965.557.111 1.107.234 1.638.366a40.85 40.85 0 0 0-2.06 1.544 1.757 1.757 0 0 0-.653 1.367c0 6.993 4.14 8.118 4.14 13.655 0 1.429 1.624 2.262 2.786 1.427.764-.549 3.083.13 2.929 1.676-.406 4.067 4.535 3.076 5.275 1.439 5.025-11.118-3.095-16.387-3.634-28.11z" fill="#1C2323"/><path d="M34.832 8.674c-2.057 0-3.824 1.326-4.804 3.351-.98-2.025-2.747-3.35-4.804-3.35-3.064 0-5.628 3.058-5.628 7.096 0 2.193.77 4.221 2.112 5.566a1.76 1.76 0 0 0 1.59.482 35.107 35.107 0 0 1 4.862-.641 1.76 1.76 0 0 0 1.34-.766c.196-.29.372-.598.528-.921.156.323.332.632.528.921.305.448.8.73 1.34.766 1.887.124 3.209.32 4.862.641a1.76 1.76 0 0 0 1.59-.482c1.342-1.345 2.112-3.373 2.112-5.566 0-4.068-2.586-7.097-5.628-7.097z" fill="#F7F7F7"/><path d="M34.832 8.674c-2.057 0-3.823 1.326-4.804 3.35v7.467c.156.323.332.632.528.921.305.448.8.73 1.34.766 1.886.124 3.209.32 4.862.641a1.76 1.76 0 0 0 1.59-.482c1.342-1.345 2.112-3.373 2.112-5.566 0-4.068-2.586-7.097-5.628-7.097z" fill="#E0E0E0"/><path d="M21.245 40.707c-.186-3.912-4.327-5.285-7.589-3.405-1.399.807-2.303 2.05-2.576 3.472-1.477-.555-4.021-1.296-6.047.728-2.017 2.016-1.315 4.484-.73 6.041C.834 48.202-.922 52.5.49 55.36c.695 1.406 2.06 2.259 3.747 2.34 5.197.25 8.497 2.298 11.886 2.298 1.868 0 3.628-.658 5.277-2.379 4.744-4.894.209-9.363-.154-16.912z" fill="#FFD664"/><path d="M55.752 47.543c.586-1.557 1.288-4.025-.73-6.04-2.025-2.025-4.57-1.284-6.046-.729-.273-1.422-1.178-2.665-2.576-3.472-3.267-1.882-7.404-.503-7.59 3.404-.366 7.618-4.963 12.05-.037 17.032 1.705 1.703 3.417 2.26 5.162 2.26 3.388 0 6.688-2.048 11.885-2.298 1.686-.081 3.052-.934 3.746-2.34 1.405-2.844-.33-7.156-3.814-7.817z" fill="#FF9842"/><path d="M39.246 18.774c-6.143-1.524-12.083-1.576-18.436 0-2.922.722-3.638 4.545-1.182 6.28 2.312 1.634 2.957 2.31 4.06 3.49 1.48 1.58 3.011 3.214 6.34 3.214 3.329 0 4.86-1.634 6.34-3.215 1.076-1.15 1.727-1.84 4.06-3.49 2.456-1.735 1.74-5.557-1.182-6.28z" fill="#FFD664"/><path d="M39.246 18.774c-3.098-.769-6.144-1.162-9.218-1.162v14.146c3.329 0 4.86-1.634 6.34-3.215 1.076-1.15 1.727-1.84 4.06-3.49 2.456-1.735 1.74-5.557-1.182-6.28z" fill="#FF9842"/><ellipse fill="#1C2323" cx="35.09" cy="14.392" rx="1.847" ry="1.845"/><ellipse fill="#294A4A" cx="24.965" cy="14.392" rx="1.847" ry="1.845"/></g></svg>
