<?xml version="1.0" encoding="UTF-8"?>
<svg width="63px" height="60px" viewBox="0 0 63 60" version="1.1" xmlns="http://www.w3.org/2000/svg" xmlns:xlink="http://www.w3.org/1999/xlink">
    <!-- Generator: Sketch 53.2 (72643) - https://sketchapp.com -->
    <title>002-windows</title>
    <desc>Created with Sketch.</desc>
    <g id="Page-1" stroke="none" stroke-width="1" fill="none" fill-rule="evenodd">
        <g id="Desktop-HD" transform="translate(-1198.000000, -2762.000000)" fill-rule="nonzero">
            <g id="Group-25" transform="translate(-31.000000, 2341.000000)">
                <g id="Group-24" transform="translate(0.364709, 0.000000)">
                    <g id="Download-Bar-Copy" transform="translate(900.000000, 421.000000)">
                        <g id="Group-22">
                            <g id="Group-23">
                                <g id="Group-19" transform="translate(260.000000, 0.000000)">
                                    <g id="002-windows" transform="translate(69.000000, 0.000000)">
                                        <path d="M24.571362,4.84804878 L1.13542245,7.88939024 C0.482023569,7.97365854 -0.00537073615,8.53207317 -2.16847211e-16,9.1902439 L-2.16847211e-16,27.4015854 C-2.16847211e-16,28.12 0.582968996,28.702439 1.30203733,28.702439 L24.7379769,28.702439 C25.4570452,28.702439 26.0400142,28.12 26.0400142,27.4015854 L26.0400142,6.13585366 C26.039526,5.76219512 25.8782818,5.40682927 25.5972947,5.1602439 C25.3142325,4.91707317 24.9420648,4.80378049 24.571362,4.84804878 Z" id="Path" fill="#F44336"></path>
                                        <path d="M62.0532413,0.409756098 C61.7742072,0.158536585 61.4002086,0.04 61.0273086,0.0845121951 L29.7793892,4.15609756 C29.1261124,4.24036585 28.6385961,4.79878049 28.6440889,5.45695122 L28.6440889,27.4017073 C28.6440889,28.120122 29.2270579,28.702561 29.9461262,28.702561 L61.1940456,28.702561 C61.9131139,28.702561 62.4960829,28.120122 62.4960829,27.4017073 L62.4960829,1.38536585 C62.4954726,1.01170732 62.3341064,0.656341463 62.0532413,0.409756098 Z" id="Path" fill="#4CAF50"></path>
                                        <path d="M24.7379769,31.3040244 L1.30203733,31.3040244 C0.582968996,31.3040244 -6.84578804e-16,31.8864634 -6.84578804e-16,32.604878 L-6.84578804e-16,50.8162195 C-0.00537073615,51.4743902 0.482023569,52.0328049 1.13530038,52.1170732 L24.5712399,55.1713415 C24.6267782,55.175122 24.6824386,55.175122 24.7378548,55.1713415 C25.4569231,55.1713415 26.0398921,54.5889024 26.0398921,53.8704878 L26.0398921,32.604878 C26.0400142,31.8864634 25.4570452,31.3040244 24.7379769,31.3040244 Z" id="Path" fill="#2196F3"></path>
                                        <path d="M61.1939235,31.3040244 L29.9460041,31.3040244 C29.2269358,31.3040244 28.6439668,31.8864634 28.6439668,32.604878 L28.6439668,54.5496341 C28.6385961,55.2078049 29.1259904,55.7662195 29.7792672,55.8504878 L61.0271866,59.9220732 C61.0827249,59.9258537 61.1383852,59.9258537 61.1938015,59.9220732 C61.9128698,59.9220732 62.4958388,59.3396341 62.4958388,58.6212195 L62.4958388,58.6212195 L62.4958388,32.604878 C62.4958388,31.8864634 61.9129919,31.3040244 61.1939235,31.3040244 Z" id="Path" fill="#FFC107"></path>
                                    </g>
                                </g>
                            </g>
                        </g>
                    </g>
                </g>
            </g>
        </g>
    </g>
</svg>