<svg width="61" height="60" xmlns="http://www.w3.org/2000/svg"><g fill-rule="nonzero" fill="none"><path d="M60.42 9.385v41.25c0 1.05-.826 1.875-1.877 1.875H34.408c-.713-6.675-.075-17.063 1.614-20.625h-11.26c0-7.838 3.64-17.813 7.319-24.375h26.462c1.05 0 1.876.825 1.876 1.875z" fill="#CFD8DC"/><path d="M34.408 52.51H2.241a1.858 1.858 0 0 1-1.876-1.875V9.385c0-1.05.825-1.875 1.876-1.875h29.84c-3.678 6.562-7.32 16.537-7.32 24.375h11.261c-1.689 3.562-2.327 13.95-1.614 20.625z" fill="#2196F3"/><g fill="#455A64"><path d="M35.973 59.991c-.461 0-.92-.172-1.28-.532-3.137-3.135-3.002-18.312-1.238-25.7h-8.693a1.877 1.877 0 0 1-1.877-1.874c0-11.329 7.053-26.573 11.808-31.328a1.875 1.875 0 1 1 2.654 2.651c-3.543 3.544-9.913 16.486-10.64 26.802h9.315c.642 0 1.239.326 1.584.866.345.544.39 1.223.116 1.8-2.3 4.916-2.21 22.095-.371 24.135.683.754.668 1.95-.071 2.648-.368.352-.841.532-1.307.532z"/><path d="M30.392 45.01c-3.573 0-10.063-1.016-17.558-3.874a1.874 1.874 0 0 1-1.085-2.419 1.867 1.867 0 0 1 2.425-1.083C21.2 40.31 27.303 41.26 30.392 41.26c3.09 0 9.192-.949 16.222-3.626a1.867 1.867 0 0 1 2.421 1.083 1.868 1.868 0 0 1-1.085 2.42c-7.495 2.857-13.985 3.873-17.558 3.873zM17.255 22.51a1.877 1.877 0 0 1-1.877-1.875v-3.75a1.877 1.877 0 0 1 3.754 0v3.75c0 1.035-.841 1.875-1.877 1.875zM39.776 22.51a1.877 1.877 0 0 1-1.877-1.875v-3.75a1.877 1.877 0 0 1 3.753 0v3.75c0 1.035-.84 1.875-1.876 1.875z"/></g></g></svg>
