<?xml version="1.0" encoding="UTF-8"?>
<svg width="25px" height="30px" viewBox="0 0 25 30" version="1.1" xmlns="http://www.w3.org/2000/svg" xmlns:xlink="http://www.w3.org/1999/xlink">
    <!-- Generator: Sketch 53.2 (72643) - https://sketchapp.com -->
    <title>003-apple</title>
    <desc>Created with Sketch.</desc>
    <g id="Page-1" stroke="none" stroke-width="1" fill="none" fill-rule="evenodd">
        <g id="Desktop-HD" transform="translate(-746.000000, -828.000000)" fill="#72BD81" fill-rule="nonzero">
            <g id="Hero">
                <g id="Group-35" transform="translate(736.000000, 204.000000)">
                    <g id="Group-2" transform="translate(0.000000, 345.000000)">
                        <g id="Group-7">
                            <g id="Group-10" transform="translate(10.000000, 279.000000)">
                                <g id="003-apple">
                                    <path d="M1.35127869,11.0280984 C-1.18495082,15.4292459 0.427377049,22.1082295 3.23203279,26.1579344 C4.632,28.1825902 6.04937705,30 7.99072131,30 C8.02731148,30 8.064,29.9993115 8.10157377,29.9978361 C9.01367213,29.9614426 9.67278689,29.680623 10.3100656,29.4092459 C11.025541,29.1043279 11.7655082,28.789082 12.9261639,28.789082 C14.0303607,28.789082 14.7350164,29.0940984 15.416459,29.3889836 C16.0880656,29.679541 16.7798361,29.9801311 17.802,29.9609508 C19.9887541,29.9202295 21.331377,27.9591148 22.5159344,26.2290492 C23.7520328,24.4226557 24.3720984,22.6687869 24.5813115,21.9985574 L24.5897705,21.9719016 C24.6296066,21.8527869 24.5733443,21.7227541 24.4591475,21.6703279 C24.456,21.6688525 24.4443934,21.6640328 24.4411475,21.6626557 C24.0560656,21.5051803 20.6781639,20.0066557 20.6426557,15.9223279 C20.6097049,12.6040328 23.1767213,10.8468197 23.691541,10.5283279 L23.715541,10.513377 C23.7713115,10.4774754 23.8101639,10.4205246 23.8233443,10.3554098 C23.8365246,10.2903934 23.8227541,10.2227213 23.785377,10.1680328 C22.0135082,7.57504918 19.2977705,7.1842623 18.2043934,7.1372459 C18.0457377,7.12140984 17.8819672,7.11344262 17.7175082,7.11344262 C16.4333115,7.11344262 15.2031148,7.59845902 14.2147869,7.98816393 C13.5325574,8.25718033 12.9432787,8.4895082 12.5368525,8.4895082 C12.0801639,8.4895082 11.487541,8.25432787 10.8012787,7.98206557 C9.88357377,7.61783607 8.84340984,7.20511475 7.7422623,7.20511475 C7.716,7.20511475 7.69013115,7.20540984 7.66465574,7.20590164 C5.10432787,7.24357377 2.68504918,8.70836066 1.35127869,11.0280984 Z" id="XMLID_229_"></path>
                                    <path d="M18.2066557,0.000196721311 C16.6561967,0.0633442623 14.7962951,1.0177377 13.684623,2.31983607 C12.7398689,3.41429508 11.8169508,5.23908197 12.0600984,7.07842623 C12.0753443,7.1935082 12.1689836,7.28232787 12.2847541,7.29127869 C12.3894098,7.29944262 12.4962295,7.30357377 12.6026557,7.30367213 C14.1186885,7.30367213 15.7541311,6.46495082 16.8710164,5.11445902 C18.0465246,3.68842623 18.640918,1.85832787 18.4611148,0.21904918 C18.4469508,0.0905901639 18.3339344,-0.00481967213 18.2066557,0.000196721311 Z" id="XMLID_230_"></path>
                                </g>
                            </g>
                        </g>
                    </g>
                </g>
            </g>
        </g>
    </g>
</svg>