<?xml version="1.0" encoding="UTF-8"?>
<svg width="37px" height="50px" viewBox="0 0 37 50" version="1.1" xmlns="http://www.w3.org/2000/svg" xmlns:xlink="http://www.w3.org/1999/xlink">
    <!-- Generator: Sketch 53.2 (72643) - https://sketchapp.com -->
    <title>icon-onion</title>
    <desc>Created with Sketch.</desc>
    <g id="Page-1" stroke="none" stroke-width="1" fill="none" fill-rule="evenodd">
        <g id="Desktop-HD" transform="translate(-564.000000, -973.000000)" fill="#000000" fill-rule="nonzero">
            <g id="FEATTURES-Bar" transform="translate(170.000000, 941.000000)">
                <g id="Group-33" transform="translate(275.000000, 32.000000)">
                    <g id="icon-onion" transform="translate(119.000000, 0.000000)">
                        <path d="M36.77125,33.8891667 C36.7615625,29.6070833 34.7463542,25.5767708 31.32625,23 L25.77125,18.8333333 C24.3059375,17.7286458 23.4425,16.0016667 23.4379167,14.1666667 L23.4379167,13.3333333 L21.77125,13.3333333 L21.77125,12.5591667 C21.7658333,10.6067708 22.541875,8.73333333 23.92625,7.35666667 C25.2185417,6.07145833 25.9429167,4.32260417 25.9379167,2.5 L25.9379167,1.66666667 L25.1045833,1.66666667 C23.2819792,1.66166667 21.533125,2.38604167 20.2479167,3.67833333 C19.75875,4.1709375 19.3146875,4.70635417 18.92125,5.27833333 C18.3464583,4.06791667 17.5710417,2.9634375 16.6279167,2.01166667 C15.3427083,0.719375 13.5938542,-0.005 11.77125,3.70068695e-16 L10.9379167,3.70068695e-16 L10.9379167,0.833333333 C10.9329167,2.6559375 11.6572917,4.40479167 12.9495833,5.69 C14.3339583,7.06666667 15.11,8.94010417 15.1045833,10.8925 L15.1045833,13.3333333 L13.4379167,13.3333333 L13.4379167,14.1666667 C13.4333333,16.0016667 12.5698958,17.7286458 11.1045833,18.8333333 L5.54958333,23 C-0.462291667,27.505625 -1.68333333,36.031875 2.82239583,42.04375 C5.3403125,45.4034375 9.2684375,47.4120833 13.46625,47.4866667 C12.9097917,48.2065625 12.6067708,49.0901042 12.6045833,50 L14.27125,50 C14.2753125,48.8991667 15.0002083,47.9311458 16.0554167,47.6175 C15.9811458,47.8489583 15.9415625,48.0902083 15.9379167,48.3333333 L15.9379167,50 L17.6045833,50 L17.6045833,48.3333333 C17.6045833,47.873125 17.9777083,47.5 18.4379167,47.5 C18.898125,47.5 19.27125,47.873125 19.27125,48.3333333 L19.27125,50 L20.9379167,50 L20.9379167,48.3333333 C20.9342708,48.0902083 20.8946875,47.8489583 20.8204167,47.6175 C21.875625,47.9311458 22.6005208,48.8991667 22.6045833,50 L24.27125,50 C24.2679167,49.09 23.96375,48.2066667 23.40625,47.4875 C30.8202083,47.3486458 36.7608333,41.304375 36.77125,33.8891667 Z M21.42625,4.85666667 C22.1776042,4.10208333 23.1434375,3.59770833 24.1920833,3.4125 C24.006875,4.46114583 23.5025,5.42697917 22.7479167,6.17833333 C21.0497917,7.86677083 20.0979167,10.1644792 20.1045833,12.5591667 L20.1045833,10.4041667 C20.1045833,10.1208333 20.0929167,9.83833333 20.0729167,9.55666667 C20.06625,9.46583333 20.05375,9.37583333 20.0454167,9.28583333 C20.0270833,9.09416667 20.0079167,8.90333333 19.9804167,8.7125 C19.9645833,8.605 19.94375,8.49833333 19.9254167,8.39166667 C19.8954167,8.22 19.8654167,8.04916667 19.8279167,7.87833333 C19.8029167,7.7625 19.7729167,7.6475 19.7445833,7.53166667 C19.7195833,7.43166667 19.6995833,7.33083333 19.6720833,7.23083333 C20.1378125,6.35802083 20.72875,5.55822917 21.42625,4.85666667 Z M14.1279167,4.51166667 C13.3730208,3.760625 12.8686458,2.79458333 12.68375,1.74583333 C13.7323958,1.93104167 14.6982292,2.43541667 15.4495833,3.19 C17.3601042,5.10520833 18.4345833,7.69895833 18.4379167,10.4041667 L18.4379167,13.3333333 L16.77125,13.3333333 L16.77125,10.8925 C16.7780208,8.4978125 15.8261458,6.20010417 14.1279167,4.51166667 Z M1.77125,33.8891667 C1.77979167,30.1315625 3.54791667,26.5948958 6.54875,24.3333333 L12.10375,20.1666667 C13.7551042,18.9223958 14.8229167,17.054375 15.0570833,15 L15.06375,15 C14.8748958,17.6855208 13.7204167,20.211875 11.81375,22.1125 L7.96791667,25.9583333 C3.04572917,30.8714583 3.03833333,38.8445833 7.95145833,43.7667708 C8.40291667,44.2190625 8.888125,44.6363542 9.40291667,45.015 C4.809375,43.2335417 1.77927083,38.8161458 1.77125,33.8891667 Z M7.16260417,29.8464583 C7.68041667,28.8465625 8.34958333,27.9325 9.14625,27.1366667 L12.9920833,23.2908333 C15.2046875,21.0898958 16.5376042,18.1567708 16.7404167,15.0425 C16.5932292,18.9407292 15.4294792,22.7327083 13.3645833,26.0425 L11.7879167,28.5683333 C9.59927083,32.0583333 8.83270833,36.255 9.64625,40.2933333 C9.97010417,41.9021875 10.7316667,43.3904167 11.8470833,44.5941667 C6.48104167,41.8153125 4.38375,35.2125 7.16260417,29.8464583 Z M17.004375,45.6914583 C14.1145833,45.1136458 11.8557292,42.8547917 11.2779167,39.965 L11.2804167,39.9658333 C10.5503125,36.3452083 11.23625,32.5825 13.1970833,29.4525 L14.7745833,26.9291667 C16.7186458,23.8222917 17.9263542,20.3119792 18.3054167,16.6666667 L18.57125,16.6666667 C18.9494792,20.3113542 20.1560417,23.8213542 22.09875,26.9283333 L23.67625,29.4516667 C25.6370833,32.5816667 26.3230208,36.344375 25.5929167,39.965 C24.8026042,43.9180208 20.9572917,46.4817708 17.004375,45.6914583 Z M27.2295833,40.2933333 C28.043125,36.255 27.2765625,32.0583333 25.0879167,28.5683333 L23.5104167,26.045 C21.7375,23.201875 20.6257292,19.9969792 20.2570833,16.6666667 L20.3545833,16.6666667 C20.8419792,19.1772917 22.07,21.4844792 23.8804167,23.2908333 L27.72625,27.1366667 C32.00125,31.4076042 32.0044792,38.3355208 27.7335417,42.6105208 C26.9379167,43.406875 26.0241667,44.0757292 25.0245833,44.5933333 C26.1414583,43.3903125 26.9044792,41.9022917 27.2295833,40.2933333 Z M27.4729167,45.015 C33.0754167,40.894375 34.2766667,33.0122917 30.1561458,27.4097917 C29.7775,26.895 29.3602083,26.4097917 28.9079167,25.9583333 L25.0620833,22.1125 C23.1554167,20.211875 22.0009375,17.6855208 21.8120833,15 L21.81875,15 C22.0527083,17.0542708 23.1202083,18.9221875 24.77125,20.1666667 L30.32625,24.3333333 C35.6007292,28.2857292 36.6725,35.765625 32.72,41.0402083 C31.3782292,42.8308333 29.56,44.2082292 27.4729167,45.015 Z" id="Shape"></path>
                    </g>
                </g>
            </g>
        </g>
    </g>
</svg>