<?xml version="1.0" encoding="UTF-8"?>
<svg width="18px" height="18px" viewBox="0 0 18 18" version="1.1" xmlns="http://www.w3.org/2000/svg" xmlns:xlink="http://www.w3.org/1999/xlink">
    <!-- Generator: Sketch 53.2 (72643) - https://sketchapp.com -->
    <title>icon-wifi-signal</title>
    <desc>Created with Sketch.</desc>
    <g id="Page-1" stroke="none" stroke-width="1" fill="none" fill-rule="evenodd">
        <g id="Desktop-HD" transform="translate(-162.000000, -1867.000000)" fill="#A7F5A3" fill-rule="nonzero">
            <g id="Group-27" transform="translate(120.000000, 1235.000000)">
                <g id="Group-26" transform="translate(0.755366, 50.000000)">
                    <g id="Group-15" transform="translate(0.244634, 542.000000)">
                        <g id="Group-6" transform="translate(41.000000, 40.000000)">
                            <g id="icon-wifi-signal">
                                <path d="M2.5,18 C1.1214873,18 0,16.8785127 0,15.5 C0,14.1214873 1.1214873,13 2.5,13 C3.8785127,13 5,14.1214873 5,15.5 C5,16.8785127 3.8785127,18 2.5,18 Z" id="Path"></path>
                                <path d="M10.8000028,16 C10.1372869,16 9.6000055,15.4627186 9.6000055,14.8000028 C9.6000055,11.2710298 6.7290046,8.3999945 3.19999725,8.3999945 C2.53728142,8.3999945 2,7.86271308 2,7.19999725 C2,6.53728142 2.53728142,6 3.19999725,6 C5.55059486,6 7.7604268,6.91537216 9.42252732,8.57747268 C11.0846622,10.2395388 12,12.4494395 12,14.8000028 C12,15.4627186 11.4627186,16 10.8000028,16 Z" id="Path"></path>
                                <path d="M16.756101,17 C16.0691398,17 15.5122021,16.4430622 15.5122021,15.756101 C15.5122021,8.43994123 9.56005877,2.48779793 2.24389896,2.48779793 C1.55693777,2.48779793 1,1.93086015 1,1.24389896 C1,0.556937775 1.55693777,0 2.24389896,0 C4.37038217,0 6.43397381,0.416759067 8.37723411,1.23873223 C10.253612,2.03237747 11.9385358,3.16827398 13.3851131,4.61488689 C14.8317617,6.0614998 15.9676225,7.74635237 16.7612678,9.62276589 C17.5832053,11.5660262 18,13.6295466 18,15.756101 C18,16.4430622 17.4430622,17 16.756101,17 Z" id="Path"></path>
                            </g>
                        </g>
                    </g>
                </g>
            </g>
        </g>
    </g>
</svg>