<?xml version="1.0" encoding="UTF-8"?>
<svg width="54px" height="50px" viewBox="0 0 54 50" version="1.1" xmlns="http://www.w3.org/2000/svg" xmlns:xlink="http://www.w3.org/1999/xlink">
    <!-- Generator: Sketch 53.2 (72643) - https://sketchapp.com -->
    <title>icon-coinjoin</title>
    <desc>Created with Sketch.</desc>
    <g id="Page-1" stroke="none" stroke-width="1" fill="none" fill-rule="evenodd">
        <g id="Desktop-HD" transform="translate(-281.000000, -973.000000)" fill="#000000" fill-rule="nonzero">
            <g id="FEATTURES-Bar" transform="translate(170.000000, 941.000000)">
                <g id="Group-34" transform="translate(0.000000, 32.000000)">
                    <g id="icon-coinjoin" transform="translate(111.000000, 0.000000)">
                        <polygon id="Path" points="1.78571429 0 3.57142857 0 3.57142857 1.78571429 1.78571429 1.78571429"></polygon>
                        <polygon id="Path" points="1.78571429 8.92857143 3.57142857 8.92857143 3.57142857 10.7142857 1.78571429 10.7142857"></polygon>
                        <polygon id="Path" points="1.78571429 17.8571429 3.57142857 17.8571429 3.57142857 19.6428571 1.78571429 19.6428571"></polygon>
                        <polygon id="Path" points="36.6071429 0 51.7857143 0 51.7857143 1.78571429 36.6071429 1.78571429"></polygon>
                        <polygon id="Path" points="36.6071429 8.92857143 51.7857143 8.92857143 51.7857143 10.7142857 36.6071429 10.7142857"></polygon>
                        <polygon id="Path" points="36.6071429 17.8571429 51.7857143 17.8571429 51.7857143 19.6428571 36.6071429 19.6428571"></polygon>
                        <polygon id="Path" points="1.78571429 30.3571429 3.57142857 30.3571429 3.57142857 32.1428571 1.78571429 32.1428571"></polygon>
                        <polygon id="Path" points="1.78571429 39.2857143 3.57142857 39.2857143 3.57142857 41.0714286 1.78571429 41.0714286"></polygon>
                        <polygon id="Path" points="1.78571429 48.2142857 3.57142857 48.2142857 3.57142857 50 1.78571429 50"></polygon>
                        <polygon id="Path" points="36.6071429 30.3571429 51.7857143 30.3571429 51.7857143 32.1428571 36.6071429 32.1428571"></polygon>
                        <polygon id="Path" points="36.6071429 39.2857143 51.7857143 39.2857143 51.7857143 41.0714286 36.6071429 41.0714286"></polygon>
                        <polygon id="Path" points="36.6071429 48.2142857 51.7857143 48.2142857 51.7857143 50 36.6071429 50"></polygon>
                        <path d="M53.5714286,24.1071429 L50.7284982,24.1071429 C50.3513882,23.0407714 49.3451799,22.3262242 48.2142857,22.3214286 L44.6428571,22.3214286 C43.5119629,22.3262242 42.5057547,23.0407714 42.1286446,24.1071429 L40.9070696,24.1071429 C40.5299596,23.0407714 39.5237513,22.3262242 38.3928571,22.3214286 L34.8214286,22.3214286 C33.6905344,22.3262242 32.6843261,23.0407714 32.3072161,24.1071429 L31.0856411,24.1071429 C30.708531,23.0407714 29.7023228,22.3262242 28.5714286,22.3214286 L25,22.3214286 C23.8691058,22.3262242 22.8628975,23.0407714 22.4857875,24.1071429 L21.2642125,24.1071429 C20.8871025,23.0407714 19.8808942,22.3262242 18.75,22.3214286 L15.1785714,22.3214286 C14.0476772,22.3262242 13.041469,23.0407714 12.6643589,24.1071429 L11.4427839,24.1071429 C11.0656739,23.0407714 10.0594656,22.3262242 8.92857143,22.3214286 L5.35714286,22.3214286 C4.22624866,22.3262242 3.2200404,23.0407714 2.84293036,24.1071429 L0,24.1071429 L0,25.8928571 L2.84293036,25.8928571 C3.2200404,26.9592286 4.22624866,27.6737758 5.35714286,27.6785714 L8.92857143,27.6785714 C10.0594656,27.6737758 11.0656739,26.9592286 11.4427839,25.8928571 L12.6643589,25.8928571 C13.041469,26.9592286 14.0476772,27.6737758 15.1785714,27.6785714 L18.75,27.6785714 C19.8808942,27.6737758 20.8871025,26.9592286 21.2642125,25.8928571 L22.4857875,25.8928571 C22.8628975,26.9592286 23.8691058,27.6737758 25,27.6785714 L28.5714286,27.6785714 C29.7023228,27.6737758 30.708531,26.9592286 31.0856411,25.8928571 L32.3072161,25.8928571 C32.6843261,26.9592286 33.6905344,27.6737758 34.8214286,27.6785714 L38.3928571,27.6785714 C39.5237513,27.6737758 40.5299596,26.9592286 40.9070696,25.8928571 L42.1286446,25.8928571 C42.5057547,26.9592286 43.5119629,27.6737758 44.6428571,27.6785714 L48.2142857,27.6785714 C49.3451799,27.6737758 50.3513882,26.9592286 50.7284982,25.8928571 L53.5714286,25.8928571 L53.5714286,24.1071429 Z M5.35714286,25.8928571 L5.35714286,24.1071429 L8.92857143,24.1071429 L8.92857143,25.8928571 L5.35714286,25.8928571 Z M15.1785714,25.8928571 L15.1785714,24.1071429 L18.75,24.1071429 L18.75,25.8928571 L15.1785714,25.8928571 Z M25,25.8928571 L25,24.1071429 L28.5714286,24.1071429 L28.5714286,25.8928571 L25,25.8928571 Z M34.8214286,25.8928571 L34.8214286,24.1071429 L38.3928571,24.1071429 L38.3928571,25.8928571 L34.8214286,25.8928571 Z M44.6428571,25.8928571 L44.6428571,24.1071429 L48.2142857,24.1071429 L48.2142857,25.8928571 L44.6428571,25.8928571 Z" id="Shape"></path>
                        <path d="M34.8214286,19.6428571 L25,19.6428571 C24.557931,19.6428571 24.1825648,19.3193708 24.1171701,18.8820975 L21.5528215,1.78571429 L5.35714286,1.78571429 L5.35714286,0 L22.3214286,0 C22.7634975,0 23.1388637,0.323486384 23.2042585,0.760759598 L25.768607,17.8571429 L34.8214286,17.8571429 L34.8214286,19.6428571 Z" id="Path"></path>
                        <path d="M19.6428571,10.7142857 L5.35714286,10.7142857 L5.35714286,8.92857143 L19.2134312,8.92857143 L26.0886056,0.334821429 C26.2577602,0.122942188 26.5145437,0 26.7857143,0 L34.8214286,0 L34.8214286,1.78571429 L27.2142683,1.78571429 L20.3390939,10.3785924 C20.1699393,10.5904715 19.9140277,10.7138498 19.6428571,10.7142857 Z" id="Path"></path>
                        <path d="M20.5357143,19.6428571 L5.35714286,19.6428581 L5.35714286,17.8571429 L20.0705392,17.8571429 L26.0528565,9.30960513 C26.2198312,9.07069621 26.4936174,8.92813549 26.7857143,8.92857143 L34.8214286,8.92857043 L34.8214286,10.7142857 L27.2508894,10.7142857 L21.2685721,19.2626953 C21.1011614,19.5016044 20.8273751,19.6432931 20.5357143,19.6428571 Z" id="Path"></path>
                        <path d="M34.8214286,50 L25,50 C24.557931,50 24.1825648,49.6765136 24.1171701,49.2392404 L21.5528215,32.1428571 L5.35714286,32.1428571 L5.35714286,30.3571429 L22.3214286,30.3571429 C22.7634975,30.3571429 23.1388637,30.6806292 23.2042585,31.1179025 L25.768607,48.2142857 L34.8214286,48.2142857 L34.8214286,50 Z" id="Path"></path>
                        <path d="M19.6428571,41.0714286 L5.35714286,41.0714286 L5.35714286,39.2857143 L19.2134312,39.2857143 L26.0886056,30.6919643 C26.2577602,30.480085 26.5145437,30.3571429 26.7857143,30.3571429 L34.8214286,30.3571429 L34.8214286,32.1428571 L27.2142683,32.1428571 L20.3390939,40.7357353 C20.1699393,40.9476144 19.9140277,41.0709926 19.6428571,41.0714286 Z" id="Path"></path>
                        <path d="M20.5357143,50 L5.35714286,50.000001 L5.35714286,48.2142857 L20.0705392,48.2142857 L26.0528565,39.666748 C26.2198312,39.4278391 26.4936174,39.2852783 26.7857143,39.2857143 L34.8214286,39.2857133 L34.8214286,41.0714286 L27.2508894,41.0714286 L21.2685721,49.6198382 C21.1011614,49.8587472 20.8273751,50.0004359 20.5357143,50 Z" id="Path"></path>
                    </g>
                </g>
            </g>
        </g>
    </g>
</svg>