<svg width="14" height="14" xmlns="http://www.w3.org/2000/svg"><g fill="#FFF" fill-rule="nonzero"><path d="M11.555 6.989c-.32 0-.58.259-.58.578v4.39a.886.886 0 0 1-.884.885H2.042a.886.886 0 0 1-.884-.884v-8.05c0-.487.396-.884.884-.884h4.39a.579.579 0 0 0 0-1.157h-4.39A2.045 2.045 0 0 0 0 3.909v8.049C0 13.084.916 14 2.042 14h8.05a2.045 2.045 0 0 0 2.041-2.042v-4.39c0-.32-.259-.58-.578-.58zM13.416 0H8.984a.584.584 0 1 0 0 1.168h3.848v3.848a.584.584 0 1 0 1.168 0V.584A.584.584 0 0 0 13.416 0z"/><path d="M13.828.172a.587.587 0 0 0-.83 0l-8.16 8.16a.587.587 0 1 0 .83.83l8.16-8.16c.23-.23.23-.601 0-.83z"/></g></svg>
