<?xml version="1.0" encoding="UTF-8"?>
<svg width="26px" height="30px" viewBox="0 0 26 30" version="1.1" xmlns="http://www.w3.org/2000/svg" xmlns:xlink="http://www.w3.org/1999/xlink">
    <!-- Generator: Sketch 53.2 (72643) - https://sketchapp.com -->
    <title>002-linux</title>
    <desc>Created with Sketch.</desc>
    <g id="Page-1" stroke="none" stroke-width="1" fill="none" fill-rule="evenodd">
        <g id="Desktop-HD" transform="translate(-821.000000, -828.000000)" fill="#72BD81" fill-rule="nonzero">
            <g id="Hero">
                <g id="Group-35" transform="translate(736.000000, 204.000000)">
                    <g id="Group-2" transform="translate(0.000000, 345.000000)">
                        <g id="Group-7">
                            <g id="Group-10" transform="translate(10.000000, 279.000000)">
                                <g id="002-linux" transform="translate(75.000000, 0.000000)">
                                    <path d="M24.8517049,24.0873443 C23.9719672,23.7270492 23.5956393,23.248918 23.6320328,22.5355082 C23.6695082,21.7027869 23.197082,21.0928525 22.9727213,20.8518689 C23.1082623,20.3340984 23.5043607,18.5429508 22.9731148,16.9871803 C22.4022295,15.3219344 20.6592787,12.778623 18.8608525,10.2785902 C18.124623,9.25190164 18.0898033,8.13590164 18.0495738,6.84363934 C18.0110164,5.61108197 17.967541,4.21396721 17.2801967,2.66085246 C16.5328525,0.969737705 15.0332459,0 13.1656721,0 C12.0546885,0 10.9142951,0.347213115 10.0367213,0.95252459 C8.23967213,2.1927541 8.47721311,4.89678689 8.63439344,6.68606557 C8.65593443,6.93108197 8.67619672,7.16252459 8.688,7.36013115 C8.79265574,9.11252459 8.69744262,10.0361311 8.57291803,10.3168525 C8.49236066,10.5002951 8.09577049,11.0223934 7.67606557,11.5751803 C7.242,12.1468525 6.74990164,12.7948525 6.34652459,13.3986885 C5.8652459,14.1252787 5.47672131,15.2358689 5.10098361,16.3098689 C4.82606557,17.0957705 4.56639344,17.8380984 4.31360656,18.2817049 C3.8344918,19.135082 3.95370492,19.9308197 4.0532459,20.2985902 C3.87186885,20.4245902 3.60983607,20.6726557 3.38862295,21.1402623 C3.12127869,21.7107541 2.57881967,22.0173443 1.45081967,22.2342295 C0.932459016,22.3402623 0.575016393,22.5582295 0.388131148,22.8820328 C0.116163934,23.3532787 0.264295082,23.9454098 0.399442623,24.3500656 C0.599114754,24.9449508 0.474688525,25.3214754 0.248459016,26.005082 C0.196327869,26.1628525 0.137213115,26.3414754 0.0773114754,26.5384918 C-0.0170163934,26.8494098 0.0170163934,27.1320984 0.178229508,27.3786885 C0.604229508,28.0299344 1.84731148,28.2596066 3.12698361,28.4106885 C3.89104918,28.501377 4.72731148,28.8069836 5.53613115,29.1026557 C6.32862295,29.3922295 7.14806557,29.6917377 7.89295082,29.782623 C8.00616393,29.7968852 8.11829508,29.8040656 8.22639344,29.8040656 C9.35104918,29.8040656 9.85918033,29.0578033 10.0202951,28.7512131 C10.4242623,28.6687869 11.817541,28.4047869 13.2535082,28.369377 C14.6872131,28.328459 16.0743934,28.611541 16.4673443,28.6995738 C16.5908852,28.9360328 16.9165574,29.4761311 17.4357049,29.7543934 C17.7210492,29.9103934 18.1181311,29.9998033 18.5248525,29.9998033 C18.5249508,29.9998033 18.5248525,29.9998033 18.5249508,29.9998033 C18.9593115,29.9998033 19.7856393,29.8971148 20.4396393,29.209082 C21.0919672,28.5178033 22.7218033,27.6353115 23.9119672,26.9909508 C24.177541,26.8471475 24.426,26.7125902 24.6438689,26.5911148 C25.3124262,26.2204918 25.6772459,25.690918 25.6446885,25.1382295 C25.617541,24.6791803 25.3137049,24.2764918 24.8517049,24.0873443 Z M10.051377,23.9542623 C9.96816393,23.3680328 9.21403279,22.786623 8.34068852,22.1134426 C7.62659016,21.562918 6.81718033,20.9390164 6.59419672,20.410623 C6.13337705,19.3205902 6.49662295,17.4039344 7.12996721,16.4169836 C7.44295082,15.9228197 7.69859016,15.1734098 7.94586885,14.4486885 C8.21281967,13.6661311 8.48891803,12.8570164 8.79767213,12.5028197 C9.28662295,11.9498361 9.7384918,10.8738689 9.81855738,10.0259016 C10.2764262,10.4630164 10.9866885,11.0176721 11.6428525,11.0176721 C11.7438689,11.0176721 11.8419344,11.0044918 11.9356721,10.9780328 C12.3845902,10.8483934 13.0448852,10.4668525 13.6834426,10.098 C14.2339672,9.77990164 14.9128525,9.38763934 15.1682951,9.35193443 C15.6062951,9.98085246 18.151377,15.613082 18.4114426,17.4218361 C18.6172131,18.8529836 18.3998361,20.0360656 18.2905574,20.4994426 C18.202623,20.4874426 18.0977705,20.4777049 17.9876066,20.4777049 C17.2787213,20.4777049 17.0910492,20.8646557 17.0421639,21.0957049 C16.916459,21.696 16.9031803,23.6155082 16.9018033,24.0468197 C16.6454754,24.3724918 15.3491803,25.9061311 13.4880984,26.1818361 C12.7300328,26.292 12.0221311,26.3478689 11.3841639,26.3478689 C10.8388525,26.3478689 10.4908525,26.3057705 10.3463607,26.2838361 L9.41114754,25.2137705 C9.77990164,25.0317049 10.1485574,24.6475082 10.051377,23.9542623 Z M11.2380984,6.3097377 C11.2088852,6.32232787 11.1801639,6.33580328 11.1519344,6.35016393 C11.149082,6.28681967 11.1424918,6.22259016 11.1323607,6.15816393 C11.0302623,5.57045902 10.6405574,5.14386885 10.2059016,5.14386885 C10.1737377,5.14386885 10.141377,5.14632787 10.1058689,5.1517377 C9.84727869,5.19481967 9.64445902,5.38908197 9.53331148,5.6644918 C9.63078689,5.06016393 9.97318033,4.61272131 10.3794098,4.61272131 C10.856459,4.61272131 11.2594426,5.25560656 11.2594426,6.01652459 C11.2594426,6.11242623 11.252459,6.20783607 11.2380984,6.3097377 Z M14.944918,6.76288525 C14.9885902,6.62380328 15.0121967,6.47331148 15.0121967,6.31711475 C15.0121967,5.62721311 14.5744918,5.08672131 14.0157049,5.08672131 C13.4696066,5.08672131 13.0253115,5.63862295 13.0253115,6.31711475 C13.0253115,6.36334426 13.0275738,6.40967213 13.0319016,6.45590164 C13.0029836,6.44478689 12.9747541,6.43396721 12.9472131,6.42354098 C12.8843607,6.23321311 12.8525902,6.03462295 12.8525902,5.83190164 C12.8525902,5.00695082 13.3798033,4.3357377 14.028,4.3357377 C14.6760984,4.3357377 15.2034098,5.00695082 15.2034098,5.83190164 C15.2034098,6.17508197 15.1086885,6.50262295 14.944918,6.76288525 Z M14.4669836,8.36852459 C14.4576393,8.41022951 14.4377705,8.42872131 14.2180328,8.54301639 C14.107082,8.6007541 13.9689836,8.67265574 13.7961639,8.77790164 L13.6806885,8.84783607 C13.216623,9.12914754 12.1300328,9.78806557 11.8350492,9.82672131 C11.6346885,9.85367213 11.5107541,9.77596721 11.2320984,9.58662295 C11.1692459,9.54383607 11.1023607,9.49839344 11.0310492,9.45265574 C10.5287213,9.12304918 10.2056066,8.76 10.1691148,8.61806557 C10.3328852,8.49147541 10.7388197,8.17465574 10.9466557,7.98708197 C11.3685246,7.59481967 11.7930492,7.33121311 12.0031475,7.33121311 C12.0142623,7.33121311 12.0242951,7.332 12.0347213,7.33396721 C12.2816066,7.37754098 12.8905574,7.62059016 13.3353443,7.79803279 C13.540918,7.88006557 13.718459,7.95088525 13.843377,7.9957377 C14.236918,8.13088525 14.4420984,8.30380328 14.4669836,8.36852459 Z M18.0027541,26.7 C18.2247541,25.6985902 18.4804918,24.3362951 18.439082,23.5331803 C18.429541,23.3507213 18.4134098,23.1521311 18.3977705,22.9601311 C18.3685574,22.6011148 18.3251803,22.0675082 18.3699344,21.9092459 C18.3787869,21.9051148 18.388623,21.9015738 18.399541,21.8985246 C18.4014098,22.3576721 18.5011475,23.2735082 19.233541,23.5928852 C19.4518033,23.6880984 19.7012459,23.7362951 19.9748852,23.7362951 C20.7085574,23.7362951 21.5225902,23.3763934 21.8560328,23.0429508 C22.0523607,22.846623 22.2175082,22.6064262 22.3331803,22.4161967 C22.358459,22.4902623 22.374,22.5870492 22.3658361,22.7117705 C22.3222623,23.3889836 22.651377,24.2874098 23.2777377,24.6184918 L23.368918,24.6663934 C23.592,24.7834426 24.1845246,25.0945574 24.1940656,25.2420984 C24.1939672,25.2421967 24.1890492,25.2595082 24.156,25.2901967 C24.0075738,25.4258361 23.4851803,25.6925902 22.98,25.9505902 C22.0838361,26.4081639 21.0680656,26.9268197 20.6118689,27.406623 C19.9695738,28.0825574 19.243082,28.5365902 18.8043934,28.5365902 C18.7515738,28.5365902 18.7034754,28.5299016 18.6606885,28.5163279 C18.1842295,28.3678033 17.7920656,27.6803607 18.0027541,26.7 Z M1.76232787,24.1452787 C1.7137377,23.9178689 1.67537705,23.7383607 1.71659016,23.564459 C1.7464918,23.4356066 2.38259016,23.2975082 2.6542623,23.2385902 C3.03619672,23.1556721 3.43121311,23.07 3.6895082,22.9132131 C4.03878689,22.7016393 4.22793443,22.3114426 4.3947541,21.9671803 C4.51554098,21.7182295 4.6402623,21.4608197 4.78868852,21.3763279 C4.79704918,21.3714098 4.80983607,21.3657049 4.83422951,21.3657049 C5.11229508,21.3657049 5.69577049,21.9502623 6.03196721,22.4734426 C6.1172459,22.6053443 6.27521311,22.8696393 6.45796721,23.1756393 C7.00455738,24.0901967 7.75298361,25.3428197 8.14386885,25.762623 C8.49609836,26.1400328 9.06629508,26.8656393 8.92603279,27.4879672 C8.82334426,27.9708197 8.27665574,28.3634754 8.14770492,28.4503279 C8.10088525,28.4609508 8.04295082,28.4663607 7.97478689,28.4663607 C7.22665574,28.4663607 5.7457377,27.8439344 4.95009836,27.5095082 L4.83236066,27.4600328 C4.38806557,27.2737377 3.6627541,27.1563934 2.96134426,27.0428852 C2.4032459,26.9524918 1.63898361,26.8288525 1.51229508,26.7171148 C1.40960656,26.6019344 1.52872131,26.2274754 1.63377049,25.897082 C1.70940984,25.6596393 1.7875082,25.4141311 1.83029508,25.1571148 C1.89098361,24.7471475 1.81957377,24.4134098 1.76232787,24.1452787 Z" id="XMLID_92_"></path>
                                </g>
                            </g>
                        </g>
                    </g>
                </g>
            </g>
        </g>
    </g>
</svg>