<?xml version="1.0" encoding="UTF-8"?>
<svg width="14px" height="14px" viewBox="0 0 14 14" version="1.1" xmlns="http://www.w3.org/2000/svg" xmlns:xlink="http://www.w3.org/1999/xlink">
    <!-- Generator: Sketch 53.2 (72643) - https://sketchapp.com -->
    <title>external</title>
    <desc>Created with Sketch.</desc>
    <g id="Page-1" stroke="none" stroke-width="1" fill="none" fill-rule="evenodd">
        <g id="Desktop-HD" transform="translate(-778.000000, -2104.000000)" fill="#FFFFFF" fill-rule="nonzero">
            <g id="Group-27" transform="translate(120.000000, 1235.000000)">
                <g id="Group-26" transform="translate(0.755366, 50.000000)">
                    <g id="Group-15" transform="translate(0.244634, 542.000000)">
                        <g id="Group-12" transform="translate(0.000000, 104.000000)">
                            <g id="external" transform="translate(657.000000, 173.000000)">
                                <path d="M11.5545428,6.98867564 C11.2348674,6.98867564 10.9757522,7.24779151 10.9757522,7.56746755 L10.9757522,11.957773 C10.9757522,12.4455567 10.5788936,12.8424162 10.091083,12.8424162 L2.04222233,12.8424162 C1.55443973,12.8424162 1.15758115,12.4455567 1.15758115,11.957773 L1.15758115,3.90889371 C1.15758115,3.42110999 1.55443973,3.02425049 2.04222233,3.02425049 L6.43251761,3.02425049 C6.75216493,3.02425049 7.01130819,2.76510664 7.01130819,2.44545858 C7.01130819,2.12581052 6.75216493,1.86666667 6.43251761,1.86666667 L2.04222233,1.86666667 C0.916152553,1.86666667 0,2.78282133 0,3.90889371 L0,11.957773 C0,13.0838733 0.916152553,14 2.04222233,14 L10.091055,14 C11.2171528,14 12.1333053,13.0838733 12.1333333,11.957773 L12.1333333,7.56746755 C12.1333333,7.24779151 11.8742181,6.98867564 11.5545428,6.98867564 Z" id="Path"></path>
                                <path d="M13.4157716,0 L8.98422845,0 C8.66154971,0 8.4,0.261577962 8.4,0.584228447 C8.4,0.906878931 8.66154971,1.16845689 8.98422845,1.16845689 L12.8315431,1.16845689 L12.8315431,5.01577155 C12.8315431,5.33842204 13.0930928,5.6 13.4157716,5.6 C13.7384503,5.6 14,5.33842204 14,5.01577155 L14,0.584228447 C14,0.261577962 13.7384503,0 13.4157716,0 Z" id="Path"></path>
                                <path d="M13.8281361,0.171843368 C13.5989843,-0.0572811225 13.2274673,-0.0572811225 12.9983155,0.171843368 L4.83853053,8.33163715 C4.60937871,8.56079001 4.60937871,8.93230873 4.83853053,9.16146159 C4.95309225,9.27605221 5.10328783,9.33333333 5.25345504,9.33333333 C5.40365063,9.33333333 5.55381784,9.27602384 5.66837956,9.16146159 L13.8281361,1.00166781 C14.057288,0.772514951 14.057288,0.400996229 13.8281361,0.171843368 Z" id="Path"></path>
                            </g>
                        </g>
                    </g>
                </g>
            </g>
        </g>
    </g>
</svg>