<svg width="63" height="60" xmlns="http://www.w3.org/2000/svg"><g fill-rule="nonzero" fill="none"><path d="M24.936 4.848L1.5 7.889A1.301 1.301 0 0 0 .365 9.19v18.212c0 .718.583 1.3 1.302 1.3h23.436c.719 0 1.302-.582 1.302-1.3V6.136a1.3 1.3 0 0 0-.443-.976 1.332 1.332 0 0 0-1.026-.312z" fill="#00adef"/><path d="M62.418.41a1.303 1.303 0 0 0-1.026-.325L30.144 4.156a1.301 1.301 0 0 0-1.135 1.301v21.945c0 .718.583 1.3 1.302 1.3h31.248c.719 0 1.302-.582 1.302-1.3V1.385c0-.373-.162-.729-.443-.975z" fill="#00adef"/><path d="M25.103 31.304H1.667c-.72 0-1.302.582-1.302 1.3v18.212A1.301 1.301 0 0 0 1.5 52.117l23.436 3.054c.055.004.111.004.167 0 .719 0 1.302-.582 1.302-1.3V32.604c0-.719-.583-1.301-1.302-1.301z" fill="#00adef"/><path d="M61.559 31.304H30.31c-.72 0-1.302.582-1.302 1.3V54.55a1.301 1.301 0 0 0 1.135 1.3l31.248 4.072c.055.004.111.004.167 0 .719 0 1.302-.582 1.302-1.3V32.604c0-.719-.583-1.301-1.302-1.301z" fill="#00adef"/></g></svg>
