<svg width="709" height="840" xmlns="http://www.w3.org/2000/svg"><g fill="none" fill-rule="evenodd"><g transform="translate(0 390)"><rect fill="#B6ECF3" width="179.382" height="59.298" rx="4"/><path d="M55.211 36v-2.769h-4.28v-1.265l4.86-7.18h1.45v6.767h1.495v1.696h-1.494V36h-2.03zm-2.197-4.395h2.268v-3.348l-2.268 3.348zm12.876 4.632c-.223 0-.43-.054-.62-.162a1.176 1.176 0 0 1-.448-.449 1.231 1.231 0 0 1 0-1.221 1.231 1.231 0 0 1 1.67-.44 1.215 1.215 0 0 1 .44 1.661 1.196 1.196 0 0 1-1.042.611zm13.025-6.214c.522.182.961.512 1.319.99.357.477.536 1.09.536 1.84 0 .65-.15 1.241-.453 1.772-.301.53-.737.949-1.305 1.256-.568.308-1.242.462-2.021.462-1.536 0-2.704-.504-3.507-1.512l.835-1.679.009-.008.008.017c.264.51.608.876 1.033 1.099.425.222.971.334 1.64.334.55 0 .98-.166 1.287-.497.307-.33.461-.772.461-1.323 0-.603-.168-1.053-.505-1.349-.337-.296-.907-.444-1.71-.444a9.37 9.37 0 0 0-.94.053v-1.626c.088.006.214.009.378.009.926 0 1.569-.15 1.93-.448.36-.3.54-.715.54-1.248 0-.434-.128-.785-.383-1.055-.255-.27-.613-.404-1.076-.404-.405 0-.778.07-1.121.21-.343.141-.702.384-1.077.73l-1.133-1.16c.427-.51.925-.89 1.494-1.138a4.483 4.483 0 0 1 1.82-.374c.685 0 1.293.13 1.823.391s.943.619 1.24 1.073c.295.454.443.962.443 1.525 0 .603-.154 1.123-.462 1.56-.307.436-.675.751-1.103.944zm-4.587 3.12a.274.274 0 0 1-.036-.114c0-.011.006-.017.018-.017.012 0 .035.009.07.026l-.052.106zm.254-.017c0 .006-.002.009-.008.009-.018 0-.049-.013-.093-.04a1.645 1.645 0 0 0-.1-.057l.008-.026.185.088.008.026zm21.455-8.34h3.4c1.313 0 2.295.258 2.945.777.65.519.976 1.226.976 2.123 0 .45-.123.89-.37 1.318a2.545 2.545 0 0 1-.992.984c.345.164.654.391.927.681.272.29.486.613.641.967.156.355.233.71.233 1.068 0 1.025-.364 1.831-1.094 2.417-.73.586-1.824.879-3.283.879h-3.383V24.785zm3.243 4.376c.72 0 1.242-.123 1.564-.369.322-.246.484-.58.484-1.002 0-.24-.07-.461-.207-.664-.138-.202-.347-.363-.628-.483-.282-.12-.627-.18-1.038-.18H98.05v2.698h1.23zm.334 5.124c.674 0 1.188-.124 1.542-.373.355-.25.532-.67.532-1.262 0-.562-.189-1.012-.567-1.349-.378-.337-.974-.505-1.789-.505H98.05v3.49h1.565zM109.967 36v-9.466h-3.04v-1.749h8.26v1.75h-3.163V36h-2.057zm12.929-1.292c.762 0 1.438-.524 2.03-1.573l1.53.993c-.422.72-.944 1.267-1.565 1.64-.621.371-1.33.557-2.127.557-.844 0-1.6-.217-2.267-.65-.668-.434-1.196-1.091-1.583-1.973-.386-.882-.58-1.965-.58-3.248 0-1.389.225-2.528.673-3.419.448-.89 1.02-1.536 1.714-1.938a4.348 4.348 0 0 1 2.21-.602c.85 0 1.585.226 2.206.677.621.451 1.102 1.078 1.442 1.88l-1.46.713-.017.008v-.008c-.223-.616-.519-1.043-.888-1.284-.369-.24-.779-.36-1.23-.36-.867 0-1.51.375-1.93 1.125-.418.75-.628 1.79-.628 3.12 0 .815.104 1.551.312 2.21.208.66.501 1.18.88 1.56.377.382.803.572 1.278.572zm1.995-7.058c0-.017.009-.026.026-.026.018 0 .044.025.08.075.035.05.058.08.07.092l-.088.044-.088-.185zm.255.246c0 .012-.009.006-.026-.017a.579.579 0 0 1-.053-.088l.035-.018.044.123z" fill="#000" fill-rule="nonzero" opacity=".75"/></g><g transform="translate(529 390)"><rect fill="#A8ECA4" width="179.382" height="59.298" rx="4"/><path d="M62.594 34.523c1.447-1.388 2.486-2.414 3.116-3.076.63-.662 1.11-1.279 1.441-1.85.331-.571.497-1.156.497-1.753 0-.475-.15-.851-.448-1.13-.3-.278-.7-.417-1.204-.417-.305 0-.595.035-.87.105a3.15 3.15 0 0 0-.695.255c-.187.1-.305.194-.351.281-.235.422-.352.654-.352.695 0 .006.003.009.009.009a.397.397 0 0 0 .052-.036.208.208 0 0 1 .066-.035c.02-.006.034.006.04.035l-.097.176-.14-.079-1.336-1.01c.433-.698.965-1.233 1.595-1.605a4.078 4.078 0 0 1 2.114-.558c.668 0 1.268.14 1.801.418.534.278.951.666 1.253 1.164.302.498.453 1.07.453 1.714a3.96 3.96 0 0 1-.453 1.837 8.293 8.293 0 0 1-1.187 1.705c-.489.55-1.208 1.3-2.157 2.25l-.721.712h3.665c.193 0 .335-.01.426-.03a.523.523 0 0 0 .242-.128h.202V36h-6.96v-1.477zm22.193-9.738h3.4c1.313 0 2.295.26 2.945.778.65.519.976 1.226.976 2.123 0 .45-.123.89-.37 1.318a2.545 2.545 0 0 1-.992.984c.345.164.654.391.927.681.272.29.486.613.641.967.156.355.233.71.233 1.068 0 1.025-.364 1.831-1.094 2.417-.73.586-1.824.879-3.283.879h-3.383V24.785zm3.243 4.377c.72 0 1.242-.123 1.564-.369.322-.246.484-.58.484-1.002 0-.24-.07-.461-.207-.664-.138-.202-.347-.363-.628-.483-.282-.12-.627-.18-1.038-.18H86.8v2.698h1.23zm.334 5.124c.674 0 1.188-.124 1.542-.373.355-.25.532-.67.532-1.262 0-.562-.189-1.012-.567-1.349-.378-.337-.974-.505-1.789-.505H86.8v3.49h1.565zM98.717 36v-9.466h-3.04v-1.749h8.26v1.75h-3.163V36h-2.057zm12.929-1.292c.762 0 1.438-.524 2.03-1.573l1.53.993c-.422.72-.944 1.267-1.565 1.64-.621.371-1.33.557-2.127.557-.844 0-1.6-.217-2.267-.65-.668-.434-1.196-1.091-1.583-1.973-.386-.882-.58-1.965-.58-3.248 0-1.389.225-2.528.673-3.419.448-.89 1.02-1.536 1.714-1.938a4.348 4.348 0 0 1 2.21-.602c.85 0 1.585.226 2.206.677.621.451 1.102 1.078 1.442 1.88l-1.46.713-.017.008v-.008c-.223-.616-.519-1.043-.888-1.284-.369-.24-.779-.36-1.23-.36-.867 0-1.51.375-1.93 1.125-.418.75-.628 1.79-.628 3.12 0 .815.104 1.551.312 2.21.208.66.501 1.18.88 1.56.377.382.803.572 1.278.572zm1.995-7.058c0-.017.009-.026.026-.026.018 0 .044.025.08.075.035.05.058.08.07.092l-.088.044-.088-.185zm.255.246c0 .012-.009.006-.026-.017a.579.579 0 0 1-.053-.088l.035-.018.044.123z" fill="#000" fill-rule="nonzero" opacity=".75"/></g><g transform="translate(529 468)"><rect fill="#A8ECA4" width="179.382" height="59.298" rx="4"/><path d="M62.594 34.523c1.447-1.388 2.486-2.414 3.116-3.076.63-.662 1.11-1.279 1.441-1.85.331-.571.497-1.156.497-1.753 0-.475-.15-.851-.448-1.13-.3-.278-.7-.417-1.204-.417-.305 0-.595.035-.87.105a3.15 3.15 0 0 0-.695.255c-.187.1-.305.194-.351.281-.235.422-.352.654-.352.695 0 .006.003.009.009.009a.397.397 0 0 0 .052-.036.208.208 0 0 1 .066-.035c.02-.006.034.006.04.035l-.097.176-.14-.079-1.336-1.01c.433-.698.965-1.233 1.595-1.605a4.078 4.078 0 0 1 2.114-.558c.668 0 1.268.14 1.801.418.534.278.951.666 1.253 1.164.302.498.453 1.07.453 1.714a3.96 3.96 0 0 1-.453 1.837 8.293 8.293 0 0 1-1.187 1.705c-.489.55-1.208 1.3-2.157 2.25l-.721.712h3.665c.193 0 .335-.01.426-.03a.523.523 0 0 0 .242-.128h.202V36h-6.96v-1.477zm22.193-9.738h3.4c1.313 0 2.295.26 2.945.778.65.519.976 1.226.976 2.123 0 .45-.123.89-.37 1.318a2.545 2.545 0 0 1-.992.984c.345.164.654.391.927.681.272.29.486.613.641.967.156.355.233.71.233 1.068 0 1.025-.364 1.831-1.094 2.417-.73.586-1.824.879-3.283.879h-3.383V24.785zm3.243 4.377c.72 0 1.242-.123 1.564-.369.322-.246.484-.58.484-1.002 0-.24-.07-.461-.207-.664-.138-.202-.347-.363-.628-.483-.282-.12-.627-.18-1.038-.18H86.8v2.698h1.23zm.334 5.124c.674 0 1.188-.124 1.542-.373.355-.25.532-.67.532-1.262 0-.562-.189-1.012-.567-1.349-.378-.337-.974-.505-1.789-.505H86.8v3.49h1.565zM98.717 36v-9.466h-3.04v-1.749h8.26v1.75h-3.163V36h-2.057zm12.929-1.292c.762 0 1.438-.524 2.03-1.573l1.53.993c-.422.72-.944 1.267-1.565 1.64-.621.371-1.33.557-2.127.557-.844 0-1.6-.217-2.267-.65-.668-.434-1.196-1.091-1.583-1.973-.386-.882-.58-1.965-.58-3.248 0-1.389.225-2.528.673-3.419.448-.89 1.02-1.536 1.714-1.938a4.348 4.348 0 0 1 2.21-.602c.85 0 1.585.226 2.206.677.621.451 1.102 1.078 1.442 1.88l-1.46.713-.017.008v-.008c-.223-.616-.519-1.043-.888-1.284-.369-.24-.779-.36-1.23-.36-.867 0-1.51.375-1.93 1.125-.418.75-.628 1.79-.628 3.12 0 .815.104 1.551.312 2.21.208.66.501 1.18.88 1.56.377.382.803.572 1.278.572zm1.995-7.058c0-.017.009-.026.026-.026.018 0 .044.025.08.075.035.05.058.08.07.092l-.088.044-.088-.185zm.255.246c0 .012-.009.006-.026-.017a.579.579 0 0 1-.053-.088l.035-.018.044.123z" fill="#000" fill-rule="nonzero" opacity=".75"/></g><g transform="translate(529 546)"><rect fill="#A8ECA4" width="179.382" height="59.298" rx="4"/><path d="M62.594 34.523c1.447-1.388 2.486-2.414 3.116-3.076.63-.662 1.11-1.279 1.441-1.85.331-.571.497-1.156.497-1.753 0-.475-.15-.851-.448-1.13-.3-.278-.7-.417-1.204-.417-.305 0-.595.035-.87.105a3.15 3.15 0 0 0-.695.255c-.187.1-.305.194-.351.281-.235.422-.352.654-.352.695 0 .006.003.009.009.009a.397.397 0 0 0 .052-.036.208.208 0 0 1 .066-.035c.02-.006.034.006.04.035l-.097.176-.14-.079-1.336-1.01c.433-.698.965-1.233 1.595-1.605a4.078 4.078 0 0 1 2.114-.558c.668 0 1.268.14 1.801.418.534.278.951.666 1.253 1.164.302.498.453 1.07.453 1.714a3.96 3.96 0 0 1-.453 1.837 8.293 8.293 0 0 1-1.187 1.705c-.489.55-1.208 1.3-2.157 2.25l-.721.712h3.665c.193 0 .335-.01.426-.03a.523.523 0 0 0 .242-.128h.202V36h-6.96v-1.477zm22.193-9.738h3.4c1.313 0 2.295.26 2.945.778.65.519.976 1.226.976 2.123 0 .45-.123.89-.37 1.318a2.545 2.545 0 0 1-.992.984c.345.164.654.391.927.681.272.29.486.613.641.967.156.355.233.71.233 1.068 0 1.025-.364 1.831-1.094 2.417-.73.586-1.824.879-3.283.879h-3.383V24.785zm3.243 4.377c.72 0 1.242-.123 1.564-.369.322-.246.484-.58.484-1.002 0-.24-.07-.461-.207-.664-.138-.202-.347-.363-.628-.483-.282-.12-.627-.18-1.038-.18H86.8v2.698h1.23zm.334 5.124c.674 0 1.188-.124 1.542-.373.355-.25.532-.67.532-1.262 0-.562-.189-1.012-.567-1.349-.378-.337-.974-.505-1.789-.505H86.8v3.49h1.565zM98.717 36v-9.466h-3.04v-1.749h8.26v1.75h-3.163V36h-2.057zm12.929-1.292c.762 0 1.438-.524 2.03-1.573l1.53.993c-.422.72-.944 1.267-1.565 1.64-.621.371-1.33.557-2.127.557-.844 0-1.6-.217-2.267-.65-.668-.434-1.196-1.091-1.583-1.973-.386-.882-.58-1.965-.58-3.248 0-1.389.225-2.528.673-3.419.448-.89 1.02-1.536 1.714-1.938a4.348 4.348 0 0 1 2.21-.602c.85 0 1.585.226 2.206.677.621.451 1.102 1.078 1.442 1.88l-1.46.713-.017.008v-.008c-.223-.616-.519-1.043-.888-1.284-.369-.24-.779-.36-1.23-.36-.867 0-1.51.375-1.93 1.125-.418.75-.628 1.79-.628 3.12 0 .815.104 1.551.312 2.21.208.66.501 1.18.88 1.56.377.382.803.572 1.278.572zm1.995-7.058c0-.017.009-.026.026-.026.018 0 .044.025.08.075.035.05.058.08.07.092l-.088.044-.088-.185zm.255.246c0 .012-.009.006-.026-.017a.579.579 0 0 1-.053-.088l.035-.018.044.123z" fill="#000" fill-rule="nonzero" opacity=".75"/></g><g transform="translate(0 468)"><rect fill="#F5B3CF" width="179.382" height="59.298" rx="4"/><path d="M51.344 34.523c1.447-1.388 2.486-2.414 3.116-3.076.63-.662 1.11-1.279 1.441-1.85.331-.571.497-1.156.497-1.753 0-.475-.15-.851-.448-1.13-.3-.278-.7-.417-1.204-.417-.305 0-.595.035-.87.105a3.15 3.15 0 0 0-.695.255c-.187.1-.305.194-.351.281-.235.422-.352.654-.352.695 0 .006.003.009.009.009a.397.397 0 0 0 .052-.036.208.208 0 0 1 .066-.035c.02-.006.034.006.04.035l-.097.176-.14-.079-1.336-1.01c.433-.698.965-1.233 1.595-1.605a4.078 4.078 0 0 1 2.114-.558c.668 0 1.268.14 1.801.418.534.278.951.666 1.253 1.164.302.498.453 1.07.453 1.714a3.96 3.96 0 0 1-.453 1.837 8.293 8.293 0 0 1-1.187 1.705c-.489.55-1.208 1.3-2.157 2.25l-.721.712h3.665c.193 0 .335-.01.426-.03a.523.523 0 0 0 .242-.128h.202V36h-6.96v-1.477zm14.546 1.714c-.223 0-.43-.054-.62-.162a1.176 1.176 0 0 1-.448-.449 1.231 1.231 0 0 1 0-1.221 1.231 1.231 0 0 1 1.67-.44 1.215 1.215 0 0 1 .44 1.661 1.196 1.196 0 0 1-1.042.611zm7.954-1.714c1.447-1.388 2.486-2.414 3.116-3.076.63-.662 1.11-1.279 1.441-1.85.331-.571.497-1.156.497-1.753 0-.475-.15-.851-.448-1.13-.3-.278-.7-.417-1.204-.417-.305 0-.595.035-.87.105a3.15 3.15 0 0 0-.695.255c-.187.1-.305.194-.351.281-.235.422-.352.654-.352.695 0 .006.003.009.009.009a.397.397 0 0 0 .052-.036.208.208 0 0 1 .066-.035c.02-.006.034.006.04.035l-.097.176-.14-.079-1.336-1.01c.433-.698.965-1.233 1.595-1.605a4.078 4.078 0 0 1 2.114-.558c.668 0 1.268.14 1.801.418.534.278.951.666 1.253 1.164.302.498.453 1.07.453 1.714a3.96 3.96 0 0 1-.453 1.837 8.293 8.293 0 0 1-1.187 1.705c-.489.55-1.208 1.3-2.157 2.25l-.721.712h3.665c.193 0 .335-.01.426-.03a.523.523 0 0 0 .242-.128h.202V36h-6.96v-1.477zm22.193-9.738h3.4c1.313 0 2.295.26 2.945.778.65.519.976 1.226.976 2.123 0 .45-.123.89-.37 1.318a2.545 2.545 0 0 1-.992.984c.345.164.654.391.927.681.272.29.486.613.641.967.156.355.233.71.233 1.068 0 1.025-.364 1.831-1.094 2.417-.73.586-1.824.879-3.283.879h-3.383V24.785zm3.243 4.377c.72 0 1.242-.123 1.564-.369.322-.246.484-.58.484-1.002 0-.24-.07-.461-.207-.664-.138-.202-.347-.363-.628-.483-.282-.12-.627-.18-1.038-.18H98.05v2.698h1.23zm.334 5.124c.674 0 1.188-.124 1.542-.373.355-.25.532-.67.532-1.262 0-.562-.189-1.012-.567-1.349-.378-.337-.974-.505-1.789-.505H98.05v3.49h1.565zM109.967 36v-9.466h-3.04v-1.749h8.26v1.75h-3.163V36h-2.057zm12.929-1.292c.762 0 1.438-.524 2.03-1.573l1.53.993c-.422.72-.944 1.267-1.565 1.64-.621.371-1.33.557-2.127.557-.844 0-1.6-.217-2.267-.65-.668-.434-1.196-1.091-1.583-1.973-.386-.882-.58-1.965-.58-3.248 0-1.389.225-2.528.673-3.419.448-.89 1.02-1.536 1.714-1.938a4.348 4.348 0 0 1 2.21-.602c.85 0 1.585.226 2.206.677.621.451 1.102 1.078 1.442 1.88l-1.46.713-.017.008v-.008c-.223-.616-.519-1.043-.888-1.284-.369-.24-.779-.36-1.23-.36-.867 0-1.51.375-1.93 1.125-.418.75-.628 1.79-.628 3.12 0 .815.104 1.551.312 2.21.208.66.501 1.18.88 1.56.377.382.803.572 1.278.572zm1.995-7.058c0-.017.009-.026.026-.026.018 0 .044.025.08.075.035.05.058.08.07.092l-.088.044-.088-.185zm.255.246c0 .012-.009.006-.026-.017a.579.579 0 0 1-.053-.088l.035-.018.044.123z" fill="#000" fill-rule="nonzero" opacity=".75"/></g><g transform="translate(529 624)"><rect fill="#CCC5FF" width="179.382" height="59.298" rx="4"/><path d="M54.816 24.574c.814 0 1.512.232 2.092.695.58.462 1.024 1.135 1.331 2.017.308.881.462 1.938.462 3.168 0 1.23-.154 2.287-.462 3.169-.307.881-.751 1.555-1.331 2.021-.58.466-1.278.699-2.092.699-.815 0-1.512-.233-2.092-.699-.58-.466-1.024-1.14-1.331-2.021-.308-.882-.462-1.938-.462-3.169 0-1.23.154-2.287.462-3.168.307-.882.751-1.555 1.331-2.017.58-.463 1.277-.695 2.092-.695zm0 1.617c-.41 0-.762.169-1.055.506-.293.337-.517.824-.672 1.463-.155.639-.233 1.403-.233 2.294 0 .457.023.905.07 1.345l3.472-4.122c-.164-.48-.381-.848-.65-1.103a1.316 1.316 0 0 0-.932-.383zm0 8.535c.41 0 .762-.17 1.055-.51.293-.34.517-.83.672-1.468.155-.639.233-1.403.233-2.294 0-.527-.027-1.005-.08-1.433l-3.489 4.149c.165.504.383.89.655 1.156.273.266.59.4.954.4zm11.074 1.511c-.223 0-.43-.054-.62-.162a1.176 1.176 0 0 1-.448-.449 1.231 1.231 0 0 1 0-1.221 1.231 1.231 0 0 1 1.67-.44 1.215 1.215 0 0 1 .44 1.661 1.196 1.196 0 0 1-1.042.611zM76.578 36v-8.93l-1.925.58-.484-1.23 3.041-1.635h1.345V36h-1.977zm19.459-11.215h3.4c1.313 0 2.295.26 2.945.778.65.519.976 1.226.976 2.123 0 .45-.123.89-.37 1.318a2.545 2.545 0 0 1-.992.984c.345.164.654.391.927.681.272.29.486.613.641.967.156.355.233.71.233 1.068 0 1.025-.364 1.831-1.094 2.417-.73.586-1.824.879-3.283.879h-3.383V24.785zm3.243 4.377c.72 0 1.242-.123 1.564-.369.322-.246.484-.58.484-1.002 0-.24-.07-.461-.207-.664-.138-.202-.347-.363-.628-.483-.282-.12-.627-.18-1.038-.18H98.05v2.698h1.23zm.334 5.124c.674 0 1.188-.124 1.542-.373.355-.25.532-.67.532-1.262 0-.562-.189-1.012-.567-1.349-.378-.337-.974-.505-1.789-.505H98.05v3.49h1.565zM109.967 36v-9.466h-3.04v-1.749h8.26v1.75h-3.163V36h-2.057zm12.929-1.292c.762 0 1.438-.524 2.03-1.573l1.53.993c-.422.72-.944 1.267-1.565 1.64-.621.371-1.33.557-2.127.557-.844 0-1.6-.217-2.267-.65-.668-.434-1.196-1.091-1.583-1.973-.386-.882-.58-1.965-.58-3.248 0-1.389.225-2.528.673-3.419.448-.89 1.02-1.536 1.714-1.938a4.348 4.348 0 0 1 2.21-.602c.85 0 1.585.226 2.206.677.621.451 1.102 1.078 1.442 1.88l-1.46.713-.017.008v-.008c-.223-.616-.519-1.043-.888-1.284-.369-.24-.779-.36-1.23-.36-.867 0-1.51.375-1.93 1.125-.418.75-.628 1.79-.628 3.12 0 .815.104 1.551.312 2.21.208.66.501 1.18.88 1.56.377.382.803.572 1.278.572zm1.995-7.058c0-.017.009-.026.026-.026.018 0 .044.025.08.075.035.05.058.08.07.092l-.088.044-.088-.185zm.255.246c0 .012-.009.006-.026-.017a.579.579 0 0 1-.053-.088l.035-.018.044.123z" fill="#000" fill-rule="nonzero" opacity=".75"/></g><g transform="translate(529 702)"><rect fill="#F5B3CF" width="179.382" height="59.298" rx="4"/><path d="M54.816 24.574c.814 0 1.512.232 2.092.695.58.462 1.024 1.135 1.331 2.017.308.881.462 1.938.462 3.168 0 1.23-.154 2.287-.462 3.169-.307.881-.751 1.555-1.331 2.021-.58.466-1.278.699-2.092.699-.815 0-1.512-.233-2.092-.699-.58-.466-1.024-1.14-1.331-2.021-.308-.882-.462-1.938-.462-3.169 0-1.23.154-2.287.462-3.168.307-.882.751-1.555 1.331-2.017.58-.463 1.277-.695 2.092-.695zm0 1.617c-.41 0-.762.169-1.055.506-.293.337-.517.824-.672 1.463-.155.639-.233 1.403-.233 2.294 0 .457.023.905.07 1.345l3.472-4.122c-.164-.48-.381-.848-.65-1.103a1.316 1.316 0 0 0-.932-.383zm0 8.535c.41 0 .762-.17 1.055-.51.293-.34.517-.83.672-1.468.155-.639.233-1.403.233-2.294 0-.527-.027-1.005-.08-1.433l-3.489 4.149c.165.504.383.89.655 1.156.273.266.59.4.954.4zm11.074 1.511c-.223 0-.43-.054-.62-.162a1.176 1.176 0 0 1-.448-.449 1.231 1.231 0 0 1 0-1.221 1.231 1.231 0 0 1 1.67-.44 1.215 1.215 0 0 1 .44 1.661 1.196 1.196 0 0 1-1.042.611zm7.954-1.714c1.447-1.388 2.486-2.414 3.116-3.076.63-.662 1.11-1.279 1.441-1.85.331-.571.497-1.156.497-1.753 0-.475-.15-.851-.448-1.13-.3-.278-.7-.417-1.204-.417-.305 0-.595.035-.87.105a3.15 3.15 0 0 0-.695.255c-.187.1-.305.194-.351.281-.235.422-.352.654-.352.695 0 .006.003.009.009.009a.397.397 0 0 0 .052-.036.208.208 0 0 1 .066-.035c.02-.006.034.006.04.035l-.097.176-.14-.079-1.336-1.01c.433-.698.965-1.233 1.595-1.605a4.078 4.078 0 0 1 2.114-.558c.668 0 1.268.14 1.801.418.534.278.951.666 1.253 1.164.302.498.453 1.07.453 1.714a3.96 3.96 0 0 1-.453 1.837 8.293 8.293 0 0 1-1.187 1.705c-.489.55-1.208 1.3-2.157 2.25l-.721.712h3.665c.193 0 .335-.01.426-.03a.523.523 0 0 0 .242-.128h.202V36h-6.96v-1.477zm22.193-9.738h3.4c1.313 0 2.295.26 2.945.778.65.519.976 1.226.976 2.123 0 .45-.123.89-.37 1.318a2.545 2.545 0 0 1-.992.984c.345.164.654.391.927.681.272.29.486.613.641.967.156.355.233.71.233 1.068 0 1.025-.364 1.831-1.094 2.417-.73.586-1.824.879-3.283.879h-3.383V24.785zm3.243 4.377c.72 0 1.242-.123 1.564-.369.322-.246.484-.58.484-1.002 0-.24-.07-.461-.207-.664-.138-.202-.347-.363-.628-.483-.282-.12-.627-.18-1.038-.18H98.05v2.698h1.23zm.334 5.124c.674 0 1.188-.124 1.542-.373.355-.25.532-.67.532-1.262 0-.562-.189-1.012-.567-1.349-.378-.337-.974-.505-1.789-.505H98.05v3.49h1.565zM109.967 36v-9.466h-3.04v-1.749h8.26v1.75h-3.163V36h-2.057zm12.929-1.292c.762 0 1.438-.524 2.03-1.573l1.53.993c-.422.72-.944 1.267-1.565 1.64-.621.371-1.33.557-2.127.557-.844 0-1.6-.217-2.267-.65-.668-.434-1.196-1.091-1.583-1.973-.386-.882-.58-1.965-.58-3.248 0-1.389.225-2.528.673-3.419.448-.89 1.02-1.536 1.714-1.938a4.348 4.348 0 0 1 2.21-.602c.85 0 1.585.226 2.206.677.621.451 1.102 1.078 1.442 1.88l-1.46.713-.017.008v-.008c-.223-.616-.519-1.043-.888-1.284-.369-.24-.779-.36-1.23-.36-.867 0-1.51.375-1.93 1.125-.418.75-.628 1.79-.628 3.12 0 .815.104 1.551.312 2.21.208.66.501 1.18.88 1.56.377.382.803.572 1.278.572zm1.995-7.058c0-.017.009-.026.026-.026.018 0 .044.025.08.075.035.05.058.08.07.092l-.088.044-.088-.185zm.255.246c0 .012-.009.006-.026-.017a.579.579 0 0 1-.053-.088l.035-.018.044.123z" fill="#000" fill-rule="nonzero" opacity=".75"/></g><g transform="translate(529 780)"><rect fill="#B6ECF3" width="179.382" height="59.298" rx="4"/><path d="M54.816 24.574c.814 0 1.512.232 2.092.695.58.462 1.024 1.135 1.331 2.017.308.881.462 1.938.462 3.168 0 1.23-.154 2.287-.462 3.169-.307.881-.751 1.555-1.331 2.021-.58.466-1.278.699-2.092.699-.815 0-1.512-.233-2.092-.699-.58-.466-1.024-1.14-1.331-2.021-.308-.882-.462-1.938-.462-3.169 0-1.23.154-2.287.462-3.168.307-.882.751-1.555 1.331-2.017.58-.463 1.277-.695 2.092-.695zm0 1.617c-.41 0-.762.169-1.055.506-.293.337-.517.824-.672 1.463-.155.639-.233 1.403-.233 2.294 0 .457.023.905.07 1.345l3.472-4.122c-.164-.48-.381-.848-.65-1.103a1.316 1.316 0 0 0-.932-.383zm0 8.535c.41 0 .762-.17 1.055-.51.293-.34.517-.83.672-1.468.155-.639.233-1.403.233-2.294 0-.527-.027-1.005-.08-1.433l-3.489 4.149c.165.504.383.89.655 1.156.273.266.59.4.954.4zm11.074 1.511c-.223 0-.43-.054-.62-.162a1.176 1.176 0 0 1-.448-.449 1.231 1.231 0 0 1 0-1.221 1.231 1.231 0 0 1 1.67-.44 1.215 1.215 0 0 1 .44 1.661 1.196 1.196 0 0 1-1.042.611zm13.025-6.214c.522.182.961.512 1.319.99.357.477.536 1.09.536 1.84 0 .65-.15 1.241-.453 1.772-.301.53-.737.949-1.305 1.256-.568.308-1.242.462-2.021.462-1.536 0-2.704-.504-3.507-1.512l.835-1.679.009-.008.008.017c.264.51.608.876 1.033 1.099.425.222.971.334 1.64.334.55 0 .98-.166 1.287-.497.307-.33.461-.772.461-1.323 0-.603-.168-1.053-.505-1.349-.337-.296-.907-.444-1.71-.444a9.37 9.37 0 0 0-.94.053v-1.626c.088.006.214.009.378.009.926 0 1.569-.15 1.93-.448.36-.3.54-.715.54-1.248 0-.434-.128-.785-.383-1.055-.255-.27-.613-.404-1.076-.404-.405 0-.778.07-1.121.21-.343.141-.702.384-1.077.73l-1.133-1.16c.427-.51.925-.89 1.494-1.138a4.483 4.483 0 0 1 1.82-.374c.685 0 1.293.13 1.823.391s.943.619 1.24 1.073c.295.454.443.962.443 1.525 0 .603-.154 1.123-.462 1.56-.307.436-.675.751-1.103.944zm-4.587 3.12a.274.274 0 0 1-.036-.114c0-.011.006-.017.018-.017.012 0 .035.009.07.026l-.052.106zm.254-.017c0 .006-.002.009-.008.009-.018 0-.049-.013-.093-.04a1.645 1.645 0 0 0-.1-.057l.008-.026.185.088.008.026zm21.455-8.34h3.4c1.313 0 2.295.258 2.945.777.65.519.976 1.226.976 2.123 0 .45-.123.89-.37 1.318a2.545 2.545 0 0 1-.992.984c.345.164.654.391.927.681.272.29.486.613.641.967.156.355.233.71.233 1.068 0 1.025-.364 1.831-1.094 2.417-.73.586-1.824.879-3.283.879h-3.383V24.785zm3.243 4.376c.72 0 1.242-.123 1.564-.369.322-.246.484-.58.484-1.002 0-.24-.07-.461-.207-.664-.138-.202-.347-.363-.628-.483-.282-.12-.627-.18-1.038-.18H98.05v2.698h1.23zm.334 5.124c.674 0 1.188-.124 1.542-.373.355-.25.532-.67.532-1.262 0-.562-.189-1.012-.567-1.349-.378-.337-.974-.505-1.789-.505H98.05v3.49h1.565zM109.967 36v-9.466h-3.04v-1.749h8.26v1.75h-3.163V36h-2.057zm12.929-1.292c.762 0 1.438-.524 2.03-1.573l1.53.993c-.422.72-.944 1.267-1.565 1.64-.621.371-1.33.557-2.127.557-.844 0-1.6-.217-2.267-.65-.668-.434-1.196-1.091-1.583-1.973-.386-.882-.58-1.965-.58-3.248 0-1.389.225-2.528.673-3.419.448-.89 1.02-1.536 1.714-1.938a4.348 4.348 0 0 1 2.21-.602c.85 0 1.585.226 2.206.677.621.451 1.102 1.078 1.442 1.88l-1.46.713-.017.008v-.008c-.223-.616-.519-1.043-.888-1.284-.369-.24-.779-.36-1.23-.36-.867 0-1.51.375-1.93 1.125-.418.75-.628 1.79-.628 3.12 0 .815.104 1.551.312 2.21.208.66.501 1.18.88 1.56.377.382.803.572 1.278.572zm1.995-7.058c0-.017.009-.026.026-.026.018 0 .044.025.08.075.035.05.058.08.07.092l-.088.044-.088-.185zm.255.246c0 .012-.009.006-.026-.017a.579.579 0 0 1-.053-.088l.035-.018.044.123z" fill="#000" fill-rule="nonzero" opacity=".75"/></g><g transform="translate(0 312)"><rect fill="#CCC5FF" width="179.382" height="59.298" rx="4"/><path d="M55.106 28.477c.709 0 1.327.155 1.854.465.528.31.935.76 1.222 1.345.287.586.43 1.283.43 2.092 0 .78-.152 1.468-.456 2.065a3.367 3.367 0 0 1-1.301 1.398c-.563.334-1.219.5-1.969.5-1.652 0-2.856-.708-3.612-2.126l1.494-1.143.018-.009.008.018c.159.305.32.561.484.77.164.207.372.377.624.509s.556.198.914.198c.346 0 .653-.084.923-.25.27-.168.483-.415.641-.744.159-.328.238-.73.238-1.204 0-.697-.159-1.24-.475-1.63-.316-.39-.735-.585-1.257-.585-.357 0-.674.087-.95.26-.274.173-.547.447-.816.822l-1.292-.554.413-5.889h6.029V26.5h-4.263l-.15 2.17c.44-.128.856-.192 1.249-.192zm-2.32 4.587a.298.298 0 0 1-.044-.105c0-.018.026.006.079.07l-.035.035zm.237.08c0 .023-.009.035-.026.035-.018 0-.049-.022-.093-.066l-.083-.084.079-.052.123.167zm12.867 3.093c-.223 0-.43-.054-.62-.162a1.176 1.176 0 0 1-.448-.449 1.231 1.231 0 0 1 0-1.221 1.231 1.231 0 0 1 1.67-.44 1.215 1.215 0 0 1 .44 1.661 1.196 1.196 0 0 1-1.042.611zM76.578 36v-8.93l-1.925.58-.484-1.23 3.041-1.635h1.345V36h-1.977zm19.459-11.215h3.4c1.313 0 2.295.26 2.945.778.65.519.976 1.226.976 2.123 0 .45-.123.89-.37 1.318a2.545 2.545 0 0 1-.992.984c.345.164.654.391.927.681.272.29.486.613.641.967.156.355.233.71.233 1.068 0 1.025-.364 1.831-1.094 2.417-.73.586-1.824.879-3.283.879h-3.383V24.785zm3.243 4.377c.72 0 1.242-.123 1.564-.369.322-.246.484-.58.484-1.002 0-.24-.07-.461-.207-.664-.138-.202-.347-.363-.628-.483-.282-.12-.627-.18-1.038-.18H98.05v2.698h1.23zm.334 5.124c.674 0 1.188-.124 1.542-.373.355-.25.532-.67.532-1.262 0-.562-.189-1.012-.567-1.349-.378-.337-.974-.505-1.789-.505H98.05v3.49h1.565zM109.967 36v-9.466h-3.04v-1.749h8.26v1.75h-3.163V36h-2.057zm12.929-1.292c.762 0 1.438-.524 2.03-1.573l1.53.993c-.422.72-.944 1.267-1.565 1.64-.621.371-1.33.557-2.127.557-.844 0-1.6-.217-2.267-.65-.668-.434-1.196-1.091-1.583-1.973-.386-.882-.58-1.965-.58-3.248 0-1.389.225-2.528.673-3.419.448-.89 1.02-1.536 1.714-1.938a4.348 4.348 0 0 1 2.21-.602c.85 0 1.585.226 2.206.677.621.451 1.102 1.078 1.442 1.88l-1.46.713-.017.008v-.008c-.223-.616-.519-1.043-.888-1.284-.369-.24-.779-.36-1.23-.36-.867 0-1.51.375-1.93 1.125-.418.75-.628 1.79-.628 3.12 0 .815.104 1.551.312 2.21.208.66.501 1.18.88 1.56.377.382.803.572 1.278.572zm1.995-7.058c0-.017.009-.026.026-.026.018 0 .044.025.08.075.035.05.058.08.07.092l-.088.044-.088-.185zm.255.246c0 .012-.009.006-.026-.017a.579.579 0 0 1-.053-.088l.035-.018.044.123z" fill="#000" fill-rule="nonzero" opacity=".75"/></g><g transform="translate(529 78)"><rect fill="#A8ECA4" width="179.382" height="59.298" rx="4"/><path d="M65.328 36v-8.93l-1.925.58-.484-1.23 3.041-1.635h1.345V36h-1.977zm19.459-11.215h3.4c1.313 0 2.295.26 2.945.778.65.519.976 1.226.976 2.123 0 .45-.123.89-.37 1.318a2.545 2.545 0 0 1-.992.984c.345.164.654.391.927.681.272.29.486.613.641.967.156.355.233.71.233 1.068 0 1.025-.364 1.831-1.094 2.417-.73.586-1.824.879-3.283.879h-3.383V24.785zm3.243 4.377c.72 0 1.242-.123 1.564-.369.322-.246.484-.58.484-1.002 0-.24-.07-.461-.207-.664-.138-.202-.347-.363-.628-.483-.282-.12-.627-.18-1.038-.18H86.8v2.698h1.23zm.334 5.124c.674 0 1.188-.124 1.542-.373.355-.25.532-.67.532-1.262 0-.562-.189-1.012-.567-1.349-.378-.337-.974-.505-1.789-.505H86.8v3.49h1.565zM98.717 36v-9.466h-3.04v-1.749h8.26v1.75h-3.163V36h-2.057zm12.929-1.292c.762 0 1.438-.524 2.03-1.573l1.53.993c-.422.72-.944 1.267-1.565 1.64-.621.371-1.33.557-2.127.557-.844 0-1.6-.217-2.267-.65-.668-.434-1.196-1.091-1.583-1.973-.386-.882-.58-1.965-.58-3.248 0-1.389.225-2.528.673-3.419.448-.89 1.02-1.536 1.714-1.938a4.348 4.348 0 0 1 2.21-.602c.85 0 1.585.226 2.206.677.621.451 1.102 1.078 1.442 1.88l-1.46.713-.017.008v-.008c-.223-.616-.519-1.043-.888-1.284-.369-.24-.779-.36-1.23-.36-.867 0-1.51.375-1.93 1.125-.418.75-.628 1.79-.628 3.12 0 .815.104 1.551.312 2.21.208.66.501 1.18.88 1.56.377.382.803.572 1.278.572zm1.995-7.058c0-.017.009-.026.026-.026.018 0 .044.025.08.075.035.05.058.08.07.092l-.088.044-.088-.185zm.255.246c0 .012-.009.006-.026-.017a.579.579 0 0 1-.053-.088l.035-.018.044.123z" fill="#000" fill-rule="nonzero" opacity=".75"/></g><g transform="translate(529)"><rect fill="#A8ECA4" width="179.382" height="59.298" rx="4"/><path d="M65.328 36v-8.93l-1.925.58-.484-1.23 3.041-1.635h1.345V36h-1.977zm19.459-11.215h3.4c1.313 0 2.295.26 2.945.778.65.519.976 1.226.976 2.123 0 .45-.123.89-.37 1.318a2.545 2.545 0 0 1-.992.984c.345.164.654.391.927.681.272.29.486.613.641.967.156.355.233.71.233 1.068 0 1.025-.364 1.831-1.094 2.417-.73.586-1.824.879-3.283.879h-3.383V24.785zm3.243 4.377c.72 0 1.242-.123 1.564-.369.322-.246.484-.58.484-1.002 0-.24-.07-.461-.207-.664-.138-.202-.347-.363-.628-.483-.282-.12-.627-.18-1.038-.18H86.8v2.698h1.23zm.334 5.124c.674 0 1.188-.124 1.542-.373.355-.25.532-.67.532-1.262 0-.562-.189-1.012-.567-1.349-.378-.337-.974-.505-1.789-.505H86.8v3.49h1.565zM98.717 36v-9.466h-3.04v-1.749h8.26v1.75h-3.163V36h-2.057zm12.929-1.292c.762 0 1.438-.524 2.03-1.573l1.53.993c-.422.72-.944 1.267-1.565 1.64-.621.371-1.33.557-2.127.557-.844 0-1.6-.217-2.267-.65-.668-.434-1.196-1.091-1.583-1.973-.386-.882-.58-1.965-.58-3.248 0-1.389.225-2.528.673-3.419.448-.89 1.02-1.536 1.714-1.938a4.348 4.348 0 0 1 2.21-.602c.85 0 1.585.226 2.206.677.621.451 1.102 1.078 1.442 1.88l-1.46.713-.017.008v-.008c-.223-.616-.519-1.043-.888-1.284-.369-.24-.779-.36-1.23-.36-.867 0-1.51.375-1.93 1.125-.418.75-.628 1.79-.628 3.12 0 .815.104 1.551.312 2.21.208.66.501 1.18.88 1.56.377.382.803.572 1.278.572zm1.995-7.058c0-.017.009-.026.026-.026.018 0 .044.025.08.075.035.05.058.08.07.092l-.088.044-.088-.185zm.255.246c0 .012-.009.006-.026-.017a.579.579 0 0 1-.053-.088l.035-.018.044.123z" fill="#000" fill-rule="nonzero" opacity=".75"/></g><g transform="translate(529 156)"><rect fill="#A8ECA4" width="179.382" height="59.298" rx="4"/><path d="M65.328 36v-8.93l-1.925.58-.484-1.23 3.041-1.635h1.345V36h-1.977zm19.459-11.215h3.4c1.313 0 2.295.26 2.945.778.65.519.976 1.226.976 2.123 0 .45-.123.89-.37 1.318a2.545 2.545 0 0 1-.992.984c.345.164.654.391.927.681.272.29.486.613.641.967.156.355.233.71.233 1.068 0 1.025-.364 1.831-1.094 2.417-.73.586-1.824.879-3.283.879h-3.383V24.785zm3.243 4.377c.72 0 1.242-.123 1.564-.369.322-.246.484-.58.484-1.002 0-.24-.07-.461-.207-.664-.138-.202-.347-.363-.628-.483-.282-.12-.627-.18-1.038-.18H86.8v2.698h1.23zm.334 5.124c.674 0 1.188-.124 1.542-.373.355-.25.532-.67.532-1.262 0-.562-.189-1.012-.567-1.349-.378-.337-.974-.505-1.789-.505H86.8v3.49h1.565zM98.717 36v-9.466h-3.04v-1.749h8.26v1.75h-3.163V36h-2.057zm12.929-1.292c.762 0 1.438-.524 2.03-1.573l1.53.993c-.422.72-.944 1.267-1.565 1.64-.621.371-1.33.557-2.127.557-.844 0-1.6-.217-2.267-.65-.668-.434-1.196-1.091-1.583-1.973-.386-.882-.58-1.965-.58-3.248 0-1.389.225-2.528.673-3.419.448-.89 1.02-1.536 1.714-1.938a4.348 4.348 0 0 1 2.21-.602c.85 0 1.585.226 2.206.677.621.451 1.102 1.078 1.442 1.88l-1.46.713-.017.008v-.008c-.223-.616-.519-1.043-.888-1.284-.369-.24-.779-.36-1.23-.36-.867 0-1.51.375-1.93 1.125-.418.75-.628 1.79-.628 3.12 0 .815.104 1.551.312 2.21.208.66.501 1.18.88 1.56.377.382.803.572 1.278.572zm1.995-7.058c0-.017.009-.026.026-.026.018 0 .044.025.08.075.035.05.058.08.07.092l-.088.044-.088-.185zm.255.246c0 .012-.009.006-.026-.017a.579.579 0 0 1-.053-.088l.035-.018.044.123z" fill="#000" fill-rule="nonzero" opacity=".75"/></g><g transform="translate(529 234)"><rect fill="#A8ECA4" width="179.382" height="59.298" rx="4"/><path d="M65.328 36v-8.93l-1.925.58-.484-1.23 3.041-1.635h1.345V36h-1.977zm19.459-11.215h3.4c1.313 0 2.295.26 2.945.778.65.519.976 1.226.976 2.123 0 .45-.123.89-.37 1.318a2.545 2.545 0 0 1-.992.984c.345.164.654.391.927.681.272.29.486.613.641.967.156.355.233.71.233 1.068 0 1.025-.364 1.831-1.094 2.417-.73.586-1.824.879-3.283.879h-3.383V24.785zm3.243 4.377c.72 0 1.242-.123 1.564-.369.322-.246.484-.58.484-1.002 0-.24-.07-.461-.207-.664-.138-.202-.347-.363-.628-.483-.282-.12-.627-.18-1.038-.18H86.8v2.698h1.23zm.334 5.124c.674 0 1.188-.124 1.542-.373.355-.25.532-.67.532-1.262 0-.562-.189-1.012-.567-1.349-.378-.337-.974-.505-1.789-.505H86.8v3.49h1.565zM98.717 36v-9.466h-3.04v-1.749h8.26v1.75h-3.163V36h-2.057zm12.929-1.292c.762 0 1.438-.524 2.03-1.573l1.53.993c-.422.72-.944 1.267-1.565 1.64-.621.371-1.33.557-2.127.557-.844 0-1.6-.217-2.267-.65-.668-.434-1.196-1.091-1.583-1.973-.386-.882-.58-1.965-.58-3.248 0-1.389.225-2.528.673-3.419.448-.89 1.02-1.536 1.714-1.938a4.348 4.348 0 0 1 2.21-.602c.85 0 1.585.226 2.206.677.621.451 1.102 1.078 1.442 1.88l-1.46.713-.017.008v-.008c-.223-.616-.519-1.043-.888-1.284-.369-.24-.779-.36-1.23-.36-.867 0-1.51.375-1.93 1.125-.418.75-.628 1.79-.628 3.12 0 .815.104 1.551.312 2.21.208.66.501 1.18.88 1.56.377.382.803.572 1.278.572zm1.995-7.058c0-.017.009-.026.026-.026.018 0 .044.025.08.075.035.05.058.08.07.092l-.088.044-.088-.185zm.255.246c0 .012-.009.006-.026-.017a.579.579 0 0 1-.053-.088l.035-.018.044.123z" fill="#000" fill-rule="nonzero" opacity=".75"/></g><g transform="translate(529 312)"><rect fill="#A8ECA4" width="179.382" height="59.298" rx="4"/><path d="M65.328 36v-8.93l-1.925.58-.484-1.23 3.041-1.635h1.345V36h-1.977zm19.459-11.215h3.4c1.313 0 2.295.26 2.945.778.65.519.976 1.226.976 2.123 0 .45-.123.89-.37 1.318a2.545 2.545 0 0 1-.992.984c.345.164.654.391.927.681.272.29.486.613.641.967.156.355.233.71.233 1.068 0 1.025-.364 1.831-1.094 2.417-.73.586-1.824.879-3.283.879h-3.383V24.785zm3.243 4.377c.72 0 1.242-.123 1.564-.369.322-.246.484-.58.484-1.002 0-.24-.07-.461-.207-.664-.138-.202-.347-.363-.628-.483-.282-.12-.627-.18-1.038-.18H86.8v2.698h1.23zm.334 5.124c.674 0 1.188-.124 1.542-.373.355-.25.532-.67.532-1.262 0-.562-.189-1.012-.567-1.349-.378-.337-.974-.505-1.789-.505H86.8v3.49h1.565zM98.717 36v-9.466h-3.04v-1.749h8.26v1.75h-3.163V36h-2.057zm12.929-1.292c.762 0 1.438-.524 2.03-1.573l1.53.993c-.422.72-.944 1.267-1.565 1.64-.621.371-1.33.557-2.127.557-.844 0-1.6-.217-2.267-.65-.668-.434-1.196-1.091-1.583-1.973-.386-.882-.58-1.965-.58-3.248 0-1.389.225-2.528.673-3.419.448-.89 1.02-1.536 1.714-1.938a4.348 4.348 0 0 1 2.21-.602c.85 0 1.585.226 2.206.677.621.451 1.102 1.078 1.442 1.88l-1.46.713-.017.008v-.008c-.223-.616-.519-1.043-.888-1.284-.369-.24-.779-.36-1.23-.36-.867 0-1.51.375-1.93 1.125-.418.75-.628 1.79-.628 3.12 0 .815.104 1.551.312 2.21.208.66.501 1.18.88 1.56.377.382.803.572 1.278.572zm1.995-7.058c0-.017.009-.026.026-.026.018 0 .044.025.08.075.035.05.058.08.07.092l-.088.044-.088-.185zm.255.246c0 .012-.009.006-.026-.017a.579.579 0 0 1-.053-.088l.035-.018.044.123z" fill="#000" fill-rule="nonzero" opacity=".75"/></g><g stroke="#979797" stroke-dasharray="4"><path d="M529 30l-174.5-.351V810l174.5-.351M180 342l349-.351M180 419.649L529 420M180 498l349-.351M354.5 108H529M354.5 185.649L529 186M355 264.324l174.5.352M355 576.324l174.5.352M355 654.324l174.5.352M355 732.324l174.5.352"/></g></g></svg>
