<?xml version="1.0" encoding="UTF-8"?>
<svg width="709px" height="840px" viewBox="0 0 709 840" version="1.1" xmlns="http://www.w3.org/2000/svg" xmlns:xlink="http://www.w3.org/1999/xlink">
    <!-- Generator: Sketch 53.2 (72643) - https://sketchapp.com -->
    <title>illustration-coinjoin</title>
    <desc>Created with Sketch.</desc>
    <g id="Page-1" stroke="none" stroke-width="1" fill="none" fill-rule="evenodd">
        <g id="Desktop-HD" transform="translate(-610.000000, -1235.000000)">
            <g id="Group-27" transform="translate(120.000000, 1235.000000)">
                <g id="illustration-coinjoin" transform="translate(490.000000, 0.000000)">
                    <g id="Group-6" transform="translate(0.000000, 390.000000)">
                        <rect id="Rectangle" fill="#B6ECF3" x="0" y="0" width="179.381686" height="59.2975207" rx="4"></rect>
                        <path d="M55.211351,36 L55.211351,33.2314453 L50.9310776,33.2314453 L50.9310776,31.9658203 L55.7914291,24.7851562 L57.2416244,24.7851562 L57.2416244,31.5527344 L58.7357651,31.5527344 L58.7357651,33.2490234 L57.2416244,33.2490234 L57.2416244,36 L55.211351,36 Z M53.0140854,31.6054688 L55.2816635,31.6054688 L55.2816635,28.2568359 L53.0140854,31.6054688 Z M65.8900619,36.2373047 C65.6674046,36.2373047 65.4608637,36.183106 65.270433,36.074707 C65.0800024,35.9663081 64.9305898,35.8168955 64.8221908,35.6264648 C64.7137919,35.4360342 64.6595932,35.2294933 64.6595932,35.0068359 C64.6595932,34.790038 64.7137919,34.5893564 64.8221908,34.4047852 C64.9305898,34.2202139 65.0800024,34.073731 65.270433,33.965332 C65.4608637,33.8569331 65.6674046,33.8027344 65.8900619,33.8027344 C66.1068599,33.8027344 66.3075415,33.8569331 66.4921127,33.965332 C66.6766839,34.073731 66.8231669,34.2202139 66.9315658,34.4047852 C67.0399648,34.5893564 67.0941635,34.790038 67.0941635,35.0068359 C67.0941635,35.2294933 67.0399648,35.4360342 66.9315658,35.6264648 C66.8231669,35.8168955 66.6766839,35.9663081 66.4921127,36.074707 C66.3075415,36.183106 66.1068599,36.2373047 65.8900619,36.2373047 Z M78.9154526,30.0234375 C79.4369395,30.205079 79.8763883,30.5346656 80.2338119,31.012207 C80.5912356,31.4897485 80.7699447,32.1035119 80.7699447,32.8535156 C80.7699447,33.5039095 80.6190673,34.0942356 80.317308,34.6245117 C80.0155487,35.1547878 79.5804945,35.5737289 79.0121322,35.8813477 C78.44377,36.1889664 77.7699486,36.3427734 76.9906479,36.3427734 C75.4554839,36.3427734 74.2865503,35.8388722 73.4838119,34.8310547 L74.3187729,33.1523438 L74.3275619,33.1435547 L74.336351,33.1611328 C74.6000242,33.670901 74.944259,34.0371083 75.3690658,34.2597656 C75.7938726,34.482423 76.3402539,34.59375 77.008226,34.59375 C77.55901,34.59375 77.9882049,34.4282243 78.2958236,34.097168 C78.6034424,33.7661116 78.7572494,33.3251981 78.7572494,32.7744141 C78.7572494,32.1708954 78.5887941,31.7211929 78.2518783,31.425293 C77.9149626,31.1293931 77.3451441,30.9814453 76.5424057,30.9814453 C76.2611543,30.9814453 75.9476808,30.9990233 75.601976,31.0341797 L75.601976,29.4082031 C75.6898671,29.4140625 75.8158424,29.4169922 75.9799057,29.4169922 C76.9056916,29.4169922 77.5487515,29.2675796 77.9091049,28.96875 C78.2694583,28.6699204 78.4496322,28.2539089 78.4496322,27.7207031 C78.4496322,27.2871072 78.3221921,26.9355482 78.067308,26.6660156 C77.8124239,26.396483 77.4535408,26.2617188 76.9906479,26.2617188 C76.586349,26.2617188 76.2128176,26.3320305 75.8700424,26.4726562 C75.5272672,26.613282 75.1683841,26.8564436 74.7933822,27.2021484 L73.6595932,26.0419922 C74.0873297,25.532224 74.5853716,25.1528333 75.1537338,24.9038086 C75.722096,24.6547839 76.3285353,24.5302734 76.9730697,24.5302734 C77.65862,24.5302734 78.2665241,24.6606432 78.7968002,24.9213867 C79.3270763,25.1821302 79.7401581,25.5395485 80.036058,25.9936523 C80.3319579,26.4477562 80.4799057,26.9560519 80.4799057,27.5185547 C80.4799057,28.1220733 80.3260986,28.6420877 80.0184799,29.0786133 C79.7108612,29.5151389 79.3431891,29.8300772 78.9154526,30.0234375 Z M74.3275619,33.1435547 C74.3041243,33.0966795 74.2924057,33.0585939 74.2924057,33.0292969 C74.2924057,33.0175781 74.298265,33.0117188 74.3099838,33.0117188 C74.3217026,33.0117188 74.3451399,33.0205077 74.3802963,33.0380859 L74.3275619,33.1435547 Z M74.5824447,33.1259766 C74.5824447,33.131836 74.5795151,33.1347656 74.5736557,33.1347656 C74.5560775,33.1347656 74.5253161,33.1215822 74.4813705,33.0952148 C74.437425,33.0688475 74.4037339,33.0498047 74.3802963,33.0380859 L74.3890854,33.0117188 L74.5736557,33.0996094 L74.5824447,33.1259766 Z M96.0365463,24.7851562 L99.4379135,24.7851562 C100.75042,24.7851562 101.731856,25.044431 102.382249,25.5629883 C103.032643,26.0815456 103.357835,26.789058 103.357835,27.6855469 C103.357835,28.136721 103.23479,28.5761697 102.988695,29.0039062 C102.7426,29.4316428 102.411548,29.7597645 101.995531,29.9882812 C102.341236,30.1523446 102.650314,30.3793931 102.922777,30.6694336 C103.195239,30.9594741 103.409104,31.2817365 103.564378,31.6362305 C103.719653,31.9907244 103.797288,32.3466779 103.797288,32.7041016 C103.797288,33.7294973 103.432546,34.5351533 102.70305,35.1210938 C101.973554,35.7070342 100.879327,36 99.4203354,36 L96.0365463,36 L96.0365463,24.7851562 Z M99.2797104,29.1621094 C100.000417,29.1621094 100.521896,29.0390637 100.844163,28.7929688 C101.166431,28.5468738 101.327562,28.2128927 101.327562,27.7910156 C101.327562,27.55078 101.258715,27.3295909 101.121019,27.1274414 C100.983323,26.925292 100.773852,26.7641608 100.492601,26.644043 C100.21135,26.5239252 99.8656499,26.4638672 99.4554916,26.4638672 L98.0492416,26.4638672 L98.0492416,29.1621094 L99.2797104,29.1621094 Z M99.6136947,34.2861328 C100.287526,34.2861328 100.801681,34.1616223 101.156175,33.9125977 C101.510669,33.663573 101.687913,33.243167 101.687913,32.6513672 C101.687913,32.0888644 101.498951,31.6391618 101.121019,31.3022461 C100.743087,30.9653303 100.146902,30.796875 99.3324447,30.796875 L98.0492416,30.796875 L98.0492416,34.2861328 L99.6136947,34.2861328 Z M109.96721,36 L109.96721,26.5341797 L106.926195,26.5341797 L106.926195,24.7851562 L115.187913,24.7851562 L115.187913,26.5341797 L112.023851,26.5341797 L112.023851,36 L109.96721,36 Z M122.895921,34.7080078 C123.657644,34.7080078 124.334395,34.183599 124.926195,33.1347656 L126.455492,34.1279297 C126.033615,34.8486364 125.512135,35.3950177 124.891038,35.7670898 C124.269942,36.139162 123.560964,36.3251953 122.764085,36.3251953 C121.920331,36.3251953 121.164479,36.1084006 120.496507,35.6748047 C119.828535,35.2412088 119.301197,34.5835005 118.914476,33.7016602 C118.527755,32.8198198 118.334398,31.7373111 118.334398,30.4541016 C118.334398,29.0654227 118.558517,27.9257857 119.006761,27.0351562 C119.455006,26.1445268 120.026289,25.4985372 120.720628,25.097168 C121.414968,24.6957988 122.151777,24.4951172 122.931078,24.4951172 C123.780691,24.4951172 124.516035,24.7207009 125.137132,25.171875 C125.758229,25.6230491 126.238693,26.249996 126.578538,27.0527344 L125.119554,27.7646484 L125.101976,27.7734375 L125.101976,27.7646484 C124.879319,27.149411 124.583423,26.7216809 124.214281,26.4814453 C123.845138,26.2412097 123.434986,26.1210938 122.983812,26.1210938 C122.11662,26.1210938 121.47356,26.49609 121.054613,27.2460938 C120.635665,27.9960975 120.426195,29.0361262 120.426195,30.3662109 C120.426195,31.1806681 120.530198,31.9174772 120.738206,32.5766602 C120.946215,33.2358431 121.239181,33.7558575 121.617113,34.1367188 C121.995044,34.51758 122.42131,34.7080078 122.895921,34.7080078 Z M124.891038,27.6503906 C124.891038,27.6328124 124.899827,27.6240234 124.917406,27.6240234 C124.934984,27.6240234 124.961351,27.6489255 124.996507,27.6987305 C125.031664,27.7485354 125.055101,27.7792968 125.06682,27.7910156 L124.978929,27.8349609 L124.891038,27.6503906 Z M125.145921,27.8964844 C125.145921,27.9082032 125.137132,27.9023439 125.119554,27.8789062 C125.101976,27.8554686 125.084398,27.8261721 125.06682,27.7910156 L125.101976,27.7734375 L125.145921,27.8964844 Z" id="4.3BTC" fill="#000000" fill-rule="nonzero" opacity="0.749906994"></path>
                    </g>
                    <g id="Group-6-Copy-3" transform="translate(529.000000, 390.000000)">
                        <rect id="Rectangle" fill="#A8ECA4" x="0" y="0" width="179.381686" height="59.2975207" rx="4"></rect>
                        <path d="M62.5941635,34.5234375 C64.0414364,33.1347587 65.0800002,32.1093783 65.7098861,31.4472656 C66.3397721,30.7851529 66.8202361,30.1684599 67.1512924,29.597168 C67.4823487,29.025876 67.6478744,28.4414092 67.6478744,27.84375 C67.6478744,27.3691383 67.4984619,26.9926772 67.1996322,26.7143555 C66.9008026,26.4360338 66.4994394,26.296875 65.9955307,26.296875 C65.6908417,26.296875 65.4008055,26.3320309 65.1254135,26.4023438 C64.8500215,26.4726566 64.6185785,26.5576167 64.4310776,26.6572266 C64.2435766,26.7568364 64.1263903,26.8505855 64.0795151,26.9384766 C63.8451389,27.3603537 63.7279526,27.5917967 63.7279526,27.6328125 C63.7279526,27.6386719 63.7308822,27.6416016 63.7367416,27.6416016 C63.7484604,27.6357422 63.7660384,27.6240235 63.789476,27.6064453 C63.8129136,27.5888671 63.834886,27.5771485 63.855394,27.5712891 C63.8759019,27.5654297 63.8890853,27.5771483 63.8949447,27.6064453 L63.7982651,27.7822266 L63.6576401,27.703125 L62.3217026,26.6923828 C62.7552985,25.9951137 63.2870314,25.4604511 63.9169174,25.0883789 C64.5468034,24.7163067 65.2513862,24.5302734 66.0306869,24.5302734 C66.698659,24.5302734 67.299239,24.6694322 67.8324447,24.9477539 C68.3656505,25.2260756 68.7831268,25.6142553 69.0848861,26.1123047 C69.3866455,26.6103541 69.5375229,27.1816374 69.5375229,27.8261719 C69.5375229,28.4648469 69.3866455,29.0771455 69.0848861,29.6630859 C68.7831268,30.2490264 68.387623,30.8173801 67.8983627,31.3681641 C67.4091025,31.9189481 66.6898714,32.6689406 65.7406479,33.6181641 L65.0199447,34.3300781 L68.6849838,34.3300781 C68.8783441,34.3300781 69.0204326,34.3198243 69.1112533,34.2993164 C69.2020741,34.2788085 69.2826397,34.2363284 69.3529526,34.171875 L69.555101,34.171875 L69.555101,36 L62.5941635,36 L62.5941635,34.5234375 Z M84.7865463,24.7851562 L88.1879135,24.7851562 C89.5004201,24.7851562 90.4818556,25.044431 91.1322494,25.5629883 C91.7826433,26.0815456 92.1078354,26.789058 92.1078354,27.6855469 C92.1078354,28.136721 91.9847897,28.5761697 91.7386947,29.0039062 C91.4925998,29.4316428 91.1615484,29.7597645 90.7455307,29.9882812 C91.0912355,30.1523446 91.4003145,30.3793931 91.6727768,30.6694336 C91.9452391,30.9594741 92.1591041,31.2817365 92.3143783,31.6362305 C92.4696526,31.9907244 92.5472885,32.3466779 92.5472885,32.7041016 C92.5472885,33.7294973 92.182546,34.5351533 91.4530502,35.1210938 C90.7235544,35.7070342 89.629327,36 88.1703354,36 L84.7865463,36 L84.7865463,24.7851562 Z M88.0297104,29.1621094 C88.7504171,29.1621094 89.2718963,29.0390637 89.5941635,28.7929688 C89.9164307,28.5468738 90.0775619,28.2128927 90.0775619,27.7910156 C90.0775619,27.55078 90.008715,27.3295909 89.871019,27.1274414 C89.733323,26.925292 89.5238524,26.7641608 89.242601,26.644043 C88.9613496,26.5239252 88.6156499,26.4638672 88.2054916,26.4638672 L86.7992416,26.4638672 L86.7992416,29.1621094 L88.0297104,29.1621094 Z M88.3636947,34.2861328 C89.0375262,34.2861328 89.5516813,34.1616223 89.9061752,33.9125977 C90.2606692,33.663573 90.4379135,33.243167 90.4379135,32.6513672 C90.4379135,32.0888644 90.2489505,31.6391618 89.871019,31.3022461 C89.4930874,30.9653303 88.8969019,30.796875 88.0824447,30.796875 L86.7992416,30.796875 L86.7992416,34.2861328 L88.3636947,34.2861328 Z M98.7172104,36 L98.7172104,26.5341797 L95.6761947,26.5341797 L95.6761947,24.7851562 L103.937913,24.7851562 L103.937913,26.5341797 L100.773851,26.5341797 L100.773851,36 L98.7172104,36 Z M111.645921,34.7080078 C112.407644,34.7080078 113.084395,34.183599 113.676195,33.1347656 L115.205492,34.1279297 C114.783615,34.8486364 114.262135,35.3950177 113.641038,35.7670898 C113.019942,36.139162 112.310964,36.3251953 111.514085,36.3251953 C110.670331,36.3251953 109.914479,36.1084006 109.246507,35.6748047 C108.578535,35.2412088 108.051197,34.5835005 107.664476,33.7016602 C107.277755,32.8198198 107.084398,31.7373111 107.084398,30.4541016 C107.084398,29.0654227 107.308517,27.9257857 107.756761,27.0351562 C108.205006,26.1445268 108.776289,25.4985372 109.470628,25.097168 C110.164968,24.6957988 110.901777,24.4951172 111.681078,24.4951172 C112.530691,24.4951172 113.266035,24.7207009 113.887132,25.171875 C114.508229,25.6230491 114.988693,26.249996 115.328538,27.0527344 L113.869554,27.7646484 L113.851976,27.7734375 L113.851976,27.7646484 C113.629319,27.149411 113.333423,26.7216809 112.964281,26.4814453 C112.595138,26.2412097 112.184986,26.1210938 111.733812,26.1210938 C110.86662,26.1210938 110.22356,26.49609 109.804613,27.2460938 C109.385665,27.9960975 109.176195,29.0361262 109.176195,30.3662109 C109.176195,31.1806681 109.280198,31.9174772 109.488206,32.5766602 C109.696215,33.2358431 109.989181,33.7558575 110.367113,34.1367188 C110.745044,34.51758 111.17131,34.7080078 111.645921,34.7080078 Z M113.641038,27.6503906 C113.641038,27.6328124 113.649827,27.6240234 113.667406,27.6240234 C113.684984,27.6240234 113.711351,27.6489255 113.746507,27.6987305 C113.781664,27.7485354 113.805101,27.7792968 113.81682,27.7910156 L113.728929,27.8349609 L113.641038,27.6503906 Z M113.895921,27.8964844 C113.895921,27.9082032 113.887132,27.9023439 113.869554,27.8789062 C113.851976,27.8554686 113.834398,27.8261721 113.81682,27.7910156 L113.851976,27.7734375 L113.895921,27.8964844 Z" id="2BTC" fill="#000000" fill-rule="nonzero" opacity="0.749906994"></path>
                    </g>
                    <g id="Group-6-Copy-8" transform="translate(529.000000, 468.000000)">
                        <rect id="Rectangle" fill="#A8ECA4" x="0" y="0" width="179.381686" height="59.2975207" rx="4"></rect>
                        <path d="M62.5941635,34.5234375 C64.0414364,33.1347587 65.0800002,32.1093783 65.7098861,31.4472656 C66.3397721,30.7851529 66.8202361,30.1684599 67.1512924,29.597168 C67.4823487,29.025876 67.6478744,28.4414092 67.6478744,27.84375 C67.6478744,27.3691383 67.4984619,26.9926772 67.1996322,26.7143555 C66.9008026,26.4360338 66.4994394,26.296875 65.9955307,26.296875 C65.6908417,26.296875 65.4008055,26.3320309 65.1254135,26.4023438 C64.8500215,26.4726566 64.6185785,26.5576167 64.4310776,26.6572266 C64.2435766,26.7568364 64.1263903,26.8505855 64.0795151,26.9384766 C63.8451389,27.3603537 63.7279526,27.5917967 63.7279526,27.6328125 C63.7279526,27.6386719 63.7308822,27.6416016 63.7367416,27.6416016 C63.7484604,27.6357422 63.7660384,27.6240235 63.789476,27.6064453 C63.8129136,27.5888671 63.834886,27.5771485 63.855394,27.5712891 C63.8759019,27.5654297 63.8890853,27.5771483 63.8949447,27.6064453 L63.7982651,27.7822266 L63.6576401,27.703125 L62.3217026,26.6923828 C62.7552985,25.9951137 63.2870314,25.4604511 63.9169174,25.0883789 C64.5468034,24.7163067 65.2513862,24.5302734 66.0306869,24.5302734 C66.698659,24.5302734 67.299239,24.6694322 67.8324447,24.9477539 C68.3656505,25.2260756 68.7831268,25.6142553 69.0848861,26.1123047 C69.3866455,26.6103541 69.5375229,27.1816374 69.5375229,27.8261719 C69.5375229,28.4648469 69.3866455,29.0771455 69.0848861,29.6630859 C68.7831268,30.2490264 68.387623,30.8173801 67.8983627,31.3681641 C67.4091025,31.9189481 66.6898714,32.6689406 65.7406479,33.6181641 L65.0199447,34.3300781 L68.6849838,34.3300781 C68.8783441,34.3300781 69.0204326,34.3198243 69.1112533,34.2993164 C69.2020741,34.2788085 69.2826397,34.2363284 69.3529526,34.171875 L69.555101,34.171875 L69.555101,36 L62.5941635,36 L62.5941635,34.5234375 Z M84.7865463,24.7851562 L88.1879135,24.7851562 C89.5004201,24.7851562 90.4818556,25.044431 91.1322494,25.5629883 C91.7826433,26.0815456 92.1078354,26.789058 92.1078354,27.6855469 C92.1078354,28.136721 91.9847897,28.5761697 91.7386947,29.0039062 C91.4925998,29.4316428 91.1615484,29.7597645 90.7455307,29.9882812 C91.0912355,30.1523446 91.4003145,30.3793931 91.6727768,30.6694336 C91.9452391,30.9594741 92.1591041,31.2817365 92.3143783,31.6362305 C92.4696526,31.9907244 92.5472885,32.3466779 92.5472885,32.7041016 C92.5472885,33.7294973 92.182546,34.5351533 91.4530502,35.1210938 C90.7235544,35.7070342 89.629327,36 88.1703354,36 L84.7865463,36 L84.7865463,24.7851562 Z M88.0297104,29.1621094 C88.7504171,29.1621094 89.2718963,29.0390637 89.5941635,28.7929688 C89.9164307,28.5468738 90.0775619,28.2128927 90.0775619,27.7910156 C90.0775619,27.55078 90.008715,27.3295909 89.871019,27.1274414 C89.733323,26.925292 89.5238524,26.7641608 89.242601,26.644043 C88.9613496,26.5239252 88.6156499,26.4638672 88.2054916,26.4638672 L86.7992416,26.4638672 L86.7992416,29.1621094 L88.0297104,29.1621094 Z M88.3636947,34.2861328 C89.0375262,34.2861328 89.5516813,34.1616223 89.9061752,33.9125977 C90.2606692,33.663573 90.4379135,33.243167 90.4379135,32.6513672 C90.4379135,32.0888644 90.2489505,31.6391618 89.871019,31.3022461 C89.4930874,30.9653303 88.8969019,30.796875 88.0824447,30.796875 L86.7992416,30.796875 L86.7992416,34.2861328 L88.3636947,34.2861328 Z M98.7172104,36 L98.7172104,26.5341797 L95.6761947,26.5341797 L95.6761947,24.7851562 L103.937913,24.7851562 L103.937913,26.5341797 L100.773851,26.5341797 L100.773851,36 L98.7172104,36 Z M111.645921,34.7080078 C112.407644,34.7080078 113.084395,34.183599 113.676195,33.1347656 L115.205492,34.1279297 C114.783615,34.8486364 114.262135,35.3950177 113.641038,35.7670898 C113.019942,36.139162 112.310964,36.3251953 111.514085,36.3251953 C110.670331,36.3251953 109.914479,36.1084006 109.246507,35.6748047 C108.578535,35.2412088 108.051197,34.5835005 107.664476,33.7016602 C107.277755,32.8198198 107.084398,31.7373111 107.084398,30.4541016 C107.084398,29.0654227 107.308517,27.9257857 107.756761,27.0351562 C108.205006,26.1445268 108.776289,25.4985372 109.470628,25.097168 C110.164968,24.6957988 110.901777,24.4951172 111.681078,24.4951172 C112.530691,24.4951172 113.266035,24.7207009 113.887132,25.171875 C114.508229,25.6230491 114.988693,26.249996 115.328538,27.0527344 L113.869554,27.7646484 L113.851976,27.7734375 L113.851976,27.7646484 C113.629319,27.149411 113.333423,26.7216809 112.964281,26.4814453 C112.595138,26.2412097 112.184986,26.1210938 111.733812,26.1210938 C110.86662,26.1210938 110.22356,26.49609 109.804613,27.2460938 C109.385665,27.9960975 109.176195,29.0361262 109.176195,30.3662109 C109.176195,31.1806681 109.280198,31.9174772 109.488206,32.5766602 C109.696215,33.2358431 109.989181,33.7558575 110.367113,34.1367188 C110.745044,34.51758 111.17131,34.7080078 111.645921,34.7080078 Z M113.641038,27.6503906 C113.641038,27.6328124 113.649827,27.6240234 113.667406,27.6240234 C113.684984,27.6240234 113.711351,27.6489255 113.746507,27.6987305 C113.781664,27.7485354 113.805101,27.7792968 113.81682,27.7910156 L113.728929,27.8349609 L113.641038,27.6503906 Z M113.895921,27.8964844 C113.895921,27.9082032 113.887132,27.9023439 113.869554,27.8789062 C113.851976,27.8554686 113.834398,27.8261721 113.81682,27.7910156 L113.851976,27.7734375 L113.895921,27.8964844 Z" id="2BTC" fill="#000000" fill-rule="nonzero" opacity="0.749906994"></path>
                    </g>
                    <g id="Group-6-Copy-9" transform="translate(529.000000, 546.000000)">
                        <rect id="Rectangle" fill="#A8ECA4" x="0" y="0" width="179.381686" height="59.2975207" rx="4"></rect>
                        <path d="M62.5941635,34.5234375 C64.0414364,33.1347587 65.0800002,32.1093783 65.7098861,31.4472656 C66.3397721,30.7851529 66.8202361,30.1684599 67.1512924,29.597168 C67.4823487,29.025876 67.6478744,28.4414092 67.6478744,27.84375 C67.6478744,27.3691383 67.4984619,26.9926772 67.1996322,26.7143555 C66.9008026,26.4360338 66.4994394,26.296875 65.9955307,26.296875 C65.6908417,26.296875 65.4008055,26.3320309 65.1254135,26.4023438 C64.8500215,26.4726566 64.6185785,26.5576167 64.4310776,26.6572266 C64.2435766,26.7568364 64.1263903,26.8505855 64.0795151,26.9384766 C63.8451389,27.3603537 63.7279526,27.5917967 63.7279526,27.6328125 C63.7279526,27.6386719 63.7308822,27.6416016 63.7367416,27.6416016 C63.7484604,27.6357422 63.7660384,27.6240235 63.789476,27.6064453 C63.8129136,27.5888671 63.834886,27.5771485 63.855394,27.5712891 C63.8759019,27.5654297 63.8890853,27.5771483 63.8949447,27.6064453 L63.7982651,27.7822266 L63.6576401,27.703125 L62.3217026,26.6923828 C62.7552985,25.9951137 63.2870314,25.4604511 63.9169174,25.0883789 C64.5468034,24.7163067 65.2513862,24.5302734 66.0306869,24.5302734 C66.698659,24.5302734 67.299239,24.6694322 67.8324447,24.9477539 C68.3656505,25.2260756 68.7831268,25.6142553 69.0848861,26.1123047 C69.3866455,26.6103541 69.5375229,27.1816374 69.5375229,27.8261719 C69.5375229,28.4648469 69.3866455,29.0771455 69.0848861,29.6630859 C68.7831268,30.2490264 68.387623,30.8173801 67.8983627,31.3681641 C67.4091025,31.9189481 66.6898714,32.6689406 65.7406479,33.6181641 L65.0199447,34.3300781 L68.6849838,34.3300781 C68.8783441,34.3300781 69.0204326,34.3198243 69.1112533,34.2993164 C69.2020741,34.2788085 69.2826397,34.2363284 69.3529526,34.171875 L69.555101,34.171875 L69.555101,36 L62.5941635,36 L62.5941635,34.5234375 Z M84.7865463,24.7851562 L88.1879135,24.7851562 C89.5004201,24.7851562 90.4818556,25.044431 91.1322494,25.5629883 C91.7826433,26.0815456 92.1078354,26.789058 92.1078354,27.6855469 C92.1078354,28.136721 91.9847897,28.5761697 91.7386947,29.0039062 C91.4925998,29.4316428 91.1615484,29.7597645 90.7455307,29.9882812 C91.0912355,30.1523446 91.4003145,30.3793931 91.6727768,30.6694336 C91.9452391,30.9594741 92.1591041,31.2817365 92.3143783,31.6362305 C92.4696526,31.9907244 92.5472885,32.3466779 92.5472885,32.7041016 C92.5472885,33.7294973 92.182546,34.5351533 91.4530502,35.1210938 C90.7235544,35.7070342 89.629327,36 88.1703354,36 L84.7865463,36 L84.7865463,24.7851562 Z M88.0297104,29.1621094 C88.7504171,29.1621094 89.2718963,29.0390637 89.5941635,28.7929688 C89.9164307,28.5468738 90.0775619,28.2128927 90.0775619,27.7910156 C90.0775619,27.55078 90.008715,27.3295909 89.871019,27.1274414 C89.733323,26.925292 89.5238524,26.7641608 89.242601,26.644043 C88.9613496,26.5239252 88.6156499,26.4638672 88.2054916,26.4638672 L86.7992416,26.4638672 L86.7992416,29.1621094 L88.0297104,29.1621094 Z M88.3636947,34.2861328 C89.0375262,34.2861328 89.5516813,34.1616223 89.9061752,33.9125977 C90.2606692,33.663573 90.4379135,33.243167 90.4379135,32.6513672 C90.4379135,32.0888644 90.2489505,31.6391618 89.871019,31.3022461 C89.4930874,30.9653303 88.8969019,30.796875 88.0824447,30.796875 L86.7992416,30.796875 L86.7992416,34.2861328 L88.3636947,34.2861328 Z M98.7172104,36 L98.7172104,26.5341797 L95.6761947,26.5341797 L95.6761947,24.7851562 L103.937913,24.7851562 L103.937913,26.5341797 L100.773851,26.5341797 L100.773851,36 L98.7172104,36 Z M111.645921,34.7080078 C112.407644,34.7080078 113.084395,34.183599 113.676195,33.1347656 L115.205492,34.1279297 C114.783615,34.8486364 114.262135,35.3950177 113.641038,35.7670898 C113.019942,36.139162 112.310964,36.3251953 111.514085,36.3251953 C110.670331,36.3251953 109.914479,36.1084006 109.246507,35.6748047 C108.578535,35.2412088 108.051197,34.5835005 107.664476,33.7016602 C107.277755,32.8198198 107.084398,31.7373111 107.084398,30.4541016 C107.084398,29.0654227 107.308517,27.9257857 107.756761,27.0351562 C108.205006,26.1445268 108.776289,25.4985372 109.470628,25.097168 C110.164968,24.6957988 110.901777,24.4951172 111.681078,24.4951172 C112.530691,24.4951172 113.266035,24.7207009 113.887132,25.171875 C114.508229,25.6230491 114.988693,26.249996 115.328538,27.0527344 L113.869554,27.7646484 L113.851976,27.7734375 L113.851976,27.7646484 C113.629319,27.149411 113.333423,26.7216809 112.964281,26.4814453 C112.595138,26.2412097 112.184986,26.1210938 111.733812,26.1210938 C110.86662,26.1210938 110.22356,26.49609 109.804613,27.2460938 C109.385665,27.9960975 109.176195,29.0361262 109.176195,30.3662109 C109.176195,31.1806681 109.280198,31.9174772 109.488206,32.5766602 C109.696215,33.2358431 109.989181,33.7558575 110.367113,34.1367188 C110.745044,34.51758 111.17131,34.7080078 111.645921,34.7080078 Z M113.641038,27.6503906 C113.641038,27.6328124 113.649827,27.6240234 113.667406,27.6240234 C113.684984,27.6240234 113.711351,27.6489255 113.746507,27.6987305 C113.781664,27.7485354 113.805101,27.7792968 113.81682,27.7910156 L113.728929,27.8349609 L113.641038,27.6503906 Z M113.895921,27.8964844 C113.895921,27.9082032 113.887132,27.9023439 113.869554,27.8789062 C113.851976,27.8554686 113.834398,27.8261721 113.81682,27.7910156 L113.851976,27.7734375 L113.895921,27.8964844 Z" id="2BTC" fill="#000000" fill-rule="nonzero" opacity="0.749906994"></path>
                    </g>
                    <g id="Group-6-Copy-2" transform="translate(0.000000, 468.000000)">
                        <rect id="Rectangle" fill="#F5B3CF" x="0" y="0" width="179.381686" height="59.2975207" rx="4"></rect>
                        <path d="M51.3441635,34.5234375 C52.7914364,33.1347587 53.8300002,32.1093783 54.4598861,31.4472656 C55.0897721,30.7851529 55.5702361,30.1684599 55.9012924,29.597168 C56.2323487,29.025876 56.3978744,28.4414092 56.3978744,27.84375 C56.3978744,27.3691383 56.2484619,26.9926772 55.9496322,26.7143555 C55.6508026,26.4360338 55.2494394,26.296875 54.7455307,26.296875 C54.4408417,26.296875 54.1508055,26.3320309 53.8754135,26.4023438 C53.6000215,26.4726566 53.3685785,26.5576167 53.1810776,26.6572266 C52.9935766,26.7568364 52.8763903,26.8505855 52.8295151,26.9384766 C52.5951389,27.3603537 52.4779526,27.5917967 52.4779526,27.6328125 C52.4779526,27.6386719 52.4808822,27.6416016 52.4867416,27.6416016 C52.4984604,27.6357422 52.5160384,27.6240235 52.539476,27.6064453 C52.5629136,27.5888671 52.584886,27.5771485 52.605394,27.5712891 C52.6259019,27.5654297 52.6390853,27.5771483 52.6449447,27.6064453 L52.5482651,27.7822266 L52.4076401,27.703125 L51.0717026,26.6923828 C51.5052985,25.9951137 52.0370314,25.4604511 52.6669174,25.0883789 C53.2968034,24.7163067 54.0013862,24.5302734 54.7806869,24.5302734 C55.448659,24.5302734 56.049239,24.6694322 56.5824447,24.9477539 C57.1156505,25.2260756 57.5331268,25.6142553 57.8348861,26.1123047 C58.1366455,26.6103541 58.2875229,27.1816374 58.2875229,27.8261719 C58.2875229,28.4648469 58.1366455,29.0771455 57.8348861,29.6630859 C57.5331268,30.2490264 57.137623,30.8173801 56.6483627,31.3681641 C56.1591025,31.9189481 55.4398714,32.6689406 54.4906479,33.6181641 L53.7699447,34.3300781 L57.4349838,34.3300781 C57.6283441,34.3300781 57.7704326,34.3198243 57.8612533,34.2993164 C57.9520741,34.2788085 58.0326397,34.2363284 58.1029526,34.171875 L58.305101,34.171875 L58.305101,36 L51.3441635,36 L51.3441635,34.5234375 Z M65.8900619,36.2373047 C65.6674046,36.2373047 65.4608637,36.183106 65.270433,36.074707 C65.0800024,35.9663081 64.9305898,35.8168955 64.8221908,35.6264648 C64.7137919,35.4360342 64.6595932,35.2294933 64.6595932,35.0068359 C64.6595932,34.790038 64.7137919,34.5893564 64.8221908,34.4047852 C64.9305898,34.2202139 65.0800024,34.073731 65.270433,33.965332 C65.4608637,33.8569331 65.6674046,33.8027344 65.8900619,33.8027344 C66.1068599,33.8027344 66.3075415,33.8569331 66.4921127,33.965332 C66.6766839,34.073731 66.8231669,34.2202139 66.9315658,34.4047852 C67.0399648,34.5893564 67.0941635,34.790038 67.0941635,35.0068359 C67.0941635,35.2294933 67.0399648,35.4360342 66.9315658,35.6264648 C66.8231669,35.8168955 66.6766839,35.9663081 66.4921127,36.074707 C66.3075415,36.183106 66.1068599,36.2373047 65.8900619,36.2373047 Z M73.8441635,34.5234375 C75.2914364,33.1347587 76.3300002,32.1093783 76.9598861,31.4472656 C77.5897721,30.7851529 78.0702361,30.1684599 78.4012924,29.597168 C78.7323487,29.025876 78.8978744,28.4414092 78.8978744,27.84375 C78.8978744,27.3691383 78.7484619,26.9926772 78.4496322,26.7143555 C78.1508026,26.4360338 77.7494394,26.296875 77.2455307,26.296875 C76.9408417,26.296875 76.6508055,26.3320309 76.3754135,26.4023438 C76.1000215,26.4726566 75.8685785,26.5576167 75.6810776,26.6572266 C75.4935766,26.7568364 75.3763903,26.8505855 75.3295151,26.9384766 C75.0951389,27.3603537 74.9779526,27.5917967 74.9779526,27.6328125 C74.9779526,27.6386719 74.9808822,27.6416016 74.9867416,27.6416016 C74.9984604,27.6357422 75.0160384,27.6240235 75.039476,27.6064453 C75.0629136,27.5888671 75.084886,27.5771485 75.105394,27.5712891 C75.1259019,27.5654297 75.1390853,27.5771483 75.1449447,27.6064453 L75.0482651,27.7822266 L74.9076401,27.703125 L73.5717026,26.6923828 C74.0052985,25.9951137 74.5370314,25.4604511 75.1669174,25.0883789 C75.7968034,24.7163067 76.5013862,24.5302734 77.2806869,24.5302734 C77.948659,24.5302734 78.549239,24.6694322 79.0824447,24.9477539 C79.6156505,25.2260756 80.0331268,25.6142553 80.3348861,26.1123047 C80.6366455,26.6103541 80.7875229,27.1816374 80.7875229,27.8261719 C80.7875229,28.4648469 80.6366455,29.0771455 80.3348861,29.6630859 C80.0331268,30.2490264 79.637623,30.8173801 79.1483627,31.3681641 C78.6591025,31.9189481 77.9398714,32.6689406 76.9906479,33.6181641 L76.2699447,34.3300781 L79.9349838,34.3300781 C80.1283441,34.3300781 80.2704326,34.3198243 80.3612533,34.2993164 C80.4520741,34.2788085 80.5326397,34.2363284 80.6029526,34.171875 L80.805101,34.171875 L80.805101,36 L73.8441635,36 L73.8441635,34.5234375 Z M96.0365463,24.7851562 L99.4379135,24.7851562 C100.75042,24.7851562 101.731856,25.044431 102.382249,25.5629883 C103.032643,26.0815456 103.357835,26.789058 103.357835,27.6855469 C103.357835,28.136721 103.23479,28.5761697 102.988695,29.0039062 C102.7426,29.4316428 102.411548,29.7597645 101.995531,29.9882812 C102.341236,30.1523446 102.650314,30.3793931 102.922777,30.6694336 C103.195239,30.9594741 103.409104,31.2817365 103.564378,31.6362305 C103.719653,31.9907244 103.797288,32.3466779 103.797288,32.7041016 C103.797288,33.7294973 103.432546,34.5351533 102.70305,35.1210938 C101.973554,35.7070342 100.879327,36 99.4203354,36 L96.0365463,36 L96.0365463,24.7851562 Z M99.2797104,29.1621094 C100.000417,29.1621094 100.521896,29.0390637 100.844163,28.7929688 C101.166431,28.5468738 101.327562,28.2128927 101.327562,27.7910156 C101.327562,27.55078 101.258715,27.3295909 101.121019,27.1274414 C100.983323,26.925292 100.773852,26.7641608 100.492601,26.644043 C100.21135,26.5239252 99.8656499,26.4638672 99.4554916,26.4638672 L98.0492416,26.4638672 L98.0492416,29.1621094 L99.2797104,29.1621094 Z M99.6136947,34.2861328 C100.287526,34.2861328 100.801681,34.1616223 101.156175,33.9125977 C101.510669,33.663573 101.687913,33.243167 101.687913,32.6513672 C101.687913,32.0888644 101.498951,31.6391618 101.121019,31.3022461 C100.743087,30.9653303 100.146902,30.796875 99.3324447,30.796875 L98.0492416,30.796875 L98.0492416,34.2861328 L99.6136947,34.2861328 Z M109.96721,36 L109.96721,26.5341797 L106.926195,26.5341797 L106.926195,24.7851562 L115.187913,24.7851562 L115.187913,26.5341797 L112.023851,26.5341797 L112.023851,36 L109.96721,36 Z M122.895921,34.7080078 C123.657644,34.7080078 124.334395,34.183599 124.926195,33.1347656 L126.455492,34.1279297 C126.033615,34.8486364 125.512135,35.3950177 124.891038,35.7670898 C124.269942,36.139162 123.560964,36.3251953 122.764085,36.3251953 C121.920331,36.3251953 121.164479,36.1084006 120.496507,35.6748047 C119.828535,35.2412088 119.301197,34.5835005 118.914476,33.7016602 C118.527755,32.8198198 118.334398,31.7373111 118.334398,30.4541016 C118.334398,29.0654227 118.558517,27.9257857 119.006761,27.0351562 C119.455006,26.1445268 120.026289,25.4985372 120.720628,25.097168 C121.414968,24.6957988 122.151777,24.4951172 122.931078,24.4951172 C123.780691,24.4951172 124.516035,24.7207009 125.137132,25.171875 C125.758229,25.6230491 126.238693,26.249996 126.578538,27.0527344 L125.119554,27.7646484 L125.101976,27.7734375 L125.101976,27.7646484 C124.879319,27.149411 124.583423,26.7216809 124.214281,26.4814453 C123.845138,26.2412097 123.434986,26.1210938 122.983812,26.1210938 C122.11662,26.1210938 121.47356,26.49609 121.054613,27.2460938 C120.635665,27.9960975 120.426195,29.0361262 120.426195,30.3662109 C120.426195,31.1806681 120.530198,31.9174772 120.738206,32.5766602 C120.946215,33.2358431 121.239181,33.7558575 121.617113,34.1367188 C121.995044,34.51758 122.42131,34.7080078 122.895921,34.7080078 Z M124.891038,27.6503906 C124.891038,27.6328124 124.899827,27.6240234 124.917406,27.6240234 C124.934984,27.6240234 124.961351,27.6489255 124.996507,27.6987305 C125.031664,27.7485354 125.055101,27.7792968 125.06682,27.7910156 L124.978929,27.8349609 L124.891038,27.6503906 Z M125.145921,27.8964844 C125.145921,27.9082032 125.137132,27.9023439 125.119554,27.8789062 C125.101976,27.8554686 125.084398,27.8261721 125.06682,27.7910156 L125.101976,27.7734375 L125.145921,27.8964844 Z" id="2.2BTC" fill="#000000" fill-rule="nonzero" opacity="0.749906994"></path>
                    </g>
                    <g id="Group-6-Copy-4" transform="translate(529.000000, 624.000000)">
                        <rect id="Rectangle" fill="#CCC5FF" x="0" y="0" width="179.381686" height="59.2975207" rx="4"></rect>
                        <path d="M54.8158432,24.5742188 C55.6303004,24.5742188 56.327559,24.8056617 56.9076401,25.2685547 C57.4877211,25.7314476 57.9315643,26.4038042 58.239183,27.2856445 C58.5468017,28.1674849 58.7006088,29.2236267 58.7006088,30.4541016 C58.7006088,31.6845765 58.5468017,32.7407182 58.239183,33.6225586 C57.9315643,34.5043989 57.4877211,35.1782203 56.9076401,35.644043 C56.327559,36.1098656 55.6303004,36.3427734 54.8158432,36.3427734 C54.001386,36.3427734 53.3041273,36.1098656 52.7240463,35.644043 C52.1439653,35.1782203 51.7001221,34.5043989 51.3925033,33.6225586 C51.0848846,32.7407182 50.9310776,31.6845765 50.9310776,30.4541016 C50.9310776,29.2236267 51.0848846,28.1674849 51.3925033,27.2856445 C51.7001221,26.4038042 52.1439653,25.7314476 52.7240463,25.2685547 C53.3041273,24.8056617 54.001386,24.5742188 54.8158432,24.5742188 Z M54.8158432,26.1914062 C54.4056849,26.1914062 54.0541259,26.3598616 53.7611557,26.6967773 C53.4681855,27.0336931 53.2440666,27.5214812 53.0887924,28.1601562 C52.9335182,28.7988313 52.8558822,29.5634721 52.8558822,30.4541016 C52.8558822,30.9111351 52.8793195,31.3593728 52.9261947,31.7988281 L56.3978744,27.6767578 C56.2338111,27.1962867 56.0170164,26.8286146 55.7474838,26.5737305 C55.4779512,26.3188464 55.1674074,26.1914062 54.8158432,26.1914062 Z M54.8158432,34.7255859 C55.2260015,34.7255859 55.5775605,34.5556658 55.8705307,34.2158203 C56.1635009,33.8759749 56.3876197,33.3867219 56.542894,32.7480469 C56.6981682,32.1093718 56.7758041,31.344731 56.7758041,30.4541016 C56.7758041,29.9267552 56.7494372,29.4492209 56.6967026,29.0214844 L53.2074447,33.1699219 C53.3715081,33.6738306 53.5897676,34.0590807 53.8622299,34.3256836 C54.1346922,34.5922865 54.4525601,34.7255859 54.8158432,34.7255859 Z M65.8900619,36.2373047 C65.6674046,36.2373047 65.4608637,36.183106 65.270433,36.074707 C65.0800024,35.9663081 64.9305898,35.8168955 64.8221908,35.6264648 C64.7137919,35.4360342 64.6595932,35.2294933 64.6595932,35.0068359 C64.6595932,34.790038 64.7137919,34.5893564 64.8221908,34.4047852 C64.9305898,34.2202139 65.0800024,34.073731 65.270433,33.965332 C65.4608637,33.8569331 65.6674046,33.8027344 65.8900619,33.8027344 C66.1068599,33.8027344 66.3075415,33.8569331 66.4921127,33.965332 C66.6766839,34.073731 66.8231669,34.2202139 66.9315658,34.4047852 C67.0399648,34.5893564 67.0941635,34.790038 67.0941635,35.0068359 C67.0941635,35.2294933 67.0399648,35.4360342 66.9315658,35.6264648 C66.8231669,35.8168955 66.6766839,35.9663081 66.4921127,36.074707 C66.3075415,36.183106 66.1068599,36.2373047 65.8900619,36.2373047 Z M76.5775619,36 L76.5775619,27.0703125 L74.6527572,27.6503906 L74.1693588,26.4199219 L77.2103744,24.7851562 L78.555101,24.7851562 L78.555101,36 L76.5775619,36 Z M96.0365463,24.7851562 L99.4379135,24.7851562 C100.75042,24.7851562 101.731856,25.044431 102.382249,25.5629883 C103.032643,26.0815456 103.357835,26.789058 103.357835,27.6855469 C103.357835,28.136721 103.23479,28.5761697 102.988695,29.0039062 C102.7426,29.4316428 102.411548,29.7597645 101.995531,29.9882812 C102.341236,30.1523446 102.650314,30.3793931 102.922777,30.6694336 C103.195239,30.9594741 103.409104,31.2817365 103.564378,31.6362305 C103.719653,31.9907244 103.797288,32.3466779 103.797288,32.7041016 C103.797288,33.7294973 103.432546,34.5351533 102.70305,35.1210938 C101.973554,35.7070342 100.879327,36 99.4203354,36 L96.0365463,36 L96.0365463,24.7851562 Z M99.2797104,29.1621094 C100.000417,29.1621094 100.521896,29.0390637 100.844163,28.7929688 C101.166431,28.5468738 101.327562,28.2128927 101.327562,27.7910156 C101.327562,27.55078 101.258715,27.3295909 101.121019,27.1274414 C100.983323,26.925292 100.773852,26.7641608 100.492601,26.644043 C100.21135,26.5239252 99.8656499,26.4638672 99.4554916,26.4638672 L98.0492416,26.4638672 L98.0492416,29.1621094 L99.2797104,29.1621094 Z M99.6136947,34.2861328 C100.287526,34.2861328 100.801681,34.1616223 101.156175,33.9125977 C101.510669,33.663573 101.687913,33.243167 101.687913,32.6513672 C101.687913,32.0888644 101.498951,31.6391618 101.121019,31.3022461 C100.743087,30.9653303 100.146902,30.796875 99.3324447,30.796875 L98.0492416,30.796875 L98.0492416,34.2861328 L99.6136947,34.2861328 Z M109.96721,36 L109.96721,26.5341797 L106.926195,26.5341797 L106.926195,24.7851562 L115.187913,24.7851562 L115.187913,26.5341797 L112.023851,26.5341797 L112.023851,36 L109.96721,36 Z M122.895921,34.7080078 C123.657644,34.7080078 124.334395,34.183599 124.926195,33.1347656 L126.455492,34.1279297 C126.033615,34.8486364 125.512135,35.3950177 124.891038,35.7670898 C124.269942,36.139162 123.560964,36.3251953 122.764085,36.3251953 C121.920331,36.3251953 121.164479,36.1084006 120.496507,35.6748047 C119.828535,35.2412088 119.301197,34.5835005 118.914476,33.7016602 C118.527755,32.8198198 118.334398,31.7373111 118.334398,30.4541016 C118.334398,29.0654227 118.558517,27.9257857 119.006761,27.0351562 C119.455006,26.1445268 120.026289,25.4985372 120.720628,25.097168 C121.414968,24.6957988 122.151777,24.4951172 122.931078,24.4951172 C123.780691,24.4951172 124.516035,24.7207009 125.137132,25.171875 C125.758229,25.6230491 126.238693,26.249996 126.578538,27.0527344 L125.119554,27.7646484 L125.101976,27.7734375 L125.101976,27.7646484 C124.879319,27.149411 124.583423,26.7216809 124.214281,26.4814453 C123.845138,26.2412097 123.434986,26.1210938 122.983812,26.1210938 C122.11662,26.1210938 121.47356,26.49609 121.054613,27.2460938 C120.635665,27.9960975 120.426195,29.0361262 120.426195,30.3662109 C120.426195,31.1806681 120.530198,31.9174772 120.738206,32.5766602 C120.946215,33.2358431 121.239181,33.7558575 121.617113,34.1367188 C121.995044,34.51758 122.42131,34.7080078 122.895921,34.7080078 Z M124.891038,27.6503906 C124.891038,27.6328124 124.899827,27.6240234 124.917406,27.6240234 C124.934984,27.6240234 124.961351,27.6489255 124.996507,27.6987305 C125.031664,27.7485354 125.055101,27.7792968 125.06682,27.7910156 L124.978929,27.8349609 L124.891038,27.6503906 Z M125.145921,27.8964844 C125.145921,27.9082032 125.137132,27.9023439 125.119554,27.8789062 C125.101976,27.8554686 125.084398,27.8261721 125.06682,27.7910156 L125.101976,27.7734375 L125.145921,27.8964844 Z" id="0.1BTC" fill="#000000" fill-rule="nonzero" opacity="0.749906994"></path>
                    </g>
                    <g id="Group-6-Copy-6" transform="translate(529.000000, 702.000000)">
                        <rect id="Rectangle" fill="#F5B3CF" x="0" y="0" width="179.381686" height="59.2975207" rx="4"></rect>
                        <path d="M54.8158432,24.5742188 C55.6303004,24.5742188 56.327559,24.8056617 56.9076401,25.2685547 C57.4877211,25.7314476 57.9315643,26.4038042 58.239183,27.2856445 C58.5468017,28.1674849 58.7006088,29.2236267 58.7006088,30.4541016 C58.7006088,31.6845765 58.5468017,32.7407182 58.239183,33.6225586 C57.9315643,34.5043989 57.4877211,35.1782203 56.9076401,35.644043 C56.327559,36.1098656 55.6303004,36.3427734 54.8158432,36.3427734 C54.001386,36.3427734 53.3041273,36.1098656 52.7240463,35.644043 C52.1439653,35.1782203 51.7001221,34.5043989 51.3925033,33.6225586 C51.0848846,32.7407182 50.9310776,31.6845765 50.9310776,30.4541016 C50.9310776,29.2236267 51.0848846,28.1674849 51.3925033,27.2856445 C51.7001221,26.4038042 52.1439653,25.7314476 52.7240463,25.2685547 C53.3041273,24.8056617 54.001386,24.5742188 54.8158432,24.5742188 Z M54.8158432,26.1914062 C54.4056849,26.1914062 54.0541259,26.3598616 53.7611557,26.6967773 C53.4681855,27.0336931 53.2440666,27.5214812 53.0887924,28.1601562 C52.9335182,28.7988313 52.8558822,29.5634721 52.8558822,30.4541016 C52.8558822,30.9111351 52.8793195,31.3593728 52.9261947,31.7988281 L56.3978744,27.6767578 C56.2338111,27.1962867 56.0170164,26.8286146 55.7474838,26.5737305 C55.4779512,26.3188464 55.1674074,26.1914062 54.8158432,26.1914062 Z M54.8158432,34.7255859 C55.2260015,34.7255859 55.5775605,34.5556658 55.8705307,34.2158203 C56.1635009,33.8759749 56.3876197,33.3867219 56.542894,32.7480469 C56.6981682,32.1093718 56.7758041,31.344731 56.7758041,30.4541016 C56.7758041,29.9267552 56.7494372,29.4492209 56.6967026,29.0214844 L53.2074447,33.1699219 C53.3715081,33.6738306 53.5897676,34.0590807 53.8622299,34.3256836 C54.1346922,34.5922865 54.4525601,34.7255859 54.8158432,34.7255859 Z M65.8900619,36.2373047 C65.6674046,36.2373047 65.4608637,36.183106 65.270433,36.074707 C65.0800024,35.9663081 64.9305898,35.8168955 64.8221908,35.6264648 C64.7137919,35.4360342 64.6595932,35.2294933 64.6595932,35.0068359 C64.6595932,34.790038 64.7137919,34.5893564 64.8221908,34.4047852 C64.9305898,34.2202139 65.0800024,34.073731 65.270433,33.965332 C65.4608637,33.8569331 65.6674046,33.8027344 65.8900619,33.8027344 C66.1068599,33.8027344 66.3075415,33.8569331 66.4921127,33.965332 C66.6766839,34.073731 66.8231669,34.2202139 66.9315658,34.4047852 C67.0399648,34.5893564 67.0941635,34.790038 67.0941635,35.0068359 C67.0941635,35.2294933 67.0399648,35.4360342 66.9315658,35.6264648 C66.8231669,35.8168955 66.6766839,35.9663081 66.4921127,36.074707 C66.3075415,36.183106 66.1068599,36.2373047 65.8900619,36.2373047 Z M73.8441635,34.5234375 C75.2914364,33.1347587 76.3300002,32.1093783 76.9598861,31.4472656 C77.5897721,30.7851529 78.0702361,30.1684599 78.4012924,29.597168 C78.7323487,29.025876 78.8978744,28.4414092 78.8978744,27.84375 C78.8978744,27.3691383 78.7484619,26.9926772 78.4496322,26.7143555 C78.1508026,26.4360338 77.7494394,26.296875 77.2455307,26.296875 C76.9408417,26.296875 76.6508055,26.3320309 76.3754135,26.4023438 C76.1000215,26.4726566 75.8685785,26.5576167 75.6810776,26.6572266 C75.4935766,26.7568364 75.3763903,26.8505855 75.3295151,26.9384766 C75.0951389,27.3603537 74.9779526,27.5917967 74.9779526,27.6328125 C74.9779526,27.6386719 74.9808822,27.6416016 74.9867416,27.6416016 C74.9984604,27.6357422 75.0160384,27.6240235 75.039476,27.6064453 C75.0629136,27.5888671 75.084886,27.5771485 75.105394,27.5712891 C75.1259019,27.5654297 75.1390853,27.5771483 75.1449447,27.6064453 L75.0482651,27.7822266 L74.9076401,27.703125 L73.5717026,26.6923828 C74.0052985,25.9951137 74.5370314,25.4604511 75.1669174,25.0883789 C75.7968034,24.7163067 76.5013862,24.5302734 77.2806869,24.5302734 C77.948659,24.5302734 78.549239,24.6694322 79.0824447,24.9477539 C79.6156505,25.2260756 80.0331268,25.6142553 80.3348861,26.1123047 C80.6366455,26.6103541 80.7875229,27.1816374 80.7875229,27.8261719 C80.7875229,28.4648469 80.6366455,29.0771455 80.3348861,29.6630859 C80.0331268,30.2490264 79.637623,30.8173801 79.1483627,31.3681641 C78.6591025,31.9189481 77.9398714,32.6689406 76.9906479,33.6181641 L76.2699447,34.3300781 L79.9349838,34.3300781 C80.1283441,34.3300781 80.2704326,34.3198243 80.3612533,34.2993164 C80.4520741,34.2788085 80.5326397,34.2363284 80.6029526,34.171875 L80.805101,34.171875 L80.805101,36 L73.8441635,36 L73.8441635,34.5234375 Z M96.0365463,24.7851562 L99.4379135,24.7851562 C100.75042,24.7851562 101.731856,25.044431 102.382249,25.5629883 C103.032643,26.0815456 103.357835,26.789058 103.357835,27.6855469 C103.357835,28.136721 103.23479,28.5761697 102.988695,29.0039062 C102.7426,29.4316428 102.411548,29.7597645 101.995531,29.9882812 C102.341236,30.1523446 102.650314,30.3793931 102.922777,30.6694336 C103.195239,30.9594741 103.409104,31.2817365 103.564378,31.6362305 C103.719653,31.9907244 103.797288,32.3466779 103.797288,32.7041016 C103.797288,33.7294973 103.432546,34.5351533 102.70305,35.1210938 C101.973554,35.7070342 100.879327,36 99.4203354,36 L96.0365463,36 L96.0365463,24.7851562 Z M99.2797104,29.1621094 C100.000417,29.1621094 100.521896,29.0390637 100.844163,28.7929688 C101.166431,28.5468738 101.327562,28.2128927 101.327562,27.7910156 C101.327562,27.55078 101.258715,27.3295909 101.121019,27.1274414 C100.983323,26.925292 100.773852,26.7641608 100.492601,26.644043 C100.21135,26.5239252 99.8656499,26.4638672 99.4554916,26.4638672 L98.0492416,26.4638672 L98.0492416,29.1621094 L99.2797104,29.1621094 Z M99.6136947,34.2861328 C100.287526,34.2861328 100.801681,34.1616223 101.156175,33.9125977 C101.510669,33.663573 101.687913,33.243167 101.687913,32.6513672 C101.687913,32.0888644 101.498951,31.6391618 101.121019,31.3022461 C100.743087,30.9653303 100.146902,30.796875 99.3324447,30.796875 L98.0492416,30.796875 L98.0492416,34.2861328 L99.6136947,34.2861328 Z M109.96721,36 L109.96721,26.5341797 L106.926195,26.5341797 L106.926195,24.7851562 L115.187913,24.7851562 L115.187913,26.5341797 L112.023851,26.5341797 L112.023851,36 L109.96721,36 Z M122.895921,34.7080078 C123.657644,34.7080078 124.334395,34.183599 124.926195,33.1347656 L126.455492,34.1279297 C126.033615,34.8486364 125.512135,35.3950177 124.891038,35.7670898 C124.269942,36.139162 123.560964,36.3251953 122.764085,36.3251953 C121.920331,36.3251953 121.164479,36.1084006 120.496507,35.6748047 C119.828535,35.2412088 119.301197,34.5835005 118.914476,33.7016602 C118.527755,32.8198198 118.334398,31.7373111 118.334398,30.4541016 C118.334398,29.0654227 118.558517,27.9257857 119.006761,27.0351562 C119.455006,26.1445268 120.026289,25.4985372 120.720628,25.097168 C121.414968,24.6957988 122.151777,24.4951172 122.931078,24.4951172 C123.780691,24.4951172 124.516035,24.7207009 125.137132,25.171875 C125.758229,25.6230491 126.238693,26.249996 126.578538,27.0527344 L125.119554,27.7646484 L125.101976,27.7734375 L125.101976,27.7646484 C124.879319,27.149411 124.583423,26.7216809 124.214281,26.4814453 C123.845138,26.2412097 123.434986,26.1210938 122.983812,26.1210938 C122.11662,26.1210938 121.47356,26.49609 121.054613,27.2460938 C120.635665,27.9960975 120.426195,29.0361262 120.426195,30.3662109 C120.426195,31.1806681 120.530198,31.9174772 120.738206,32.5766602 C120.946215,33.2358431 121.239181,33.7558575 121.617113,34.1367188 C121.995044,34.51758 122.42131,34.7080078 122.895921,34.7080078 Z M124.891038,27.6503906 C124.891038,27.6328124 124.899827,27.6240234 124.917406,27.6240234 C124.934984,27.6240234 124.961351,27.6489255 124.996507,27.6987305 C125.031664,27.7485354 125.055101,27.7792968 125.06682,27.7910156 L124.978929,27.8349609 L124.891038,27.6503906 Z M125.145921,27.8964844 C125.145921,27.9082032 125.137132,27.9023439 125.119554,27.8789062 C125.101976,27.8554686 125.084398,27.8261721 125.06682,27.7910156 L125.101976,27.7734375 L125.145921,27.8964844 Z" id="0.2BTC" fill="#000000" fill-rule="nonzero" opacity="0.749906994"></path>
                    </g>
                    <g id="Group-6-Copy-7" transform="translate(529.000000, 780.000000)">
                        <rect id="Rectangle" fill="#B6ECF3" x="0" y="0" width="179.381686" height="59.2975207" rx="4"></rect>
                        <path d="M54.8158432,24.5742188 C55.6303004,24.5742188 56.327559,24.8056617 56.9076401,25.2685547 C57.4877211,25.7314476 57.9315643,26.4038042 58.239183,27.2856445 C58.5468017,28.1674849 58.7006088,29.2236267 58.7006088,30.4541016 C58.7006088,31.6845765 58.5468017,32.7407182 58.239183,33.6225586 C57.9315643,34.5043989 57.4877211,35.1782203 56.9076401,35.644043 C56.327559,36.1098656 55.6303004,36.3427734 54.8158432,36.3427734 C54.001386,36.3427734 53.3041273,36.1098656 52.7240463,35.644043 C52.1439653,35.1782203 51.7001221,34.5043989 51.3925033,33.6225586 C51.0848846,32.7407182 50.9310776,31.6845765 50.9310776,30.4541016 C50.9310776,29.2236267 51.0848846,28.1674849 51.3925033,27.2856445 C51.7001221,26.4038042 52.1439653,25.7314476 52.7240463,25.2685547 C53.3041273,24.8056617 54.001386,24.5742188 54.8158432,24.5742188 Z M54.8158432,26.1914062 C54.4056849,26.1914062 54.0541259,26.3598616 53.7611557,26.6967773 C53.4681855,27.0336931 53.2440666,27.5214812 53.0887924,28.1601562 C52.9335182,28.7988313 52.8558822,29.5634721 52.8558822,30.4541016 C52.8558822,30.9111351 52.8793195,31.3593728 52.9261947,31.7988281 L56.3978744,27.6767578 C56.2338111,27.1962867 56.0170164,26.8286146 55.7474838,26.5737305 C55.4779512,26.3188464 55.1674074,26.1914062 54.8158432,26.1914062 Z M54.8158432,34.7255859 C55.2260015,34.7255859 55.5775605,34.5556658 55.8705307,34.2158203 C56.1635009,33.8759749 56.3876197,33.3867219 56.542894,32.7480469 C56.6981682,32.1093718 56.7758041,31.344731 56.7758041,30.4541016 C56.7758041,29.9267552 56.7494372,29.4492209 56.6967026,29.0214844 L53.2074447,33.1699219 C53.3715081,33.6738306 53.5897676,34.0590807 53.8622299,34.3256836 C54.1346922,34.5922865 54.4525601,34.7255859 54.8158432,34.7255859 Z M65.8900619,36.2373047 C65.6674046,36.2373047 65.4608637,36.183106 65.270433,36.074707 C65.0800024,35.9663081 64.9305898,35.8168955 64.8221908,35.6264648 C64.7137919,35.4360342 64.6595932,35.2294933 64.6595932,35.0068359 C64.6595932,34.790038 64.7137919,34.5893564 64.8221908,34.4047852 C64.9305898,34.2202139 65.0800024,34.073731 65.270433,33.965332 C65.4608637,33.8569331 65.6674046,33.8027344 65.8900619,33.8027344 C66.1068599,33.8027344 66.3075415,33.8569331 66.4921127,33.965332 C66.6766839,34.073731 66.8231669,34.2202139 66.9315658,34.4047852 C67.0399648,34.5893564 67.0941635,34.790038 67.0941635,35.0068359 C67.0941635,35.2294933 67.0399648,35.4360342 66.9315658,35.6264648 C66.8231669,35.8168955 66.6766839,35.9663081 66.4921127,36.074707 C66.3075415,36.183106 66.1068599,36.2373047 65.8900619,36.2373047 Z M78.9154526,30.0234375 C79.4369395,30.205079 79.8763883,30.5346656 80.2338119,31.012207 C80.5912356,31.4897485 80.7699447,32.1035119 80.7699447,32.8535156 C80.7699447,33.5039095 80.6190673,34.0942356 80.317308,34.6245117 C80.0155487,35.1547878 79.5804945,35.5737289 79.0121322,35.8813477 C78.44377,36.1889664 77.7699486,36.3427734 76.9906479,36.3427734 C75.4554839,36.3427734 74.2865503,35.8388722 73.4838119,34.8310547 L74.3187729,33.1523438 L74.3275619,33.1435547 L74.336351,33.1611328 C74.6000242,33.670901 74.944259,34.0371083 75.3690658,34.2597656 C75.7938726,34.482423 76.3402539,34.59375 77.008226,34.59375 C77.55901,34.59375 77.9882049,34.4282243 78.2958236,34.097168 C78.6034424,33.7661116 78.7572494,33.3251981 78.7572494,32.7744141 C78.7572494,32.1708954 78.5887941,31.7211929 78.2518783,31.425293 C77.9149626,31.1293931 77.3451441,30.9814453 76.5424057,30.9814453 C76.2611543,30.9814453 75.9476808,30.9990233 75.601976,31.0341797 L75.601976,29.4082031 C75.6898671,29.4140625 75.8158424,29.4169922 75.9799057,29.4169922 C76.9056916,29.4169922 77.5487515,29.2675796 77.9091049,28.96875 C78.2694583,28.6699204 78.4496322,28.2539089 78.4496322,27.7207031 C78.4496322,27.2871072 78.3221921,26.9355482 78.067308,26.6660156 C77.8124239,26.396483 77.4535408,26.2617188 76.9906479,26.2617188 C76.586349,26.2617188 76.2128176,26.3320305 75.8700424,26.4726562 C75.5272672,26.613282 75.1683841,26.8564436 74.7933822,27.2021484 L73.6595932,26.0419922 C74.0873297,25.532224 74.5853716,25.1528333 75.1537338,24.9038086 C75.722096,24.6547839 76.3285353,24.5302734 76.9730697,24.5302734 C77.65862,24.5302734 78.2665241,24.6606432 78.7968002,24.9213867 C79.3270763,25.1821302 79.7401581,25.5395485 80.036058,25.9936523 C80.3319579,26.4477562 80.4799057,26.9560519 80.4799057,27.5185547 C80.4799057,28.1220733 80.3260986,28.6420877 80.0184799,29.0786133 C79.7108612,29.5151389 79.3431891,29.8300772 78.9154526,30.0234375 Z M74.3275619,33.1435547 C74.3041243,33.0966795 74.2924057,33.0585939 74.2924057,33.0292969 C74.2924057,33.0175781 74.298265,33.0117188 74.3099838,33.0117188 C74.3217026,33.0117188 74.3451399,33.0205077 74.3802963,33.0380859 L74.3275619,33.1435547 Z M74.5824447,33.1259766 C74.5824447,33.131836 74.5795151,33.1347656 74.5736557,33.1347656 C74.5560775,33.1347656 74.5253161,33.1215822 74.4813705,33.0952148 C74.437425,33.0688475 74.4037339,33.0498047 74.3802963,33.0380859 L74.3890854,33.0117188 L74.5736557,33.0996094 L74.5824447,33.1259766 Z M96.0365463,24.7851562 L99.4379135,24.7851562 C100.75042,24.7851562 101.731856,25.044431 102.382249,25.5629883 C103.032643,26.0815456 103.357835,26.789058 103.357835,27.6855469 C103.357835,28.136721 103.23479,28.5761697 102.988695,29.0039062 C102.7426,29.4316428 102.411548,29.7597645 101.995531,29.9882812 C102.341236,30.1523446 102.650314,30.3793931 102.922777,30.6694336 C103.195239,30.9594741 103.409104,31.2817365 103.564378,31.6362305 C103.719653,31.9907244 103.797288,32.3466779 103.797288,32.7041016 C103.797288,33.7294973 103.432546,34.5351533 102.70305,35.1210938 C101.973554,35.7070342 100.879327,36 99.4203354,36 L96.0365463,36 L96.0365463,24.7851562 Z M99.2797104,29.1621094 C100.000417,29.1621094 100.521896,29.0390637 100.844163,28.7929688 C101.166431,28.5468738 101.327562,28.2128927 101.327562,27.7910156 C101.327562,27.55078 101.258715,27.3295909 101.121019,27.1274414 C100.983323,26.925292 100.773852,26.7641608 100.492601,26.644043 C100.21135,26.5239252 99.8656499,26.4638672 99.4554916,26.4638672 L98.0492416,26.4638672 L98.0492416,29.1621094 L99.2797104,29.1621094 Z M99.6136947,34.2861328 C100.287526,34.2861328 100.801681,34.1616223 101.156175,33.9125977 C101.510669,33.663573 101.687913,33.243167 101.687913,32.6513672 C101.687913,32.0888644 101.498951,31.6391618 101.121019,31.3022461 C100.743087,30.9653303 100.146902,30.796875 99.3324447,30.796875 L98.0492416,30.796875 L98.0492416,34.2861328 L99.6136947,34.2861328 Z M109.96721,36 L109.96721,26.5341797 L106.926195,26.5341797 L106.926195,24.7851562 L115.187913,24.7851562 L115.187913,26.5341797 L112.023851,26.5341797 L112.023851,36 L109.96721,36 Z M122.895921,34.7080078 C123.657644,34.7080078 124.334395,34.183599 124.926195,33.1347656 L126.455492,34.1279297 C126.033615,34.8486364 125.512135,35.3950177 124.891038,35.7670898 C124.269942,36.139162 123.560964,36.3251953 122.764085,36.3251953 C121.920331,36.3251953 121.164479,36.1084006 120.496507,35.6748047 C119.828535,35.2412088 119.301197,34.5835005 118.914476,33.7016602 C118.527755,32.8198198 118.334398,31.7373111 118.334398,30.4541016 C118.334398,29.0654227 118.558517,27.9257857 119.006761,27.0351562 C119.455006,26.1445268 120.026289,25.4985372 120.720628,25.097168 C121.414968,24.6957988 122.151777,24.4951172 122.931078,24.4951172 C123.780691,24.4951172 124.516035,24.7207009 125.137132,25.171875 C125.758229,25.6230491 126.238693,26.249996 126.578538,27.0527344 L125.119554,27.7646484 L125.101976,27.7734375 L125.101976,27.7646484 C124.879319,27.149411 124.583423,26.7216809 124.214281,26.4814453 C123.845138,26.2412097 123.434986,26.1210938 122.983812,26.1210938 C122.11662,26.1210938 121.47356,26.49609 121.054613,27.2460938 C120.635665,27.9960975 120.426195,29.0361262 120.426195,30.3662109 C120.426195,31.1806681 120.530198,31.9174772 120.738206,32.5766602 C120.946215,33.2358431 121.239181,33.7558575 121.617113,34.1367188 C121.995044,34.51758 122.42131,34.7080078 122.895921,34.7080078 Z M124.891038,27.6503906 C124.891038,27.6328124 124.899827,27.6240234 124.917406,27.6240234 C124.934984,27.6240234 124.961351,27.6489255 124.996507,27.6987305 C125.031664,27.7485354 125.055101,27.7792968 125.06682,27.7910156 L124.978929,27.8349609 L124.891038,27.6503906 Z M125.145921,27.8964844 C125.145921,27.9082032 125.137132,27.9023439 125.119554,27.8789062 C125.101976,27.8554686 125.084398,27.8261721 125.06682,27.7910156 L125.101976,27.7734375 L125.145921,27.8964844 Z" id="0.3BTC" fill="#000000" fill-rule="nonzero" opacity="0.749906994"></path>
                    </g>
                    <g id="Group-6-Copy" transform="translate(0.000000, 312.000000)">
                        <rect id="Rectangle" fill="#CCC5FF" x="0" y="0" width="179.381686" height="59.2975207" rx="4"></rect>
                        <path d="M55.1058822,28.4765625 C55.8148702,28.4765625 56.433028,28.6318344 56.9603744,28.9423828 C57.4877208,29.2529312 57.8949433,29.7011689 58.1820541,30.2871094 C58.4691649,30.8730498 58.6127182,31.5703085 58.6127182,32.3789062 C58.6127182,33.158207 58.460376,33.8466767 58.1556869,34.4443359 C57.8509979,35.0419952 57.4174085,35.5078108 56.8549057,35.8417969 C56.2924029,36.1757829 55.6361594,36.3427734 54.8861557,36.3427734 C53.2338037,36.3427734 52.0297141,35.6337962 51.273851,34.2158203 L52.7679916,33.0732422 L52.7855697,33.0644531 L52.7943588,33.0820312 C52.9525627,33.3867203 53.1136939,33.6430654 53.2777572,33.8510742 C53.4418206,34.0590831 53.6498263,34.2290032 53.9017807,34.3608398 C54.1537351,34.4926764 54.4584195,34.5585938 54.8158432,34.5585938 C55.161548,34.5585938 55.4691621,34.4750985 55.7386947,34.3081055 C56.0082273,34.1411124 56.2220924,33.8935563 56.3802963,33.5654297 C56.5385002,33.237303 56.617601,32.8359399 56.617601,32.3613281 C56.617601,31.664059 56.4593994,31.1206074 56.1429916,30.730957 C55.8265838,30.3413066 55.4076427,30.1464844 54.8861557,30.1464844 C54.528732,30.1464844 54.2123289,30.2329093 53.9369369,30.4057617 C53.6615449,30.5786141 53.3890867,30.8525372 53.1195541,31.2275391 L51.8275619,30.6738281 L52.2406479,24.7851562 L58.2699447,24.7851562 L58.2699447,26.4990234 L54.0072494,26.4990234 L53.8578354,28.6699219 C54.2972907,28.541015 54.7133022,28.4765625 55.1058822,28.4765625 Z M52.7855697,33.0644531 C52.7562727,33.0117185 52.7416244,32.9765626 52.7416244,32.9589844 C52.7416244,32.9414062 52.7679914,32.9648434 52.820726,33.0292969 L52.7855697,33.0644531 Z M53.0228744,33.1435547 C53.0228744,33.1669923 53.0140855,33.1787109 52.9965072,33.1787109 C52.978929,33.1787109 52.9481676,33.1567385 52.9042221,33.112793 L52.820726,33.0292969 L52.8998276,32.9765625 L53.0228744,33.1435547 Z M65.8900619,36.2373047 C65.6674046,36.2373047 65.4608637,36.183106 65.270433,36.074707 C65.0800024,35.9663081 64.9305898,35.8168955 64.8221908,35.6264648 C64.7137919,35.4360342 64.6595932,35.2294933 64.6595932,35.0068359 C64.6595932,34.790038 64.7137919,34.5893564 64.8221908,34.4047852 C64.9305898,34.2202139 65.0800024,34.073731 65.270433,33.965332 C65.4608637,33.8569331 65.6674046,33.8027344 65.8900619,33.8027344 C66.1068599,33.8027344 66.3075415,33.8569331 66.4921127,33.965332 C66.6766839,34.073731 66.8231669,34.2202139 66.9315658,34.4047852 C67.0399648,34.5893564 67.0941635,34.790038 67.0941635,35.0068359 C67.0941635,35.2294933 67.0399648,35.4360342 66.9315658,35.6264648 C66.8231669,35.8168955 66.6766839,35.9663081 66.4921127,36.074707 C66.3075415,36.183106 66.1068599,36.2373047 65.8900619,36.2373047 Z M76.5775619,36 L76.5775619,27.0703125 L74.6527572,27.6503906 L74.1693588,26.4199219 L77.2103744,24.7851562 L78.555101,24.7851562 L78.555101,36 L76.5775619,36 Z M96.0365463,24.7851562 L99.4379135,24.7851562 C100.75042,24.7851562 101.731856,25.044431 102.382249,25.5629883 C103.032643,26.0815456 103.357835,26.789058 103.357835,27.6855469 C103.357835,28.136721 103.23479,28.5761697 102.988695,29.0039062 C102.7426,29.4316428 102.411548,29.7597645 101.995531,29.9882812 C102.341236,30.1523446 102.650314,30.3793931 102.922777,30.6694336 C103.195239,30.9594741 103.409104,31.2817365 103.564378,31.6362305 C103.719653,31.9907244 103.797288,32.3466779 103.797288,32.7041016 C103.797288,33.7294973 103.432546,34.5351533 102.70305,35.1210938 C101.973554,35.7070342 100.879327,36 99.4203354,36 L96.0365463,36 L96.0365463,24.7851562 Z M99.2797104,29.1621094 C100.000417,29.1621094 100.521896,29.0390637 100.844163,28.7929688 C101.166431,28.5468738 101.327562,28.2128927 101.327562,27.7910156 C101.327562,27.55078 101.258715,27.3295909 101.121019,27.1274414 C100.983323,26.925292 100.773852,26.7641608 100.492601,26.644043 C100.21135,26.5239252 99.8656499,26.4638672 99.4554916,26.4638672 L98.0492416,26.4638672 L98.0492416,29.1621094 L99.2797104,29.1621094 Z M99.6136947,34.2861328 C100.287526,34.2861328 100.801681,34.1616223 101.156175,33.9125977 C101.510669,33.663573 101.687913,33.243167 101.687913,32.6513672 C101.687913,32.0888644 101.498951,31.6391618 101.121019,31.3022461 C100.743087,30.9653303 100.146902,30.796875 99.3324447,30.796875 L98.0492416,30.796875 L98.0492416,34.2861328 L99.6136947,34.2861328 Z M109.96721,36 L109.96721,26.5341797 L106.926195,26.5341797 L106.926195,24.7851562 L115.187913,24.7851562 L115.187913,26.5341797 L112.023851,26.5341797 L112.023851,36 L109.96721,36 Z M122.895921,34.7080078 C123.657644,34.7080078 124.334395,34.183599 124.926195,33.1347656 L126.455492,34.1279297 C126.033615,34.8486364 125.512135,35.3950177 124.891038,35.7670898 C124.269942,36.139162 123.560964,36.3251953 122.764085,36.3251953 C121.920331,36.3251953 121.164479,36.1084006 120.496507,35.6748047 C119.828535,35.2412088 119.301197,34.5835005 118.914476,33.7016602 C118.527755,32.8198198 118.334398,31.7373111 118.334398,30.4541016 C118.334398,29.0654227 118.558517,27.9257857 119.006761,27.0351562 C119.455006,26.1445268 120.026289,25.4985372 120.720628,25.097168 C121.414968,24.6957988 122.151777,24.4951172 122.931078,24.4951172 C123.780691,24.4951172 124.516035,24.7207009 125.137132,25.171875 C125.758229,25.6230491 126.238693,26.249996 126.578538,27.0527344 L125.119554,27.7646484 L125.101976,27.7734375 L125.101976,27.7646484 C124.879319,27.149411 124.583423,26.7216809 124.214281,26.4814453 C123.845138,26.2412097 123.434986,26.1210938 122.983812,26.1210938 C122.11662,26.1210938 121.47356,26.49609 121.054613,27.2460938 C120.635665,27.9960975 120.426195,29.0361262 120.426195,30.3662109 C120.426195,31.1806681 120.530198,31.9174772 120.738206,32.5766602 C120.946215,33.2358431 121.239181,33.7558575 121.617113,34.1367188 C121.995044,34.51758 122.42131,34.7080078 122.895921,34.7080078 Z M124.891038,27.6503906 C124.891038,27.6328124 124.899827,27.6240234 124.917406,27.6240234 C124.934984,27.6240234 124.961351,27.6489255 124.996507,27.6987305 C125.031664,27.7485354 125.055101,27.7792968 125.06682,27.7910156 L124.978929,27.8349609 L124.891038,27.6503906 Z M125.145921,27.8964844 C125.145921,27.9082032 125.137132,27.9023439 125.119554,27.8789062 C125.101976,27.8554686 125.084398,27.8261721 125.06682,27.7910156 L125.101976,27.7734375 L125.145921,27.8964844 Z" id="5.1BTC" fill="#000000" fill-rule="nonzero" opacity="0.749906994"></path>
                    </g>
                    <g id="Group-6-Copy-5" transform="translate(529.000000, 78.000000)">
                        <rect id="Rectangle" fill="#A8ECA4" x="0" y="0" width="179.381686" height="59.2975207" rx="4"></rect>
                        <path d="M65.3275619,36 L65.3275619,27.0703125 L63.4027572,27.6503906 L62.9193588,26.4199219 L65.9603744,24.7851562 L67.305101,24.7851562 L67.305101,36 L65.3275619,36 Z M84.7865463,24.7851562 L88.1879135,24.7851562 C89.5004201,24.7851562 90.4818556,25.044431 91.1322494,25.5629883 C91.7826433,26.0815456 92.1078354,26.789058 92.1078354,27.6855469 C92.1078354,28.136721 91.9847897,28.5761697 91.7386947,29.0039062 C91.4925998,29.4316428 91.1615484,29.7597645 90.7455307,29.9882812 C91.0912355,30.1523446 91.4003145,30.3793931 91.6727768,30.6694336 C91.9452391,30.9594741 92.1591041,31.2817365 92.3143783,31.6362305 C92.4696526,31.9907244 92.5472885,32.3466779 92.5472885,32.7041016 C92.5472885,33.7294973 92.182546,34.5351533 91.4530502,35.1210938 C90.7235544,35.7070342 89.629327,36 88.1703354,36 L84.7865463,36 L84.7865463,24.7851562 Z M88.0297104,29.1621094 C88.7504171,29.1621094 89.2718963,29.0390637 89.5941635,28.7929688 C89.9164307,28.5468738 90.0775619,28.2128927 90.0775619,27.7910156 C90.0775619,27.55078 90.008715,27.3295909 89.871019,27.1274414 C89.733323,26.925292 89.5238524,26.7641608 89.242601,26.644043 C88.9613496,26.5239252 88.6156499,26.4638672 88.2054916,26.4638672 L86.7992416,26.4638672 L86.7992416,29.1621094 L88.0297104,29.1621094 Z M88.3636947,34.2861328 C89.0375262,34.2861328 89.5516813,34.1616223 89.9061752,33.9125977 C90.2606692,33.663573 90.4379135,33.243167 90.4379135,32.6513672 C90.4379135,32.0888644 90.2489505,31.6391618 89.871019,31.3022461 C89.4930874,30.9653303 88.8969019,30.796875 88.0824447,30.796875 L86.7992416,30.796875 L86.7992416,34.2861328 L88.3636947,34.2861328 Z M98.7172104,36 L98.7172104,26.5341797 L95.6761947,26.5341797 L95.6761947,24.7851562 L103.937913,24.7851562 L103.937913,26.5341797 L100.773851,26.5341797 L100.773851,36 L98.7172104,36 Z M111.645921,34.7080078 C112.407644,34.7080078 113.084395,34.183599 113.676195,33.1347656 L115.205492,34.1279297 C114.783615,34.8486364 114.262135,35.3950177 113.641038,35.7670898 C113.019942,36.139162 112.310964,36.3251953 111.514085,36.3251953 C110.670331,36.3251953 109.914479,36.1084006 109.246507,35.6748047 C108.578535,35.2412088 108.051197,34.5835005 107.664476,33.7016602 C107.277755,32.8198198 107.084398,31.7373111 107.084398,30.4541016 C107.084398,29.0654227 107.308517,27.9257857 107.756761,27.0351562 C108.205006,26.1445268 108.776289,25.4985372 109.470628,25.097168 C110.164968,24.6957988 110.901777,24.4951172 111.681078,24.4951172 C112.530691,24.4951172 113.266035,24.7207009 113.887132,25.171875 C114.508229,25.6230491 114.988693,26.249996 115.328538,27.0527344 L113.869554,27.7646484 L113.851976,27.7734375 L113.851976,27.7646484 C113.629319,27.149411 113.333423,26.7216809 112.964281,26.4814453 C112.595138,26.2412097 112.184986,26.1210938 111.733812,26.1210938 C110.86662,26.1210938 110.22356,26.49609 109.804613,27.2460938 C109.385665,27.9960975 109.176195,29.0361262 109.176195,30.3662109 C109.176195,31.1806681 109.280198,31.9174772 109.488206,32.5766602 C109.696215,33.2358431 109.989181,33.7558575 110.367113,34.1367188 C110.745044,34.51758 111.17131,34.7080078 111.645921,34.7080078 Z M113.641038,27.6503906 C113.641038,27.6328124 113.649827,27.6240234 113.667406,27.6240234 C113.684984,27.6240234 113.711351,27.6489255 113.746507,27.6987305 C113.781664,27.7485354 113.805101,27.7792968 113.81682,27.7910156 L113.728929,27.8349609 L113.641038,27.6503906 Z M113.895921,27.8964844 C113.895921,27.9082032 113.887132,27.9023439 113.869554,27.8789062 C113.851976,27.8554686 113.834398,27.8261721 113.81682,27.7910156 L113.851976,27.7734375 L113.895921,27.8964844 Z" id="1BTC" fill="#000000" fill-rule="nonzero" opacity="0.749906994"></path>
                    </g>
                    <g id="Group-6-Copy-13" transform="translate(529.000000, 0.000000)">
                        <rect id="Rectangle" fill="#A8ECA4" x="0" y="0" width="179.381686" height="59.2975207" rx="4"></rect>
                        <path d="M65.3275619,36 L65.3275619,27.0703125 L63.4027572,27.6503906 L62.9193588,26.4199219 L65.9603744,24.7851562 L67.305101,24.7851562 L67.305101,36 L65.3275619,36 Z M84.7865463,24.7851562 L88.1879135,24.7851562 C89.5004201,24.7851562 90.4818556,25.044431 91.1322494,25.5629883 C91.7826433,26.0815456 92.1078354,26.789058 92.1078354,27.6855469 C92.1078354,28.136721 91.9847897,28.5761697 91.7386947,29.0039062 C91.4925998,29.4316428 91.1615484,29.7597645 90.7455307,29.9882812 C91.0912355,30.1523446 91.4003145,30.3793931 91.6727768,30.6694336 C91.9452391,30.9594741 92.1591041,31.2817365 92.3143783,31.6362305 C92.4696526,31.9907244 92.5472885,32.3466779 92.5472885,32.7041016 C92.5472885,33.7294973 92.182546,34.5351533 91.4530502,35.1210938 C90.7235544,35.7070342 89.629327,36 88.1703354,36 L84.7865463,36 L84.7865463,24.7851562 Z M88.0297104,29.1621094 C88.7504171,29.1621094 89.2718963,29.0390637 89.5941635,28.7929688 C89.9164307,28.5468738 90.0775619,28.2128927 90.0775619,27.7910156 C90.0775619,27.55078 90.008715,27.3295909 89.871019,27.1274414 C89.733323,26.925292 89.5238524,26.7641608 89.242601,26.644043 C88.9613496,26.5239252 88.6156499,26.4638672 88.2054916,26.4638672 L86.7992416,26.4638672 L86.7992416,29.1621094 L88.0297104,29.1621094 Z M88.3636947,34.2861328 C89.0375262,34.2861328 89.5516813,34.1616223 89.9061752,33.9125977 C90.2606692,33.663573 90.4379135,33.243167 90.4379135,32.6513672 C90.4379135,32.0888644 90.2489505,31.6391618 89.871019,31.3022461 C89.4930874,30.9653303 88.8969019,30.796875 88.0824447,30.796875 L86.7992416,30.796875 L86.7992416,34.2861328 L88.3636947,34.2861328 Z M98.7172104,36 L98.7172104,26.5341797 L95.6761947,26.5341797 L95.6761947,24.7851562 L103.937913,24.7851562 L103.937913,26.5341797 L100.773851,26.5341797 L100.773851,36 L98.7172104,36 Z M111.645921,34.7080078 C112.407644,34.7080078 113.084395,34.183599 113.676195,33.1347656 L115.205492,34.1279297 C114.783615,34.8486364 114.262135,35.3950177 113.641038,35.7670898 C113.019942,36.139162 112.310964,36.3251953 111.514085,36.3251953 C110.670331,36.3251953 109.914479,36.1084006 109.246507,35.6748047 C108.578535,35.2412088 108.051197,34.5835005 107.664476,33.7016602 C107.277755,32.8198198 107.084398,31.7373111 107.084398,30.4541016 C107.084398,29.0654227 107.308517,27.9257857 107.756761,27.0351562 C108.205006,26.1445268 108.776289,25.4985372 109.470628,25.097168 C110.164968,24.6957988 110.901777,24.4951172 111.681078,24.4951172 C112.530691,24.4951172 113.266035,24.7207009 113.887132,25.171875 C114.508229,25.6230491 114.988693,26.249996 115.328538,27.0527344 L113.869554,27.7646484 L113.851976,27.7734375 L113.851976,27.7646484 C113.629319,27.149411 113.333423,26.7216809 112.964281,26.4814453 C112.595138,26.2412097 112.184986,26.1210938 111.733812,26.1210938 C110.86662,26.1210938 110.22356,26.49609 109.804613,27.2460938 C109.385665,27.9960975 109.176195,29.0361262 109.176195,30.3662109 C109.176195,31.1806681 109.280198,31.9174772 109.488206,32.5766602 C109.696215,33.2358431 109.989181,33.7558575 110.367113,34.1367188 C110.745044,34.51758 111.17131,34.7080078 111.645921,34.7080078 Z M113.641038,27.6503906 C113.641038,27.6328124 113.649827,27.6240234 113.667406,27.6240234 C113.684984,27.6240234 113.711351,27.6489255 113.746507,27.6987305 C113.781664,27.7485354 113.805101,27.7792968 113.81682,27.7910156 L113.728929,27.8349609 L113.641038,27.6503906 Z M113.895921,27.8964844 C113.895921,27.9082032 113.887132,27.9023439 113.869554,27.8789062 C113.851976,27.8554686 113.834398,27.8261721 113.81682,27.7910156 L113.851976,27.7734375 L113.895921,27.8964844 Z" id="1BTC" fill="#000000" fill-rule="nonzero" opacity="0.749906994"></path>
                    </g>
                    <g id="Group-6-Copy-10" transform="translate(529.000000, 156.000000)">
                        <rect id="Rectangle" fill="#A8ECA4" x="0" y="0" width="179.381686" height="59.2975207" rx="4"></rect>
                        <path d="M65.3275619,36 L65.3275619,27.0703125 L63.4027572,27.6503906 L62.9193588,26.4199219 L65.9603744,24.7851562 L67.305101,24.7851562 L67.305101,36 L65.3275619,36 Z M84.7865463,24.7851562 L88.1879135,24.7851562 C89.5004201,24.7851562 90.4818556,25.044431 91.1322494,25.5629883 C91.7826433,26.0815456 92.1078354,26.789058 92.1078354,27.6855469 C92.1078354,28.136721 91.9847897,28.5761697 91.7386947,29.0039062 C91.4925998,29.4316428 91.1615484,29.7597645 90.7455307,29.9882812 C91.0912355,30.1523446 91.4003145,30.3793931 91.6727768,30.6694336 C91.9452391,30.9594741 92.1591041,31.2817365 92.3143783,31.6362305 C92.4696526,31.9907244 92.5472885,32.3466779 92.5472885,32.7041016 C92.5472885,33.7294973 92.182546,34.5351533 91.4530502,35.1210938 C90.7235544,35.7070342 89.629327,36 88.1703354,36 L84.7865463,36 L84.7865463,24.7851562 Z M88.0297104,29.1621094 C88.7504171,29.1621094 89.2718963,29.0390637 89.5941635,28.7929688 C89.9164307,28.5468738 90.0775619,28.2128927 90.0775619,27.7910156 C90.0775619,27.55078 90.008715,27.3295909 89.871019,27.1274414 C89.733323,26.925292 89.5238524,26.7641608 89.242601,26.644043 C88.9613496,26.5239252 88.6156499,26.4638672 88.2054916,26.4638672 L86.7992416,26.4638672 L86.7992416,29.1621094 L88.0297104,29.1621094 Z M88.3636947,34.2861328 C89.0375262,34.2861328 89.5516813,34.1616223 89.9061752,33.9125977 C90.2606692,33.663573 90.4379135,33.243167 90.4379135,32.6513672 C90.4379135,32.0888644 90.2489505,31.6391618 89.871019,31.3022461 C89.4930874,30.9653303 88.8969019,30.796875 88.0824447,30.796875 L86.7992416,30.796875 L86.7992416,34.2861328 L88.3636947,34.2861328 Z M98.7172104,36 L98.7172104,26.5341797 L95.6761947,26.5341797 L95.6761947,24.7851562 L103.937913,24.7851562 L103.937913,26.5341797 L100.773851,26.5341797 L100.773851,36 L98.7172104,36 Z M111.645921,34.7080078 C112.407644,34.7080078 113.084395,34.183599 113.676195,33.1347656 L115.205492,34.1279297 C114.783615,34.8486364 114.262135,35.3950177 113.641038,35.7670898 C113.019942,36.139162 112.310964,36.3251953 111.514085,36.3251953 C110.670331,36.3251953 109.914479,36.1084006 109.246507,35.6748047 C108.578535,35.2412088 108.051197,34.5835005 107.664476,33.7016602 C107.277755,32.8198198 107.084398,31.7373111 107.084398,30.4541016 C107.084398,29.0654227 107.308517,27.9257857 107.756761,27.0351562 C108.205006,26.1445268 108.776289,25.4985372 109.470628,25.097168 C110.164968,24.6957988 110.901777,24.4951172 111.681078,24.4951172 C112.530691,24.4951172 113.266035,24.7207009 113.887132,25.171875 C114.508229,25.6230491 114.988693,26.249996 115.328538,27.0527344 L113.869554,27.7646484 L113.851976,27.7734375 L113.851976,27.7646484 C113.629319,27.149411 113.333423,26.7216809 112.964281,26.4814453 C112.595138,26.2412097 112.184986,26.1210938 111.733812,26.1210938 C110.86662,26.1210938 110.22356,26.49609 109.804613,27.2460938 C109.385665,27.9960975 109.176195,29.0361262 109.176195,30.3662109 C109.176195,31.1806681 109.280198,31.9174772 109.488206,32.5766602 C109.696215,33.2358431 109.989181,33.7558575 110.367113,34.1367188 C110.745044,34.51758 111.17131,34.7080078 111.645921,34.7080078 Z M113.641038,27.6503906 C113.641038,27.6328124 113.649827,27.6240234 113.667406,27.6240234 C113.684984,27.6240234 113.711351,27.6489255 113.746507,27.6987305 C113.781664,27.7485354 113.805101,27.7792968 113.81682,27.7910156 L113.728929,27.8349609 L113.641038,27.6503906 Z M113.895921,27.8964844 C113.895921,27.9082032 113.887132,27.9023439 113.869554,27.8789062 C113.851976,27.8554686 113.834398,27.8261721 113.81682,27.7910156 L113.851976,27.7734375 L113.895921,27.8964844 Z" id="1BTC" fill="#000000" fill-rule="nonzero" opacity="0.749906994"></path>
                    </g>
                    <g id="Group-6-Copy-11" transform="translate(529.000000, 234.000000)">
                        <rect id="Rectangle" fill="#A8ECA4" x="0" y="0" width="179.381686" height="59.2975207" rx="4"></rect>
                        <path d="M65.3275619,36 L65.3275619,27.0703125 L63.4027572,27.6503906 L62.9193588,26.4199219 L65.9603744,24.7851562 L67.305101,24.7851562 L67.305101,36 L65.3275619,36 Z M84.7865463,24.7851562 L88.1879135,24.7851562 C89.5004201,24.7851562 90.4818556,25.044431 91.1322494,25.5629883 C91.7826433,26.0815456 92.1078354,26.789058 92.1078354,27.6855469 C92.1078354,28.136721 91.9847897,28.5761697 91.7386947,29.0039062 C91.4925998,29.4316428 91.1615484,29.7597645 90.7455307,29.9882812 C91.0912355,30.1523446 91.4003145,30.3793931 91.6727768,30.6694336 C91.9452391,30.9594741 92.1591041,31.2817365 92.3143783,31.6362305 C92.4696526,31.9907244 92.5472885,32.3466779 92.5472885,32.7041016 C92.5472885,33.7294973 92.182546,34.5351533 91.4530502,35.1210938 C90.7235544,35.7070342 89.629327,36 88.1703354,36 L84.7865463,36 L84.7865463,24.7851562 Z M88.0297104,29.1621094 C88.7504171,29.1621094 89.2718963,29.0390637 89.5941635,28.7929688 C89.9164307,28.5468738 90.0775619,28.2128927 90.0775619,27.7910156 C90.0775619,27.55078 90.008715,27.3295909 89.871019,27.1274414 C89.733323,26.925292 89.5238524,26.7641608 89.242601,26.644043 C88.9613496,26.5239252 88.6156499,26.4638672 88.2054916,26.4638672 L86.7992416,26.4638672 L86.7992416,29.1621094 L88.0297104,29.1621094 Z M88.3636947,34.2861328 C89.0375262,34.2861328 89.5516813,34.1616223 89.9061752,33.9125977 C90.2606692,33.663573 90.4379135,33.243167 90.4379135,32.6513672 C90.4379135,32.0888644 90.2489505,31.6391618 89.871019,31.3022461 C89.4930874,30.9653303 88.8969019,30.796875 88.0824447,30.796875 L86.7992416,30.796875 L86.7992416,34.2861328 L88.3636947,34.2861328 Z M98.7172104,36 L98.7172104,26.5341797 L95.6761947,26.5341797 L95.6761947,24.7851562 L103.937913,24.7851562 L103.937913,26.5341797 L100.773851,26.5341797 L100.773851,36 L98.7172104,36 Z M111.645921,34.7080078 C112.407644,34.7080078 113.084395,34.183599 113.676195,33.1347656 L115.205492,34.1279297 C114.783615,34.8486364 114.262135,35.3950177 113.641038,35.7670898 C113.019942,36.139162 112.310964,36.3251953 111.514085,36.3251953 C110.670331,36.3251953 109.914479,36.1084006 109.246507,35.6748047 C108.578535,35.2412088 108.051197,34.5835005 107.664476,33.7016602 C107.277755,32.8198198 107.084398,31.7373111 107.084398,30.4541016 C107.084398,29.0654227 107.308517,27.9257857 107.756761,27.0351562 C108.205006,26.1445268 108.776289,25.4985372 109.470628,25.097168 C110.164968,24.6957988 110.901777,24.4951172 111.681078,24.4951172 C112.530691,24.4951172 113.266035,24.7207009 113.887132,25.171875 C114.508229,25.6230491 114.988693,26.249996 115.328538,27.0527344 L113.869554,27.7646484 L113.851976,27.7734375 L113.851976,27.7646484 C113.629319,27.149411 113.333423,26.7216809 112.964281,26.4814453 C112.595138,26.2412097 112.184986,26.1210938 111.733812,26.1210938 C110.86662,26.1210938 110.22356,26.49609 109.804613,27.2460938 C109.385665,27.9960975 109.176195,29.0361262 109.176195,30.3662109 C109.176195,31.1806681 109.280198,31.9174772 109.488206,32.5766602 C109.696215,33.2358431 109.989181,33.7558575 110.367113,34.1367188 C110.745044,34.51758 111.17131,34.7080078 111.645921,34.7080078 Z M113.641038,27.6503906 C113.641038,27.6328124 113.649827,27.6240234 113.667406,27.6240234 C113.684984,27.6240234 113.711351,27.6489255 113.746507,27.6987305 C113.781664,27.7485354 113.805101,27.7792968 113.81682,27.7910156 L113.728929,27.8349609 L113.641038,27.6503906 Z M113.895921,27.8964844 C113.895921,27.9082032 113.887132,27.9023439 113.869554,27.8789062 C113.851976,27.8554686 113.834398,27.8261721 113.81682,27.7910156 L113.851976,27.7734375 L113.895921,27.8964844 Z" id="1BTC" fill="#000000" fill-rule="nonzero" opacity="0.749906994"></path>
                    </g>
                    <g id="Group-6-Copy-12" transform="translate(529.000000, 312.000000)">
                        <rect id="Rectangle" fill="#A8ECA4" x="0" y="0" width="179.381686" height="59.2975207" rx="4"></rect>
                        <path d="M65.3275619,36 L65.3275619,27.0703125 L63.4027572,27.6503906 L62.9193588,26.4199219 L65.9603744,24.7851562 L67.305101,24.7851562 L67.305101,36 L65.3275619,36 Z M84.7865463,24.7851562 L88.1879135,24.7851562 C89.5004201,24.7851562 90.4818556,25.044431 91.1322494,25.5629883 C91.7826433,26.0815456 92.1078354,26.789058 92.1078354,27.6855469 C92.1078354,28.136721 91.9847897,28.5761697 91.7386947,29.0039062 C91.4925998,29.4316428 91.1615484,29.7597645 90.7455307,29.9882812 C91.0912355,30.1523446 91.4003145,30.3793931 91.6727768,30.6694336 C91.9452391,30.9594741 92.1591041,31.2817365 92.3143783,31.6362305 C92.4696526,31.9907244 92.5472885,32.3466779 92.5472885,32.7041016 C92.5472885,33.7294973 92.182546,34.5351533 91.4530502,35.1210938 C90.7235544,35.7070342 89.629327,36 88.1703354,36 L84.7865463,36 L84.7865463,24.7851562 Z M88.0297104,29.1621094 C88.7504171,29.1621094 89.2718963,29.0390637 89.5941635,28.7929688 C89.9164307,28.5468738 90.0775619,28.2128927 90.0775619,27.7910156 C90.0775619,27.55078 90.008715,27.3295909 89.871019,27.1274414 C89.733323,26.925292 89.5238524,26.7641608 89.242601,26.644043 C88.9613496,26.5239252 88.6156499,26.4638672 88.2054916,26.4638672 L86.7992416,26.4638672 L86.7992416,29.1621094 L88.0297104,29.1621094 Z M88.3636947,34.2861328 C89.0375262,34.2861328 89.5516813,34.1616223 89.9061752,33.9125977 C90.2606692,33.663573 90.4379135,33.243167 90.4379135,32.6513672 C90.4379135,32.0888644 90.2489505,31.6391618 89.871019,31.3022461 C89.4930874,30.9653303 88.8969019,30.796875 88.0824447,30.796875 L86.7992416,30.796875 L86.7992416,34.2861328 L88.3636947,34.2861328 Z M98.7172104,36 L98.7172104,26.5341797 L95.6761947,26.5341797 L95.6761947,24.7851562 L103.937913,24.7851562 L103.937913,26.5341797 L100.773851,26.5341797 L100.773851,36 L98.7172104,36 Z M111.645921,34.7080078 C112.407644,34.7080078 113.084395,34.183599 113.676195,33.1347656 L115.205492,34.1279297 C114.783615,34.8486364 114.262135,35.3950177 113.641038,35.7670898 C113.019942,36.139162 112.310964,36.3251953 111.514085,36.3251953 C110.670331,36.3251953 109.914479,36.1084006 109.246507,35.6748047 C108.578535,35.2412088 108.051197,34.5835005 107.664476,33.7016602 C107.277755,32.8198198 107.084398,31.7373111 107.084398,30.4541016 C107.084398,29.0654227 107.308517,27.9257857 107.756761,27.0351562 C108.205006,26.1445268 108.776289,25.4985372 109.470628,25.097168 C110.164968,24.6957988 110.901777,24.4951172 111.681078,24.4951172 C112.530691,24.4951172 113.266035,24.7207009 113.887132,25.171875 C114.508229,25.6230491 114.988693,26.249996 115.328538,27.0527344 L113.869554,27.7646484 L113.851976,27.7734375 L113.851976,27.7646484 C113.629319,27.149411 113.333423,26.7216809 112.964281,26.4814453 C112.595138,26.2412097 112.184986,26.1210938 111.733812,26.1210938 C110.86662,26.1210938 110.22356,26.49609 109.804613,27.2460938 C109.385665,27.9960975 109.176195,29.0361262 109.176195,30.3662109 C109.176195,31.1806681 109.280198,31.9174772 109.488206,32.5766602 C109.696215,33.2358431 109.989181,33.7558575 110.367113,34.1367188 C110.745044,34.51758 111.17131,34.7080078 111.645921,34.7080078 Z M113.641038,27.6503906 C113.641038,27.6328124 113.649827,27.6240234 113.667406,27.6240234 C113.684984,27.6240234 113.711351,27.6489255 113.746507,27.6987305 C113.781664,27.7485354 113.805101,27.7792968 113.81682,27.7910156 L113.728929,27.8349609 L113.641038,27.6503906 Z M113.895921,27.8964844 C113.895921,27.9082032 113.887132,27.9023439 113.869554,27.8789062 C113.851976,27.8554686 113.834398,27.8261721 113.81682,27.7910156 L113.851976,27.7734375 L113.895921,27.8964844 Z" id="1BTC" fill="#000000" fill-rule="nonzero" opacity="0.749906994"></path>
                    </g>
                    <g id="Group" transform="translate(180.000000, 29.648760)" stroke="#979797" stroke-dasharray="4">
                        <path d="M349,0.351239669 L174.5,0 L174.5,780.35124 L349,780" id="Path-2"></path>
                        <path d="M0,312.35124 L349,312" id="Path-3"></path>
                        <path d="M0,390 L349,390.35124" id="Path-4"></path>
                        <path d="M0,468.35124 L349,468" id="Path-5"></path>
                        <path d="M174.5,78.3512397 L349,78.3512397" id="Path-6"></path>
                        <path d="M174.5,156 L349,156.35124" id="Path-7"></path>
                        <path d="M175,234.67562 L349.5,235.02686" id="Path-7-Copy"></path>
                        <path d="M175,546.67562 L349.5,547.02686" id="Path-7-Copy-2"></path>
                        <path d="M175,624.67562 L349.5,625.02686" id="Path-7-Copy-3"></path>
                        <path d="M175,702.67562 L349.5,703.02686" id="Path-7-Copy-4"></path>
                    </g>
                </g>
            </g>
        </g>
    </g>
</svg>