<svg width="807" height="782" xmlns="http://www.w3.org/2000/svg" xmlns:xlink="http://www.w3.org/1999/xlink"><defs><path d="M1268.307 487.636l-1.022-5.087-4.086-4.058C1194.64 412.406 1086.15 387 993.537 387l-.517 86.404c-18.93-.514-36.323-.514-52.693 0L939.809 387c-92.61 0-201.102 25.406-269.662 91.49l-4.085 4.06-1.022 5.086c-25.59 100.108 11.767 319.71 226.176 449.337C668.595 728.07 695.152 536.946 701.853 502.882c61.41-55.912 158.624-73.187 199.046-75.758l-.504 48.796c-53.728 6.102-110.534 20.834-155.56 53.369-10.187 74.242 20.974 160.647 66.081 234.348 35.82 59.524 80.845 106.737 132.53 152.49l23.193-252.179-66.734 154.586c-40.926-47.781-114.103-148.931-116.663-266.856 55.267-27.95 117.684-36.594 179.094-37.108 62.43-.5 131.508 8.645 187.796 37.108-2.56 117.925-75.737 219.075-116.663 266.856l-66.734-154.586 23.207 252.165c51.685-45.753 96.697-93.02 132.53-152.49 45.025-73.7 76.267-160.105 66.012-234.32-44.521-32.563-101.831-45.74-155.573-52.34l-.504-49.811c40.422 2.543 137.636 19.818 199.046 75.757 6.66 34.064 33.258 225.176-189.308 434.091 214.395-129.654 251.752-349.229 226.162-449.364z" id="b"/><filter x="-24.3%" y="-27.3%" width="148.6%" height="154.5%" filterUnits="objectBoundingBox" id="a"><feOffset in="SourceAlpha" result="shadowOffsetOuter1"/><feGaussianBlur stdDeviation="50" in="shadowOffsetOuter1" result="shadowBlurOuter1"/><feColorMatrix values="0 0 0 0 0.741604957 0 0 0 0 0.717025827 0 0 0 0 0.784618433 0 0 0 1 0" in="shadowBlurOuter1"/></filter></defs><g transform="rotate(29.722 1136.246 -599.226)" fill="none" fill-rule="evenodd"><use fill="#000" filter="url(#a)" xlink:href="#b"/><use fill="#FBFBFB" xlink:href="#b"/></g></svg>
