<?xml version="1.0" encoding="UTF-8"?>
<svg width="807px" height="782px" viewBox="0 0 807 782" version="1.1" xmlns="http://www.w3.org/2000/svg" xmlns:xlink="http://www.w3.org/1999/xlink">
    <!-- Generator: Sketch 53.2 (72643) - https://sketchapp.com -->
    <title>shader-wasabi</title>
    <desc>Created with Sketch.</desc>
    <defs>
        <path d="M1268.30664,487.635823 L1267.28519,482.549242 L1263.1994,478.490801 C1194.6399,412.405844 1086.14865,387 993.53748,387 L993.019947,473.404221 C974.089136,472.890152 956.697303,472.890152 940.326918,473.404221 L939.809385,387 C847.198219,387 738.706963,412.405844 670.147461,478.490801 L666.061675,482.549242 L665.040228,487.635823 C639.449584,587.744048 676.807294,807.34632 891.215762,936.972944 C668.594862,728.071429 695.152476,536.945887 701.853166,502.882035 C763.262541,446.970238 860.477026,429.694805 900.899076,427.124459 L900.395162,475.920455 C846.667067,482.021645 789.861012,496.753788 744.835643,529.288961 C734.648414,603.531385 765.809348,689.935606 810.916433,763.636905 C846.735163,823.160714 891.760533,870.373918 943.445735,916.126082 L966.639384,663.948052 L966.639384,663.948052 L899.904868,818.534091 C858.978904,770.752706 785.802464,669.602814 783.242038,551.67803 C838.509113,523.728896 900.926315,515.084416 962.335689,514.570346 C1024.76651,514.069805 1093.84354,523.214827 1150.13207,551.67803 C1147.57164,669.602814 1074.3952,770.752706 1033.46924,818.534091 L966.734719,663.948052 L966.734719,663.948052 L989.941988,916.112554 C1041.62719,870.36039 1086.63894,823.093074 1122.47129,763.623377 C1167.49666,689.922078 1198.73931,603.517857 1188.48398,529.302489 C1143.96253,496.74026 1086.65256,483.563853 1032.91085,476.962121 L1032.40693,427.151515 C1072.82898,429.694805 1170.04347,446.970238 1231.45284,502.909091 C1238.11267,536.972944 1264.71114,728.084957 1042.14472,937 C1256.53957,807.34632 1293.89728,587.771104 1268.30664,487.635823 Z" id="path-1"></path>
        <filter x="-24.3%" y="-27.3%" width="148.6%" height="154.5%" filterUnits="objectBoundingBox" id="filter-2">
            <feOffset dx="0" dy="0" in="SourceAlpha" result="shadowOffsetOuter1"></feOffset>
            <feGaussianBlur stdDeviation="50" in="shadowOffsetOuter1" result="shadowBlurOuter1"></feGaussianBlur>
            <feColorMatrix values="0 0 0 0 0.741604957   0 0 0 0 0.717025827   0 0 0 0 0.784618433  0 0 0 1 0" type="matrix" in="shadowBlurOuter1"></feColorMatrix>
        </filter>
    </defs>
    <g id="Page-1" stroke="none" stroke-width="1" fill="none" fill-rule="evenodd">
        <g id="Desktop-HD" transform="translate(-603.000000, -250.000000)">
            <g id="shader-wasabi" transform="translate(966.673469, 662.000000) rotate(29.722151) translate(-966.673469, -662.000000) ">
                <use fill="black" fill-opacity="1" filter="url(#filter-2)" xlink:href="#path-1"></use>
                <use fill="#FBFBFB" fill-rule="evenodd" xlink:href="#path-1"></use>
            </g>
        </g>
    </g>
</svg>