<svg xmlns="http://www.w3.org/2000/svg" viewBox="0 0 109 105"><defs><style>.cls-1{fill:#77c600;}</style></defs><g id="Layer_2" data-name="Layer 2"><g id="Layer_1-2" data-name="Layer 1"><g id="Rectangle_583" data-name="Rectangle 583"><path class="cls-1" d="M24,53H0V29H24ZM4,49H20V33H4Z"/></g><g id="Rectangle_583-2" data-name="Rectangle 583"><path class="cls-1" d="M80,53H56V29H80ZM60,49H76V33H60Z"/></g><g id="Rectangle_583-3" data-name="Rectangle 583"><path class="cls-1" d="M24,105H0V81H24ZM4,101H20V85H4Z"/></g><g id="Rectangle_583-4" data-name="Rectangle 583"><path class="cls-1" d="M80,105H56V81H80Zm-20-4H76V85H60Z"/></g><g id="Rectangle_583-5" data-name="Rectangle 583"><path class="cls-1" d="M53,79H29V55H53ZM33,75H49V59H33Z"/></g><g id="Rectangle_583-6" data-name="Rectangle 583"><path class="cls-1" d="M109,79H85V55h24ZM89,75h16V59H89Z"/></g><g id="Rectangle_583-7" data-name="Rectangle 583"><path class="cls-1" d="M53,24H29V0H53ZM33,20H49V4H33Z"/></g><g id="Rectangle_583-8" data-name="Rectangle 583"><path class="cls-1" d="M109,24H85V0h24ZM89,20h16V4H89Z"/></g><rect class="cls-1" x="10" y="51" width="4" height="32"/><rect class="cls-1" x="22" y="91" width="36" height="4"/><rect class="cls-1" x="66" y="51" width="4" height="32"/><rect class="cls-1" x="22" y="39" width="36" height="4"/><rect class="cls-1" x="19.93" y="24" width="14.14" height="4" transform="translate(-10.48 26.71) rotate(-45)"/><rect class="cls-1" x="51" y="10" width="36" height="4"/><rect class="cls-1" x="75.93" y="24" width="14.14" height="4" transform="translate(5.93 66.31) rotate(-45)"/><rect class="cls-1" x="39" y="22" width="4" height="12"/><rect class="cls-1" x="39" y="48" width="4" height="9"/><rect class="cls-1" x="51" y="65" width="10" height="4"/><rect class="cls-1" x="75" y="65" width="11" height="4"/><rect class="cls-1" x="95" y="22" width="4" height="35"/></g></g></svg>