<svg xmlns="http://www.w3.org/2000/svg" viewBox="0 0 111.5 96.75"><defs><style>.cls-1{fill:#77c600;}</style></defs><g id="Layer_2" data-name="Layer 2"><g id="Layer_1-2" data-name="Layer 1"><rect class="cls-1" x="49.03" y="8.51" width="3.59" height="4"/><rect class="cls-1" x="49.16" y="57.25" width="3.59" height="4"/><rect class="cls-1" x="35.5" y="27.88" width="4" height="9.93"/><rect class="cls-1" x="32.53" y="30.84" width="9.72" height="4"/><rect class="cls-1" x="103.75" y="20.75" width="4" height="9.93"/><rect class="cls-1" x="100.78" y="23.72" width="9.72" height="4"/><rect class="cls-1" x="104.75" y="71.75" width="4" height="9.93"/><rect class="cls-1" x="101.78" y="74.72" width="9.72" height="4"/><rect class="cls-1" x="66.75" y="41.75" width="4" height="9.93"/><rect class="cls-1" x="63.78" y="44.72" width="9.72" height="4"/><path class="cls-1" d="M16,64.88a16,16,0,1,1,16-16A16,16,0,0,1,16,64.88Zm0-28a12,12,0,1,0,12,12A12,12,0,0,0,16,36.88Z"/><path class="cls-1" d="M18.22,49.33H11l0-1.52V41.49l1.52,0h5.7a3.81,3.81,0,0,1,3.8,3.8v.25A3.81,3.81,0,0,1,18.22,49.33Zm-4.22-3h4.22a.8.8,0,0,0,.8-.81v-.25a.8.8,0,0,0-.8-.8H14Z"/><path class="cls-1" d="M18.37,55.41H11l0-1.53V46.36l1.53,0h5.84a4.39,4.39,0,0,1,4.38,4.38V51A4.39,4.39,0,0,1,18.37,55.41Zm-4.37-3h4.37A1.38,1.38,0,0,0,19.75,51v-.31a1.38,1.38,0,0,0-1.38-1.38H14Z"/><rect class="cls-1" x="12.68" y="40.05" width="3" height="2.92"/><rect class="cls-1" x="16.83" y="40.05" width="3" height="2.92"/><rect class="cls-1" x="12.68" y="53.91" width="3" height="2.92"/><rect class="cls-1" x="16.83" y="53.91" width="3" height="2.92"/><path class="cls-1" d="M81.88,32a16,16,0,1,1,16-16A16,16,0,0,1,81.88,32Zm0-28a12,12,0,1,0,12,12A12,12,0,0,0,81.88,4Z"/><path class="cls-1" d="M84.09,16.46H76.9l0-1.53V8.62l1.52,0h5.69A3.82,3.82,0,0,1,87.9,12.4v.25A3.82,3.82,0,0,1,84.09,16.46Zm-4.21-3h4.21a.82.82,0,0,0,.81-.81V12.4a.82.82,0,0,0-.81-.81H79.88Z"/><path class="cls-1" d="M84.24,22.53H76.91l0-1.53V13.49l1.53,0h5.83a4.38,4.38,0,0,1,4.38,4.38v.31A4.38,4.38,0,0,1,84.24,22.53Zm-4.36-3h4.36a1.38,1.38,0,0,0,1.38-1.38v-.31a1.38,1.38,0,0,0-1.38-1.38H79.88Z"/><rect class="cls-1" x="78.56" y="7.18" width="3" height="2.92"/><rect class="cls-1" x="82.71" y="7.18" width="3" height="2.92"/><rect class="cls-1" x="78.56" y="21.03" width="3" height="2.92"/><rect class="cls-1" x="82.71" y="21.03" width="3" height="2.92"/><path class="cls-1" d="M79.25,96.75a16,16,0,1,1,16-16A16,16,0,0,1,79.25,96.75Zm0-28a12,12,0,1,0,12,12A12,12,0,0,0,79.25,68.75Z"/><path class="cls-1" d="M81.47,81.21h-7.2l0-1.53V73.37l1.52,0h5.7a3.81,3.81,0,0,1,3.8,3.81v.25A3.81,3.81,0,0,1,81.47,81.21Zm-4.22-3h4.22a.81.81,0,0,0,.8-.81v-.25a.81.81,0,0,0-.8-.81H77.25Z"/><path class="cls-1" d="M81.62,87.28H74.28l0-1.53V78.24l1.53,0h5.84A4.39,4.39,0,0,1,86,82.59v.31A4.39,4.39,0,0,1,81.62,87.28Zm-4.37-3h4.37A1.38,1.38,0,0,0,83,82.9v-.31a1.38,1.38,0,0,0-1.38-1.38H77.25Z"/><rect class="cls-1" x="75.93" y="71.93" width="3" height="2.92"/><rect class="cls-1" x="80.08" y="71.93" width="3" height="2.92"/><rect class="cls-1" x="75.93" y="85.78" width="3" height="2.92"/><rect class="cls-1" x="80.08" y="85.78" width="3" height="2.92"/><path class="cls-1" d="M94,64.89a16,16,0,1,1,16-16A16,16,0,0,1,94,64.89Zm0-28a12,12,0,1,0,12,12A12,12,0,0,0,94,36.89Z"/><path class="cls-1" d="M96.22,49.34H89l0-1.52V41.51l1.52,0h5.7a3.81,3.81,0,0,1,3.8,3.81v.25A3.8,3.8,0,0,1,96.22,49.34Zm-4.22-3h4.22a.8.8,0,0,0,.8-.8v-.25a.8.8,0,0,0-.8-.81H92Z"/><path class="cls-1" d="M96.37,55.42H89l0-1.53V46.37l1.53,0h5.84a4.39,4.39,0,0,1,4.38,4.39V51A4.39,4.39,0,0,1,96.37,55.42Zm-4.37-3h4.37A1.38,1.38,0,0,0,97.75,51v-.31a1.38,1.38,0,0,0-1.38-1.39H92Z"/><rect class="cls-1" x="90.68" y="40.07" width="3" height="2.92"/><rect class="cls-1" x="94.83" y="40.07" width="3" height="2.92"/><rect class="cls-1" x="90.68" y="53.92" width="3" height="2.92"/><rect class="cls-1" x="94.83" y="53.92" width="3" height="2.92"/><path class="cls-1" d="M51,54.38a7.25,7.25,0,1,1,7.25-7.26A7.26,7.26,0,0,1,51,54.38Zm0-10.5a3.25,3.25,0,1,0,3.25,3.24A3.25,3.25,0,0,0,51,43.88Z"/><rect class="cls-1" x="29.54" y="45.83" width="16.51" height="4"/><path class="cls-1" d="M65.25,82.75H52.73a3.92,3.92,0,0,1-3.91-3.91V64.12h4V78.75H65.25Z"/><polygon class="cls-1" points="52.66 43.58 48.66 43.56 48.8 14.33 67.44 14.51 67.4 18.51 52.78 18.37 52.66 43.58"/></g></g></svg>