<svg xmlns="http://www.w3.org/2000/svg" viewBox="0 0 102.74 134.16"><defs><style>.cls-1{fill:#77c600;}</style></defs><g id="Layer_2" data-name="Layer 2"><g id="Layer_1-2" data-name="Layer 1"><path class="cls-1" d="M54.69,69.79a31.81,31.81,0,0,1-3.36-8.65c-1.43.87-2.42,1.3-3.86,2.17a29.08,29.08,0,0,0,2.7,7.06H45c-.14-.19-.28-.38-.41-.58a27.21,27.21,0,0,1-3.29-8.71c-1.44.87-2.49,1.36-3.92,2.23a28.58,28.58,0,0,0,4.21,9.53,26.43,26.43,0,0,0,7.14,7.07L52,76.78a33,33,0,0,1-3.59-2.89h3.93a28.06,28.06,0,0,0,6.56,5.94c1.18-1.12,2-1.93,3.14-3a18.14,18.14,0,0,1-3.67-2.89h4V70.37H55.09A6,6,0,0,1,54.69,69.79Z"/><rect class="cls-1" x="57.91" y="60.72" width="4.53" height="4.53"/><path class="cls-1" d="M32.33,107.27C20.28,97.12,11.78,85,7.06,71.08a79.15,79.15,0,0,1-4.14-27.7,2,2,0,0,1,2-2c7.52,0,13.72-3.2,18.4-9.51a32.84,32.84,0,0,0,4.95-9.85,2,2,0,0,1,1.93-1.5h5.58v4H31.66c-1.72,4.82-8.31,19.69-24.77,20.8a74.93,74.93,0,0,0,4,24.42C15.33,83,23.42,94.54,34.91,104.21Z"/><path class="cls-1" d="M37.89,111.61c-.83-.6-1.25-.93-1.88-1.44l-.76-.61,2.49-3.13.78.62c.57.47.95.77,1.71,1.32Z"/><path class="cls-1" d="M51.36,119.55a2,2,0,0,1-.92-.23,95.91,95.91,0,0,1-9.74-5.74l2.23-3.32a94.25,94.25,0,0,0,8.39,5c11.32-6.43,30.5-20.53,38.87-45.47a76.75,76.75,0,0,0,4-24.43c-16.45-1.12-23-16-24.76-20.8H47.17v-4H70.84a2,2,0,0,1,1.93,1.5,32.84,32.84,0,0,0,5,9.85c4.68,6.31,10.88,9.51,18.4,9.51a2,2,0,0,1,2,2A81.08,81.08,0,0,1,94,71.07C85,98,64,112.84,52.32,119.3A2.05,2.05,0,0,1,51.36,119.55Z"/><rect class="cls-1" x="39.51" y="20.57" width="3.91" height="4"/><path class="cls-1" d="M81.1,68a5.73,5.73,0,1,1,5.73-5.73A5.74,5.74,0,0,1,81.1,68Zm0-7.46a1.73,1.73,0,1,0,1.73,1.73A1.73,1.73,0,0,0,81.1,60.52Z"/><rect class="cls-1" x="65.21" y="60.25" width="12.08" height="4"/><path class="cls-1" d="M51.59,108.36a5.73,5.73,0,1,1,5.73-5.73A5.74,5.74,0,0,1,51.59,108.36Zm0-7.46a1.73,1.73,0,1,0,1.73,1.73A1.74,1.74,0,0,0,51.59,100.9Z"/><rect class="cls-1" x="49.59" y="83.24" width="4" height="15.59"/><rect class="cls-1" x="49.59" y="9.4" width="4" height="12.76"/><path class="cls-1" d="M71.83,88.44a5.73,5.73,0,1,1,5.74-5.73A5.74,5.74,0,0,1,71.83,88.44Zm0-7.46a1.73,1.73,0,1,0,1.74,1.73A1.74,1.74,0,0,0,71.83,81Z"/><path class="cls-1" d="M19.12,58.32a5.73,5.73,0,1,1,5.73-5.73A5.74,5.74,0,0,1,19.12,58.32Zm0-7.46a1.73,1.73,0,1,0,1.73,1.73A1.74,1.74,0,0,0,19.12,50.86Z"/><rect class="cls-1" x="69.84" y="62.32" width="4" height="16.59"/><path class="cls-1" d="M51.59,91.93H33.76a5.33,5.33,0,0,1-5.32-5.33V70.89h4V86.6a1.33,1.33,0,0,0,1.32,1.33H51.59Z"/><path class="cls-1" d="M35.66,72.34H21.39a4.55,4.55,0,0,1-4.67-4.42V56.46h4V67.92c0,.2.29.42.67.42H35.66Z"/><path class="cls-1" d="M5.73,11.46a5.73,5.73,0,1,1,5.73-5.73A5.74,5.74,0,0,1,5.73,11.46ZM5.73,4A1.73,1.73,0,1,0,7.46,5.73,1.74,1.74,0,0,0,5.73,4Z"/><path class="cls-1" d="M22.27,25H8a4.52,4.52,0,0,1-4.67-4.34V9.6h4v11c0,.09.23.34.67.34H22.27Z"/><path class="cls-1" d="M93.88,11.46a5.73,5.73,0,1,1,5.73-5.73A5.74,5.74,0,0,1,93.88,11.46Zm0-7.46a1.73,1.73,0,1,0,1.73,1.73A1.74,1.74,0,0,0,93.88,4Z"/><path class="cls-1" d="M91.9,25H79.17V21H91.9a.36.36,0,0,0,.38-.34V9.6h4v11A4.36,4.36,0,0,1,91.9,25Z"/><path class="cls-1" d="M51.59,11.46a5.73,5.73,0,1,1,5.73-5.73A5.74,5.74,0,0,1,51.59,11.46Zm0-7.46a1.73,1.73,0,1,0,1.73,1.73A1.73,1.73,0,0,0,51.59,4Z"/><path class="cls-1" d="M98.79,124.16h-4V107a1.83,1.83,0,0,0-.67-1.64H79.85v-4H94.12c2.62,0,4.67,2.48,4.67,5.64Z"/><path class="cls-1" d="M9.84,124.16h-4V107c0-3.16,1.93-5.64,4.38-5.64H23v4H10.34a2.47,2.47,0,0,0-.5,1.64Z"/><path class="cls-1" d="M67.45,45.27a5.73,5.73,0,1,1,5.73-5.73A5.74,5.74,0,0,1,67.45,45.27Zm0-7.46a1.73,1.73,0,1,0,1.73,1.73A1.73,1.73,0,0,0,67.45,37.81Z"/><path class="cls-1" d="M52.19,57.79h-4V42.08c0-2.72,2-4.93,4.34-4.93h11v4h-11a1.18,1.18,0,0,0-.34.93Z"/><path class="cls-1" d="M33,45.27a5.73,5.73,0,1,1,5.73-5.73A5.74,5.74,0,0,1,33,45.27Zm0-7.46a1.73,1.73,0,1,0,1.73,1.73A1.74,1.74,0,0,0,33,37.81Z"/><path class="cls-1" d="M52.26,57.79h-4V42.08a1.1,1.1,0,0,0-.37-.94h-11v-4h11c2.39,0,4.34,2.21,4.34,4.93Z"/><path class="cls-1" d="M57.74,134.16H45.38V121.79H57.74Zm-8.36-4h4.36v-4.37H49.38Z"/><path class="cls-1" d="M13.74,134.16H1.38V121.79H13.74Zm-8.36-4H9.74v-4.37H5.38Z"/><path class="cls-1" d="M102.74,134.16H90.38V121.79h12.36Zm-8.36-4h4.36v-4.37H94.38Z"/></g></g></svg>