<svg xmlns="http://www.w3.org/2000/svg" viewBox="0 0 130 108"><defs><style>.cls-1{fill:#77c600;}</style></defs><g id="Layer_2" data-name="Layer 2"><g id="Layer_1-2" data-name="Layer 1"><rect class="cls-1" x="12.84" y="9.37" width="4.19" height="4.19"/><rect class="cls-1" x="21.21" y="9.37" width="4.19" height="4.19"/><rect class="cls-1" x="29.59" y="9.37" width="4.19" height="4.19"/><rect class="cls-1" x="83.57" y="78.08" width="4" height="11.35"/><rect class="cls-1" x="79.89" y="81.76" width="11.11" height="4"/><path class="cls-1" d="M67,67.08a18,18,0,1,1,18-18A18,18,0,0,1,67,67.08Zm0-32a14,14,0,1,0,14,14A14,14,0,0,0,67,35.08Z"/><path class="cls-1" d="M69.39,49.39H61.53l0-1.53v-7l1.53,0h6.36a4.28,4.28,0,0,1,0,8.56Zm-4.89-3h4.89a1.28,1.28,0,0,0,0-2.56H64.5Z"/><path class="cls-1" d="M69.67,56.33H61.54l0-1.53V46.42l1.54,0h6.63a4.84,4.84,0,0,1,4.83,4.83v.28A4.83,4.83,0,0,1,69.67,56.33Zm-5.17-3h5.17A1.83,1.83,0,0,0,71.5,51.5v-.28a1.83,1.83,0,0,0-1.83-1.83H64.5Z"/><rect class="cls-1" x="63.42" y="39" width="3" height="3.33"/><rect class="cls-1" x="68.17" y="39" width="3" height="3.33"/><rect class="cls-1" x="63.42" y="54.83" width="3" height="3.33"/><rect class="cls-1" x="68.17" y="54.83" width="3" height="3.33"/><path class="cls-1" d="M126,108H4a4,4,0,0,1-4-4V18H126a4,4,0,0,1,4,4v82A4,4,0,0,1,126,108ZM4,22v82l122,0,0-82Z"/><path class="cls-1" d="M46,22H0V4A4,4,0,0,1,4,0H42a4,4,0,0,1,4,4ZM4,18H42V4L4,4ZM4,2V4H4Z"/><path class="cls-1" d="M130,22H83.49V18H126V4L63.75,4V0H126a4,4,0,0,1,4,4Z"/><rect class="cls-1" x="55.24" width="4.02" height="4"/><path class="cls-1" d="M64,90.08H29v-13H64Zm-31-4H60v-5H33Z"/></g></g></svg>