<svg xmlns="http://www.w3.org/2000/svg" viewBox="0 0 68 74.07"><defs><style>.cls-1{fill:#77c600;}</style></defs><g id="Layer_2" data-name="Layer 2"><g id="Layer_1-2" data-name="Layer 1"><path class="cls-1" d="M55.49,45.14v-4a8.51,8.51,0,0,0,.36-17,2,2,0,0,1-1.92-1.95,18.57,18.57,0,0,0-35.4-7.44,2,2,0,0,1-1.81,1.15h-.19a12.63,12.63,0,0,0,.1,25.26v4a16.63,16.63,0,0,1-1.16-33.21,22.57,22.57,0,0,1,42.36,8.41,12.51,12.51,0,0,1-2.34,24.8Z"/><rect class="cls-1" x="33" y="24.72" width="4" height="3.82"/><rect class="cls-1" x="33" y="32.07" width="4" height="29.93"/><path class="cls-1" d="M35.24,64.25a2,2,0,0,1-1.41-.58L23.58,53.42l2.83-2.83,8.83,8.83,8.35-8.34,2.83,2.82-9.76,9.77A2,2,0,0,1,35.24,64.25Z"/><rect class="cls-1" x="57" y="70.07" width="11" height="4"/><rect class="cls-1" x="48" y="70.07" width="4" height="4"/><rect class="cls-1" x="3" y="70.07" width="39.79" height="4"/></g></g></svg>