<svg xmlns="http://www.w3.org/2000/svg" viewBox="0 0 96 97.07"><defs><style>.cls-1{fill:#77c600;}</style></defs><g id="Layer_2" data-name="Layer 2"><g id="Layer_1-2" data-name="Layer 1"><path class="cls-1" d="M23,63.14a23,23,0,0,1-1.12-46,31.71,31.71,0,0,1,4.8-6.88l2.95,2.7a27.74,27.74,0,0,0-4.69,7,2,2,0,0,1-1.81,1.15H23A19,19,0,0,0,23,59.14Z"/><path class="cls-1" d="M32.77,10l-2.5-3.12a31.66,31.66,0,0,1,5-3.26L37.1,7.18A28.14,28.14,0,0,0,32.77,10Z"/><path class="cls-1" d="M78.89,63.14v-4a13.11,13.11,0,0,0,.55-26.2A2,2,0,0,1,77.53,31,27.59,27.59,0,0,0,41.3,5.39l-1.25-3.8A31.59,31.59,0,0,1,81.44,29.12a17.11,17.11,0,0,1-2.55,34Z"/><rect class="cls-1" x="47" y="55.07" width="4" height="29.93"/><path class="cls-1" d="M49.24,87.25h0a2,2,0,0,1-1.41-.58L37.58,76.42l2.83-2.83,8.83,8.83,8.35-8.34,2.83,2.82-9.76,9.77A2,2,0,0,1,49.24,87.25Z"/><rect class="cls-1" x="71" y="93.07" width="11" height="4"/><rect class="cls-1" x="62" y="93.07" width="4" height="4"/><rect class="cls-1" x="17" y="93.07" width="39.79" height="4"/><path class="cls-1" d="M51.77,37.45a38,38,0,0,1-4-10.34c-1.71,1.05-2.9,1.56-4.61,2.61a34.55,34.55,0,0,0,3.23,8.43H40.21c-.16-.23-.33-.45-.48-.7A32.58,32.58,0,0,1,35.79,27c-1.71,1-3,1.63-4.68,2.68a34.28,34.28,0,0,0,5,11.38,31.26,31.26,0,0,0,8.54,8.44l3.92-3.73a39.09,39.09,0,0,1-4.28-3.45H49a33.54,33.54,0,0,0,7.83,7.1c1.41-1.35,2.35-2.31,3.76-3.66a21.33,21.33,0,0,1-4.39-3.44H61V38.15h-8.7C52.09,37.92,51.91,37.7,51.77,37.45Z"/><rect class="cls-1" x="55.62" y="26.61" width="5.41" height="5.41"/></g></g></svg>