<svg xmlns="http://www.w3.org/2000/svg" viewBox="0 0 129 114"><defs><style>.cls-1{fill:#77c600;}</style></defs><g id="Layer_2" data-name="Layer 2"><g id="Layer_1-2" data-name="Layer 1"><rect class="cls-1" x="19.68" width="4.32" height="4"/><rect class="cls-1" x="62.68" y="95" width="4.32" height="4"/><path class="cls-1" d="M125.84,93H3.16A3.17,3.17,0,0,1,0,89.84V3.16A3.17,3.17,0,0,1,3.16,0h11.9V4H4V89H125V4H29V0h96.84A3.17,3.17,0,0,1,129,3.16V89.84A3.17,3.17,0,0,1,125.84,93Z"/><rect class="cls-1" x="2.16" y="70.17" width="68.27" height="4"/><rect class="cls-1" x="116" y="70.17" width="11" height="4"/><rect class="cls-1" x="107.16" y="70.17" width="3.84" height="4"/><path class="cls-1" d="M91.36,114H36.64A2.65,2.65,0,0,1,34,111.36v-7.72A2.65,2.65,0,0,1,36.64,101H91.36A2.65,2.65,0,0,1,94,103.64v7.72A2.65,2.65,0,0,1,91.36,114ZM38,110H90v-5H38Z"/><path class="cls-1" d="M103.09,57l1.77,1.77L88.51,75.12l-7.57-7.57,1.77-1.77,5.8,5.8L103.09,57m.74-4.92a1,1,0,0,0-1.48,0l-2.09,2.09L88.51,65.92l-3-3-2.09-2.09a1,1,0,0,0-1.48,0L79.88,63l-1.77,1.77L76,66.81a1,1,0,0,0,0,1.48l2.09,2.09L85.68,78,87.77,80a1,1,0,0,0,1.48,0L91.34,78,107.69,61.6l2.09-2.09a1,1,0,0,0,0-1.48l-2.09-2.09Z"/><rect class="cls-1" x="66.24" y="11.43" width="4" height="11.35"/><rect class="cls-1" x="62.57" y="15.11" width="11.11" height="4"/><rect class="cls-1" x="18.24" y="40.43" width="4" height="11.35"/><rect class="cls-1" x="14.57" y="44.11" width="11.11" height="4"/><rect class="cls-1" x="69.24" y="40.43" width="4" height="11.35"/><rect class="cls-1" x="65.57" y="44.11" width="11.11" height="4"/><path class="cls-1" d="M44.39,54.91H38.54a5.86,5.86,0,0,1-5.85-5.3l-.63-6.28a2.53,2.53,0,0,0-.72-1.58A15.5,15.5,0,0,1,51.27,18.12l-2.35,3.24A11.49,11.49,0,0,0,34.14,38.89a6.55,6.55,0,0,1,1.9,4l.63,6.29a1.87,1.87,0,0,0,1.87,1.69h5.85a1.87,1.87,0,0,0,1.86-1.6l.82-5.45a6.79,6.79,0,0,1,2.38-4.29,11.47,11.47,0,0,0,4.22-8.89h4a15.43,15.43,0,0,1-5.69,12,2.82,2.82,0,0,0-1,1.8l-.81,5.44A5.86,5.86,0,0,1,44.39,54.91Z"/><path class="cls-1" d="M53.21,27.42a11.48,11.48,0,0,0-1.93-3.76l3.17-2.45A15.38,15.38,0,0,1,57,26.29Z"/><rect class="cls-1" x="37.85" y="57.61" width="8.3" height="4"/></g></g></svg>