<svg xmlns="http://www.w3.org/2000/svg" viewBox="0 0 512 499.71"><defs><style>.cls-1{fill:#fff;}</style></defs><g id="Layer_2" data-name="Layer 2"><g id="Layer_1-2" data-name="Layer 1"><path class="cls-1" d="M467.53,111.6c-31.68-46.29-74.23-78.74-127-97.54C304.87,1.35,268-2.25,230.3,1.28c-46.05,4.32-87.67,20.3-124.85,47.58q-77.64,57-99.26,151C3.6,211.2,2.67,222.9,1,234.41c-.26,1.78-.64,3.53-1,5.3v30c.64,5.59,1.34,11.18,1.92,16.78a234.31,234.31,0,0,0,26.17,86.42c25,47.09,60.27,84.41,107.79,109.27,12.19,6.38,25.11,11.5,38,16.28,11,4.07,18.75-2.15,18.79-13.92,0-5-.16-10-.17-15,0-10,0-19.93,0-28.71-12.89,0-25,.42-37-.11-14.08-.63-27.21-4.36-38-14.24-6.65-6.08-9.81-14.08-13.38-22-6.18-13.67-13.76-26.22-27.41-34-2.64-1.51-4.83-4.1-6.71-6.59-3.37-4.47-2.44-7.16,3.18-7.65a39.77,39.77,0,0,1,14.71,1.27c13.94,4.3,24.34,13.36,31.72,25.92,4.8,8.16,10.85,15.16,19,20.19,15.31,9.47,31.25,6.68,47.33,2.52,5.28-1.36,8.31-4,8.56-9.78a17.75,17.75,0,0,1,2.07-7.14c3.53-6.86,7.35-13.56,11.09-20.39-.07,0-.83-.1-1.58-.27-14.73-3.34-29.91-5.38-44.08-10.33-23.59-8.23-43-22.51-54.46-45.7-8.29-16.78-12.58-34.63-14.18-53.22-2.63-30.67,2.41-59.1,23.52-83.06a6.2,6.2,0,0,0,1.06-5.16c-6.43-18.37-5.42-36.65,0-55,3.32-11.27,5.18-12.48,16.8-10.3.49.09,1,.25,1.45.38a172.47,172.47,0,0,1,51.56,23.4,10.05,10.05,0,0,0,8.83,1.63c39.67-10.17,79.36-10.08,119.1-.18,2.51.63,5.84-.19,8.26-1.39,12.65-6.25,25-13.18,37.74-19.2,7.81-3.69,16.22-6.19,25.11-5,1.52.2,3.7,1.31,4.18,2.54,7.59,19.57,10.55,39.59,4,60-1.39,4.31-1.14,7.08,1.89,10.57a90.35,90.35,0,0,1,19.73,39.32c3.81,16.32,3.25,32.78,1.31,49.19-2.33,19.71-7.65,38.65-19.06,55.16-15.92,23-39.39,34.71-65.69,41.37-9.72,2.46-19.73,3.8-29.07,5.55,3.35,5.41,7.22,10.62,10,16.37,5,10.43,5.68,21.83,5.72,33.2.07,22.17-.05,44.34.06,66.5.05,11.35,7.52,16.93,18.31,13.3a253.18,253.18,0,0,0,55.34-26.24c33.21-21.09,59.75-48.83,80.58-82a240.92,240.92,0,0,0,35.21-96.83c1.06-7.9,1.86-15.83,2.78-23.75v-30c-1.29-9.36-2.4-18.75-3.9-28.07C502.24,175.2,488.31,142,467.53,111.6Z"/></g></g></svg>