<?xml version="1.0" encoding="utf-8"?>
<svg version="1.1" id="Layer_2_00000179616078780226367170000001199845809313314454_"
	 xmlns="http://www.w3.org/2000/svg" xmlns:xlink="http://www.w3.org/1999/xlink" x="0px" y="0px" viewBox="0 0 411 81.3"
	 style="enable-background:new 0 0 411 81.3;" xml:space="preserve">
<style type="text/css">
	.st0{enable-background:new    ;}
	.st1{fill:#FFFFFF;}
</style>
<g class="st0">
	<path class="st1" d="M46.8,64.2H36.5l-4.1-10.7H13.6L9.7,64.2H-0.3l18.3-47h10L46.8,64.2z M29.3,45.6l-6.5-17.4l-6.3,17.4H29.3z"/>
	<path class="st1" d="M51.5,30.2h8.4v5c1.1-1.7,2.6-3.1,4.4-4.2c1.9-1.1,3.9-1.6,6.2-1.6c4,0,7.3,1.5,10.1,4.6
		c2.8,3.1,4.1,7.4,4.1,12.9c0,5.7-1.4,10.1-4.2,13.2c-2.8,3.2-6.1,4.7-10.1,4.7c-1.9,0-3.6-0.4-5.1-1.1c-1.5-0.7-3.1-2-4.8-3.8v17.1
		h-9V30.2z M60.4,46.6c0,3.8,0.8,6.6,2.3,8.5c1.5,1.8,3.4,2.7,5.5,2.7c2.1,0,3.8-0.8,5.2-2.5c1.4-1.7,2.1-4.4,2.1-8.2
		c0-3.6-0.7-6.2-2.1-7.9c-1.4-1.7-3.2-2.6-5.3-2.6c-2.2,0-4,0.8-5.5,2.5C61.1,40.7,60.4,43.3,60.4,46.6z"/>
	<path class="st1" d="M91.6,30.2h8.4v5c1.1-1.7,2.6-3.1,4.4-4.2c1.9-1.1,3.9-1.6,6.2-1.6c4,0,7.3,1.5,10.1,4.6
		c2.8,3.1,4.1,7.4,4.1,12.9c0,5.7-1.4,10.1-4.2,13.2c-2.8,3.2-6.1,4.7-10.1,4.7c-1.9,0-3.6-0.4-5.1-1.1c-1.5-0.7-3.1-2-4.8-3.8v17.1
		h-9V30.2z M100.5,46.6c0,3.8,0.8,6.6,2.3,8.5c1.5,1.8,3.4,2.7,5.5,2.7c2.1,0,3.8-0.8,5.2-2.5c1.4-1.7,2.1-4.4,2.1-8.2
		c0-3.6-0.7-6.2-2.1-7.9c-1.4-1.7-3.2-2.6-5.3-2.6c-2.2,0-4,0.8-5.5,2.5C101.2,40.7,100.5,43.3,100.5,46.6z"/>
	<path class="st1" d="M131.9,64.2v-47h9v47H131.9z"/>
	<path class="st1" d="M169.8,53.4l9,1.5c-1.2,3.3-3,5.8-5.5,7.5c-2.5,1.7-5.6,2.6-9.3,2.6c-5.9,0-10.3-1.9-13.1-5.8
		c-2.2-3.1-3.4-7-3.4-11.7c0-5.6,1.5-10.1,4.4-13.2c2.9-3.2,6.7-4.8,11.2-4.8c5.1,0,9.1,1.7,12,5c2.9,3.3,4.3,8.5,4.2,15.4h-22.6
		c0.1,2.7,0.8,4.7,2.2,6.2c1.4,1.5,3.1,2.2,5.2,2.2c1.4,0,2.6-0.4,3.6-1.2C168.6,56.3,169.3,55.1,169.8,53.4z M170.3,44.3
		c-0.1-2.6-0.7-4.6-2-5.9c-1.3-1.4-2.8-2-4.7-2c-2,0-3.6,0.7-4.9,2.1s-1.9,3.4-1.9,5.8H170.3z"/>
</g>
<g class="st0">
	<path class="st1" d="M199.9,49.7l9.2-0.9c0.6,3.1,1.7,5.4,3.4,6.8c1.7,1.5,4,2.2,6.9,2.2c3.1,0,5.4-0.6,6.9-1.9
		c1.5-1.3,2.3-2.8,2.3-4.5c0-1.1-0.3-2.1-1-2.8c-0.7-0.8-1.8-1.5-3.4-2c-1.1-0.4-3.6-1.1-7.6-2.1c-5.1-1.3-8.6-2.8-10.7-4.6
		c-2.9-2.6-4.3-5.7-4.3-9.4c0-2.4,0.7-4.6,2-6.7c1.4-2.1,3.3-3.7,5.9-4.8c2.6-1.1,5.6-1.6,9.2-1.6c5.9,0,10.3,1.3,13.3,3.9
		s4.5,6,4.7,10.3l-9.5,0.4c-0.4-2.4-1.3-4.1-2.6-5.2c-1.3-1.1-3.3-1.6-6-1.6c-2.8,0-4.9,0.6-6.5,1.7c-1,0.7-1.5,1.7-1.5,2.9
		c0,1.1,0.5,2.1,1.4,2.9c1.2,1,4.1,2,8.7,3.1c4.6,1.1,8,2.2,10.2,3.4c2.2,1.2,3.9,2.8,5.2,4.8c1.2,2,1.9,4.5,1.9,7.5
		c0,2.7-0.7,5.2-2.2,7.6c-1.5,2.3-3.6,4.1-6.3,5.2c-2.7,1.1-6.1,1.7-10.2,1.7c-5.9,0-10.5-1.4-13.7-4.1
		C202.4,59,200.5,55,199.9,49.7z"/>
	<path class="st1" d="M246,26.3V18h9v8.3H246z M246,65V31h9v34H246z"/>
	<path class="st1" d="M264.2,65V18h9v47H264.2z"/>
	<path class="st1" d="M282.4,26.3V18h9v8.3H282.4z M282.4,65V31h9v34H282.4z"/>
	<path class="st1" d="M330.3,41l-8.9,1.6c-0.3-1.8-1-3.1-2-4c-1.1-0.9-2.4-1.3-4.1-1.3c-2.2,0-4,0.8-5.4,2.3c-1.3,1.5-2,4.1-2,7.8
		c0,4,0.7,6.9,2,8.6c1.4,1.7,3.2,2.5,5.5,2.5c1.7,0,3.1-0.5,4.2-1.5c1.1-1,1.9-2.6,2.3-5l8.8,1.5c-0.9,4.1-2.7,7.1-5.3,9.2
		c-2.6,2.1-6.1,3.1-10.5,3.1c-5,0-8.9-1.6-11.9-4.7c-3-3.1-4.4-7.5-4.4-13c0-5.6,1.5-10,4.5-13.1c3-3.1,7-4.7,12-4.7
		c4.1,0,7.4,0.9,9.9,2.7C327.5,34.7,329.3,37.4,330.3,41z"/>
	<path class="st1" d="M335.1,47.5c0-3,0.7-5.9,2.2-8.7c1.5-2.8,3.6-4.9,6.3-6.4c2.7-1.5,5.7-2.2,9-2.2c5.1,0,9.4,1.7,12.7,5
		c3.3,3.3,4.9,7.6,4.9,12.7c0,5.1-1.7,9.4-5,12.8c-3.3,3.4-7.5,5.1-12.5,5.1c-3.1,0-6.1-0.7-8.9-2.1c-2.8-1.4-5-3.5-6.5-6.2
		C335.8,54.7,335.1,51.4,335.1,47.5z M344.3,48c0,3.4,0.8,6,2.4,7.8s3.6,2.7,5.9,2.7c2.3,0,4.3-0.9,5.9-2.7s2.4-4.4,2.4-7.8
		c0-3.3-0.8-5.9-2.4-7.7c-1.6-1.8-3.6-2.7-5.9-2.7c-2.3,0-4.3,0.9-5.9,2.7C345.1,42,344.3,44.6,344.3,48z"/>
	<path class="st1" d="M408.2,65h-9V47.6c0-3.7-0.2-6-0.6-7.1c-0.4-1.1-1-1.9-1.9-2.5s-1.9-0.9-3.1-0.9c-1.6,0-3,0.4-4.2,1.3
		c-1.2,0.9-2.1,2-2.5,3.4s-0.7,4-0.7,7.8V65h-9V31h8.4v5c3-3.8,6.7-5.8,11.2-5.8c2,0,3.8,0.4,5.4,1.1c1.6,0.7,2.9,1.6,3.7,2.7
		c0.8,1.1,1.4,2.4,1.8,3.8c0.3,1.4,0.5,3.4,0.5,6.1V65z"/>
</g>
</svg>
