<svg xmlns="http://www.w3.org/2000/svg" width="36.224" height="36.235" viewBox="0 0 36.224 36.235"><path d="M219.115,848.149a18.117,18.117,0,1,0,18.1,18.117A18.116,18.116,0,0,0,219.115,848.149Zm6.154,5.013a2.432,2.432,0,1,1-2.434,2.427A2.427,2.427,0,0,1,225.269,853.162ZM206.78,868.7a2.432,2.432,0,1,1,2.431-2.429A2.438,2.438,0,0,1,206.78,868.7Zm6.5,6.321c-.049-.03-.093-.054-.134-.082a10.518,10.518,0,0,1-4.188-5.877.222.222,0,0,1,.076-.267,3.377,3.377,0,0,0,0-5.058.2.2,0,0,1-.08-.24,10.524,10.524,0,0,1,4.21-5.91c.034-.024.072-.044.124-.075l1.774,2.971-.141.108a7.065,7.065,0,0,0,.016,11.36c.1.077.115.125.048.236-.543.9-1.079,1.8-1.617,2.7C213.337,874.929,213.31,874.968,213.276,875.021Zm11.993,4.353a2.432,2.432,0,1,1,2.428-2.43A2.443,2.443,0,0,1,225.269,879.374Zm4.328-12.3a10.318,10.318,0,0,1-.371,2.077,10.517,10.517,0,0,1-2.644,4.521.2.2,0,0,1-.246.061,3.373,3.373,0,0,0-4.384,2.539.186.186,0,0,1-.152.172,10.457,10.457,0,0,1-7.259-.7c-.03-.014-.057-.031-.1-.055.028-.056.048-.1.07-.138.514-.922,1.03-1.842,1.54-2.765.055-.1.1-.116.207-.069a7.051,7.051,0,0,0,9.764-5.058c.044-.212.072-.428.1-.644.011-.1.038-.141.145-.14q1.611.03,3.222.05C229.6,866.931,229.6,866.988,229.6,867.073Zm-.127-1.466q-1.6.02-3.207.047c-.1,0-.132-.027-.143-.125a7.033,7.033,0,0,0-5.492-6.151,6.905,6.905,0,0,0-4.358.431c-.118.052-.168.032-.228-.077-.5-.9-1-1.8-1.505-2.7-.032-.057-.062-.115-.113-.209.413-.167.8-.337,1.192-.478a10.316,10.316,0,0,1,3.917-.591,10.756,10.756,0,0,1,2.269.34.182.182,0,0,1,.148.16,3.361,3.361,0,0,0,2.806,2.689,3.234,3.234,0,0,0,1.582-.136.191.191,0,0,1,.234.05,10.447,10.447,0,0,1,2.938,5.862c.038.247.056.5.087.746C229.609,865.563,229.582,865.606,229.47,865.607Z" transform="translate(-200.995 -848.149)" fill="#fff"/></svg>