<svg xmlns="http://www.w3.org/2000/svg" width="36.236" height="36.235" viewBox="0 0 36.236 36.235"><g transform="translate(-200.989 -767.627)"><path d="M217.471,777.415a6.183,6.183,0,0,0-.539.44,1.134,1.134,0,0,1-.155-1.389.316.316,0,0,1,.586.021A1.14,1.14,0,0,1,217.471,777.415Z" fill="#002647"/><path d="M220.51,777.875c-.172-.121-.335-.23-.49-.33a1.421,1.421,0,0,1-.048-.386c0-.018,0-.094,0-.189,0-.031,0-.062.008-.093a.9.9,0,0,0,.015-.093.9.9,0,0,1,.07-.207c.073-.152.169-.3.354-.291s.277.144.347.3A1.077,1.077,0,0,1,220.51,777.875Z" fill="#002647"/><path d="M224.641,788.819a1.925,1.925,0,0,0-.2,2.348,1.867,1.867,0,0,0,1.6.883,1.919,1.919,0,0,0,1.375-.574c.074-.075.145-.153.217-.229a1.381,1.381,0,0,1,.522.922,3.687,3.687,0,0,0,.639,1.616,1.025,1.025,0,0,1-.693,1.733c-1.918.379-3.84.738-5.76,1.1a2.146,2.146,0,0,1-.388.038,1.594,1.594,0,0,1-1.442-.945,1.351,1.351,0,0,1-.084-.563,1.382,1.382,0,0,1,.283-.74c1.727-2.836,3-4.892,3.192-5.2.048-.076.167-.259.731-.391m.872-.563-.952.223a1.353,1.353,0,0,0-.946.545c-.19.3-1.457,2.353-3.185,5.191a1.7,1.7,0,0,0-.238,1.621l.009.023.012.023a1.925,1.925,0,0,0,1.748,1.125,2.488,2.488,0,0,0,.453-.044l1.2-.227c1.5-.283,3.044-.575,4.565-.876a1.369,1.369,0,0,0,.912-2.274,3.32,3.32,0,0,1-.58-1.466,1.733,1.733,0,0,0-.649-1.146l-.251-.2-.22.233-.066.07-.146.154a1.568,1.568,0,0,1-1.127.47,1.513,1.513,0,0,1-1.307-.717,1.569,1.569,0,0,1,.175-1.954l.6-.775Z" fill="#002647"/><path d="M220.5,794.586a2.245,2.245,0,0,0,.023,1.128c-.567-.064-1.131-.153-1.7-.163a8.121,8.121,0,0,0-2.175.3,1.669,1.669,0,0,0-.177-1.764c.127-.015.219.07.324.117a6.095,6.095,0,0,0,3.708.381Z" fill="#002647"/><path d="M216.409,794.035c.036.005.075.007.06.061Z" fill="#002647"/><path d="M219.107,803.862a18.117,18.117,0,1,1,18.118-18.118A18.139,18.139,0,0,1,219.107,803.862Zm0-33.361a15.243,15.243,0,1,0,15.243,15.243A15.26,15.26,0,0,0,219.107,770.5Z" fill="#002647"/><path d="M227.655,789.086a.415.415,0,0,1-.035-.3,6.5,6.5,0,0,0,.018-1.718,8.358,8.358,0,0,0-2.48-5.137,5.529,5.529,0,0,1-1.715-4.675,5.084,5.084,0,0,0-.644-3.489,4.273,4.273,0,0,0-3.721-1.83c-.153.011-.305.029-.455.055a4.169,4.169,0,0,0-3.421,4.879,7.078,7.078,0,0,1,.01,3.3,6.4,6.4,0,0,1-1.488,2.553,7.956,7.956,0,0,0-1.544,2.574,9.128,9.128,0,0,0-.416,4.227c.518-1.057,1.286-.908,1.791,0,.576,1.033,1.254,2.009,1.888,3.01a5.881,5.881,0,0,0,.945-.219,1.61,1.61,0,0,0,.47-.3c.3-.307.273-.639-.119-.822a10.281,10.281,0,0,1-3.046-2.449.639.639,0,0,1-.2-.561,19.2,19.2,0,0,1,1.736-5.893,11.922,11.922,0,0,1,1.2-2.041q.621.333,1.243.663a2.2,2.2,0,0,0,1.188.316,3.633,3.633,0,0,0,1.6-.664c.3-.169.695-.4,1.159-.7a16.808,16.808,0,0,1,2.946,6.636,12.129,12.129,0,0,1,.3,1.859.421.421,0,0,1-.224.46,1.925,1.925,0,0,0,2.783,2.658c.074-.075.145-.153.217-.229A1.991,1.991,0,0,0,227.655,789.086Zm-6.073-9.548a1.438,1.438,0,0,1-.132.119,9,9,0,0,1-1.254.731,3.2,3.2,0,0,1-1.394.522,2.824,2.824,0,0,1-1.481-.522c-.168-.093-.433-.237-.689-.411-.054-.036-.107-.074-.159-.113-.348-.256-.636-.558-.583-.841a.448.448,0,0,1,.135-.235s.306-.363.721-.761a1.511,1.511,0,0,1-.318-2.2.77.77,0,0,1,1.267,0,1.427,1.427,0,0,1,.288,1.289l.043-.018a1.711,1.711,0,0,1,1.487.156,1.923,1.923,0,0,1,.117-1.165.881.881,0,0,1,.777-.568.866.866,0,0,1,.786.553,1.494,1.494,0,0,1-.477,1.945l.216.154c.489.351.861.617.847.97A.591.591,0,0,1,221.582,779.538Z" fill="#002647"/><path d="M212.629,788.789c.332,0,.664.266.926.736.576,1.033,1.254,2.009,1.888,3.01l.966,1.5a1.722,1.722,0,0,1,.407,1.191,1.587,1.587,0,0,1-.175.626,1.614,1.614,0,0,1-1.423.8,2.628,2.628,0,0,1-.52-.056c-1.935-.392-3.88-.74-5.821-1.105a1.049,1.049,0,0,1-.447-1.722,3.569,3.569,0,0,0,.62-1.551,1.466,1.466,0,0,1,1.137-1.281,2.623,2.623,0,0,0,1.577-1.407c.25-.509.557-.738.865-.738m0-.349h0c-.328,0-.8.161-1.174.927a2.245,2.245,0,0,1-1.365,1.232,1.82,1.82,0,0,0-1.384,1.566,3.214,3.214,0,0,1-.561,1.4,1.512,1.512,0,0,0-.312,1.249,1.558,1.558,0,0,0,.885.983l.045.023.05.009,1.68.313c1.357.253,2.761.513,4.136.791a2.979,2.979,0,0,0,.589.063,1.968,1.968,0,0,0,1.713-.952l.011-.017.009-.017a1.935,1.935,0,0,0,.213-.762,2.084,2.084,0,0,0-.473-1.42l-.5-.77-.459-.713c-.192-.3-.392-.61-.586-.907-.44-.675-.895-1.374-1.291-2.084a1.5,1.5,0,0,0-1.23-.915Z" fill="#002647"/></g></svg>