<?xml version="1.0" encoding="utf-8"?>
<!-- Generator: Adobe Illustrator 26.0.3, SVG Export Plug-In . SVG Version: 6.00 Build 0)  -->
<svg version="1.1" id="Layer_1" xmlns="http://www.w3.org/2000/svg" xmlns:xlink="http://www.w3.org/1999/xlink" x="0px" y="0px"
	 viewBox="0 0 36.2 36.2" style="enable-background:new 0 0 36.2 36.2;" xml:space="preserve">
<style type="text/css">
	.st0{fill:#FFFFFF;}
</style>
<path class="st0" d="M18.1,36.2C8.1,36.2,0,28.1,0,18.1C0,8.1,8.1,0,18.1,0c10,0,18.1,8.1,18.1,18.1C36.2,28.1,28.1,36.2,18.1,36.2z
	 M18.1,2.9C9.7,2.9,2.9,9.7,2.9,18.1c0,8.4,6.8,15.2,15.2,15.2c8.4,0,15.2-6.8,15.2-15.2l0,0C33.4,9.7,26.5,2.9,18.1,2.9L18.1,2.9z"
	/>
<g>
	<path class="st0" d="M26.7,19.6c-0.4-1.5-1-2.8-1.9-4c-0.5-0.7-1-1.4-1.5-2.1c-0.8-1.4-1.3-2.8-1.2-4.5c0-0.5-0.1-1.1-0.2-1.6
		c-0.3-1.2-1-2.2-2.2-2.7c-1.3-0.6-2.5-0.5-3.8,0.1c-0.7,0.3-1.1,0.9-1.3,1.6c-0.2,0.6-0.2,1.2-0.2,1.9c0,1.1,0.1,2.3,0.2,3.4
		c0,0.3,0,0.6,0,0.9c0,0.5-0.3,0.9-0.6,1.3c-0.4,0.5-0.8,1-1.2,1.6c-0.7,1-1.3,2.1-1.7,3.3c-0.2,0.5-0.4,1.1-0.6,1.7
		c-0.1,0.4-0.1,0.7,0,1.1c0.5-0.3,0.9-0.5,1.4-0.2c0.1,0,0.2,0.1,0.4,0.2c0,0,0,0,0,0c0,0,0,0,0,0c0.1,0,0.1,0.1,0.2,0.1
		c0,0,0,0,0,0c0,0,0,0,0,0c-0.1-1.1,0.1-2.2,0.5-3.2c0.2-0.5,0.5-1,0.7-1.5c0,0,0,0,0-0.1c0.2-0.3,0.5-0.5,0.9-0.6
		c0.1,0,0.2-0.1,0.3-0.1c0.1-0.1,0.1-0.1,0-0.2c-0.1-0.1-0.2-0.1-0.3-0.2c-0.4-0.2-0.5-0.5-0.2-0.9c0.2-0.3,0.4-0.7,0.7-1
		c0.1-0.1,0.2-0.3,0.2-0.5c0-0.2,0-0.4,0-0.5c0.1-0.3,0-0.5-0.2-0.8c-0.4-0.5-0.3-1,0.1-1.4c0.1-0.1,0.2-0.1,0.3-0.2
		c-0.2-0.3-0.3-0.6-0.3-1c0-0.4,0-0.8,0.2-1.2c0.2-0.4,0.7-0.5,1-0.2c0.3,0.2,0.5,0.5,0.5,0.9c0,0.2,0,0.4,0,0.5h1
		c0-0.1,0-0.2,0-0.3c0-0.4,0.1-0.7,0.4-1C18.4,8,18.7,7.9,19,7.9c0.3,0,0.6,0,0.8,0.2c0.3,0.4,0.6,0.9,0.6,1.4c0,0.4-0.1,0.7-0.3,1
		c0.1,0,0.1,0.1,0.2,0.1c0.2,0.1,0.3,0.3,0.3,0.5c0,0.3-0.1,0.7-0.2,1c0,0,0,0.1,0,0.1c0.1,0.3,0.3,0.7,0.4,1
		c0.2,0.4,0.4,0.7,0.5,1.1c0.3,0.9,0.6,1.7,1.1,2.5c0.1,0.3,0.3,0.6,0.4,0.8c0.4,1.1,0.4,2.1,0.4,3.2c0,0.2,0,0.5,0,0.7
		c0,0,0,0,0.1,0c0.4,0.1,0.5,0.3,0.5,0.7c0,0.1,0,0.3,0,0.4c0,0,0,0.1,0,0.1c0.3,0.4,0.9,0.4,1.3,0.2c0.4-0.3,0.7-0.7,1-1.1
		c0.1,0,0.1-0.1,0.1-0.2c0,0,0,0,0,0c0.2,0,0.3,0,0.5,0c0,0,0.1,0,0.1-0.1c0.1-0.2,0.2-0.4,0.2-0.6C27,20.7,26.9,20.2,26.7,19.6z"/>
	<path class="st0" d="M15.8,27.7c-0.1-0.4-0.3-0.7-0.5-1c-0.3-0.4-0.6-0.8-0.9-1.2c-0.6-0.9-1.1-1.7-1.7-2.6
		c-0.3-0.4-0.6-0.7-0.9-1.1c-0.4-0.3-0.7-0.3-1.1,0c-0.2,0.2-0.4,0.4-0.5,0.6c-0.2,0.2-0.3,0.4-0.4,0.6c-0.2,0.3-0.5,0.5-0.8,0.5
		c-0.3,0.1-0.6,0.1-0.9,0.2c-0.5,0.1-0.6,0.4-0.6,0.9c0,0,0,0,0,0.1c0.1,0.5,0.2,1,0.1,1.6c0,0.3-0.1,0.6-0.1,0.9
		c-0.1,0.5,0.1,0.8,0.5,1c0.1,0,0.2,0.1,0.2,0.1c0.4,0.1,0.8,0.2,1.2,0.3c0.9,0.2,1.7,0.4,2.5,0.7c0.5,0.2,0.9,0.4,1.4,0.5
		c0.6,0.2,1.1,0.1,1.6-0.4c0.2-0.2,0.3-0.3,0.5-0.4c0.2-0.1,0.3-0.3,0.3-0.6c0-0.1,0-0.2,0-0.3c0,0,0,0,0,0
		C15.8,27.9,15.8,27.8,15.8,27.7z"/>
	<path class="st0" d="M28.6,25.4c-0.1,0-0.1-0.1-0.2-0.1c-0.5-0.3-1-0.8-1.3-1.3C27,23.9,27,23.8,27,23.7c0-0.2,0-0.4,0-0.6
		c0-0.2-0.1-0.3-0.1-0.5c-0.2-0.3-0.5-0.3-0.7,0c0,0-0.1,0.1-0.1,0.1c-0.2,0.4-0.6,0.7-0.9,0.9c-0.1,0.1-0.2,0.1-0.3,0.1
		c-0.5,0.1-1,0-1.4-0.4c-0.1-0.1-0.2-0.3-0.2-0.5c0-0.1,0-0.3,0-0.4c0-0.2-0.1-0.3-0.3-0.4c-0.2,0-0.4,0-0.6,0
		c-0.3,0-0.5,0.2-0.5,0.5c0,0.3,0,0.6,0,1c0,1.2-0.1,2.4-0.3,3.5c-0.1,0.5-0.1,1,0,1.5c0.1,0.7,0.5,1,1.1,1.1c0.2,0,0.4,0,0.6,0.1
		c0.7,0,1.3-0.2,1.8-0.7c0.3-0.3,0.6-0.5,0.9-0.8c0.7-0.6,1.6-1,2.4-1.5c0.2-0.1,0.4-0.2,0.5-0.4C29,26.1,29,25.6,28.6,25.4z"/>
	<path class="st0" d="M16.7,13.4c0.5,0.1,1,0.2,1.4-0.1c0.2-0.1,0.5-0.3,0.7-0.4c0.3-0.2,0.6-0.3,0.9-0.5c0.4-0.2,0.6-0.4,0.6-0.8
		c0-0.1,0-0.2,0-0.3c0-0.2-0.1-0.4-0.2-0.5c-0.2-0.1-0.3-0.2-0.5-0.2c-0.1,0-0.2-0.1-0.4-0.1c0.3-0.1,0.5-0.3,0.6-0.6
		c0-0.2,0-0.5-0.2-0.7c-0.2-0.3-0.4-0.3-0.7-0.3c-0.3,0-0.4,0.2-0.5,0.5c0,0.1,0,0.2,0,0.3c0,0.2,0,0.4,0,0.5
		c-0.7-0.4-1.4-0.4-2.1-0.1c0,0,0,0,0,0c0,0,0-0.1,0-0.1c0-0.3,0-0.6-0.2-0.8c-0.1-0.2-0.3-0.3-0.5-0.2c-0.2,0-0.3,0.2-0.3,0.4
		c0,0.2,0,0.5,0.1,0.7c0.1,0.2,0.2,0.3,0.4,0.5c-0.2,0.1-0.3,0.3-0.5,0.4c-0.3,0.3-0.4,0.6-0.2,1c0.1,0.1,0.2,0.3,0.3,0.4
		c0.3,0.3,0.7,0.6,1,0.9C16.5,13.3,16.6,13.4,16.7,13.4z"/>
	<path class="st0" d="M16.1,27.2c0.2,0.4,0.2,0.9,0.1,1.4c0.1,0,0.2,0,0.3,0c0.7,0,1.5-0.1,2.2-0.1c0.6,0,1.2,0,1.8,0.1
		c0.2,0,0.4,0.1,0.6,0.1c0-0.3,0-0.7,0-1c0.1-0.5,0.2-1,0.2-1.4c0-0.2,0.1-0.4,0.1-0.5c0,0,0,0,0,0C19.8,27,18,27.5,16.1,27.2z"/>
</g>
</svg>
