<svg xmlns="http://www.w3.org/2000/svg" width="33.299" height="41.141" viewBox="0 0 33.299 41.141">
    <g transform="translate(-202.457 -604.129)">
        <path d="M227.4,604.129a9.65,9.65,0,0,1-.58,3.795,8.573,8.573,0,0,1-5.981,5.556,10.179,10.179,0,0,1-1.23.156c-.384.052-.536-.089-.547-.495a8.192,8.192,0,0,1,1.207-4.408,9.206,9.206,0,0,1,6.437-4.519,1.3,1.3,0,0,0,.215-.085Z" fill="#fff" />
        <path d="M234.711,618.086c-.752.713-1.512,1.349-2.171,2.076a8.463,8.463,0,0,0-2.049,7.241,8.627,8.627,0,0,0,4.817,6.609c.465.251.537.451.359.945a24.741,24.741,0,0,1-4.931,8.181c-1.944,2.172-4.084,2.581-6.791,1.48a16.638,16.638,0,0,0-3.043-.951,7.742,7.742,0,0,0-4.255.606,15.741,15.741,0,0,1-3.043.95,4.5,4.5,0,0,1-3.9-1.551,23.96,23.96,0,0,1-4.9-7.136,24.26,24.26,0,0,1-2.339-9.641,13.665,13.665,0,0,1,2.3-8.473c2.3-3.271,6.932-5.308,11.009-3.6.72.3,1.467.539,2.193.827a3.845,3.845,0,0,0,2.887,0,23.28,23.28,0,0,1,4.122-1.369,9.453,9.453,0,0,1,9.656,3.663A.806.806,0,0,1,234.711,618.086Z" fill="#fff" />
    </g>
</svg>
