<?xml version="1.0" encoding="utf-8"?>
<!-- Generator: Adobe Illustrator 26.0.1, SVG Export Plug-In . SVG Version: 6.00 Build 0)  -->
<svg version="1.1" id="Layer_1" xmlns="http://www.w3.org/2000/svg" xmlns:xlink="http://www.w3.org/1999/xlink" x="0px" y="0px"
	 viewBox="0 0 709 840" style="enable-background:new 0 0 709 840;" xml:space="preserve">
<style type="text/css">
	.st0{fill-rule:evenodd;clip-rule:evenodd;fill:#00BBC4;}
	.st1{opacity:0.75;fill:#FFFFFF;enable-background:new    ;}
	.st2{fill-rule:evenodd;clip-rule:evenodd;fill:#77C600;}
	.st3{fill-rule:evenodd;clip-rule:evenodd;fill:#C4007E;}
	.st4{fill-rule:evenodd;clip-rule:evenodd;fill:#8000C4;}
	.st5{fill:none;stroke:#979797;stroke-dasharray:4;}
</style>
<path class="st0" d="M4,390h171.4c2.2,0,4,1.8,4,4v51.3c0,2.2-1.8,4-4,4H4c-2.2,0-4-1.8-4-4V394C0,391.8,1.8,390,4,390z"/>
<path class="st1" d="M55.2,426v-2.8h-4.3V422l4.9-7.2h1.5v6.8h1.5v1.7h-1.5v2.8H55.2L55.2,426z M53,421.6h2.3v-3.3L53,421.6z
	 M65.9,426.2c-0.2,0-0.4-0.1-0.6-0.2c-0.2-0.1-0.3-0.3-0.4-0.4c-0.2-0.4-0.2-0.8,0-1.2c0.3-0.6,1.1-0.8,1.7-0.4
	c0.6,0.3,0.8,1.1,0.4,1.7c0,0,0,0,0,0C66.7,426,66.3,426.2,65.9,426.2z M78.9,420c0.5,0.2,1,0.5,1.3,1c0.4,0.5,0.5,1.1,0.5,1.8
	c0,0.6-0.2,1.2-0.5,1.8c-0.3,0.5-0.7,0.9-1.3,1.3c-0.6,0.3-1.2,0.5-2,0.5c-1.5,0-2.7-0.5-3.5-1.5l0.8-1.7l0,0l0,0
	c0.3,0.5,0.6,0.9,1,1.1c0.4,0.2,1,0.3,1.6,0.3c0.6,0,1-0.2,1.3-0.5c0.3-0.3,0.5-0.8,0.5-1.3c0-0.6-0.2-1.1-0.5-1.3
	c-0.3-0.3-0.9-0.4-1.7-0.4c-0.3,0-0.6,0-0.9,0.1v-1.6c0.1,0,0.2,0,0.4,0c0.9,0,1.6-0.1,1.9-0.4c0.4-0.3,0.5-0.7,0.5-1.2
	c0-0.4-0.1-0.8-0.4-1.1c-0.3-0.3-0.6-0.4-1.1-0.4c-0.4,0-0.8,0.1-1.1,0.2c-0.3,0.1-0.7,0.4-1.1,0.7l-1.1-1.2
	c0.4-0.5,0.9-0.9,1.5-1.1c0.6-0.3,1.2-0.4,1.8-0.4c0.7,0,1.3,0.1,1.8,0.4c0.5,0.3,0.9,0.6,1.2,1.1c0.3,0.5,0.4,1,0.4,1.5
	c0,0.6-0.2,1.1-0.5,1.6C79.7,419.5,79.3,419.8,78.9,420z M74.3,423.1c0,0,0-0.1,0-0.1c0,0,0,0,0,0s0,0,0.1,0L74.3,423.1L74.3,423.1z
	 M74.6,423.1C74.6,423.1,74.6,423.1,74.6,423.1c0,0-0.1,0-0.1,0c0,0-0.1,0-0.1-0.1l0,0L74.6,423.1L74.6,423.1z M96,414.8h3.4
	c1.3,0,2.3,0.3,2.9,0.8c0.7,0.5,1,1.2,1,2.1c0,0.4-0.1,0.9-0.4,1.3c-0.2,0.4-0.6,0.8-1,1c0.3,0.2,0.7,0.4,0.9,0.7
	c0.3,0.3,0.5,0.6,0.6,1c0.2,0.4,0.2,0.7,0.2,1.1c0,1-0.4,1.8-1.1,2.4s-1.8,0.9-3.3,0.9H96V414.8L96,414.8z M99.3,419.2
	c0.7,0,1.2-0.1,1.6-0.4s0.5-0.6,0.5-1c0-0.2-0.1-0.5-0.2-0.7c-0.1-0.2-0.3-0.4-0.6-0.5c-0.3-0.1-0.6-0.2-1-0.2h-1.4v2.7H99.3z
	 M99.6,424.3c0.7,0,1.2-0.1,1.5-0.4c0.4-0.2,0.5-0.7,0.5-1.3c0-0.6-0.2-1-0.6-1.3s-1-0.5-1.8-0.5H98v3.5L99.6,424.3L99.6,424.3z
	 M110,426v-9.5h-3v-1.7h8.3v1.8H112v9.5H110z M122.9,424.7c0.8,0,1.4-0.5,2-1.6l1.5,1c-0.4,0.7-0.9,1.3-1.6,1.6
	c-0.6,0.4-1.3,0.6-2.1,0.6c-0.8,0-1.6-0.2-2.3-0.7c-0.7-0.4-1.2-1.1-1.6-2c-0.4-0.9-0.6-2-0.6-3.2c0-1.4,0.2-2.5,0.7-3.4
	c0.4-0.9,1-1.5,1.7-1.9c0.7-0.4,1.4-0.6,2.2-0.6c0.8,0,1.6,0.2,2.2,0.7s1.1,1.1,1.4,1.9l-1.5,0.7l0,0v0c-0.2-0.6-0.5-1-0.9-1.3
	c-0.4-0.2-0.8-0.4-1.2-0.4c-0.9,0-1.5,0.4-1.9,1.1c-0.4,0.8-0.6,1.8-0.6,3.1c0,0.8,0.1,1.6,0.3,2.2c0.2,0.7,0.5,1.2,0.9,1.6
	C122,424.5,122.4,424.7,122.9,424.7L122.9,424.7z M124.9,417.6C124.9,417.6,124.9,417.6,124.9,417.6c0,0,0.1,0,0.1,0
	c0,0,0.1,0.1,0.1,0.1l-0.1,0L124.9,417.6z M125.1,417.9C125.1,417.9,125.1,417.9,125.1,417.9c0,0-0.1-0.1-0.1-0.1l0,0L125.1,417.9z"
	/>
<path class="st2" d="M533,390h171.4c2.2,0,4,1.8,4,4v51.3c0,2.2-1.8,4-4,4H533c-2.2,0-4-1.8-4-4V394C529,391.8,530.8,390,533,390z"
	/>
<path class="st1" d="M591.6,424.5c1.4-1.4,2.5-2.4,3.1-3.1c0.6-0.7,1.1-1.3,1.4-1.9c0.3-0.6,0.5-1.2,0.5-1.8c0-0.5-0.2-0.9-0.4-1.1
	c-0.3-0.3-0.7-0.4-1.2-0.4c-0.3,0-0.6,0-0.9,0.1c-0.2,0.1-0.5,0.1-0.7,0.3c-0.2,0.1-0.3,0.2-0.4,0.3c-0.2,0.4-0.4,0.7-0.4,0.7
	c0,0,0,0,0,0c0,0,0,0,0.1,0c0,0,0,0,0.1,0c0,0,0,0,0,0l-0.1,0.2l-0.1-0.1l-1.3-1c0.4-0.7,1-1.2,1.6-1.6c0.6-0.4,1.4-0.6,2.1-0.6
	c0.7,0,1.3,0.1,1.8,0.4c0.5,0.3,1,0.7,1.3,1.2s0.5,1.1,0.5,1.7c0,0.6-0.2,1.3-0.5,1.8c-0.3,0.6-0.7,1.2-1.2,1.7
	c-0.5,0.5-1.2,1.3-2.2,2.2l-0.7,0.7h3.7c0.2,0,0.3,0,0.4,0c0.1,0,0.2-0.1,0.2-0.1h0.2v1.8h-7L591.6,424.5L591.6,424.5z M613.8,414.8
	h3.4c1.3,0,2.3,0.3,2.9,0.8c0.6,0.5,1,1.2,1,2.1c0,0.4-0.1,0.9-0.4,1.3c-0.2,0.4-0.6,0.8-1,1c0.3,0.2,0.7,0.4,0.9,0.7
	c0.3,0.3,0.5,0.6,0.6,1c0.2,0.4,0.2,0.7,0.2,1.1c0,1-0.4,1.8-1.1,2.4s-1.8,0.9-3.3,0.9h-3.4V414.8z M617,419.2
	c0.7,0,1.2-0.1,1.6-0.4s0.5-0.6,0.5-1c0-0.2-0.1-0.5-0.2-0.7c-0.1-0.2-0.3-0.4-0.6-0.5c-0.3-0.1-0.6-0.2-1-0.2h-1.4v2.7H617z
	 M617.4,424.3c0.7,0,1.2-0.1,1.5-0.4c0.4-0.2,0.5-0.7,0.5-1.3c0-0.6-0.2-1-0.6-1.3c-0.4-0.3-1-0.5-1.8-0.5h-1.3v3.5L617.4,424.3
	L617.4,424.3z M627.7,426v-9.5h-3v-1.7h8.3v1.8h-3.2v9.5H627.7z M640.6,424.7c0.8,0,1.4-0.5,2-1.6l1.5,1c-0.4,0.7-0.9,1.3-1.6,1.6
	c-0.6,0.4-1.3,0.6-2.1,0.6c-0.8,0-1.6-0.2-2.3-0.7c-0.7-0.4-1.2-1.1-1.6-2c-0.4-0.9-0.6-2-0.6-3.2c0-1.4,0.2-2.5,0.7-3.4
	c0.4-0.9,1-1.5,1.7-1.9c0.7-0.4,1.4-0.6,2.2-0.6c0.9,0,1.6,0.2,2.2,0.7c0.6,0.5,1.1,1.1,1.4,1.9l-1.5,0.7l0,0v0
	c-0.2-0.6-0.5-1-0.9-1.3c-0.4-0.2-0.8-0.4-1.2-0.4c-0.9,0-1.5,0.4-1.9,1.1c-0.4,0.8-0.6,1.8-0.6,3.1c0,0.8,0.1,1.6,0.3,2.2
	c0.2,0.7,0.5,1.2,0.9,1.6C639.7,424.5,640.2,424.7,640.6,424.7L640.6,424.7z M642.6,417.6C642.6,417.6,642.7,417.6,642.6,417.6
	c0,0,0.1,0,0.1,0c0,0,0.1,0.1,0.1,0.1l-0.1,0L642.6,417.6z M642.9,417.9C642.9,417.9,642.9,417.9,642.9,417.9c0,0-0.1-0.1-0.1-0.1
	l0,0L642.9,417.9z"/>
<path class="st2" d="M533,468h171.4c2.2,0,4,1.8,4,4v51.3c0,2.2-1.8,4-4,4H533c-2.2,0-4-1.8-4-4V472C529,469.8,530.8,468,533,468z"
	/>
<path class="st1" d="M591.6,502.5c1.4-1.4,2.5-2.4,3.1-3.1c0.6-0.7,1.1-1.3,1.4-1.9c0.3-0.6,0.5-1.2,0.5-1.8c0-0.5-0.2-0.9-0.4-1.1
	c-0.3-0.3-0.7-0.4-1.2-0.4c-0.3,0-0.6,0-0.9,0.1c-0.2,0.1-0.5,0.1-0.7,0.3c-0.2,0.1-0.3,0.2-0.4,0.3c-0.2,0.4-0.4,0.7-0.4,0.7
	c0,0,0,0,0,0c0,0,0,0,0.1,0c0,0,0,0,0.1,0c0,0,0,0,0,0l-0.1,0.2l-0.1-0.1l-1.3-1c0.4-0.7,1-1.2,1.6-1.6c0.6-0.4,1.4-0.6,2.1-0.6
	c0.7,0,1.3,0.1,1.8,0.4c0.5,0.3,1,0.7,1.3,1.2s0.5,1.1,0.5,1.7c0,0.6-0.2,1.3-0.5,1.8c-0.3,0.6-0.7,1.2-1.2,1.7
	c-0.5,0.5-1.2,1.3-2.2,2.2l-0.7,0.7h3.7c0.2,0,0.3,0,0.4,0c0.1,0,0.2-0.1,0.2-0.1h0.2v1.8h-7L591.6,502.5L591.6,502.5z M613.8,492.8
	h3.4c1.3,0,2.3,0.3,2.9,0.8c0.6,0.5,1,1.2,1,2.1c0,0.4-0.1,0.9-0.4,1.3c-0.2,0.4-0.6,0.8-1,1c0.3,0.2,0.7,0.4,0.9,0.7
	c0.3,0.3,0.5,0.6,0.6,1c0.2,0.4,0.2,0.7,0.2,1.1c0,1-0.4,1.8-1.1,2.4s-1.8,0.9-3.3,0.9h-3.4V492.8z M617,497.2
	c0.7,0,1.2-0.1,1.6-0.4s0.5-0.6,0.5-1c0-0.2-0.1-0.5-0.2-0.7c-0.1-0.2-0.3-0.4-0.6-0.5c-0.3-0.1-0.6-0.2-1-0.2h-1.4v2.7H617z
	 M617.4,502.3c0.7,0,1.2-0.1,1.5-0.4c0.4-0.2,0.5-0.7,0.5-1.3c0-0.6-0.2-1-0.6-1.3c-0.4-0.3-1-0.5-1.8-0.5h-1.3v3.5L617.4,502.3
	L617.4,502.3z M627.7,504v-9.5h-3v-1.7h8.3v1.8h-3.2v9.5H627.7z M640.6,502.7c0.8,0,1.4-0.5,2-1.6l1.5,1c-0.4,0.7-0.9,1.3-1.6,1.6
	c-0.6,0.4-1.3,0.6-2.1,0.6c-0.8,0-1.6-0.2-2.3-0.7c-0.7-0.4-1.2-1.1-1.6-2c-0.4-0.9-0.6-2-0.6-3.2c0-1.4,0.2-2.5,0.7-3.4
	c0.4-0.9,1-1.5,1.7-1.9c0.7-0.4,1.4-0.6,2.2-0.6c0.9,0,1.6,0.2,2.2,0.7c0.6,0.5,1.1,1.1,1.4,1.9l-1.5,0.7l0,0v0
	c-0.2-0.6-0.5-1-0.9-1.3c-0.4-0.2-0.8-0.4-1.2-0.4c-0.9,0-1.5,0.4-1.9,1.1c-0.4,0.8-0.6,1.8-0.6,3.1c0,0.8,0.1,1.6,0.3,2.2
	c0.2,0.7,0.5,1.2,0.9,1.6C639.7,502.5,640.2,502.7,640.6,502.7L640.6,502.7z M642.6,495.6C642.6,495.6,642.7,495.6,642.6,495.6
	c0,0,0.1,0,0.1,0c0,0,0.1,0.1,0.1,0.1l-0.1,0L642.6,495.6z M642.9,495.9C642.9,495.9,642.9,495.9,642.9,495.9c0,0-0.1-0.1-0.1-0.1
	l0,0L642.9,495.9z"/>
<path class="st2" d="M533,546h171.4c2.2,0,4,1.8,4,4v51.3c0,2.2-1.8,4-4,4H533c-2.2,0-4-1.8-4-4V550C529,547.8,530.8,546,533,546z"
	/>
<path class="st1" d="M591.6,580.5c1.4-1.4,2.5-2.4,3.1-3.1c0.6-0.7,1.1-1.3,1.4-1.9s0.5-1.2,0.5-1.8c0-0.5-0.2-0.9-0.4-1.1
	c-0.3-0.3-0.7-0.4-1.2-0.4c-0.3,0-0.6,0-0.9,0.1c-0.2,0.1-0.5,0.1-0.7,0.3c-0.2,0.1-0.3,0.2-0.4,0.3c-0.2,0.4-0.4,0.7-0.4,0.7
	c0,0,0,0,0,0c0,0,0,0,0.1,0c0,0,0,0,0.1,0c0,0,0,0,0,0l-0.1,0.2l-0.1-0.1l-1.3-1c0.4-0.7,1-1.2,1.6-1.6c0.6-0.4,1.4-0.6,2.1-0.6
	c0.7,0,1.3,0.1,1.8,0.4c0.5,0.3,1,0.7,1.3,1.2s0.5,1.1,0.5,1.7c0,0.6-0.2,1.3-0.5,1.8c-0.3,0.6-0.7,1.2-1.2,1.7
	c-0.5,0.5-1.2,1.3-2.2,2.2l-0.7,0.7h3.7c0.2,0,0.3,0,0.4,0c0.1,0,0.2-0.1,0.2-0.1h0.2v1.8h-7L591.6,580.5L591.6,580.5z M613.8,570.8
	h3.4c1.3,0,2.3,0.3,2.9,0.8c0.6,0.5,1,1.2,1,2.1c0,0.5-0.1,0.9-0.4,1.3c-0.2,0.4-0.6,0.8-1,1c0.3,0.2,0.7,0.4,0.9,0.7
	c0.3,0.3,0.5,0.6,0.6,1c0.2,0.4,0.2,0.7,0.2,1.1c0,1-0.4,1.8-1.1,2.4s-1.8,0.9-3.3,0.9h-3.4V570.8z M617,575.2
	c0.7,0,1.2-0.1,1.6-0.4c0.3-0.2,0.5-0.6,0.5-1c0-0.2-0.1-0.5-0.2-0.7c-0.1-0.2-0.3-0.4-0.6-0.5c-0.3-0.1-0.6-0.2-1-0.2h-1.4v2.7H617
	z M617.4,580.3c0.7,0,1.2-0.1,1.5-0.4c0.4-0.2,0.5-0.7,0.5-1.3c0-0.6-0.2-1-0.6-1.3c-0.4-0.3-1-0.5-1.8-0.5h-1.3v3.5L617.4,580.3
	L617.4,580.3z M627.7,582v-9.5h-3v-1.7h8.3v1.8h-3.2v9.5H627.7z M640.6,580.7c0.8,0,1.4-0.5,2-1.6l1.5,1c-0.4,0.7-0.9,1.3-1.6,1.6
	c-0.6,0.4-1.3,0.6-2.1,0.6c-0.8,0-1.6-0.2-2.3-0.7c-0.7-0.4-1.2-1.1-1.6-2c-0.4-0.9-0.6-2-0.6-3.2c0-1.4,0.2-2.5,0.7-3.4
	c0.4-0.9,1-1.5,1.7-1.9c0.7-0.4,1.4-0.6,2.2-0.6c0.9,0,1.6,0.2,2.2,0.7c0.6,0.5,1.1,1.1,1.4,1.9l-1.5,0.7l0,0v0
	c-0.2-0.6-0.5-1-0.9-1.3c-0.4-0.2-0.8-0.4-1.2-0.4c-0.9,0-1.5,0.4-1.9,1.1c-0.4,0.8-0.6,1.8-0.6,3.1c0,0.8,0.1,1.6,0.3,2.2
	c0.2,0.7,0.5,1.2,0.9,1.6C639.7,580.5,640.2,580.7,640.6,580.7L640.6,580.7z M642.6,573.7C642.6,573.6,642.7,573.6,642.6,573.7
	c0,0,0.1,0,0.1,0c0,0.1,0.1,0.1,0.1,0.1l-0.1,0L642.6,573.7z M642.9,573.9C642.9,573.9,642.9,573.9,642.9,573.9c0,0-0.1-0.1-0.1-0.1
	l0,0L642.9,573.9z"/>
<path class="st3" d="M4,468h171.4c2.2,0,4,1.8,4,4v51.3c0,2.2-1.8,4-4,4H4c-2.2,0-4-1.8-4-4V472C0,469.8,1.8,468,4,468z"/>
<path class="st1" d="M51.3,502.5c1.4-1.4,2.5-2.4,3.1-3.1c0.6-0.7,1.1-1.3,1.4-1.9c0.3-0.6,0.5-1.2,0.5-1.8c0-0.5-0.2-0.9-0.4-1.1
	c-0.3-0.3-0.7-0.4-1.2-0.4c-0.3,0-0.6,0-0.9,0.1c-0.2,0.1-0.5,0.1-0.7,0.3c-0.2,0.1-0.3,0.2-0.4,0.3c-0.2,0.4-0.4,0.7-0.4,0.7
	c0,0,0,0,0,0c0,0,0,0,0.1,0c0,0,0,0,0.1,0c0,0,0,0,0,0l-0.1,0.2l-0.1-0.1l-1.3-1c0.4-0.7,1-1.2,1.6-1.6c0.6-0.4,1.4-0.6,2.1-0.6
	c0.7,0,1.3,0.1,1.8,0.4c0.5,0.3,1,0.7,1.3,1.2s0.5,1.1,0.5,1.7c0,0.6-0.2,1.3-0.5,1.8c-0.3,0.6-0.7,1.2-1.2,1.7
	c-0.5,0.5-1.2,1.3-2.2,2.2l-0.7,0.7h3.7c0.2,0,0.3,0,0.4,0c0.1,0,0.2-0.1,0.2-0.1h0.2v1.8h-7L51.3,502.5L51.3,502.5z M65.9,504.2
	c-0.2,0-0.4-0.1-0.6-0.2c-0.2-0.1-0.3-0.3-0.4-0.4c-0.2-0.4-0.2-0.8,0-1.2c0.3-0.6,1.1-0.8,1.7-0.4c0.6,0.3,0.8,1.1,0.4,1.7
	c0,0,0,0,0,0C66.7,504,66.3,504.2,65.9,504.2z M73.8,502.5c1.4-1.4,2.5-2.4,3.1-3.1c0.6-0.7,1.1-1.3,1.4-1.9
	c0.3-0.6,0.5-1.2,0.5-1.8c0-0.5-0.2-0.9-0.4-1.1c-0.3-0.3-0.7-0.4-1.2-0.4c-0.3,0-0.6,0-0.9,0.1c-0.2,0.1-0.5,0.1-0.7,0.3
	c-0.2,0.1-0.3,0.2-0.4,0.3c-0.2,0.4-0.4,0.7-0.4,0.7c0,0,0,0,0,0c0,0,0,0,0.1,0c0,0,0,0,0.1,0c0,0,0,0,0,0l-0.1,0.2l-0.1-0.1l-1.3-1
	c0.4-0.7,1-1.2,1.6-1.6c0.6-0.4,1.4-0.6,2.1-0.6c0.7,0,1.3,0.1,1.8,0.4c0.5,0.3,1,0.7,1.3,1.2s0.5,1.1,0.5,1.7
	c0,0.6-0.2,1.3-0.5,1.8c-0.3,0.6-0.7,1.2-1.2,1.7c-0.5,0.5-1.2,1.3-2.2,2.2l-0.7,0.7h3.7c0.2,0,0.3,0,0.4,0c0.1,0,0.2-0.1,0.2-0.1
	h0.2v1.8h-7L73.8,502.5L73.8,502.5z M96,492.8h3.4c1.3,0,2.3,0.3,2.9,0.8c0.7,0.5,1,1.2,1,2.1c0,0.4-0.1,0.9-0.4,1.3
	c-0.2,0.4-0.6,0.8-1,1c0.3,0.2,0.7,0.4,0.9,0.7c0.3,0.3,0.5,0.6,0.6,1c0.2,0.4,0.2,0.7,0.2,1.1c0,1-0.4,1.8-1.1,2.4
	s-1.8,0.9-3.3,0.9H96V492.8z M99.3,497.2c0.7,0,1.2-0.1,1.6-0.4s0.5-0.6,0.5-1c0-0.2-0.1-0.5-0.2-0.7c-0.1-0.2-0.3-0.4-0.6-0.5
	c-0.3-0.1-0.6-0.2-1-0.2h-1.4v2.7H99.3z M99.6,502.3c0.7,0,1.2-0.1,1.5-0.4c0.4-0.2,0.5-0.7,0.5-1.3c0-0.6-0.2-1-0.6-1.3
	s-1-0.5-1.8-0.5H98v3.5L99.6,502.3L99.6,502.3z M110,504v-9.5h-3v-1.7h8.3v1.8H112v9.5H110z M122.9,502.7c0.8,0,1.4-0.5,2-1.6l1.5,1
	c-0.4,0.7-0.9,1.3-1.6,1.6c-0.6,0.4-1.3,0.6-2.1,0.6c-0.8,0-1.6-0.2-2.3-0.7c-0.7-0.4-1.2-1.1-1.6-2c-0.4-0.9-0.6-2-0.6-3.2
	c0-1.4,0.2-2.5,0.7-3.4c0.4-0.9,1-1.5,1.7-1.9c0.7-0.4,1.4-0.6,2.2-0.6c0.8,0,1.6,0.2,2.2,0.7s1.1,1.1,1.4,1.9l-1.5,0.7l0,0v0
	c-0.2-0.6-0.5-1-0.9-1.3c-0.4-0.2-0.8-0.4-1.2-0.4c-0.9,0-1.5,0.4-1.9,1.1c-0.4,0.8-0.6,1.8-0.6,3.1c0,0.8,0.1,1.6,0.3,2.2
	c0.2,0.7,0.5,1.2,0.9,1.6C122,502.5,122.4,502.7,122.9,502.7L122.9,502.7z M124.9,495.6C124.9,495.6,124.9,495.6,124.9,495.6
	c0,0,0.1,0,0.1,0c0,0,0.1,0.1,0.1,0.1l-0.1,0L124.9,495.6z M125.1,495.9C125.1,495.9,125.1,495.9,125.1,495.9c0,0-0.1-0.1-0.1-0.1
	l0,0L125.1,495.9z"/>
<path class="st4" d="M533,624h171.4c2.2,0,4,1.8,4,4v51.3c0,2.2-1.8,4-4,4H533c-2.2,0-4-1.8-4-4V628C529,625.8,530.8,624,533,624z"
	/>
<path class="st1" d="M583.8,648.6c0.8,0,1.5,0.2,2.1,0.7c0.6,0.5,1,1.1,1.3,2c0.3,0.9,0.5,1.9,0.5,3.2c0,1.2-0.2,2.3-0.5,3.2
	c-0.3,0.9-0.8,1.6-1.3,2c-0.6,0.5-1.3,0.7-2.1,0.7c-0.8,0-1.5-0.2-2.1-0.7s-1-1.1-1.3-2c-0.3-0.9-0.5-1.9-0.5-3.2
	c0-1.2,0.2-2.3,0.5-3.2c0.3-0.9,0.8-1.6,1.3-2C582.3,648.8,583,648.6,583.8,648.6z M583.8,650.2c-0.4,0-0.8,0.2-1.1,0.5
	c-0.3,0.3-0.5,0.8-0.7,1.5c-0.2,0.6-0.2,1.4-0.2,2.3c0,0.5,0,0.9,0.1,1.3l3.5-4.1c-0.2-0.5-0.4-0.8-0.7-1.1
	C584.5,650.3,584.2,650.2,583.8,650.2z M583.8,658.7c0.4,0,0.8-0.2,1.1-0.5c0.3-0.3,0.5-0.8,0.7-1.5c0.2-0.6,0.2-1.4,0.2-2.3
	c0-0.5,0-1-0.1-1.4l-3.5,4.1c0.2,0.5,0.4,0.9,0.7,1.2C583.1,658.6,583.5,658.7,583.8,658.7z M594.9,660.2c-0.2,0-0.4-0.1-0.6-0.2
	c-0.2-0.1-0.3-0.3-0.4-0.4c-0.2-0.4-0.2-0.8,0-1.2c0.3-0.6,1.1-0.8,1.7-0.4c0.6,0.3,0.8,1.1,0.4,1.7c0,0,0,0,0,0
	C595.7,660,595.3,660.2,594.9,660.2z M605.6,660v-8.9l-1.9,0.6l-0.5-1.2l3-1.6h1.3V660H605.6z M625,648.8h3.4c1.3,0,2.3,0.3,2.9,0.8
	c0.6,0.5,1,1.2,1,2.1c0,0.5-0.1,0.9-0.4,1.3c-0.2,0.4-0.6,0.8-1,1c0.3,0.2,0.7,0.4,0.9,0.7c0.3,0.3,0.5,0.6,0.6,1
	c0.2,0.4,0.2,0.7,0.2,1.1c0,1-0.4,1.8-1.1,2.4s-1.8,0.9-3.3,0.9H625V648.8z M628.3,653.2c0.7,0,1.2-0.1,1.6-0.4
	c0.3-0.2,0.5-0.6,0.5-1c0-0.2-0.1-0.5-0.2-0.7c-0.1-0.2-0.3-0.4-0.6-0.5c-0.3-0.1-0.6-0.2-1-0.2H627v2.7H628.3z M628.6,658.3
	c0.7,0,1.2-0.1,1.5-0.4c0.4-0.2,0.5-0.7,0.5-1.3c0-0.6-0.2-1-0.6-1.3c-0.4-0.3-1-0.5-1.8-0.5H627v3.5L628.6,658.3L628.6,658.3z
	 M639,660v-9.5h-3v-1.7h8.3v1.8H641v9.5H639z M651.9,658.7c0.8,0,1.4-0.5,2-1.6l1.5,1c-0.4,0.7-0.9,1.3-1.6,1.6
	c-0.6,0.4-1.3,0.6-2.1,0.6c-0.8,0-1.6-0.2-2.3-0.7c-0.7-0.4-1.2-1.1-1.6-2c-0.4-0.9-0.6-2-0.6-3.2c0-1.4,0.2-2.5,0.7-3.4
	c0.4-0.9,1-1.5,1.7-1.9c0.7-0.4,1.4-0.6,2.2-0.6c0.9,0,1.6,0.2,2.2,0.7c0.6,0.5,1.1,1.1,1.4,1.9l-1.5,0.7l0,0v0
	c-0.2-0.6-0.5-1-0.9-1.3c-0.4-0.2-0.8-0.4-1.2-0.4c-0.9,0-1.5,0.4-1.9,1.1c-0.4,0.8-0.6,1.8-0.6,3.1c0,0.8,0.1,1.6,0.3,2.2
	c0.2,0.7,0.5,1.2,0.9,1.6C651,658.5,651.4,658.7,651.9,658.7L651.9,658.7z M653.9,651.7C653.9,651.6,653.9,651.6,653.9,651.7
	c0,0,0.1,0,0.1,0c0,0.1,0.1,0.1,0.1,0.1l-0.1,0L653.9,651.7z M654.1,651.9C654.1,651.9,654.1,651.9,654.1,651.9c0,0-0.1-0.1-0.1-0.1
	l0,0L654.1,651.9z"/>
<path class="st3" d="M533,702h171.4c2.2,0,4,1.8,4,4v51.3c0,2.2-1.8,4-4,4H533c-2.2,0-4-1.8-4-4V706C529,703.8,530.8,702,533,702z"
	/>
<path class="st1" d="M583.8,726.6c0.8,0,1.5,0.2,2.1,0.7c0.6,0.5,1,1.1,1.3,2c0.3,0.9,0.5,1.9,0.5,3.2c0,1.2-0.2,2.3-0.5,3.2
	c-0.3,0.9-0.8,1.6-1.3,2c-0.6,0.5-1.3,0.7-2.1,0.7c-0.8,0-1.5-0.2-2.1-0.7s-1-1.1-1.3-2c-0.3-0.9-0.5-1.9-0.5-3.2
	c0-1.2,0.2-2.3,0.5-3.2c0.3-0.9,0.8-1.6,1.3-2C582.3,726.8,583,726.6,583.8,726.6z M583.8,728.2c-0.4,0-0.8,0.2-1.1,0.5
	c-0.3,0.3-0.5,0.8-0.7,1.5c-0.2,0.6-0.2,1.4-0.2,2.3c0,0.5,0,0.9,0.1,1.3l3.5-4.1c-0.2-0.5-0.4-0.8-0.7-1.1
	C584.5,728.3,584.2,728.2,583.8,728.2z M583.8,736.7c0.4,0,0.8-0.2,1.1-0.5c0.3-0.3,0.5-0.8,0.7-1.5c0.2-0.6,0.2-1.4,0.2-2.3
	c0-0.5,0-1-0.1-1.4l-3.5,4.1c0.2,0.5,0.4,0.9,0.7,1.2C583.1,736.6,583.5,736.7,583.8,736.7z M594.9,738.2c-0.2,0-0.4-0.1-0.6-0.2
	c-0.2-0.1-0.3-0.3-0.4-0.4c-0.2-0.4-0.2-0.8,0-1.2c0.3-0.6,1.1-0.8,1.7-0.4c0.6,0.3,0.8,1.1,0.4,1.7c0,0,0,0,0,0
	C595.7,738,595.3,738.2,594.9,738.2z M602.8,736.5c1.4-1.4,2.5-2.4,3.1-3.1c0.6-0.7,1.1-1.3,1.4-1.9s0.5-1.2,0.5-1.8
	c0-0.5-0.2-0.9-0.4-1.1c-0.3-0.3-0.7-0.4-1.2-0.4c-0.3,0-0.6,0-0.9,0.1c-0.2,0.1-0.5,0.1-0.7,0.3c-0.2,0.1-0.3,0.2-0.4,0.3
	c-0.2,0.4-0.4,0.7-0.4,0.7c0,0,0,0,0,0c0,0,0,0,0.1,0c0,0,0,0,0.1,0c0,0,0,0,0,0l-0.1,0.2l-0.1-0.1l-1.3-1c0.4-0.7,1-1.2,1.6-1.6
	c0.6-0.4,1.4-0.6,2.1-0.6c0.7,0,1.3,0.1,1.8,0.4c0.5,0.3,1,0.7,1.3,1.2s0.5,1.1,0.5,1.7c0,0.6-0.2,1.3-0.5,1.8
	c-0.3,0.6-0.7,1.2-1.2,1.7c-0.5,0.5-1.2,1.3-2.2,2.2l-0.7,0.7h3.7c0.2,0,0.3,0,0.4,0c0.1,0,0.2-0.1,0.2-0.1h0.2v1.8h-7L602.8,736.5
	L602.8,736.5z M625,726.8h3.4c1.3,0,2.3,0.3,2.9,0.8c0.6,0.5,1,1.2,1,2.1c0,0.5-0.1,0.9-0.4,1.3c-0.2,0.4-0.6,0.8-1,1
	c0.3,0.2,0.7,0.4,0.9,0.7c0.3,0.3,0.5,0.6,0.6,1c0.2,0.4,0.2,0.7,0.2,1.1c0,1-0.4,1.8-1.1,2.4s-1.8,0.9-3.3,0.9H625V726.8z
	 M628.3,731.2c0.7,0,1.2-0.1,1.6-0.4c0.3-0.2,0.5-0.6,0.5-1c0-0.2-0.1-0.5-0.2-0.7c-0.1-0.2-0.3-0.4-0.6-0.5c-0.3-0.1-0.6-0.2-1-0.2
	H627v2.7H628.3z M628.6,736.3c0.7,0,1.2-0.1,1.5-0.4c0.4-0.2,0.5-0.7,0.5-1.3c0-0.6-0.2-1-0.6-1.3c-0.4-0.3-1-0.5-1.8-0.5H627v3.5
	L628.6,736.3L628.6,736.3z M639,738v-9.5h-3v-1.7h8.3v1.8H641v9.5H639z M651.9,736.7c0.8,0,1.4-0.5,2-1.6l1.5,1
	c-0.4,0.7-0.9,1.3-1.6,1.6c-0.6,0.4-1.3,0.6-2.1,0.6c-0.8,0-1.6-0.2-2.3-0.7c-0.7-0.4-1.2-1.1-1.6-2c-0.4-0.9-0.6-2-0.6-3.2
	c0-1.4,0.2-2.5,0.7-3.4c0.4-0.9,1-1.5,1.7-1.9c0.7-0.4,1.4-0.6,2.2-0.6c0.9,0,1.6,0.2,2.2,0.7c0.6,0.5,1.1,1.1,1.4,1.9l-1.5,0.7l0,0
	v0c-0.2-0.6-0.5-1-0.9-1.3c-0.4-0.2-0.8-0.4-1.2-0.4c-0.9,0-1.5,0.4-1.9,1.1c-0.4,0.8-0.6,1.8-0.6,3.1c0,0.8,0.1,1.6,0.3,2.2
	c0.2,0.7,0.5,1.2,0.9,1.6C651,736.5,651.4,736.7,651.9,736.7L651.9,736.7z M653.9,729.7C653.9,729.6,653.9,729.6,653.9,729.7
	c0,0,0.1,0,0.1,0c0,0.1,0.1,0.1,0.1,0.1l-0.1,0L653.9,729.7z M654.1,729.9C654.1,729.9,654.1,729.9,654.1,729.9c0,0-0.1-0.1-0.1-0.1
	l0,0L654.1,729.9z"/>
<path class="st0" d="M533,780h171.4c2.2,0,4,1.8,4,4v51.3c0,2.2-1.8,4-4,4H533c-2.2,0-4-1.8-4-4V784C529,781.8,530.8,780,533,780z"
	/>
<path class="st1" d="M583.8,804.6c0.8,0,1.5,0.2,2.1,0.7c0.6,0.5,1,1.1,1.3,2c0.3,0.9,0.5,1.9,0.5,3.2c0,1.2-0.2,2.3-0.5,3.2
	c-0.3,0.9-0.8,1.6-1.3,2c-0.6,0.5-1.3,0.7-2.1,0.7c-0.8,0-1.5-0.2-2.1-0.7s-1-1.1-1.3-2c-0.3-0.9-0.5-1.9-0.5-3.2
	c0-1.2,0.2-2.3,0.5-3.2c0.3-0.9,0.8-1.6,1.3-2C582.3,804.8,583,804.6,583.8,804.6z M583.8,806.2c-0.4,0-0.8,0.2-1.1,0.5
	c-0.3,0.3-0.5,0.8-0.7,1.5c-0.2,0.6-0.2,1.4-0.2,2.3c0,0.5,0,0.9,0.1,1.3l3.5-4.1c-0.2-0.5-0.4-0.8-0.7-1.1
	C584.5,806.3,584.2,806.2,583.8,806.2z M583.8,814.7c0.4,0,0.8-0.2,1.1-0.5c0.3-0.3,0.5-0.8,0.7-1.5c0.2-0.6,0.2-1.4,0.2-2.3
	c0-0.5,0-1-0.1-1.4l-3.5,4.1c0.2,0.5,0.4,0.9,0.7,1.2C583.1,814.6,583.5,814.7,583.8,814.7z M594.9,816.2c-0.2,0-0.4-0.1-0.6-0.2
	c-0.2-0.1-0.3-0.3-0.4-0.4c-0.2-0.4-0.2-0.8,0-1.2c0.3-0.6,1.1-0.8,1.7-0.4c0.6,0.3,0.8,1.1,0.4,1.7c0,0,0,0,0,0
	C595.7,816,595.3,816.2,594.9,816.2z M607.9,810c0.5,0.2,1,0.5,1.3,1c0.4,0.5,0.5,1.1,0.5,1.8c0,0.6-0.2,1.2-0.5,1.8
	c-0.3,0.5-0.7,0.9-1.3,1.3c-0.6,0.3-1.2,0.5-2,0.5c-1.5,0-2.7-0.5-3.5-1.5l0.8-1.7l0,0l0,0c0.3,0.5,0.6,0.9,1,1.1
	c0.4,0.2,1,0.3,1.6,0.3c0.6,0,1-0.2,1.3-0.5c0.3-0.3,0.5-0.8,0.5-1.3c0-0.6-0.2-1.1-0.5-1.3c-0.3-0.3-0.9-0.4-1.7-0.4
	c-0.3,0-0.6,0-0.9,0.1v-1.6c0.1,0,0.2,0,0.4,0c0.9,0,1.6-0.2,1.9-0.4c0.4-0.3,0.5-0.7,0.5-1.2c0-0.4-0.1-0.8-0.4-1.1
	c-0.3-0.3-0.6-0.4-1.1-0.4c-0.4,0-0.8,0.1-1.1,0.2c-0.3,0.1-0.7,0.4-1.1,0.7l-1.1-1.2c0.4-0.5,0.9-0.9,1.5-1.1
	c0.6-0.3,1.2-0.4,1.8-0.4c0.7,0,1.3,0.1,1.8,0.4c0.5,0.3,0.9,0.6,1.2,1.1c0.3,0.5,0.4,1,0.4,1.5c0,0.6-0.2,1.1-0.5,1.6
	C608.7,809.5,608.3,809.8,607.9,810z M603.3,813.1c0,0,0-0.1,0-0.1c0,0,0,0,0,0s0,0,0.1,0L603.3,813.1L603.3,813.1z M603.6,813.1
	C603.6,813.1,603.6,813.1,603.6,813.1c0,0-0.1,0-0.1,0c0,0-0.1,0-0.1-0.1l0,0L603.6,813.1L603.6,813.1z M625,804.8h3.4
	c1.3,0,2.3,0.3,2.9,0.8c0.6,0.5,1,1.2,1,2.1c0,0.5-0.1,0.9-0.4,1.3c-0.2,0.4-0.6,0.8-1,1c0.3,0.2,0.7,0.4,0.9,0.7
	c0.3,0.3,0.5,0.6,0.6,1c0.2,0.4,0.2,0.7,0.2,1.1c0,1-0.4,1.8-1.1,2.4s-1.8,0.9-3.3,0.9H625V804.8L625,804.8z M628.3,809.2
	c0.7,0,1.2-0.1,1.6-0.4c0.3-0.2,0.5-0.6,0.5-1c0-0.2-0.1-0.5-0.2-0.7c-0.1-0.2-0.3-0.4-0.6-0.5c-0.3-0.1-0.6-0.2-1-0.2H627v2.7
	H628.3z M628.6,814.3c0.7,0,1.2-0.1,1.5-0.4c0.4-0.2,0.5-0.7,0.5-1.3c0-0.6-0.2-1-0.6-1.3c-0.4-0.3-1-0.5-1.8-0.5H627v3.5
	L628.6,814.3L628.6,814.3z M639,816v-9.5h-3v-1.7h8.3v1.8H641v9.5H639z M651.9,814.7c0.8,0,1.4-0.5,2-1.6l1.5,1
	c-0.4,0.7-0.9,1.3-1.6,1.6c-0.6,0.4-1.3,0.6-2.1,0.6c-0.8,0-1.6-0.2-2.3-0.7c-0.7-0.4-1.2-1.1-1.6-2c-0.4-0.9-0.6-2-0.6-3.2
	c0-1.4,0.2-2.5,0.7-3.4c0.4-0.9,1-1.5,1.7-1.9c0.7-0.4,1.4-0.6,2.2-0.6c0.9,0,1.6,0.2,2.2,0.7c0.6,0.5,1.1,1.1,1.4,1.9l-1.5,0.7l0,0
	v0c-0.2-0.6-0.5-1-0.9-1.3c-0.4-0.2-0.8-0.4-1.2-0.4c-0.9,0-1.5,0.4-1.9,1.1c-0.4,0.8-0.6,1.8-0.6,3.1c0,0.8,0.1,1.6,0.3,2.2
	c0.2,0.7,0.5,1.2,0.9,1.6C651,814.5,651.4,814.7,651.9,814.7L651.9,814.7z M653.9,807.7C653.9,807.6,653.9,807.6,653.9,807.7
	c0,0,0.1,0,0.1,0c0,0.1,0.1,0.1,0.1,0.1l-0.1,0L653.9,807.7z M654.1,807.9C654.1,807.9,654.1,807.9,654.1,807.9c0,0-0.1-0.1-0.1-0.1
	l0,0L654.1,807.9z"/>
<path class="st4" d="M4,312h171.4c2.2,0,4,1.8,4,4v51.3c0,2.2-1.8,4-4,4H4c-2.2,0-4-1.8-4-4V316C0,313.8,1.8,312,4,312z"/>
<path class="st1" d="M55.1,340.5c0.7,0,1.3,0.2,1.9,0.5c0.5,0.3,0.9,0.8,1.2,1.3c0.3,0.6,0.4,1.3,0.4,2.1c0,0.8-0.2,1.5-0.5,2.1
	c-0.3,0.6-0.7,1.1-1.3,1.4c-0.6,0.3-1.2,0.5-2,0.5c-1.7,0-2.9-0.7-3.6-2.1l1.5-1.1l0,0l0,0c0.2,0.3,0.3,0.6,0.5,0.8
	c0.2,0.2,0.4,0.4,0.6,0.5s0.6,0.2,0.9,0.2c0.3,0,0.7-0.1,0.9-0.2c0.3-0.2,0.5-0.4,0.6-0.7c0.2-0.3,0.2-0.7,0.2-1.2
	c0-0.7-0.2-1.2-0.5-1.6c-0.3-0.4-0.7-0.6-1.3-0.6c-0.4,0-0.7,0.1-1,0.3c-0.3,0.2-0.5,0.4-0.8,0.8l-1.3-0.6l0.4-5.9h6v1.7H54
	l-0.2,2.2C54.3,340.5,54.7,340.5,55.1,340.5L55.1,340.5z M52.8,345.1c0,0,0-0.1,0-0.1C52.7,344.9,52.8,345,52.8,345.1L52.8,345.1z
	 M53,345.1C53,345.2,53,345.2,53,345.1c0,0-0.1,0-0.1,0l-0.1-0.1l0.1-0.1L53,345.1z M65.9,348.2c-0.2,0-0.4-0.1-0.6-0.2
	c-0.2-0.1-0.3-0.3-0.4-0.4c-0.2-0.4-0.2-0.8,0-1.2c0.3-0.6,1.1-0.8,1.7-0.4c0.6,0.3,0.8,1.1,0.4,1.7c0,0,0,0,0,0
	C66.7,348,66.3,348.2,65.9,348.2z M76.6,348v-8.9l-1.9,0.6l-0.5-1.2l3-1.6h1.3V348H76.6z M96,336.8h3.4c1.3,0,2.3,0.3,2.9,0.8
	c0.7,0.5,1,1.2,1,2.1c0,0.4-0.1,0.9-0.4,1.3c-0.2,0.4-0.6,0.8-1,1c0.3,0.2,0.7,0.4,0.9,0.7c0.3,0.3,0.5,0.6,0.6,1
	c0.2,0.4,0.2,0.7,0.2,1.1c0,1-0.4,1.8-1.1,2.4s-1.8,0.9-3.3,0.9H96V336.8z M99.3,341.2c0.7,0,1.2-0.1,1.6-0.4s0.5-0.6,0.5-1
	c0-0.2-0.1-0.5-0.2-0.7c-0.1-0.2-0.3-0.4-0.6-0.5c-0.3-0.1-0.6-0.2-1-0.2h-1.4v2.7H99.3z M99.6,346.3c0.7,0,1.2-0.1,1.5-0.4
	c0.4-0.2,0.5-0.7,0.5-1.3c0-0.6-0.2-1-0.6-1.3s-1-0.5-1.8-0.5H98v3.5L99.6,346.3L99.6,346.3z M110,348v-9.5h-3v-1.7h8.3v1.8H112v9.5
	H110z M122.9,346.7c0.8,0,1.4-0.5,2-1.6l1.5,1c-0.4,0.7-0.9,1.3-1.6,1.6c-0.6,0.4-1.3,0.6-2.1,0.6c-0.8,0-1.6-0.2-2.3-0.7
	c-0.7-0.4-1.2-1.1-1.6-2c-0.4-0.9-0.6-2-0.6-3.2c0-1.4,0.2-2.5,0.7-3.4c0.4-0.9,1-1.5,1.7-1.9c0.7-0.4,1.4-0.6,2.2-0.6
	c0.8,0,1.6,0.2,2.2,0.7s1.1,1.1,1.4,1.9l-1.5,0.7l0,0v0c-0.2-0.6-0.5-1-0.9-1.3c-0.4-0.2-0.8-0.4-1.2-0.4c-0.9,0-1.5,0.4-1.9,1.1
	c-0.4,0.8-0.6,1.8-0.6,3.1c0,0.8,0.1,1.6,0.3,2.2c0.2,0.7,0.5,1.2,0.9,1.6C122,346.5,122.4,346.7,122.9,346.7L122.9,346.7z
	 M124.9,339.6C124.9,339.6,124.9,339.6,124.9,339.6c0,0,0.1,0,0.1,0c0,0,0.1,0.1,0.1,0.1l-0.1,0L124.9,339.6z M125.1,339.9
	C125.1,339.9,125.1,339.9,125.1,339.9c0,0-0.1-0.1-0.1-0.1l0,0L125.1,339.9z"/>
<g transform="translate(529 78)">
	<path class="st2" d="M4,0h171.4c2.2,0,4,1.8,4,4v51.3c0,2.2-1.8,4-4,4H4c-2.2,0-4-1.8-4-4V4C0,1.8,1.8,0,4,0z"/>
	<path class="st1" d="M65.3,36v-8.9l-1.9,0.6l-0.5-1.2l3-1.6h1.3V36H65.3z M84.8,24.8h3.4c1.3,0,2.3,0.3,2.9,0.8
		c0.7,0.5,1,1.2,1,2.1c0,0.5-0.1,0.9-0.4,1.3c-0.2,0.4-0.6,0.8-1,1c0.3,0.2,0.7,0.4,0.9,0.7c0.3,0.3,0.5,0.6,0.6,1
		c0.2,0.4,0.2,0.7,0.2,1.1c0,1-0.4,1.8-1.1,2.4S89.6,36,88.2,36h-3.4V24.8z M88,29.2c0.7,0,1.2-0.1,1.6-0.4s0.5-0.6,0.5-1
		c0-0.2-0.1-0.5-0.2-0.7c-0.1-0.2-0.3-0.4-0.6-0.5c-0.3-0.1-0.6-0.2-1-0.2h-1.4v2.7H88z M88.4,34.3c0.7,0,1.2-0.1,1.5-0.4
		c0.4-0.2,0.5-0.7,0.5-1.3c0-0.6-0.2-1-0.6-1.3s-1-0.5-1.8-0.5h-1.3v3.5L88.4,34.3L88.4,34.3z M98.7,36v-9.5h-3v-1.7h8.3v1.8h-3.2
		V36H98.7z M111.6,34.7c0.8,0,1.4-0.5,2-1.6l1.5,1c-0.4,0.7-0.9,1.3-1.6,1.6c-0.6,0.4-1.3,0.6-2.1,0.6c-0.8,0-1.6-0.2-2.3-0.7
		c-0.7-0.4-1.2-1.1-1.6-2c-0.4-0.9-0.6-2-0.6-3.2c0-1.4,0.2-2.5,0.7-3.4c0.4-0.9,1-1.5,1.7-1.9c0.7-0.4,1.4-0.6,2.2-0.6
		c0.8,0,1.6,0.2,2.2,0.7s1.1,1.1,1.4,1.9l-1.5,0.7l0,0v0c-0.2-0.6-0.5-1-0.9-1.3c-0.4-0.2-0.8-0.4-1.2-0.4c-0.9,0-1.5,0.4-1.9,1.1
		c-0.4,0.8-0.6,1.8-0.6,3.1c0,0.8,0.1,1.6,0.3,2.2c0.2,0.7,0.5,1.2,0.9,1.6C110.7,34.5,111.2,34.7,111.6,34.7L111.6,34.7z
		 M113.6,27.6C113.6,27.6,113.7,27.6,113.6,27.6c0,0,0.1,0,0.1,0c0,0,0.1,0.1,0.1,0.1l-0.1,0L113.6,27.6z M113.9,27.9
		C113.9,27.9,113.9,27.9,113.9,27.9c0,0-0.1-0.1-0.1-0.1l0,0L113.9,27.9z"/>
</g>
<g transform="translate(529)">
	<path class="st2" d="M4,0h171.4c2.2,0,4,1.8,4,4v51.3c0,2.2-1.8,4-4,4H4c-2.2,0-4-1.8-4-4V4C0,1.8,1.8,0,4,0z"/>
	<path class="st1" d="M65.3,36v-8.9l-1.9,0.6l-0.5-1.2l3-1.6h1.3V36H65.3z M84.8,24.8h3.4c1.3,0,2.3,0.3,2.9,0.8
		c0.7,0.5,1,1.2,1,2.1c0,0.5-0.1,0.9-0.4,1.3c-0.2,0.4-0.6,0.8-1,1c0.3,0.2,0.7,0.4,0.9,0.7c0.3,0.3,0.5,0.6,0.6,1
		c0.2,0.4,0.2,0.7,0.2,1.1c0,1-0.4,1.8-1.1,2.4S89.6,36,88.2,36h-3.4V24.8z M88,29.2c0.7,0,1.2-0.1,1.6-0.4s0.5-0.6,0.5-1
		c0-0.2-0.1-0.5-0.2-0.7c-0.1-0.2-0.3-0.4-0.6-0.5c-0.3-0.1-0.6-0.2-1-0.2h-1.4v2.7H88z M88.4,34.3c0.7,0,1.2-0.1,1.5-0.4
		c0.4-0.2,0.5-0.7,0.5-1.3c0-0.6-0.2-1-0.6-1.3s-1-0.5-1.8-0.5h-1.3v3.5L88.4,34.3L88.4,34.3z M98.7,36v-9.5h-3v-1.7h8.3v1.8h-3.2
		V36H98.7z M111.6,34.7c0.8,0,1.4-0.5,2-1.6l1.5,1c-0.4,0.7-0.9,1.3-1.6,1.6c-0.6,0.4-1.3,0.6-2.1,0.6c-0.8,0-1.6-0.2-2.3-0.7
		c-0.7-0.4-1.2-1.1-1.6-2c-0.4-0.9-0.6-2-0.6-3.2c0-1.4,0.2-2.5,0.7-3.4c0.4-0.9,1-1.5,1.7-1.9c0.7-0.4,1.4-0.6,2.2-0.6
		c0.8,0,1.6,0.2,2.2,0.7s1.1,1.1,1.4,1.9l-1.5,0.7l0,0v0c-0.2-0.6-0.5-1-0.9-1.3c-0.4-0.2-0.8-0.4-1.2-0.4c-0.9,0-1.5,0.4-1.9,1.1
		c-0.4,0.8-0.6,1.8-0.6,3.1c0,0.8,0.1,1.6,0.3,2.2c0.2,0.7,0.5,1.2,0.9,1.6C110.7,34.5,111.2,34.7,111.6,34.7L111.6,34.7z
		 M113.6,27.6C113.6,27.6,113.7,27.6,113.6,27.6c0,0,0.1,0,0.1,0c0,0,0.1,0.1,0.1,0.1l-0.1,0L113.6,27.6z M113.9,27.9
		C113.9,27.9,113.9,27.9,113.9,27.9c0,0-0.1-0.1-0.1-0.1l0,0L113.9,27.9z"/>
</g>
<path class="st2" d="M533,156h171.4c2.2,0,4,1.8,4,4v51.3c0,2.2-1.8,4-4,4H533c-2.2,0-4-1.8-4-4V160C529,157.8,530.8,156,533,156z"
	/>
<path class="st1" d="M594.3,192v-8.9l-1.9,0.6l-0.5-1.2l3-1.6h1.3V192H594.3z M613.8,180.8h3.4c1.3,0,2.3,0.3,2.9,0.8
	c0.6,0.5,1,1.2,1,2.1c0,0.4-0.1,0.9-0.4,1.3c-0.2,0.4-0.6,0.8-1,1c0.3,0.2,0.7,0.4,0.9,0.7c0.3,0.3,0.5,0.6,0.6,1
	c0.2,0.4,0.2,0.7,0.2,1.1c0,1-0.4,1.8-1.1,2.4s-1.8,0.9-3.3,0.9h-3.4V180.8z M617,185.2c0.7,0,1.2-0.1,1.6-0.4s0.5-0.6,0.5-1
	c0-0.2-0.1-0.5-0.2-0.7c-0.1-0.2-0.3-0.4-0.6-0.5c-0.3-0.1-0.6-0.2-1-0.2h-1.4v2.7H617z M617.4,190.3c0.7,0,1.2-0.1,1.5-0.4
	c0.4-0.2,0.5-0.7,0.5-1.3c0-0.6-0.2-1-0.6-1.3c-0.4-0.3-1-0.5-1.8-0.5h-1.3v3.5L617.4,190.3L617.4,190.3z M627.7,192v-9.5h-3v-1.7
	h8.3v1.8h-3.2v9.5H627.7z M640.6,190.7c0.8,0,1.4-0.5,2-1.6l1.5,1c-0.4,0.7-0.9,1.3-1.6,1.6c-0.6,0.4-1.3,0.6-2.1,0.6
	c-0.8,0-1.6-0.2-2.3-0.6c-0.7-0.4-1.2-1.1-1.6-2c-0.4-0.9-0.6-2-0.6-3.2c0-1.4,0.2-2.5,0.7-3.4c0.4-0.9,1-1.5,1.7-1.9
	c0.7-0.4,1.4-0.6,2.2-0.6c0.9,0,1.6,0.2,2.2,0.7c0.6,0.5,1.1,1.1,1.4,1.9l-1.5,0.7l0,0v0c-0.2-0.6-0.5-1-0.9-1.3
	c-0.4-0.2-0.8-0.4-1.2-0.4c-0.9,0-1.5,0.4-1.9,1.1c-0.4,0.8-0.6,1.8-0.6,3.1c0,0.8,0.1,1.6,0.3,2.2c0.2,0.7,0.5,1.2,0.9,1.6
	C639.7,190.5,640.2,190.7,640.6,190.7L640.6,190.7z M642.6,183.6C642.6,183.6,642.7,183.6,642.6,183.6c0,0,0.1,0,0.1,0
	c0,0,0.1,0.1,0.1,0.1l-0.1,0L642.6,183.6z M642.9,183.9C642.9,183.9,642.9,183.9,642.9,183.9c0,0-0.1-0.1-0.1-0.1l0,0L642.9,183.9z"
	/>
<path class="st2" d="M533,234h171.4c2.2,0,4,1.8,4,4v51.3c0,2.2-1.8,4-4,4H533c-2.2,0-4-1.8-4-4V238C529,235.8,530.8,234,533,234z"
	/>
<path class="st1" d="M594.3,270v-8.9l-1.9,0.6l-0.5-1.2l3-1.6h1.3V270H594.3z M613.8,258.8h3.4c1.3,0,2.3,0.3,2.9,0.8
	c0.6,0.5,1,1.2,1,2.1c0,0.4-0.1,0.9-0.4,1.3c-0.2,0.4-0.6,0.8-1,1c0.3,0.2,0.7,0.4,0.9,0.7c0.3,0.3,0.5,0.6,0.6,1
	c0.2,0.4,0.2,0.7,0.2,1.1c0,1-0.4,1.8-1.1,2.4s-1.8,0.9-3.3,0.9h-3.4V258.8z M617,263.2c0.7,0,1.2-0.1,1.6-0.4s0.5-0.6,0.5-1
	c0-0.2-0.1-0.5-0.2-0.7c-0.1-0.2-0.3-0.4-0.6-0.5c-0.3-0.1-0.6-0.2-1-0.2h-1.4v2.7H617z M617.4,268.3c0.7,0,1.2-0.1,1.5-0.4
	c0.4-0.2,0.5-0.7,0.5-1.3c0-0.6-0.2-1-0.6-1.3c-0.4-0.3-1-0.5-1.8-0.5h-1.3v3.5L617.4,268.3L617.4,268.3z M627.7,270v-9.5h-3v-1.7
	h8.3v1.8h-3.2v9.5H627.7z M640.6,268.7c0.8,0,1.4-0.5,2-1.6l1.5,1c-0.4,0.7-0.9,1.3-1.6,1.6c-0.6,0.4-1.3,0.6-2.1,0.6
	c-0.8,0-1.6-0.2-2.3-0.7c-0.7-0.4-1.2-1.1-1.6-2c-0.4-0.9-0.6-2-0.6-3.2c0-1.4,0.2-2.5,0.7-3.4c0.4-0.9,1-1.5,1.7-1.9
	c0.7-0.4,1.4-0.6,2.2-0.6c0.9,0,1.6,0.2,2.2,0.7c0.6,0.5,1.1,1.1,1.4,1.9l-1.5,0.7l0,0v0c-0.2-0.6-0.5-1-0.9-1.3
	c-0.4-0.2-0.8-0.4-1.2-0.4c-0.9,0-1.5,0.4-1.9,1.1c-0.4,0.8-0.6,1.8-0.6,3.1c0,0.8,0.1,1.6,0.3,2.2c0.2,0.7,0.5,1.2,0.9,1.6
	C639.7,268.5,640.2,268.7,640.6,268.7L640.6,268.7z M642.6,261.6C642.6,261.6,642.7,261.6,642.6,261.6c0,0,0.1,0,0.1,0
	c0,0,0.1,0.1,0.1,0.1l-0.1,0L642.6,261.6z M642.9,261.9C642.9,261.9,642.9,261.9,642.9,261.9c0,0-0.1-0.1-0.1-0.1l0,0L642.9,261.9z"
	/>
<path class="st2" d="M533,312h171.4c2.2,0,4,1.8,4,4v51.3c0,2.2-1.8,4-4,4H533c-2.2,0-4-1.8-4-4V316C529,313.8,530.8,312,533,312z"
	/>
<path class="st1" d="M594.3,348v-8.9l-1.9,0.6l-0.5-1.2l3-1.6h1.3V348H594.3z M613.8,336.8h3.4c1.3,0,2.3,0.3,2.9,0.8
	c0.6,0.5,1,1.2,1,2.1c0,0.4-0.1,0.9-0.4,1.3c-0.2,0.4-0.6,0.8-1,1c0.3,0.2,0.7,0.4,0.9,0.7c0.3,0.3,0.5,0.6,0.6,1
	c0.2,0.4,0.2,0.7,0.2,1.1c0,1-0.4,1.8-1.1,2.4s-1.8,0.9-3.3,0.9h-3.4V336.8z M617,341.2c0.7,0,1.2-0.1,1.6-0.4s0.5-0.6,0.5-1
	c0-0.2-0.1-0.5-0.2-0.7c-0.1-0.2-0.3-0.4-0.6-0.5c-0.3-0.1-0.6-0.2-1-0.2h-1.4v2.7H617z M617.4,346.3c0.7,0,1.2-0.1,1.5-0.4
	c0.4-0.2,0.5-0.7,0.5-1.3c0-0.6-0.2-1-0.6-1.3c-0.4-0.3-1-0.5-1.8-0.5h-1.3v3.5L617.4,346.3L617.4,346.3z M627.7,348v-9.5h-3v-1.7
	h8.3v1.8h-3.2v9.5H627.7z M640.6,346.7c0.8,0,1.4-0.5,2-1.6l1.5,1c-0.4,0.7-0.9,1.3-1.6,1.6c-0.6,0.4-1.3,0.6-2.1,0.6
	c-0.8,0-1.6-0.2-2.3-0.7c-0.7-0.4-1.2-1.1-1.6-2c-0.4-0.9-0.6-2-0.6-3.2c0-1.4,0.2-2.5,0.7-3.4c0.4-0.9,1-1.5,1.7-1.9
	c0.7-0.4,1.4-0.6,2.2-0.6c0.9,0,1.6,0.2,2.2,0.7c0.6,0.5,1.1,1.1,1.4,1.9l-1.5,0.7l0,0v0c-0.2-0.6-0.5-1-0.9-1.3
	c-0.4-0.2-0.8-0.4-1.2-0.4c-0.9,0-1.5,0.4-1.9,1.1c-0.4,0.8-0.6,1.8-0.6,3.1c0,0.8,0.1,1.6,0.3,2.2c0.2,0.7,0.5,1.2,0.9,1.6
	C639.7,346.5,640.2,346.7,640.6,346.7L640.6,346.7z M642.6,339.6C642.6,339.6,642.7,339.6,642.6,339.6c0,0,0.1,0,0.1,0
	c0,0,0.1,0.1,0.1,0.1l-0.1,0L642.6,339.6z M642.9,339.9C642.9,339.9,642.9,339.9,642.9,339.9c0,0-0.1-0.1-0.1-0.1l0,0L642.9,339.9z"
	/>
<path class="st5" d="M529,30l-174.5-0.4V810l174.5-0.4 M180,342l349-0.4 M180,419.6l349,0.4 M180,498l349-0.4 M354.5,108H529
	 M354.5,185.6L529,186 M355,264.3l174.5,0.4 M355,576.3l174.5,0.4 M355,654.3l174.5,0.4 M355,732.3l174.5,0.4"/>
</svg>
