<svg height="840" width="709" xmlns="http://www.w3.org/2000/svg"><g fill="none" fill-rule="evenodd"><g transform="translate(0 390)"><rect fill="#b6ecf3" height="59.298" rx="4" width="179.382"/><path d="m55.211 36v-2.769h-4.28v-1.265l4.86-7.18h1.45v6.767h1.495v1.696h-1.494v2.751h-2.03zm-2.197-4.395h2.268v-3.348zm12.876 4.632c-.223 0-.43-.054-.62-.162a1.176 1.176 0 0 1 -.448-.449 1.231 1.231 0 0 1 0-1.221 1.231 1.231 0 0 1 1.67-.44 1.215 1.215 0 0 1 .44 1.661 1.196 1.196 0 0 1 -1.042.611zm13.025-6.214c.522.182.961.512 1.319.99.357.477.536 1.09.536 1.84 0 .65-.15 1.241-.453 1.772-.301.53-.737.949-1.305 1.256-.568.308-1.242.462-2.021.462-1.536 0-2.704-.504-3.507-1.512l.835-1.679.009-.008.008.017c.264.51.608.876 1.033 1.099.425.222.971.334 1.64.334.55 0 .98-.166 1.287-.497.307-.33.461-.772.461-1.323 0-.603-.168-1.053-.505-1.349s-.907-.444-1.71-.444a9.37 9.37 0 0 0 -.94.053v-1.626c.088.006.214.009.378.009.926 0 1.569-.15 1.93-.448.36-.3.54-.715.54-1.248 0-.434-.128-.785-.383-1.055s-.613-.404-1.076-.404c-.405 0-.778.07-1.121.21-.343.141-.702.384-1.077.73l-1.133-1.16c.427-.51.925-.89 1.494-1.138a4.483 4.483 0 0 1 1.82-.374c.685 0 1.293.13 1.823.391s.943.619 1.24 1.073c.295.454.443.962.443 1.525 0 .603-.154 1.123-.462 1.56-.307.436-.675.751-1.103.944zm-4.587 3.12a.274.274 0 0 1 -.036-.114c0-.011.006-.017.018-.017s.035.009.07.026l-.052.106zm.254-.017c0 .006-.002.009-.008.009-.018 0-.049-.013-.093-.04a1.645 1.645 0 0 0 -.1-.057l.008-.026.185.088zm21.455-8.34h3.4c1.313 0 2.295.258 2.945.777s.976 1.226.976 2.123c0 .45-.123.89-.37 1.318a2.545 2.545 0 0 1 -.992.984c.345.164.654.391.927.681.272.29.486.613.641.967.156.355.233.71.233 1.068 0 1.025-.364 1.831-1.094 2.417s-1.824.879-3.283.879h-3.383v-11.215zm3.243 4.376c.72 0 1.242-.123 1.564-.369s.484-.58.484-1.002c0-.24-.07-.461-.207-.664-.138-.202-.347-.363-.628-.483-.282-.12-.627-.18-1.038-.18h-1.405v2.698zm.334 5.124c.674 0 1.188-.124 1.542-.373.355-.25.532-.67.532-1.262 0-.562-.189-1.012-.567-1.349s-.974-.505-1.789-.505h-1.282v3.49h1.565zm10.353 1.714v-9.466h-3.04v-1.749h8.26v1.75h-3.163v9.465zm12.929-1.292c.762 0 1.438-.524 2.03-1.573l1.53.993c-.422.72-.944 1.267-1.565 1.64-.621.371-1.33.557-2.127.557-.844 0-1.6-.217-2.267-.65-.668-.434-1.196-1.091-1.583-1.973-.386-.882-.58-1.965-.58-3.248 0-1.389.225-2.528.673-3.419.448-.89 1.02-1.536 1.714-1.938a4.348 4.348 0 0 1 2.21-.602c.85 0 1.585.226 2.206.677s1.102 1.078 1.442 1.88l-1.46.713-.017.008v-.008c-.223-.616-.519-1.043-.888-1.284-.369-.24-.779-.36-1.23-.36-.867 0-1.51.375-1.93 1.125-.418.75-.628 1.79-.628 3.12 0 .815.104 1.551.312 2.21.208.66.501 1.18.88 1.56.377.382.803.572 1.278.572zm1.995-7.058c0-.017.009-.026.026-.026.018 0 .044.025.08.075.035.05.058.08.07.092l-.088.044zm.255.246c0 .012-.009.006-.026-.017a.579.579 0 0 1 -.053-.088l.035-.018z" fill="#000" fill-rule="nonzero" opacity=".75"/></g><g transform="translate(529 390)"><rect fill="#a8eca4" height="59.298" rx="4" width="179.382"/><path d="m62.594 34.523c1.447-1.388 2.486-2.414 3.116-3.076s1.11-1.279 1.441-1.85.497-1.156.497-1.753c0-.475-.15-.851-.448-1.13-.3-.278-.7-.417-1.204-.417-.305 0-.595.035-.87.105a3.15 3.15 0 0 0 -.695.255c-.187.1-.305.194-.351.281-.235.422-.352.654-.352.695 0 .006.003.009.009.009a.397.397 0 0 0 .052-.036.208.208 0 0 1 .066-.035c.02-.006.034.006.04.035l-.097.176-.14-.079-1.336-1.01c.433-.698.965-1.233 1.595-1.605a4.078 4.078 0 0 1 2.114-.558c.668 0 1.268.14 1.801.418.534.278.951.666 1.253 1.164s.453 1.07.453 1.714a3.96 3.96 0 0 1 -.453 1.837 8.293 8.293 0 0 1 -1.187 1.705c-.489.55-1.208 1.3-2.157 2.25l-.721.712h3.665c.193 0 .335-.01.426-.03a.523.523 0 0 0 .242-.128h.202v1.828h-6.96v-1.477zm22.193-9.738h3.4c1.313 0 2.295.26 2.945.778.65.519.976 1.226.976 2.123 0 .45-.123.89-.37 1.318a2.545 2.545 0 0 1 -.992.984c.345.164.654.391.927.681.272.29.486.613.641.967.156.355.233.71.233 1.068 0 1.025-.364 1.831-1.094 2.417s-1.824.879-3.283.879h-3.383zm3.243 4.377c.72 0 1.242-.123 1.564-.369s.484-.58.484-1.002c0-.24-.07-.461-.207-.664-.138-.202-.347-.363-.628-.483-.282-.12-.627-.18-1.038-.18h-1.405v2.698zm.334 5.124c.674 0 1.188-.124 1.542-.373.355-.25.532-.67.532-1.262 0-.562-.189-1.012-.567-1.349s-.974-.505-1.789-.505h-1.282v3.49h1.565zm10.353 1.714v-9.466h-3.04v-1.749h8.26v1.75h-3.163v9.465zm12.929-1.292c.762 0 1.438-.524 2.03-1.573l1.53.993c-.422.72-.944 1.267-1.565 1.64-.621.371-1.33.557-2.127.557-.844 0-1.6-.217-2.267-.65-.668-.434-1.196-1.091-1.583-1.973-.386-.882-.58-1.965-.58-3.248 0-1.389.225-2.528.673-3.419.448-.89 1.02-1.536 1.714-1.938a4.348 4.348 0 0 1 2.21-.602c.85 0 1.585.226 2.206.677s1.102 1.078 1.442 1.88l-1.46.713-.017.008v-.008c-.223-.616-.519-1.043-.888-1.284-.369-.24-.779-.36-1.23-.36-.867 0-1.51.375-1.93 1.125-.418.75-.628 1.79-.628 3.12 0 .815.104 1.551.312 2.21.208.66.501 1.18.88 1.56.377.382.803.572 1.278.572zm1.995-7.058c0-.017.009-.026.026-.026.018 0 .044.025.08.075.035.05.058.08.07.092l-.088.044zm.255.246c0 .012-.009.006-.026-.017a.579.579 0 0 1 -.053-.088l.035-.018z" fill="#000" fill-rule="nonzero" opacity=".75"/></g><g transform="translate(529 468)"><rect fill="#a8eca4" height="59.298" rx="4" width="179.382"/><path d="m62.594 34.523c1.447-1.388 2.486-2.414 3.116-3.076s1.11-1.279 1.441-1.85.497-1.156.497-1.753c0-.475-.15-.851-.448-1.13-.3-.278-.7-.417-1.204-.417-.305 0-.595.035-.87.105a3.15 3.15 0 0 0 -.695.255c-.187.1-.305.194-.351.281-.235.422-.352.654-.352.695 0 .006.003.009.009.009a.397.397 0 0 0 .052-.036.208.208 0 0 1 .066-.035c.02-.006.034.006.04.035l-.097.176-.14-.079-1.336-1.01c.433-.698.965-1.233 1.595-1.605a4.078 4.078 0 0 1 2.114-.558c.668 0 1.268.14 1.801.418.534.278.951.666 1.253 1.164s.453 1.07.453 1.714a3.96 3.96 0 0 1 -.453 1.837 8.293 8.293 0 0 1 -1.187 1.705c-.489.55-1.208 1.3-2.157 2.25l-.721.712h3.665c.193 0 .335-.01.426-.03a.523.523 0 0 0 .242-.128h.202v1.828h-6.96v-1.477zm22.193-9.738h3.4c1.313 0 2.295.26 2.945.778.65.519.976 1.226.976 2.123 0 .45-.123.89-.37 1.318a2.545 2.545 0 0 1 -.992.984c.345.164.654.391.927.681.272.29.486.613.641.967.156.355.233.71.233 1.068 0 1.025-.364 1.831-1.094 2.417s-1.824.879-3.283.879h-3.383zm3.243 4.377c.72 0 1.242-.123 1.564-.369s.484-.58.484-1.002c0-.24-.07-.461-.207-.664-.138-.202-.347-.363-.628-.483-.282-.12-.627-.18-1.038-.18h-1.405v2.698zm.334 5.124c.674 0 1.188-.124 1.542-.373.355-.25.532-.67.532-1.262 0-.562-.189-1.012-.567-1.349s-.974-.505-1.789-.505h-1.282v3.49h1.565zm10.353 1.714v-9.466h-3.04v-1.749h8.26v1.75h-3.163v9.465zm12.929-1.292c.762 0 1.438-.524 2.03-1.573l1.53.993c-.422.72-.944 1.267-1.565 1.64-.621.371-1.33.557-2.127.557-.844 0-1.6-.217-2.267-.65-.668-.434-1.196-1.091-1.583-1.973-.386-.882-.58-1.965-.58-3.248 0-1.389.225-2.528.673-3.419.448-.89 1.02-1.536 1.714-1.938a4.348 4.348 0 0 1 2.21-.602c.85 0 1.585.226 2.206.677s1.102 1.078 1.442 1.88l-1.46.713-.017.008v-.008c-.223-.616-.519-1.043-.888-1.284-.369-.24-.779-.36-1.23-.36-.867 0-1.51.375-1.93 1.125-.418.75-.628 1.79-.628 3.12 0 .815.104 1.551.312 2.21.208.66.501 1.18.88 1.56.377.382.803.572 1.278.572zm1.995-7.058c0-.017.009-.026.026-.026.018 0 .044.025.08.075.035.05.058.08.07.092l-.088.044zm.255.246c0 .012-.009.006-.026-.017a.579.579 0 0 1 -.053-.088l.035-.018z" fill="#000" fill-rule="nonzero" opacity=".75"/></g><g transform="translate(529 546)"><rect fill="#a8eca4" height="59.298" rx="4" width="179.382"/><path d="m62.594 34.523c1.447-1.388 2.486-2.414 3.116-3.076s1.11-1.279 1.441-1.85.497-1.156.497-1.753c0-.475-.15-.851-.448-1.13-.3-.278-.7-.417-1.204-.417-.305 0-.595.035-.87.105a3.15 3.15 0 0 0 -.695.255c-.187.1-.305.194-.351.281-.235.422-.352.654-.352.695 0 .006.003.009.009.009a.397.397 0 0 0 .052-.036.208.208 0 0 1 .066-.035c.02-.006.034.006.04.035l-.097.176-.14-.079-1.336-1.01c.433-.698.965-1.233 1.595-1.605a4.078 4.078 0 0 1 2.114-.558c.668 0 1.268.14 1.801.418.534.278.951.666 1.253 1.164s.453 1.07.453 1.714a3.96 3.96 0 0 1 -.453 1.837 8.293 8.293 0 0 1 -1.187 1.705c-.489.55-1.208 1.3-2.157 2.25l-.721.712h3.665c.193 0 .335-.01.426-.03a.523.523 0 0 0 .242-.128h.202v1.828h-6.96v-1.477zm22.193-9.738h3.4c1.313 0 2.295.26 2.945.778.65.519.976 1.226.976 2.123 0 .45-.123.89-.37 1.318a2.545 2.545 0 0 1 -.992.984c.345.164.654.391.927.681.272.29.486.613.641.967.156.355.233.71.233 1.068 0 1.025-.364 1.831-1.094 2.417s-1.824.879-3.283.879h-3.383zm3.243 4.377c.72 0 1.242-.123 1.564-.369s.484-.58.484-1.002c0-.24-.07-.461-.207-.664-.138-.202-.347-.363-.628-.483-.282-.12-.627-.18-1.038-.18h-1.405v2.698zm.334 5.124c.674 0 1.188-.124 1.542-.373.355-.25.532-.67.532-1.262 0-.562-.189-1.012-.567-1.349s-.974-.505-1.789-.505h-1.282v3.49h1.565zm10.353 1.714v-9.466h-3.04v-1.749h8.26v1.75h-3.163v9.465zm12.929-1.292c.762 0 1.438-.524 2.03-1.573l1.53.993c-.422.72-.944 1.267-1.565 1.64-.621.371-1.33.557-2.127.557-.844 0-1.6-.217-2.267-.65-.668-.434-1.196-1.091-1.583-1.973-.386-.882-.58-1.965-.58-3.248 0-1.389.225-2.528.673-3.419.448-.89 1.02-1.536 1.714-1.938a4.348 4.348 0 0 1 2.21-.602c.85 0 1.585.226 2.206.677s1.102 1.078 1.442 1.88l-1.46.713-.017.008v-.008c-.223-.616-.519-1.043-.888-1.284-.369-.24-.779-.36-1.23-.36-.867 0-1.51.375-1.93 1.125-.418.75-.628 1.79-.628 3.12 0 .815.104 1.551.312 2.21.208.66.501 1.18.88 1.56.377.382.803.572 1.278.572zm1.995-7.058c0-.017.009-.026.026-.026.018 0 .044.025.08.075.035.05.058.08.07.092l-.088.044zm.255.246c0 .012-.009.006-.026-.017a.579.579 0 0 1 -.053-.088l.035-.018z" fill="#000" fill-rule="nonzero" opacity=".75"/></g><g transform="translate(0 468)"><rect fill="#f5b3cf" height="59.298" rx="4" width="179.382"/><path d="m51.344 34.523c1.447-1.388 2.486-2.414 3.116-3.076s1.11-1.279 1.441-1.85.497-1.156.497-1.753c0-.475-.15-.851-.448-1.13-.3-.278-.7-.417-1.204-.417-.305 0-.595.035-.87.105a3.15 3.15 0 0 0 -.695.255c-.187.1-.305.194-.351.281-.235.422-.352.654-.352.695 0 .006.003.009.009.009a.397.397 0 0 0 .052-.036.208.208 0 0 1 .066-.035c.02-.006.034.006.04.035l-.097.176-.14-.079-1.336-1.01c.433-.698.965-1.233 1.595-1.605a4.078 4.078 0 0 1 2.114-.558c.668 0 1.268.14 1.801.418.534.278.951.666 1.253 1.164s.453 1.07.453 1.714a3.96 3.96 0 0 1 -.453 1.837 8.293 8.293 0 0 1 -1.187 1.705c-.489.55-1.208 1.3-2.157 2.25l-.721.712h3.665c.193 0 .335-.01.426-.03a.523.523 0 0 0 .242-.128h.202v1.828h-6.96v-1.477zm14.546 1.714c-.223 0-.43-.054-.62-.162a1.176 1.176 0 0 1 -.448-.449 1.231 1.231 0 0 1 0-1.221 1.231 1.231 0 0 1 1.67-.44 1.215 1.215 0 0 1 .44 1.661 1.196 1.196 0 0 1 -1.042.611zm7.954-1.714c1.447-1.388 2.486-2.414 3.116-3.076s1.11-1.279 1.441-1.85.497-1.156.497-1.753c0-.475-.15-.851-.448-1.13-.3-.278-.7-.417-1.204-.417-.305 0-.595.035-.87.105a3.15 3.15 0 0 0 -.695.255c-.187.1-.305.194-.351.281-.235.422-.352.654-.352.695 0 .006.003.009.009.009a.397.397 0 0 0 .052-.036.208.208 0 0 1 .066-.035c.02-.006.034.006.04.035l-.097.176-.14-.079-1.336-1.01c.433-.698.965-1.233 1.595-1.605a4.078 4.078 0 0 1 2.114-.558c.668 0 1.268.14 1.801.418.534.278.951.666 1.253 1.164s.453 1.07.453 1.714a3.96 3.96 0 0 1 -.453 1.837 8.293 8.293 0 0 1 -1.187 1.705c-.489.55-1.208 1.3-2.157 2.25l-.721.712h3.665c.193 0 .335-.01.426-.03a.523.523 0 0 0 .242-.128h.202v1.828h-6.96v-1.477zm22.193-9.738h3.4c1.313 0 2.295.26 2.945.778.65.519.976 1.226.976 2.123 0 .45-.123.89-.37 1.318a2.545 2.545 0 0 1 -.992.984c.345.164.654.391.927.681.272.29.486.613.641.967.156.355.233.71.233 1.068 0 1.025-.364 1.831-1.094 2.417s-1.824.879-3.283.879h-3.383zm3.243 4.377c.72 0 1.242-.123 1.564-.369s.484-.58.484-1.002c0-.24-.07-.461-.207-.664-.138-.202-.347-.363-.628-.483-.282-.12-.627-.18-1.038-.18h-1.405v2.698zm.334 5.124c.674 0 1.188-.124 1.542-.373.355-.25.532-.67.532-1.262 0-.562-.189-1.012-.567-1.349s-.974-.505-1.789-.505h-1.282v3.49h1.565zm10.353 1.714v-9.466h-3.04v-1.749h8.26v1.75h-3.163v9.465zm12.929-1.292c.762 0 1.438-.524 2.03-1.573l1.53.993c-.422.72-.944 1.267-1.565 1.64-.621.371-1.33.557-2.127.557-.844 0-1.6-.217-2.267-.65-.668-.434-1.196-1.091-1.583-1.973-.386-.882-.58-1.965-.58-3.248 0-1.389.225-2.528.673-3.419.448-.89 1.02-1.536 1.714-1.938a4.348 4.348 0 0 1 2.21-.602c.85 0 1.585.226 2.206.677s1.102 1.078 1.442 1.88l-1.46.713-.017.008v-.008c-.223-.616-.519-1.043-.888-1.284-.369-.24-.779-.36-1.23-.36-.867 0-1.51.375-1.93 1.125-.418.75-.628 1.79-.628 3.12 0 .815.104 1.551.312 2.21.208.66.501 1.18.88 1.56.377.382.803.572 1.278.572zm1.995-7.058c0-.017.009-.026.026-.026.018 0 .044.025.08.075.035.05.058.08.07.092l-.088.044zm.255.246c0 .012-.009.006-.026-.017a.579.579 0 0 1 -.053-.088l.035-.018z" fill="#000" fill-rule="nonzero" opacity=".75"/></g><g transform="translate(529 624)"><rect fill="#ccc5ff" height="59.298" rx="4" width="179.382"/><path d="m54.816 24.574c.814 0 1.512.232 2.092.695.58.462 1.024 1.135 1.331 2.017.308.881.462 1.938.462 3.168s-.154 2.287-.462 3.169c-.307.881-.751 1.555-1.331 2.021s-1.278.699-2.092.699c-.815 0-1.512-.233-2.092-.699s-1.024-1.14-1.331-2.021c-.308-.882-.462-1.938-.462-3.169 0-1.23.154-2.287.462-3.168.307-.882.751-1.555 1.331-2.017.58-.463 1.277-.695 2.092-.695zm0 1.617c-.41 0-.762.169-1.055.506s-.517.824-.672 1.463-.233 1.403-.233 2.294c0 .457.023.905.07 1.345l3.472-4.122c-.164-.48-.381-.848-.65-1.103a1.316 1.316 0 0 0 -.932-.383zm0 8.535c.41 0 .762-.17 1.055-.51s.517-.83.672-1.468c.155-.639.233-1.403.233-2.294 0-.527-.027-1.005-.08-1.433l-3.489 4.149c.165.504.383.89.655 1.156.273.266.59.4.954.4zm11.074 1.511c-.223 0-.43-.054-.62-.162a1.176 1.176 0 0 1 -.448-.449 1.231 1.231 0 0 1 0-1.221 1.231 1.231 0 0 1 1.67-.44 1.215 1.215 0 0 1 .44 1.661 1.196 1.196 0 0 1 -1.042.611zm10.688-.237v-8.93l-1.925.58-.484-1.23 3.041-1.635h1.345v11.215zm19.459-11.215h3.4c1.313 0 2.295.26 2.945.778.65.519.976 1.226.976 2.123 0 .45-.123.89-.37 1.318a2.545 2.545 0 0 1 -.992.984c.345.164.654.391.927.681.272.29.486.613.641.967.156.355.233.71.233 1.068 0 1.025-.364 1.831-1.094 2.417s-1.824.879-3.283.879h-3.383zm3.243 4.377c.72 0 1.242-.123 1.564-.369s.484-.58.484-1.002c0-.24-.07-.461-.207-.664-.138-.202-.347-.363-.628-.483-.282-.12-.627-.18-1.038-.18h-1.405v2.698zm.334 5.124c.674 0 1.188-.124 1.542-.373.355-.25.532-.67.532-1.262 0-.562-.189-1.012-.567-1.349s-.974-.505-1.789-.505h-1.282v3.49h1.565zm10.353 1.714v-9.466h-3.04v-1.749h8.26v1.75h-3.163v9.465zm12.929-1.292c.762 0 1.438-.524 2.03-1.573l1.53.993c-.422.72-.944 1.267-1.565 1.64-.621.371-1.33.557-2.127.557-.844 0-1.6-.217-2.267-.65-.668-.434-1.196-1.091-1.583-1.973-.386-.882-.58-1.965-.58-3.248 0-1.389.225-2.528.673-3.419.448-.89 1.02-1.536 1.714-1.938a4.348 4.348 0 0 1 2.21-.602c.85 0 1.585.226 2.206.677s1.102 1.078 1.442 1.88l-1.46.713-.017.008v-.008c-.223-.616-.519-1.043-.888-1.284-.369-.24-.779-.36-1.23-.36-.867 0-1.51.375-1.93 1.125-.418.75-.628 1.79-.628 3.12 0 .815.104 1.551.312 2.21.208.66.501 1.18.88 1.56.377.382.803.572 1.278.572zm1.995-7.058c0-.017.009-.026.026-.026.018 0 .044.025.08.075.035.05.058.08.07.092l-.088.044zm.255.246c0 .012-.009.006-.026-.017a.579.579 0 0 1 -.053-.088l.035-.018z" fill="#000" fill-rule="nonzero" opacity=".75"/></g><g transform="translate(529 702)"><rect fill="#f5b3cf" height="59.298" rx="4" width="179.382"/><path d="m54.816 24.574c.814 0 1.512.232 2.092.695.58.462 1.024 1.135 1.331 2.017.308.881.462 1.938.462 3.168s-.154 2.287-.462 3.169c-.307.881-.751 1.555-1.331 2.021s-1.278.699-2.092.699c-.815 0-1.512-.233-2.092-.699s-1.024-1.14-1.331-2.021c-.308-.882-.462-1.938-.462-3.169 0-1.23.154-2.287.462-3.168.307-.882.751-1.555 1.331-2.017.58-.463 1.277-.695 2.092-.695zm0 1.617c-.41 0-.762.169-1.055.506s-.517.824-.672 1.463-.233 1.403-.233 2.294c0 .457.023.905.07 1.345l3.472-4.122c-.164-.48-.381-.848-.65-1.103a1.316 1.316 0 0 0 -.932-.383zm0 8.535c.41 0 .762-.17 1.055-.51s.517-.83.672-1.468c.155-.639.233-1.403.233-2.294 0-.527-.027-1.005-.08-1.433l-3.489 4.149c.165.504.383.89.655 1.156.273.266.59.4.954.4zm11.074 1.511c-.223 0-.43-.054-.62-.162a1.176 1.176 0 0 1 -.448-.449 1.231 1.231 0 0 1 0-1.221 1.231 1.231 0 0 1 1.67-.44 1.215 1.215 0 0 1 .44 1.661 1.196 1.196 0 0 1 -1.042.611zm7.954-1.714c1.447-1.388 2.486-2.414 3.116-3.076s1.11-1.279 1.441-1.85.497-1.156.497-1.753c0-.475-.15-.851-.448-1.13-.3-.278-.7-.417-1.204-.417-.305 0-.595.035-.87.105a3.15 3.15 0 0 0 -.695.255c-.187.1-.305.194-.351.281-.235.422-.352.654-.352.695 0 .006.003.009.009.009a.397.397 0 0 0 .052-.036.208.208 0 0 1 .066-.035c.02-.006.034.006.04.035l-.097.176-.14-.079-1.336-1.01c.433-.698.965-1.233 1.595-1.605a4.078 4.078 0 0 1 2.114-.558c.668 0 1.268.14 1.801.418.534.278.951.666 1.253 1.164s.453 1.07.453 1.714a3.96 3.96 0 0 1 -.453 1.837 8.293 8.293 0 0 1 -1.187 1.705c-.489.55-1.208 1.3-2.157 2.25l-.721.712h3.665c.193 0 .335-.01.426-.03a.523.523 0 0 0 .242-.128h.202v1.828h-6.96v-1.477zm22.193-9.738h3.4c1.313 0 2.295.26 2.945.778.65.519.976 1.226.976 2.123 0 .45-.123.89-.37 1.318a2.545 2.545 0 0 1 -.992.984c.345.164.654.391.927.681.272.29.486.613.641.967.156.355.233.71.233 1.068 0 1.025-.364 1.831-1.094 2.417s-1.824.879-3.283.879h-3.383zm3.243 4.377c.72 0 1.242-.123 1.564-.369s.484-.58.484-1.002c0-.24-.07-.461-.207-.664-.138-.202-.347-.363-.628-.483-.282-.12-.627-.18-1.038-.18h-1.405v2.698zm.334 5.124c.674 0 1.188-.124 1.542-.373.355-.25.532-.67.532-1.262 0-.562-.189-1.012-.567-1.349s-.974-.505-1.789-.505h-1.282v3.49h1.565zm10.353 1.714v-9.466h-3.04v-1.749h8.26v1.75h-3.163v9.465zm12.929-1.292c.762 0 1.438-.524 2.03-1.573l1.53.993c-.422.72-.944 1.267-1.565 1.64-.621.371-1.33.557-2.127.557-.844 0-1.6-.217-2.267-.65-.668-.434-1.196-1.091-1.583-1.973-.386-.882-.58-1.965-.58-3.248 0-1.389.225-2.528.673-3.419.448-.89 1.02-1.536 1.714-1.938a4.348 4.348 0 0 1 2.21-.602c.85 0 1.585.226 2.206.677s1.102 1.078 1.442 1.88l-1.46.713-.017.008v-.008c-.223-.616-.519-1.043-.888-1.284-.369-.24-.779-.36-1.23-.36-.867 0-1.51.375-1.93 1.125-.418.75-.628 1.79-.628 3.12 0 .815.104 1.551.312 2.21.208.66.501 1.18.88 1.56.377.382.803.572 1.278.572zm1.995-7.058c0-.017.009-.026.026-.026.018 0 .044.025.08.075.035.05.058.08.07.092l-.088.044zm.255.246c0 .012-.009.006-.026-.017a.579.579 0 0 1 -.053-.088l.035-.018z" fill="#000" fill-rule="nonzero" opacity=".75"/></g><g transform="translate(529 780)"><rect fill="#b6ecf3" height="59.298" rx="4" width="179.382"/><path d="m54.816 24.574c.814 0 1.512.232 2.092.695.58.462 1.024 1.135 1.331 2.017.308.881.462 1.938.462 3.168s-.154 2.287-.462 3.169c-.307.881-.751 1.555-1.331 2.021s-1.278.699-2.092.699c-.815 0-1.512-.233-2.092-.699s-1.024-1.14-1.331-2.021c-.308-.882-.462-1.938-.462-3.169 0-1.23.154-2.287.462-3.168.307-.882.751-1.555 1.331-2.017.58-.463 1.277-.695 2.092-.695zm0 1.617c-.41 0-.762.169-1.055.506s-.517.824-.672 1.463-.233 1.403-.233 2.294c0 .457.023.905.07 1.345l3.472-4.122c-.164-.48-.381-.848-.65-1.103a1.316 1.316 0 0 0 -.932-.383zm0 8.535c.41 0 .762-.17 1.055-.51s.517-.83.672-1.468c.155-.639.233-1.403.233-2.294 0-.527-.027-1.005-.08-1.433l-3.489 4.149c.165.504.383.89.655 1.156.273.266.59.4.954.4zm11.074 1.511c-.223 0-.43-.054-.62-.162a1.176 1.176 0 0 1 -.448-.449 1.231 1.231 0 0 1 0-1.221 1.231 1.231 0 0 1 1.67-.44 1.215 1.215 0 0 1 .44 1.661 1.196 1.196 0 0 1 -1.042.611zm13.025-6.214c.522.182.961.512 1.319.99.357.477.536 1.09.536 1.84 0 .65-.15 1.241-.453 1.772-.301.53-.737.949-1.305 1.256-.568.308-1.242.462-2.021.462-1.536 0-2.704-.504-3.507-1.512l.835-1.679.009-.008.008.017c.264.51.608.876 1.033 1.099.425.222.971.334 1.64.334.55 0 .98-.166 1.287-.497.307-.33.461-.772.461-1.323 0-.603-.168-1.053-.505-1.349s-.907-.444-1.71-.444a9.37 9.37 0 0 0 -.94.053v-1.626c.088.006.214.009.378.009.926 0 1.569-.15 1.93-.448.36-.3.54-.715.54-1.248 0-.434-.128-.785-.383-1.055s-.613-.404-1.076-.404c-.405 0-.778.07-1.121.21-.343.141-.702.384-1.077.73l-1.133-1.16c.427-.51.925-.89 1.494-1.138a4.483 4.483 0 0 1 1.82-.374c.685 0 1.293.13 1.823.391s.943.619 1.24 1.073c.295.454.443.962.443 1.525 0 .603-.154 1.123-.462 1.56-.307.436-.675.751-1.103.944zm-4.587 3.12a.274.274 0 0 1 -.036-.114c0-.011.006-.017.018-.017s.035.009.07.026l-.052.106zm.254-.017c0 .006-.002.009-.008.009-.018 0-.049-.013-.093-.04a1.645 1.645 0 0 0 -.1-.057l.008-.026.185.088zm21.455-8.34h3.4c1.313 0 2.295.258 2.945.777s.976 1.226.976 2.123c0 .45-.123.89-.37 1.318a2.545 2.545 0 0 1 -.992.984c.345.164.654.391.927.681.272.29.486.613.641.967.156.355.233.71.233 1.068 0 1.025-.364 1.831-1.094 2.417s-1.824.879-3.283.879h-3.383v-11.215zm3.243 4.376c.72 0 1.242-.123 1.564-.369s.484-.58.484-1.002c0-.24-.07-.461-.207-.664-.138-.202-.347-.363-.628-.483-.282-.12-.627-.18-1.038-.18h-1.405v2.698zm.334 5.124c.674 0 1.188-.124 1.542-.373.355-.25.532-.67.532-1.262 0-.562-.189-1.012-.567-1.349s-.974-.505-1.789-.505h-1.282v3.49h1.565zm10.353 1.714v-9.466h-3.04v-1.749h8.26v1.75h-3.163v9.465zm12.929-1.292c.762 0 1.438-.524 2.03-1.573l1.53.993c-.422.72-.944 1.267-1.565 1.64-.621.371-1.33.557-2.127.557-.844 0-1.6-.217-2.267-.65-.668-.434-1.196-1.091-1.583-1.973-.386-.882-.58-1.965-.58-3.248 0-1.389.225-2.528.673-3.419.448-.89 1.02-1.536 1.714-1.938a4.348 4.348 0 0 1 2.21-.602c.85 0 1.585.226 2.206.677s1.102 1.078 1.442 1.88l-1.46.713-.017.008v-.008c-.223-.616-.519-1.043-.888-1.284-.369-.24-.779-.36-1.23-.36-.867 0-1.51.375-1.93 1.125-.418.75-.628 1.79-.628 3.12 0 .815.104 1.551.312 2.21.208.66.501 1.18.88 1.56.377.382.803.572 1.278.572zm1.995-7.058c0-.017.009-.026.026-.026.018 0 .044.025.08.075.035.05.058.08.07.092l-.088.044zm.255.246c0 .012-.009.006-.026-.017a.579.579 0 0 1 -.053-.088l.035-.018z" fill="#000" fill-rule="nonzero" opacity=".75"/></g><g transform="translate(0 312)"><rect fill="#ccc5ff" height="59.298" rx="4" width="179.382"/><path d="m55.106 28.477c.709 0 1.327.155 1.854.465.528.31.935.76 1.222 1.345.287.586.43 1.283.43 2.092 0 .78-.152 1.468-.456 2.065a3.367 3.367 0 0 1 -1.301 1.398c-.563.334-1.219.5-1.969.5-1.652 0-2.856-.708-3.612-2.126l1.494-1.143.018-.009.008.018c.159.305.32.561.484.77.164.207.372.377.624.509s.556.198.914.198c.346 0 .653-.084.923-.25.27-.168.483-.415.641-.744.159-.328.238-.73.238-1.204 0-.697-.159-1.24-.475-1.63s-.735-.585-1.257-.585c-.357 0-.674.087-.95.26-.274.173-.547.447-.816.822l-1.292-.554.413-5.889h6.029v1.715h-4.263l-.15 2.17c.44-.128.856-.192 1.249-.192zm-2.32 4.587a.298.298 0 0 1 -.044-.105c0-.018.026.006.079.07zm.237.08c0 .023-.009.035-.026.035-.018 0-.049-.022-.093-.066l-.083-.084.079-.052zm12.867 3.093c-.223 0-.43-.054-.62-.162a1.176 1.176 0 0 1 -.448-.449 1.231 1.231 0 0 1 0-1.221 1.231 1.231 0 0 1 1.67-.44 1.215 1.215 0 0 1 .44 1.661 1.196 1.196 0 0 1 -1.042.611zm10.688-.237v-8.93l-1.925.58-.484-1.23 3.041-1.635h1.345v11.215zm19.459-11.215h3.4c1.313 0 2.295.26 2.945.778.65.519.976 1.226.976 2.123 0 .45-.123.89-.37 1.318a2.545 2.545 0 0 1 -.992.984c.345.164.654.391.927.681.272.29.486.613.641.967.156.355.233.71.233 1.068 0 1.025-.364 1.831-1.094 2.417s-1.824.879-3.283.879h-3.383zm3.243 4.377c.72 0 1.242-.123 1.564-.369s.484-.58.484-1.002c0-.24-.07-.461-.207-.664-.138-.202-.347-.363-.628-.483-.282-.12-.627-.18-1.038-.18h-1.405v2.698zm.334 5.124c.674 0 1.188-.124 1.542-.373.355-.25.532-.67.532-1.262 0-.562-.189-1.012-.567-1.349s-.974-.505-1.789-.505h-1.282v3.49h1.565zm10.353 1.714v-9.466h-3.04v-1.749h8.26v1.75h-3.163v9.465zm12.929-1.292c.762 0 1.438-.524 2.03-1.573l1.53.993c-.422.72-.944 1.267-1.565 1.64-.621.371-1.33.557-2.127.557-.844 0-1.6-.217-2.267-.65-.668-.434-1.196-1.091-1.583-1.973-.386-.882-.58-1.965-.58-3.248 0-1.389.225-2.528.673-3.419.448-.89 1.02-1.536 1.714-1.938a4.348 4.348 0 0 1 2.21-.602c.85 0 1.585.226 2.206.677s1.102 1.078 1.442 1.88l-1.46.713-.017.008v-.008c-.223-.616-.519-1.043-.888-1.284-.369-.24-.779-.36-1.23-.36-.867 0-1.51.375-1.93 1.125-.418.75-.628 1.79-.628 3.12 0 .815.104 1.551.312 2.21.208.66.501 1.18.88 1.56.377.382.803.572 1.278.572zm1.995-7.058c0-.017.009-.026.026-.026.018 0 .044.025.08.075.035.05.058.08.07.092l-.088.044zm.255.246c0 .012-.009.006-.026-.017a.579.579 0 0 1 -.053-.088l.035-.018z" fill="#000" fill-rule="nonzero" opacity=".75"/></g><g transform="translate(529 78)"><rect fill="#a8eca4" height="59.298" rx="4" width="179.382"/><path d="m65.328 36v-8.93l-1.925.58-.484-1.23 3.041-1.635h1.345v11.215zm19.459-11.215h3.4c1.313 0 2.295.26 2.945.778.65.519.976 1.226.976 2.123 0 .45-.123.89-.37 1.318a2.545 2.545 0 0 1 -.992.984c.345.164.654.391.927.681.272.29.486.613.641.967.156.355.233.71.233 1.068 0 1.025-.364 1.831-1.094 2.417s-1.824.879-3.283.879h-3.383zm3.243 4.377c.72 0 1.242-.123 1.564-.369s.484-.58.484-1.002c0-.24-.07-.461-.207-.664-.138-.202-.347-.363-.628-.483-.282-.12-.627-.18-1.038-.18h-1.405v2.698zm.334 5.124c.674 0 1.188-.124 1.542-.373.355-.25.532-.67.532-1.262 0-.562-.189-1.012-.567-1.349s-.974-.505-1.789-.505h-1.282v3.49h1.565zm10.353 1.714v-9.466h-3.04v-1.749h8.26v1.75h-3.163v9.465zm12.929-1.292c.762 0 1.438-.524 2.03-1.573l1.53.993c-.422.72-.944 1.267-1.565 1.64-.621.371-1.33.557-2.127.557-.844 0-1.6-.217-2.267-.65-.668-.434-1.196-1.091-1.583-1.973-.386-.882-.58-1.965-.58-3.248 0-1.389.225-2.528.673-3.419.448-.89 1.02-1.536 1.714-1.938a4.348 4.348 0 0 1 2.21-.602c.85 0 1.585.226 2.206.677s1.102 1.078 1.442 1.88l-1.46.713-.017.008v-.008c-.223-.616-.519-1.043-.888-1.284-.369-.24-.779-.36-1.23-.36-.867 0-1.51.375-1.93 1.125-.418.75-.628 1.79-.628 3.12 0 .815.104 1.551.312 2.21.208.66.501 1.18.88 1.56.377.382.803.572 1.278.572zm1.995-7.058c0-.017.009-.026.026-.026.018 0 .044.025.08.075.035.05.058.08.07.092l-.088.044zm.255.246c0 .012-.009.006-.026-.017a.579.579 0 0 1 -.053-.088l.035-.018z" fill="#000" fill-rule="nonzero" opacity=".75"/></g><g transform="translate(529)"><rect fill="#a8eca4" height="59.298" rx="4" width="179.382"/><path d="m65.328 36v-8.93l-1.925.58-.484-1.23 3.041-1.635h1.345v11.215zm19.459-11.215h3.4c1.313 0 2.295.26 2.945.778.65.519.976 1.226.976 2.123 0 .45-.123.89-.37 1.318a2.545 2.545 0 0 1 -.992.984c.345.164.654.391.927.681.272.29.486.613.641.967.156.355.233.71.233 1.068 0 1.025-.364 1.831-1.094 2.417s-1.824.879-3.283.879h-3.383zm3.243 4.377c.72 0 1.242-.123 1.564-.369s.484-.58.484-1.002c0-.24-.07-.461-.207-.664-.138-.202-.347-.363-.628-.483-.282-.12-.627-.18-1.038-.18h-1.405v2.698zm.334 5.124c.674 0 1.188-.124 1.542-.373.355-.25.532-.67.532-1.262 0-.562-.189-1.012-.567-1.349s-.974-.505-1.789-.505h-1.282v3.49h1.565zm10.353 1.714v-9.466h-3.04v-1.749h8.26v1.75h-3.163v9.465zm12.929-1.292c.762 0 1.438-.524 2.03-1.573l1.53.993c-.422.72-.944 1.267-1.565 1.64-.621.371-1.33.557-2.127.557-.844 0-1.6-.217-2.267-.65-.668-.434-1.196-1.091-1.583-1.973-.386-.882-.58-1.965-.58-3.248 0-1.389.225-2.528.673-3.419.448-.89 1.02-1.536 1.714-1.938a4.348 4.348 0 0 1 2.21-.602c.85 0 1.585.226 2.206.677s1.102 1.078 1.442 1.88l-1.46.713-.017.008v-.008c-.223-.616-.519-1.043-.888-1.284-.369-.24-.779-.36-1.23-.36-.867 0-1.51.375-1.93 1.125-.418.75-.628 1.79-.628 3.12 0 .815.104 1.551.312 2.21.208.66.501 1.18.88 1.56.377.382.803.572 1.278.572zm1.995-7.058c0-.017.009-.026.026-.026.018 0 .044.025.08.075.035.05.058.08.07.092l-.088.044zm.255.246c0 .012-.009.006-.026-.017a.579.579 0 0 1 -.053-.088l.035-.018z" fill="#000" fill-rule="nonzero" opacity=".75"/></g><g transform="translate(529 156)"><rect fill="#a8eca4" height="59.298" rx="4" width="179.382"/><path d="m65.328 36v-8.93l-1.925.58-.484-1.23 3.041-1.635h1.345v11.215zm19.459-11.215h3.4c1.313 0 2.295.26 2.945.778.65.519.976 1.226.976 2.123 0 .45-.123.89-.37 1.318a2.545 2.545 0 0 1 -.992.984c.345.164.654.391.927.681.272.29.486.613.641.967.156.355.233.71.233 1.068 0 1.025-.364 1.831-1.094 2.417s-1.824.879-3.283.879h-3.383zm3.243 4.377c.72 0 1.242-.123 1.564-.369s.484-.58.484-1.002c0-.24-.07-.461-.207-.664-.138-.202-.347-.363-.628-.483-.282-.12-.627-.18-1.038-.18h-1.405v2.698zm.334 5.124c.674 0 1.188-.124 1.542-.373.355-.25.532-.67.532-1.262 0-.562-.189-1.012-.567-1.349s-.974-.505-1.789-.505h-1.282v3.49h1.565zm10.353 1.714v-9.466h-3.04v-1.749h8.26v1.75h-3.163v9.465zm12.929-1.292c.762 0 1.438-.524 2.03-1.573l1.53.993c-.422.72-.944 1.267-1.565 1.64-.621.371-1.33.557-2.127.557-.844 0-1.6-.217-2.267-.65-.668-.434-1.196-1.091-1.583-1.973-.386-.882-.58-1.965-.58-3.248 0-1.389.225-2.528.673-3.419.448-.89 1.02-1.536 1.714-1.938a4.348 4.348 0 0 1 2.21-.602c.85 0 1.585.226 2.206.677s1.102 1.078 1.442 1.88l-1.46.713-.017.008v-.008c-.223-.616-.519-1.043-.888-1.284-.369-.24-.779-.36-1.23-.36-.867 0-1.51.375-1.93 1.125-.418.75-.628 1.79-.628 3.12 0 .815.104 1.551.312 2.21.208.66.501 1.18.88 1.56.377.382.803.572 1.278.572zm1.995-7.058c0-.017.009-.026.026-.026.018 0 .044.025.08.075.035.05.058.08.07.092l-.088.044zm.255.246c0 .012-.009.006-.026-.017a.579.579 0 0 1 -.053-.088l.035-.018z" fill="#000" fill-rule="nonzero" opacity=".75"/></g><g transform="translate(529 234)"><rect fill="#a8eca4" height="59.298" rx="4" width="179.382"/><path d="m65.328 36v-8.93l-1.925.58-.484-1.23 3.041-1.635h1.345v11.215zm19.459-11.215h3.4c1.313 0 2.295.26 2.945.778.65.519.976 1.226.976 2.123 0 .45-.123.89-.37 1.318a2.545 2.545 0 0 1 -.992.984c.345.164.654.391.927.681.272.29.486.613.641.967.156.355.233.71.233 1.068 0 1.025-.364 1.831-1.094 2.417s-1.824.879-3.283.879h-3.383zm3.243 4.377c.72 0 1.242-.123 1.564-.369s.484-.58.484-1.002c0-.24-.07-.461-.207-.664-.138-.202-.347-.363-.628-.483-.282-.12-.627-.18-1.038-.18h-1.405v2.698zm.334 5.124c.674 0 1.188-.124 1.542-.373.355-.25.532-.67.532-1.262 0-.562-.189-1.012-.567-1.349s-.974-.505-1.789-.505h-1.282v3.49h1.565zm10.353 1.714v-9.466h-3.04v-1.749h8.26v1.75h-3.163v9.465zm12.929-1.292c.762 0 1.438-.524 2.03-1.573l1.53.993c-.422.72-.944 1.267-1.565 1.64-.621.371-1.33.557-2.127.557-.844 0-1.6-.217-2.267-.65-.668-.434-1.196-1.091-1.583-1.973-.386-.882-.58-1.965-.58-3.248 0-1.389.225-2.528.673-3.419.448-.89 1.02-1.536 1.714-1.938a4.348 4.348 0 0 1 2.21-.602c.85 0 1.585.226 2.206.677s1.102 1.078 1.442 1.88l-1.46.713-.017.008v-.008c-.223-.616-.519-1.043-.888-1.284-.369-.24-.779-.36-1.23-.36-.867 0-1.51.375-1.93 1.125-.418.75-.628 1.79-.628 3.12 0 .815.104 1.551.312 2.21.208.66.501 1.18.88 1.56.377.382.803.572 1.278.572zm1.995-7.058c0-.017.009-.026.026-.026.018 0 .044.025.08.075.035.05.058.08.07.092l-.088.044zm.255.246c0 .012-.009.006-.026-.017a.579.579 0 0 1 -.053-.088l.035-.018z" fill="#000" fill-rule="nonzero" opacity=".75"/></g><g transform="translate(529 312)"><rect fill="#a8eca4" height="59.298" rx="4" width="179.382"/><path d="m65.328 36v-8.93l-1.925.58-.484-1.23 3.041-1.635h1.345v11.215zm19.459-11.215h3.4c1.313 0 2.295.26 2.945.778.65.519.976 1.226.976 2.123 0 .45-.123.89-.37 1.318a2.545 2.545 0 0 1 -.992.984c.345.164.654.391.927.681.272.29.486.613.641.967.156.355.233.71.233 1.068 0 1.025-.364 1.831-1.094 2.417s-1.824.879-3.283.879h-3.383zm3.243 4.377c.72 0 1.242-.123 1.564-.369s.484-.58.484-1.002c0-.24-.07-.461-.207-.664-.138-.202-.347-.363-.628-.483-.282-.12-.627-.18-1.038-.18h-1.405v2.698zm.334 5.124c.674 0 1.188-.124 1.542-.373.355-.25.532-.67.532-1.262 0-.562-.189-1.012-.567-1.349s-.974-.505-1.789-.505h-1.282v3.49h1.565zm10.353 1.714v-9.466h-3.04v-1.749h8.26v1.75h-3.163v9.465zm12.929-1.292c.762 0 1.438-.524 2.03-1.573l1.53.993c-.422.72-.944 1.267-1.565 1.64-.621.371-1.33.557-2.127.557-.844 0-1.6-.217-2.267-.65-.668-.434-1.196-1.091-1.583-1.973-.386-.882-.58-1.965-.58-3.248 0-1.389.225-2.528.673-3.419.448-.89 1.02-1.536 1.714-1.938a4.348 4.348 0 0 1 2.21-.602c.85 0 1.585.226 2.206.677s1.102 1.078 1.442 1.88l-1.46.713-.017.008v-.008c-.223-.616-.519-1.043-.888-1.284-.369-.24-.779-.36-1.23-.36-.867 0-1.51.375-1.93 1.125-.418.75-.628 1.79-.628 3.12 0 .815.104 1.551.312 2.21.208.66.501 1.18.88 1.56.377.382.803.572 1.278.572zm1.995-7.058c0-.017.009-.026.026-.026.018 0 .044.025.08.075.035.05.058.08.07.092l-.088.044zm.255.246c0 .012-.009.006-.026-.017a.579.579 0 0 1 -.053-.088l.035-.018z" fill="#000" fill-rule="nonzero" opacity=".75"/></g><path d="m529 30-174.5-.351v780.351l174.5-.351m-349-467.649 349-.351m-349 78 349 .351m-349 78 349-.351m-174.5-389.649h174.5m-174.5 77.649 174.5.351m-174 78.324 174.5.352m-174.5 311.648 174.5.352m-174.5 77.648 174.5.352m-174.5 77.648 174.5.352" stroke="#979797" stroke-dasharray="4"/></g></svg>