<svg xmlns="http://www.w3.org/2000/svg" xmlns:xlink="http://www.w3.org/1999/xlink" width="159.843" height="122.61" viewBox="0 0 159.843 122.61"><defs><linearGradient id="a" x1="0.675" y1="0.164" x2="0.331" y2="0.785" gradientUnits="objectBoundingBox"><stop offset="0" stop-color="#004178"/><stop offset="0.382" stop-color="#00325d"/><stop offset="0.73" stop-color="#00294c"/><stop offset="0.993" stop-color="#002647"/></linearGradient></defs><g transform="translate(0 0)"><path d="M962.335,463.4A155.132,155.132,0,0,1,939.227,405.4l-27.408,16.683a184.661,184.661,0,0,0,17.229,45.061H900.592c-.864-1.22-1.725-2.457-2.574-3.738A155.132,155.132,0,0,1,874.909,405.4L847.5,422.079A182.721,182.721,0,0,0,874.361,482.9a167.6,167.6,0,0,0,45.624,45.1l22.59-21.588a136.935,136.935,0,0,1-20.387-15.065h22.674A166.618,166.618,0,0,0,984.3,528.006l22.59-21.588a136.893,136.893,0,0,1-20.388-15.065h20.388V467.14H964.909C964.046,465.92,963.185,464.683,962.335,463.4Z" transform="translate(-847.5 -405.396)" fill="url(#a)"/><rect width="30.963" height="30.963" transform="translate(128.881 0.092)" fill="#77c600"/></g></svg>