<svg xmlns="http://www.w3.org/2000/svg" xmlns:xlink="http://www.w3.org/1999/xlink" width="195.799" height="55.115" viewBox="0 0 195.799 55.115"><defs><linearGradient id="a" x1="0.589" y1="0.261" x2="0.355" y2="0.793" gradientUnits="objectBoundingBox"><stop offset="0" stop-color="#fff"/><stop offset="0.254" stop-color="#e0e0e0"/><stop offset="0.544" stop-color="#c5c5c5"/><stop offset="0.8" stop-color="#b4b4b4"/><stop offset="0.993" stop-color="#afafaf"/></linearGradient></defs><g transform="translate(-63.701 -46.675)"><path d="M169.329,71.976l4.6-16.414h2.175l-5.059,17.831h-3.389l-3.97-15.63-3.946,15.63h-3.414l-5.084-17.831h2.2l4.6,16.414L162.2,55.562h3.086Z" fill="#c9d0c8"/><path d="M179.521,73.393H177.27l6.652-17.831h3.035l6.651,17.831h-2.25l-1.341-3.642h-9.13Zm1.872-5.286h8.118l-4.046-10.673Z" fill="#c9d0c8"/><path d="M204.787,74.025c-4.375,0-7.512-2.681-7.537-6.4h2.1c0,2.631,2.251,4.528,5.463,4.528,2.934,0,4.73-1.543,4.73-3.693,0-2.377-2.529-2.732-5.286-3.086-3.313-.455-6.728-.986-6.728-4.957,0-3.161,2.707-5.488,6.728-5.488,4.072,0,7.031,2.529,7.056,6.045h-2.048c0-2.428-2.1-4.173-5.008-4.173-2.782,0-4.6,1.441-4.6,3.439,0,2.378,2.377,2.757,5.185,3.136,3.262.456,6.828.987,6.828,4.831C211.666,71.6,208.985,74.025,204.787,74.025Z" fill="#c9d0c8"/><path d="M217.61,73.393h-2.251l6.651-17.831h3.035L231.7,73.393h-2.251l-1.34-3.642h-9.131Zm1.871-5.286H227.6l-4.047-10.673Z" fill="#c9d0c8"/><path d="M236.1,73.393V55.562h7.536c3.212,0,5.564,1.973,5.564,4.654a3.826,3.826,0,0,1-2.857,3.718,4.408,4.408,0,0,1,3.363,4.35c0,2.959-2.579,5.109-6.12,5.109Zm2.1-15.959v5.589h5.184c2.176,0,3.718-1.138,3.718-2.782,0-1.618-1.542-2.807-3.718-2.807Zm5.109,7.461H238.2v6.626h5.109c2.5,0,4.3-1.416,4.3-3.338S245.809,64.895,243.306,64.895Z" fill="#c9d0c8"/><path d="M257.266,55.562V73.393h-2.1V55.562Z" fill="#c9d0c8"/><path d="M169.312,100.373l4.6-16.414h2.175l-5.058,17.831h-3.389l-3.971-15.63-3.946,15.63h-3.414l-5.083-17.831h2.2l4.6,16.414,4.148-16.414h3.085Z" fill="#c9d0c8"/><path d="M179.5,101.79h-2.251L183.9,83.959h3.035l6.652,17.831h-2.251L190,98.148h-9.13Zm1.872-5.286h8.119l-4.047-10.673Z" fill="#c9d0c8"/><path d="M197.992,101.79V83.959h2.1V99.918h9.131v1.872Z" fill="#c9d0c8"/><path d="M213.875,101.79V83.959h2.1V99.918h9.13v1.872Z" fill="#c9d0c8"/><path d="M231.806,99.918h10.37v1.872H229.758V83.959h12.165v1.872H231.806v5.842h9.1v1.771h-9.1Z" fill="#c9d0c8"/><path d="M251.432,85.831h-5.969V83.959H259.5v1.872h-5.969V101.79h-2.1Z" fill="#c9d0c8"/><path d="M111.506,71.758c-5.165-9.42-8.291-18.456-9.272-23.915-3.957,2.408-6.718,3.609-10.675,6.017a79.955,79.955,0,0,0,7.462,19.518H84.764c-.375-.529-.776-1.046-1.115-1.62a75.165,75.165,0,0,1-9.121-24.079c-3.957,2.409-6.87,3.773-10.827,6.181A79.144,79.144,0,0,0,75.335,80.206,72.6,72.6,0,0,0,95.1,99.74c3.261-3.117,5.817-5.528,9.078-8.644a91,91,0,0,1-9.913-7.981h10.872a77.674,77.674,0,0,0,18.12,16.429c3.261-3.117,5.435-5.339,8.7-8.456A49.7,49.7,0,0,1,121.8,83.115l10.935.025V73.378H112.621A17.052,17.052,0,0,1,111.506,71.758Z" fill="url(#a)"/><rect width="12.523" height="12.523" transform="translate(120.41 46.675)" fill="#77c600"/></g></svg>