<svg xmlns="http://www.w3.org/2000/svg" viewBox="0 0 125.49 128.11"><defs><style>.cls-1{fill:#77c600;}</style></defs><g id="Layer_2" data-name="Layer 2"><g id="Layer_1-2" data-name="Layer 1"><path class="cls-1" d="M66,58.91a18,18,0,1,1,18-18A18,18,0,0,1,66,58.91Zm0-32a14,14,0,1,0,14,14A14,14,0,0,0,66,26.91Z"/><path class="cls-1" d="M68.34,41.21H60.49l0-1.52v-7l1.53,0h6.35a4.28,4.28,0,1,1,0,8.55Zm-4.88-3h4.88a1.28,1.28,0,1,0,0-2.55H63.46Z"/><path class="cls-1" d="M68.62,48.16H60.49l0-1.54V38.25l1.53,0h6.63a4.84,4.84,0,0,1,4.84,4.84v.28A4.84,4.84,0,0,1,68.62,48.16Zm-5.16-3h5.16a1.84,1.84,0,0,0,1.84-1.83v-.28a1.85,1.85,0,0,0-1.84-1.84H63.46Z"/><rect class="cls-1" x="62.38" y="30.83" width="3" height="3.33"/><rect class="cls-1" x="67.12" y="30.83" width="3" height="3.33"/><rect class="cls-1" x="62.38" y="46.66" width="3" height="3.33"/><rect class="cls-1" x="67.12" y="46.66" width="3" height="3.33"/><path class="cls-1" d="M32.84,36a18,18,0,1,1,18-18A18,18,0,0,1,32.84,36Zm0-32a14,14,0,1,0,14,14A14,14,0,0,0,32.84,4Z"/><path class="cls-1" d="M35.23,18.31H27.37l0-1.53v-7l1.53,0h6.36a4.28,4.28,0,1,1,0,8.56Zm-4.89-3h4.89a1.28,1.28,0,1,0,0-2.56H30.34Z"/><path class="cls-1" d="M35.51,25.25H27.38l0-1.54V15.34l1.54,0h6.63a4.83,4.83,0,0,1,4.83,4.83v.28A4.83,4.83,0,0,1,35.51,25.25Zm-5.17-3h5.17a1.83,1.83,0,0,0,1.83-1.83v-.28a1.83,1.83,0,0,0-1.83-1.83H30.34Z"/><rect class="cls-1" x="29.27" y="7.92" width="3" height="3.33"/><rect class="cls-1" x="34.01" y="7.92" width="3" height="3.33"/><rect class="cls-1" x="29.27" y="23.75" width="3" height="3.33"/><rect class="cls-1" x="34.01" y="23.75" width="3" height="3.33"/><path class="cls-1" d="M119,75.35a6.46,6.46,0,1,1,6.45-6.46A6.46,6.46,0,0,1,119,75.35Zm0-8.92a2.46,2.46,0,1,0,2.45,2.46A2.46,2.46,0,0,0,119,66.43Z"/><path class="cls-1" d="M116.41,91.52h-11v-4h10.78a1.34,1.34,0,0,0,.22-.8V73.52h4v13.2C120.46,89.41,118.68,91.52,116.41,91.52Z"/><path class="cls-1" d="M98.91,74.94A24.72,24.72,0,0,0,96.41,72l2.81-2.83a27,27,0,0,1,2.92,3.4Z"/><path class="cls-1" d="M94.73,128.11H79.18a3.73,3.73,0,0,1-3.72-3.72v-6.28h-24v6.28a3.73,3.73,0,0,1-3.73,3.72H32.18a3.73,3.73,0,0,1-3.72-3.72V111.55a25,25,0,0,1-7.06-11.44H14.18a3.73,3.73,0,0,1-3.72-3.72V82.72A3.73,3.73,0,0,1,14.18,79h7.26a25,25,0,0,1,9-12.93l-4.47-7.6a2.29,2.29,0,0,1,1.47-3.4c2.65-.6,15.88-3,22.6,6H79.62a27.59,27.59,0,0,1,16.14,5.16l-2.32,3.25a23.72,23.72,0,0,0-13.82-4.41H47.86l-.59-.92c-4-6.35-12.34-6.2-16.64-5.63l5.15,8.75-1.64,1a21,21,0,0,0-9.2,13.08L24.6,83H14.46V96.11H24.58l.34,1.58a20.92,20.92,0,0,0,6.83,11.44l.71.6v14.38h15v-10h32v10h15V109l.69-.6a23.82,23.82,0,0,0,8.31-18.07V89a23.88,23.88,0,0,0-2.83-11.27l3.52-1.89A27.9,27.9,0,0,1,107.46,89v1.33a27.81,27.81,0,0,1-9,20.48v13.63A3.73,3.73,0,0,1,94.73,128.11Z"/><rect class="cls-1" x="56.46" y="69.11" width="19" height="4"/><rect class="cls-1" x="9.42" y="33.35" width="4" height="3.82"/><rect class="cls-1" x="9.42" y="40.7" width="4" height="29.93"/><path class="cls-1" d="M11.66,72.88a2,2,0,0,1-1.41-.59L0,62l2.83-2.82,8.83,8.83L20,59.7l2.83,2.83-9.76,9.76A2,2,0,0,1,11.66,72.88Z"/><rect class="cls-1" x="97.11" y="0.26" width="4" height="3.82"/><rect class="cls-1" x="97.11" y="7.61" width="4" height="29.93"/><path class="cls-1" d="M99.35,39.79h0a2,2,0,0,1-1.42-.59L87.69,29l2.83-2.82L99.35,35l8.35-8.35,2.83,2.83-9.77,9.76A2,2,0,0,1,99.35,39.79Z"/></g></g></svg>