<svg xmlns="http://www.w3.org/2000/svg" width="30" height="30" viewBox="0 0 30 30"><path d="M192.16,247.94v10.28a9.854,9.854,0,0,1-9.86,9.86h-.86a.693.693,0,0,1-.66-.65,2.8,2.8,0,0,1,0-.29c0-1.27.01-2.54.01-3.81a4.974,4.974,0,0,0-.19-1.48,2.86,2.86,0,0,0-.74-1.28.19.19,0,0,1-.04-.06c.11-.01.2-.03.3-.04a11.883,11.883,0,0,0,2.22-.49,6.43,6.43,0,0,0,2.14-1.19,5.479,5.479,0,0,0,1.64-2.51,7.94,7.94,0,0,0,.41-2.15,10.384,10.384,0,0,0,.03-1.25,5.62,5.62,0,0,0-1.4-3.59.392.392,0,0,1-.08-.1c-.01,0-.01-.01-.02-.03a5.494,5.494,0,0,0-.16-3.93,1.8,1.8,0,0,0-.8,0,6.386,6.386,0,0,0-1.89.68,11.87,11.87,0,0,0-1.29.77.27.27,0,0,1-.23.04,13.671,13.671,0,0,0-3.92-.47,13.887,13.887,0,0,0-3.28.47.243.243,0,0,1-.22-.04,11.465,11.465,0,0,0-2.04-1.11,5,5,0,0,0-1.44-.37c-.13-.01-.26,0-.39,0-.09,0-.13.05-.16.13a6.361,6.361,0,0,0-.3,1.03,5.378,5.378,0,0,0,.07,2.46l.06.18c.02.06.04.11.06.17a1,1,0,0,0-.1.11,5.685,5.685,0,0,0-1.39,3.23,9.753,9.753,0,0,0,.03,1.87,8.175,8.175,0,0,0,.34,1.76,5.628,5.628,0,0,0,3.5,3.72,10.328,10.328,0,0,0,2.12.55c.23.04.46.07.72.1-.11.12-.21.23-.3.35s-.16.24-.23.36a3.12,3.12,0,0,0-.18.42c-.05.13-.09.27-.13.41s-.06.29-.09.45a4.4,4.4,0,0,1-.95.31,3.217,3.217,0,0,1-1.63-.06,2.886,2.886,0,0,1-1.38-.97,5.478,5.478,0,0,1-.35-.49,4.025,4.025,0,0,0-.98-1.08,2.1,2.1,0,0,0-1.37-.46,1.825,1.825,0,0,0-.4.05c-.25.07-.3.23-.15.44a1.3,1.3,0,0,0,.45.39,3.028,3.028,0,0,1,.99.96,6.512,6.512,0,0,1,.75,1.37,2.67,2.67,0,0,0,1.74,1.57,4.872,4.872,0,0,0,1.65.22,8.8,8.8,0,0,0,1.44-.15.448.448,0,0,0,.11-.01c0,.05.01.1.01.14.01.85.01,1.7.02,2.55a1.149,1.149,0,0,1-.01.19.658.658,0,0,1-.55.58c-.05.01-.1.02-.16.03h-.63a9.854,9.854,0,0,1-9.86-9.86V247.94a9.854,9.854,0,0,1,9.86-9.86H182.3A9.854,9.854,0,0,1,192.16,247.94Z" transform="translate(-162.16 -238.08)" fill="#9da8ab"/></svg>