<svg xmlns="http://www.w3.org/2000/svg" width="30" height="30" viewBox="0 0 30 30"><path d="M291.085,238.08H280.8a9.86,9.86,0,0,0-9.86,9.861V258.22a9.859,9.859,0,0,0,9.86,9.86h10.28a9.86,9.86,0,0,0,9.86-9.86V247.941A9.861,9.861,0,0,0,291.085,238.08Zm-8.129,21.378c0,.4,0,.4-.41.4-.85,0-1.7,0-2.56.01-.14,0-.18-.05-.18-.19v-9.05c0-.15.04-.18.18-.18q1.395.015,2.79,0c.16,0,.19.06.19.19Q282.951,255.048,282.956,259.458Zm-1.07-10.31c-.16.03-.33.04-.5.07a1.713,1.713,0,0,1-1.5-.74,1.63,1.63,0,0,1,1.29-2.54,1.746,1.746,0,0,1,1.65.62A1.623,1.623,0,0,1,281.886,249.148Zm12.32,10.52c0,.14-.03.2-.18.2-.93-.01-1.85-.01-2.78,0-.16,0-.2-.06-.2-.21.01-1.67.01-3.35-.01-5.02a2.68,2.68,0,0,0-.19-1.02,1.346,1.346,0,0,0-1.58-.88,1.7,1.7,0,0,0-1.46,1.65v5.28c0,.14-.03.19-.19.19H284.8c-.13,0-.15-.05-.15-.16.01-1.57.03-3.14.03-4.72,0-1.44-.01-2.88-.03-4.33,0-.15.04-.2.2-.2.92.01,1.84.01,2.75,0,.16,0,.22.04.21.21-.01.3,0,.6,0,.9a.717.717,0,0,0,.01.13c.16-.19.29-.36.43-.52a2.9,2.9,0,0,1,1.86-.91,3.873,3.873,0,0,1,1.99.25,3.175,3.175,0,0,1,1.72,1.75,5.336,5.336,0,0,1,.39,2.08Z" transform="translate(-270.945 -238.08)" fill="#9da8ab"/></svg>