<svg xmlns="http://www.w3.org/2000/svg" width="30" height="30" viewBox="0 0 30 30"><path d="M218.5,238.08h-10.28a9.86,9.86,0,0,0-9.86,9.861V258.22a9.859,9.859,0,0,0,9.86,9.86H218.5a9.86,9.86,0,0,0,9.86-9.86V247.941A9.861,9.861,0,0,0,218.5,238.08Zm4.343,15.763c-.156.154-.344.275-.509.42a.205.205,0,0,0-.062.155,5.274,5.274,0,0,1-.246,2.718,6.323,6.323,0,0,1-1.91,2.615,9.255,9.255,0,0,1-2.711,1.567,12.035,12.035,0,0,1-4.927.744,12.523,12.523,0,0,1-2.671-.433,9.609,9.609,0,0,1-3.492-1.725,6.618,6.618,0,0,1-1.621-1.8,5.157,5.157,0,0,1-.7-3.643.18.18,0,0,0-.092-.211,2.467,2.467,0,0,1-1.166-1.672,2.284,2.284,0,0,1,2.141-2.705,2.913,2.913,0,0,1,1.741.544c.158.1.247.061.4-.025.519-.3,1.047-.6,1.59-.852a9.126,9.126,0,0,1,2.5-.732c.557-.086,1.122-.125,1.685-.157a.268.268,0,0,0,.287-.226c.3-.977.61-1.951.917-2.926.1-.329.207-.657.308-.985a.582.582,0,0,1,.714-.413c1.173.252,2.347.5,3.52.751a.186.186,0,0,0,.205-.08,1.757,1.757,0,0,1,3.091,1.478,1.769,1.769,0,0,1-1.686,1.329,1.809,1.809,0,0,1-1.73-1.172.436.436,0,0,1-.038-.106c-.012-.268-.193-.319-.416-.362-.57-.109-1.136-.243-1.705-.364-.33-.07-.662-.136-1.014-.208l-1.086,3.385c.208.019.388.035.569.053a10.371,10.371,0,0,1,3.454.942c.422.2.821.448,1.224.685a.193.193,0,0,0,.265-.017,2.371,2.371,0,0,1,3.879,1.823A2.148,2.148,0,0,1,222.84,253.843Z" transform="translate(-198.357 -238.08)" fill="#9da8ab"/><path d="M215.85,257.652a4.835,4.835,0,0,1-5.594.029.5.5,0,0,0-.613.008.431.431,0,0,0-.2.579.986.986,0,0,0,.5.505,5.6,5.6,0,0,0,3.13.866,5.909,5.909,0,0,0,1.809-.265,4.158,4.158,0,0,0,1.484-.759,1.074,1.074,0,0,0,.265-.356.378.378,0,0,0-.123-.515A.539.539,0,0,0,215.85,257.652Z" transform="translate(-198.357 -238.08)" fill="#9da8ab"/><path d="M211.249,254.264a1.449,1.449,0,0,0-1.415-1.444,1.417,1.417,0,0,0-1.419,1.393,1.433,1.433,0,0,0,1.444,1.442A1.477,1.477,0,0,0,211.249,254.264Z" transform="translate(-198.357 -238.08)" fill="#9da8ab"/><path d="M216.26,252.817a1.419,1.419,0,1,0,1.4,1.421A1.421,1.421,0,0,0,216.26,252.817Z" transform="translate(-198.357 -238.08)" fill="#9da8ab"/></svg>