<svg xmlns="http://www.w3.org/2000/svg" width="30" height="30" viewBox="0 0 30 30"><path d="M73.725,238.08H63.445a9.861,9.861,0,0,0-9.86,9.861V258.22a9.86,9.86,0,0,0,9.86,9.86h10.28a9.86,9.86,0,0,0,9.86-9.86V247.941A9.861,9.861,0,0,0,73.725,238.08Zm3.49,10.13c-.466.491-.934.983-1.425,1.448a.546.546,0,0,0-.209.433,12.822,12.822,0,0,1-.816,4.608,9.16,9.16,0,0,1-5.668,5.5,11.379,11.379,0,0,1-9.62-.742,3.535,3.535,0,0,1-.311-.2c-.011-.007-.008-.034-.019-.093a8.018,8.018,0,0,0,5.358-1.406,4.207,4.207,0,0,1-3.393-2.719H62.49a4.038,4.038,0,0,1-2.718-3.741l1.5.446.054-.074A3.813,3.813,0,0,1,59.9,249.4a3.293,3.293,0,0,1,.472-2.678,11.723,11.723,0,0,0,7.674,3.909,10.87,10.87,0,0,1,.007-1.2,3.84,3.84,0,0,1,3.269-3.3,3.759,3.759,0,0,1,3.15.984.391.391,0,0,0,.324.072c.623-.214,1.238-.449,1.855-.68.094-.035.184-.084.342-.157a4.875,4.875,0,0,1-1.277,2.007l1.671-.487A1.369,1.369,0,0,1,77.215,248.21Z" transform="translate(-53.585 -238.08)" fill="#9da8ab"/></svg>