<svg xmlns="http://www.w3.org/2000/svg" width="30" height="30" viewBox="0 0 30 30"><path d="M155.963,247.306v11.548a9.226,9.226,0,0,1-9.226,9.226h-3.844V257.62h3.61l.52-4.22h-4.04v-3a1.794,1.794,0,0,1,.44-1.14,1.675,1.675,0,0,1,1.1-.43h2.64v-3.84h-3.88a4.385,4.385,0,0,0-3.17,1.32,5.47,5.47,0,0,0-1.48,3.45v3.71h-3.61v4.2h3.61v10.41h-3.444a9.225,9.225,0,0,1-9.226-9.226V247.306a9.226,9.226,0,0,1,9.226-9.226h11.548A9.226,9.226,0,0,1,155.963,247.306Z" transform="translate(-125.963 -238.08)" fill="#9da8ab"/></svg>