<svg xmlns="http://www.w3.org/2000/svg" width="30.194" height="30.153" viewBox="0 0 30.194 30.153"><g transform="translate(7.403 5.96)"><path d="M248.549,250.651v3.381a12.336,12.336,0,0,0-1.362.126,2.578,2.578,0,0,0-1.967,2.9,2.368,2.368,0,0,0,2.462,2.094,2.449,2.449,0,0,0,2.607-2.588c.044-2.233.049-4.466.06-6.7.008-1.816,0-3.632,0-5.447v-.534h3.066c.194,2.75,1.708,4.231,4.339,4.691v3.054a7.9,7.9,0,0,1-4.349-1.552c0,.283,0,.449,0,.615-.028,2.056-.044,4.112-.089,6.168a5.282,5.282,0,0,1-2.962,4.981,5.62,5.62,0,0,1-6.016-.546,5.961,5.961,0,0,1,1.95-10.468A13.711,13.711,0,0,1,248.549,250.651Z" transform="translate(-241.957 -243.888)" fill="#9da8ab"/></g><path d="M264.748,253.318c-.061,2.173-.075,4.35-.195,6.52a8.332,8.332,0,0,1-2.646,5.963,8.055,8.055,0,0,1-4.758,2.057c-1.413.142-2.839.193-4.26.206-2.65.024-5.3.028-7.95-.032a20.118,20.118,0,0,1-3.858-.365,7.75,7.75,0,0,1-6.3-7.07,43.423,43.423,0,0,1-.216-4.433c-.026-2.627-.008-5.254.026-7.881a15.659,15.659,0,0,1,.476-4.332,7.626,7.626,0,0,1,6.488-5.7,33.713,33.713,0,0,1,4.876-.3c2.626-.039,5.253-.012,7.88.022a15.467,15.467,0,0,1,4.5.517,7.607,7.607,0,0,1,5.57,6.448,41.455,41.455,0,0,1,.305,4.98c.043,1.133.009,2.268.009,3.4ZM237.239,253h.053c0,1.215-.024,2.431.007,3.645s.066,2.43.19,3.637a5.124,5.124,0,0,0,4.506,4.785,29.96,29.96,0,0,0,3.942.255c2.453.038,4.906.03,7.359,0,1.2-.013,2.409-.057,3.6-.188a5.108,5.108,0,0,0,4.8-4.533,28.014,28.014,0,0,0,.253-3.941c.031-2.708.018-5.416-.019-8.123a21.145,21.145,0,0,0-.24-3.213,4.932,4.932,0,0,0-3.709-4.228,8.142,8.142,0,0,0-2.047-.326q-5.067-.092-10.135-.1a30.639,30.639,0,0,0-3.427.187,5.163,5.163,0,0,0-4.165,2.588,6.777,6.777,0,0,0-.814,3.2C237.323,248.77,237.288,250.887,237.239,253Z" transform="translate(-234.554 -237.928)" fill="#9da8ab"/></svg>