<svg xmlns="http://www.w3.org/2000/svg" width="29.984" height="29.943" viewBox="0 0 29.984 29.943"><path d="M119.766,253.421c-.061,2.158-.075,4.319-.194,6.474a8.274,8.274,0,0,1-2.627,5.922,8.012,8.012,0,0,1-4.725,2.043c-1.4.14-2.819.191-4.231.2-2.631.024-5.263.028-7.894-.032a19.92,19.92,0,0,1-3.831-.362,7.7,7.7,0,0,1-6.255-7.021,43.089,43.089,0,0,1-.215-4.4c-.025-2.609-.008-5.218.026-7.826a15.519,15.519,0,0,1,.473-4.3,7.569,7.569,0,0,1,6.442-5.664,33.4,33.4,0,0,1,4.842-.3c2.608-.039,5.217-.012,7.826.022a15.35,15.35,0,0,1,4.468.513,7.553,7.553,0,0,1,5.531,6.4,41.1,41.1,0,0,1,.3,4.946c.042,1.124.008,2.252.008,3.378Zm-27.317-.313H92.5c0,1.207-.024,2.414.007,3.619s.065,2.414.189,3.612a5.087,5.087,0,0,0,4.475,4.752,29.536,29.536,0,0,0,3.914.253c2.435.038,4.872.03,7.308,0,1.193-.013,2.392-.057,3.577-.187a5.072,5.072,0,0,0,4.763-4.5,27.934,27.934,0,0,0,.25-3.914c.031-2.688.019-5.378-.019-8.066a20.97,20.97,0,0,0-.238-3.19,4.9,4.9,0,0,0-3.683-4.2,8.078,8.078,0,0,0-2.033-.324q-5.031-.092-10.064-.094a30.45,30.45,0,0,0-3.4.185,5.126,5.126,0,0,0-4.136,2.57A6.735,6.735,0,0,0,92.6,246.8C92.532,248.9,92.5,251.006,92.449,253.108Z" transform="translate(-89.782 -238.138)" fill="#9da8ab"/><path d="M104.75,260.8a7.692,7.692,0,1,1,7.691-7.735A7.694,7.694,0,0,1,104.75,260.8Zm4.972-7.667a4.973,4.973,0,1,0-4.894,4.948A4.964,4.964,0,0,0,109.722,253.133Z" transform="translate(-89.782 -238.138)" fill="#9da8ab"/><path d="M112.726,246.921a1.8,1.8,0,0,1,0-3.6,1.8,1.8,0,1,1,0,3.6Z" transform="translate(-89.782 -238.138)" fill="#9da8ab"/></svg>