<svg xmlns="http://www.w3.org/2000/svg" viewBox="0 0 110.07 95.21"><defs><style>.cls-1{fill:#77c600;}</style></defs><g id="Layer_2" data-name="Layer 2"><g id="Layer_1-2" data-name="Layer 1"><path class="cls-1" d="M78.54,36a18,18,0,1,1,18-18A18,18,0,0,1,78.54,36Zm0-32a14,14,0,1,0,14,14A14,14,0,0,0,78.54,4Z"/><path class="cls-1" d="M80.93,18.31H73.07l0-1.53v-7l1.53,0h6.36a4.28,4.28,0,0,1,0,8.56Zm-4.89-3h4.89a1.28,1.28,0,1,0,0-2.56H76Z"/><path class="cls-1" d="M81.21,25.25H73.07l0-1.54V15.34l1.53,0h6.64A4.83,4.83,0,0,1,86,20.14v.28A4.84,4.84,0,0,1,81.21,25.25Zm-5.17-3h5.17A1.83,1.83,0,0,0,83,20.42v-.28a1.83,1.83,0,0,0-1.83-1.83H76Z"/><rect class="cls-1" x="74.96" y="7.92" width="3" height="3.33"/><rect class="cls-1" x="79.71" y="7.92" width="3" height="3.33"/><rect class="cls-1" x="74.96" y="23.75" width="3" height="3.33"/><rect class="cls-1" x="79.71" y="23.75" width="3" height="3.33"/><path class="cls-1" d="M28.83,95.21a2.05,2.05,0,0,1-1.47-.61L.61,67.86a2.09,2.09,0,0,1,0-3L11.09,54.42a2.09,2.09,0,0,1,2.95,0L40.79,81.17a2.08,2.08,0,0,1,0,3L30.31,94.6A2.09,2.09,0,0,1,28.83,95.21Zm-24-28.83,24,24,7.78-7.78-24-24Z"/><path class="cls-1" d="M40.23,80.91,37.45,78l5-4.86,39.92-7.12a2,2,0,0,0,1.09-.57l21.75-21.75a2.89,2.89,0,0,0,.85-2.07,2.93,2.93,0,0,0-.85-2.07,3,3,0,0,0-4.15,0L89.2,51.47a2.69,2.69,0,0,1-1.89.78H82.55v-4h4.21L98.25,36.76a6.93,6.93,0,0,1,9.8,9.8L86.3,68.31A6,6,0,0,1,83.08,70L44.37,76.9Z"/><path class="cls-1" d="M18.4,61.61l-2.82-2.83,3.91-3.91c0-2.35.54-8.57,4.93-13.25C27.85,38,32.79,36.1,39.09,36.1H54.7a6.89,6.89,0,0,1,7,5.65h9.45a7,7,0,0,1,7,7v2a7,7,0,0,1-7,7H51.88v-4H71.19a3,3,0,0,0,3-3v-2a3,3,0,0,0-3-3h-11a2.26,2.26,0,0,1-2.27-2.2c0-1-.42-3.45-3.24-3.45H39.09C34,40.1,30,41.52,27.36,44.33c-4.22,4.48-3.87,11.17-3.87,11.23l.06.9Z"/></g></g></svg>