<svg xmlns="http://www.w3.org/2000/svg" viewBox="0 0 181 91.21"><defs><style>.cls-1{fill:#77c600;}</style></defs><g id="Layer_2" data-name="Layer 2"><g id="Layer_1-2" data-name="Layer 1"><rect class="cls-1" x="89.95" y="43.63" width="3.82" height="4"/><rect class="cls-1" x="69.49" y="43.63" width="15.52" height="4"/><path class="cls-1" d="M77.59,57l-9.76-9.76a2,2,0,0,1,0-2.83L78.08,34.21,80.9,37l-8.83,8.84,8.35,8.35Z"/><rect class="cls-1" x="98.01" y="43.63" width="14.52" height="4"/><path class="cls-1" d="M103.94,57l-2.83-2.82,8.83-8.84L101.59,37l2.83-2.82L114.19,44a2,2,0,0,1,.58,1.41,2,2,0,0,1-.58,1.42Z"/><path class="cls-1" d="M37.5,56.42A18.54,18.54,0,0,1,19,37.9V32.77h4V37.9a14.52,14.52,0,0,0,29,0V32.77h4V37.9A18.54,18.54,0,0,1,37.5,56.42Z"/><path class="cls-1" d="M60.41,34c-.09-.11-8.79-11.32-21.59-12.17-8.2-.55-16.41,3.24-24.41,11.23l-2.82-2.83c8.86-8.86,18.11-13,27.54-12.39C53.75,18.82,63.2,31,63.59,31.56Z"/><path class="cls-1" d="M37.54,56.43h-.66A26.88,26.88,0,0,1,11,31.78l0-.39.11-.37c.61-1.91,1.16-3.81,1.7-5.63s1.07-3.71,1.68-5.64A24.25,24.25,0,0,1,38.07,0,23.64,23.64,0,0,1,61.4,19.62L64,32.69,64,33A26.88,26.88,0,0,1,37.54,56.43ZM15,31.85A22.85,22.85,0,0,0,37,52.42,22.85,22.85,0,0,0,60,32.84l-2.5-12.48A19.67,19.67,0,0,0,38.07,4,20.2,20.2,0,0,0,18.39,20.58l-.07.26c-.61,1.92-1.16,3.82-1.69,5.66S15.6,30,15,31.85Z"/><path class="cls-1" d="M72.63,91.21H2.37A2.37,2.37,0,0,1,0,88.84V74.71a16.52,16.52,0,0,1,16.5-16.5h42A16.52,16.52,0,0,1,75,74.71V88.84A2.37,2.37,0,0,1,72.63,91.21ZM4,87.21H71V74.71a12.52,12.52,0,0,0-12.5-12.5h-42A12.52,12.52,0,0,0,4,74.71Z"/><rect class="cls-1" x="13.23" y="77.21" width="4" height="11.55"/><rect class="cls-1" x="58.23" y="77.21" width="4" height="11.55"/><path class="cls-1" d="M143.5,56.42A18.54,18.54,0,0,1,125,37.9V33.77h4V37.9a14.52,14.52,0,1,0,29,0V33.77h4V37.9A18.54,18.54,0,0,1,143.5,56.42Z"/><path class="cls-1" d="M178.63,91.21H108.37A2.37,2.37,0,0,1,106,88.84V74.71a16.52,16.52,0,0,1,16.5-16.5h42A16.52,16.52,0,0,1,181,74.71V88.84A2.37,2.37,0,0,1,178.63,91.21Zm-68.63-4h67V74.71a12.52,12.52,0,0,0-12.5-12.5h-42A12.52,12.52,0,0,0,110,74.71Z"/><rect class="cls-1" x="119.23" y="77.21" width="4" height="11.55"/><rect class="cls-1" x="164.23" y="77.21" width="4" height="11.55"/><path class="cls-1" d="M166,19.58h-4V16.69A10.88,10.88,0,0,0,151.14,5.83H135.6a9.86,9.86,0,0,0-9.85,9.85v3.9h-4v-3.9A13.87,13.87,0,0,1,135.6,1.83h15.54A14.88,14.88,0,0,1,166,16.69Z"/><rect class="cls-1" x="162" y="24.21" width="4" height="4"/><rect class="cls-1" x="114" y="24.21" width="44" height="4"/></g></g></svg>