<svg xmlns="http://www.w3.org/2000/svg" viewBox="0 0 81 114"><defs><style>.cls-1{fill:#77c600;}</style></defs><g id="Layer_2" data-name="Layer 2"><g id="Layer_1-2" data-name="Layer 1"><rect class="cls-1" x="13.89" y="47" width="4.11" height="4"/><path class="cls-1" d="M78.28,114H2.72A2.78,2.78,0,0,1,0,111.18V49.82A2.78,2.78,0,0,1,2.72,47H10v4H4v59H77V51H22V47H78.28A2.78,2.78,0,0,1,81,49.82v61.36A2.78,2.78,0,0,1,78.28,114Z"/><path class="cls-1" d="M81,92H65.48A4.49,4.49,0,0,1,61,87.52v-13A4.49,4.49,0,0,1,65.48,70H81ZM65.48,74a.47.47,0,0,0-.48.48v13a.47.47,0,0,0,.48.48H77V74Z"/><rect class="cls-1" x="13.57" y="26" width="4" height="11.35"/><rect class="cls-1" x="9.89" y="29.68" width="11.11" height="4"/><rect class="cls-1" x="29.57" y="16" width="4" height="11.35"/><rect class="cls-1" x="25.89" y="19.68" width="11.11" height="4"/><rect class="cls-1" x="13.57" width="4" height="11.35"/><rect class="cls-1" x="9.89" y="3.68" width="11.11" height="4"/><rect class="cls-1" x="55.57" y="56" width="4" height="11.35"/><rect class="cls-1" x="51.89" y="59.68" width="11.11" height="4"/><path class="cls-1" d="M31,99A18,18,0,1,1,49,81,18,18,0,0,1,31,99Zm0-32A14,14,0,1,0,45,81,14,14,0,0,0,31,67Z"/><path class="cls-1" d="M33.39,81.31H25.53l0-1.53v-7l1.53,0h6.36a4.28,4.28,0,0,1,0,8.56Zm-4.89-3h4.89a1.28,1.28,0,0,0,0-2.56H28.5Z"/><path class="cls-1" d="M33.67,88.25H25.54l0-1.54V78.34l1.54,0h6.63a4.83,4.83,0,0,1,4.83,4.83v.28A4.84,4.84,0,0,1,33.67,88.25Zm-5.17-3h5.17a1.83,1.83,0,0,0,1.83-1.83v-.28a1.83,1.83,0,0,0-1.83-1.83H28.5Z"/><rect class="cls-1" x="27.43" y="70.92" width="3" height="3.33"/><rect class="cls-1" x="32.17" y="70.92" width="3" height="3.33"/><rect class="cls-1" x="27.43" y="86.75" width="3" height="3.33"/><rect class="cls-1" x="32.17" y="86.75" width="3" height="3.33"/><path class="cls-1" d="M61,40A18,18,0,1,1,79,22,18,18,0,0,1,61,40ZM61,8A14,14,0,1,0,75,22,14,14,0,0,0,61,8Z"/><path class="cls-1" d="M63.39,22.31H55.53l0-1.53v-7l1.53,0h6.36a4.28,4.28,0,1,1,0,8.56Zm-4.89-3h4.89a1.28,1.28,0,1,0,0-2.56H58.5Z"/><path class="cls-1" d="M63.67,29.25H55.54l0-1.54V19.34l1.54,0h6.63a4.83,4.83,0,0,1,4.83,4.83v.28A4.84,4.84,0,0,1,63.67,29.25Zm-5.17-3h5.17a1.83,1.83,0,0,0,1.83-1.83v-.28a1.83,1.83,0,0,0-1.83-1.83H58.5Z"/><rect class="cls-1" x="57.43" y="11.92" width="3" height="3.33"/><rect class="cls-1" x="62.17" y="11.92" width="3" height="3.33"/><rect class="cls-1" x="57.43" y="27.75" width="3" height="3.33"/><rect class="cls-1" x="62.17" y="27.75" width="3" height="3.33"/></g></g></svg>