<?xml version="1.0" encoding="utf-8"?>
<!-- Generator: Adobe Illustrator 26.0.1, SVG Export Plug-In . SVG Version: 6.00 Build 0)  -->
<svg version="1.1" id="Layer_1" xmlns="http://www.w3.org/2000/svg" xmlns:xlink="http://www.w3.org/1999/xlink" x="0px" y="0px"
	 viewBox="0 0 55.2 49" style="enable-background:new 0 0 55.2 49;" xml:space="preserve">
<style type="text/css">
	.st0{fill:url(#Path_00000045596385420342316440000009799224862174384822_);}
</style>
<desc>Created with Sketch.</desc>
<g id="Page-1">
	<g id="wasabi-wallet-logo">
		
			<linearGradient id="Path_00000073692859450888313260000007805601902618059428_" gradientUnits="userSpaceOnUse" x1="-589.5728" y1="400.8213" x2="-589.5728" y2="401.8878" gradientTransform="matrix(55 0 0 -49 32453.998 19682)">
			<stop  offset="0" style="stop-color:#8BC53F"/>
			<stop  offset="0.17" style="stop-color:#91BF3E"/>
			<stop  offset="0.4" style="stop-color:#A2AF3C"/>
			<stop  offset="0.66" style="stop-color:#BD9538"/>
			<stop  offset="0.95" style="stop-color:#E47133"/>
			<stop  offset="0.97" style="stop-color:#E76E33"/>
		</linearGradient>
		
			<path id="Path_00000072995110464183927450000007242540281573936816_" style="fill:url(#Path_00000073692859450888313260000007805601902618059428_);" d="
			M54.4,9l-0.1-0.5l-0.4-0.4C47.8,2.3,38.1,0,29.9,0l0,7.7c-1.7,0-3.2,0-4.7,0l0-7.7c-8.3,0-17.9,2.3-24,8.2L0.7,8.5L0.6,9
			c-2.3,8.9,1,28.5,20.2,40C0.9,30.4,3.3,13.4,3.9,10.3c5.5-5,14.1-6.5,17.7-6.7l0,4.3c-4.8,0.5-9.8,1.9-13.9,4.8
			C6.8,19.3,9.6,27,13.6,33.6c3.2,5.3,7.2,9.5,11.8,13.6l2.1-22.5l0,0l-5.9,13.8c-3.6-4.3-10.2-13.3-10.4-23.8
			c4.9-2.5,10.5-3.3,16-3.3c5.6,0,11.7,0.8,16.7,3.3c-0.2,10.5-6.7,19.5-10.4,23.8l-5.9-13.8l0,0l2.1,22.5
			c4.6-4.1,8.6-8.3,11.8-13.6c4-6.6,6.8-14.3,5.9-20.9c-4-2.9-9.1-4.1-13.9-4.7l0-4.4c3.6,0.2,12.3,1.8,17.7,6.7
			c0.6,3,3,20.1-16.9,38.7C53.3,37.4,56.7,17.9,54.4,9z"/>
	</g>
</g>
</svg>
