<svg width="60" height="60" xmlns="http://www.w3.org/2000/svg"><g transform="translate(.365)" fill="#FF7144" fill-rule="nonzero"><circle cx="6.333" cy="30.333" r="6.333"/><circle cx="47" cy="53.667" r="6.333"/><circle cx="47" cy="6.333" r="6.333"/><path d="M30.56 17.059c.276.488.835.73 1.37.592 6.475-1.7 13.093 2.196 14.888 8.765.15.543.636.917 1.188.917h10.092a1.248 1.248 0 0 0 1.22-1.458 25.358 25.358 0 0 0-5.616-12.399 1.218 1.218 0 0 0-1.62-.221 8.478 8.478 0 0 1-4.785 1.481c-4.72-.017-8.562-3.882-8.644-8.697a1.25 1.25 0 0 0-1.104-1.235 24.322 24.322 0 0 0-11.422 1.527 1.268 1.268 0 0 0-.628 1.806l5.061 8.922zM58.097 32.667H48.002a1.24 1.24 0 0 0-1.188.916c-1.794 6.57-8.417 10.466-14.894 8.763a1.226 1.226 0 0 0-1.37.592l-5.05 8.918a1.273 1.273 0 0 0 .627 1.806 23.969 23.969 0 0 0 11.427 1.526 1.25 1.25 0 0 0 1.104-1.234c.055-4.857 3.961-8.75 8.726-8.694a8.512 8.512 0 0 1 4.692 1.48c.52.354 1.217.255 1.623-.229a25.342 25.342 0 0 0 5.619-12.386 1.257 1.257 0 0 0-1.025-1.443 1.226 1.226 0 0 0-.196-.015zM25.656 39.036c-4.584-4.845-4.584-12.566 0-17.41.38-.403.453-1.016.18-1.501l-4.959-8.834a1.216 1.216 0 0 0-.833-.605 1.24 1.24 0 0 0-.987.25c-3.528 2.952-6.18 6.863-7.657 11.29a1.273 1.273 0 0 0 .376 1.372c3.614 2.966 4.208 8.386 1.326 12.105-.39.505-.836.962-1.326 1.365-.391.332-.542.879-.376 1.372 1.477 4.423 4.13 8.33 7.655 11.28a1.193 1.193 0 0 0 1.82-.345l4.958-8.84a1.278 1.278 0 0 0-.177-1.5z"/></g></svg>
