<?xml version="1.0" encoding="utf-8"?>
<!-- Generator: Adobe Illustrator 16.0.0, SVG Export Plug-In . SVG Version: 6.00 Build 0)  -->
<!DOCTYPE svg PUBLIC "-//W3C//DTD SVG 1.1//EN" "http://www.w3.org/Graphics/SVG/1.1/DTD/svg11.dtd">
<svg version="1.1" id="Layer_1" xmlns="http://www.w3.org/2000/svg" xmlns:xlink="http://www.w3.org/1999/xlink" x="0px" y="0px"
	 width="863px" height="812px" viewBox="0 0 863 812" enable-background="new 0 0 863 812" xml:space="preserve">
<path fill="#FFFFFF" d="M429.112,85.146l-4.45-4.45l-20.529,20.528l-18.8,18.8l-18.556,18.555l4.452,4.451
	c1.672,1.675,3.557,3.002,5.56,4.01l56.333-56.333C432.112,88.704,430.785,86.82,429.112,85.146z"/>
<path fill="#FFFFFF" d="M163.708,85.146l-4.45-4.45l-20.529,20.528l-18.8,18.8l-18.556,18.555l4.452,4.451
	c1.672,1.675,3.557,3.002,5.56,4.01l56.333-56.333C166.709,88.704,165.381,86.82,163.708,85.146z"/>
<path fill="#FFFFFF" d="M429.112,603.754l-4.45-4.449l-20.529,20.527l-18.8,18.801l-18.556,18.555l4.452,4.451
	c1.672,1.674,3.557,3.002,5.56,4.01l56.333-56.334C432.112,607.313,430.785,605.428,429.112,603.754z"/>
<path fill="#FFFFFF" d="M163.708,603.754l-4.45-4.449l-20.529,20.527l-18.8,18.801l-18.556,18.555l4.452,4.451
	c1.672,1.674,3.557,3.002,5.56,4.01l56.333-56.334C166.709,607.313,165.381,605.428,163.708,603.754z"/>
<path d="M429.112,344.451l-4.45-4.451l-20.529,20.529l-18.8,18.799l-18.556,18.555l4.452,4.451c1.672,1.676,3.557,3.002,5.56,4.01
	l56.333-56.332C432.112,348.008,430.785,346.125,429.112,344.451z"/>
<path d="M163.708,344.451l-4.45-4.451l-20.529,20.529l-18.8,18.799l-18.556,18.555l4.452,4.451c1.672,1.676,3.557,3.002,5.56,4.01
	l56.333-56.332C166.709,348.008,165.381,346.125,163.708,344.451z"/>
<rect y="280.092" stroke="#000000" stroke-width="0.9074" stroke-miterlimit="10" width="863" height="259.487"/>
<g>
	<path fill="#F7941E" d="M574.28,164.826h-7.137v-29.104h7.137v10.623h9.229v-10.623h7.138v29.104h-7.138v-11.897h-9.229V164.826z"
		/>
	<path fill="#F7941E" d="M598.03,139.64c-0.3,0.505-0.711,0.916-1.23,1.23s-1.094,0.472-1.723,0.472
		c-0.628,0-1.196-0.15-1.702-0.451c-0.52-0.314-0.929-0.731-1.231-1.251c-0.313-0.547-0.472-1.128-0.472-1.743
		c0-0.629,0.15-1.203,0.452-1.723c0.328-0.534,0.746-0.951,1.25-1.251c0.506-0.301,1.074-0.451,1.702-0.451
		c0.629,0,1.203,0.15,1.723,0.451c0.506,0.301,0.917,0.718,1.23,1.251c0.302,0.52,0.452,1.094,0.452,1.723
		C598.482,138.552,598.332,139.134,598.03,139.64z M598.462,143.844v21.022h-6.544v-21.002L598.462,143.844z"/>
	<path fill="#F7941E" d="M623.565,154.365c-0.013,2.079-0.567,3.96-1.661,5.64c-1.094,1.709-2.57,3.049-4.43,4.021
		c-1.861,0.983-3.836,1.475-5.928,1.475c-1.6,0-3.117-0.279-4.553-0.84c-1.422-0.521-2.715-1.305-3.876-2.358
		c-1.148-1.055-2.037-2.256-2.667-3.612c-0.628-1.353-0.942-2.844-0.942-4.471c0-1.584,0.32-3.07,0.963-4.45
		c0.628-1.367,1.511-2.565,2.646-3.589c1.148-1.039,2.44-1.825,3.876-2.359c1.477-0.533,2.994-0.799,4.553-0.799
		c1.545,0,3.056,0.266,4.532,0.799l0.472,0.205l0.473,0.206v-8.655l6.542,0.021V154.365z M617.023,154.221
		c0-0.957-0.254-1.832-0.76-2.624c-0.505-0.808-1.183-1.45-2.03-1.93c-0.833-0.479-1.729-0.718-2.687-0.718
		s-1.859,0.239-2.707,0.718c-0.848,0.48-1.525,1.122-2.03,1.93c-0.507,0.792-0.759,1.667-0.759,2.624
		c0,1.464,0.547,2.722,1.641,3.774c1.08,1.052,2.365,1.579,3.855,1.579c1.477,0,2.756-0.526,3.836-1.579
		C616.477,156.943,617.023,155.686,617.023,154.221z"/>
	<path fill="#F7941E" d="M648.65,154.365c-0.016,2.079-0.568,3.96-1.662,5.64c-1.095,1.709-2.571,3.049-4.431,4.021
		c-1.858,0.983-3.835,1.475-5.927,1.475c-1.601,0-3.118-0.279-4.553-0.84c-1.423-0.521-2.715-1.305-3.877-2.358
		c-1.148-1.055-2.037-2.256-2.666-3.612c-0.629-1.353-0.943-2.844-0.943-4.471c0-1.584,0.321-3.07,0.963-4.45
		c0.63-1.367,1.512-2.565,2.646-3.589c1.148-1.039,2.441-1.825,3.877-2.359c1.476-0.533,2.994-0.799,4.553-0.799
		c1.545,0,3.055,0.266,4.533,0.799l0.471,0.205l0.473,0.206v-8.655l6.543,0.021V154.365z M642.107,154.221
		c0-0.957-0.254-1.832-0.76-2.624c-0.506-0.808-1.182-1.45-2.029-1.93c-0.836-0.479-1.73-0.718-2.688-0.718
		s-1.859,0.239-2.707,0.718c-0.848,0.48-1.525,1.122-2.031,1.93c-0.506,0.792-0.759,1.667-0.759,2.624
		c0,1.464,0.548,2.722,1.642,3.774c1.078,1.052,2.365,1.579,3.855,1.579c1.477,0,2.754-0.526,3.835-1.579
		C641.56,156.943,642.107,155.686,642.107,154.221z"/>
	<path fill="#F7941E" d="M671.805,149.75c0.615,1.382,0.924,2.857,0.924,4.431v0.184c0,0.069-0.007,0.144-0.021,0.226l-0.041,0.348
		h-2.543v0.042h-14.111c0.164,1.148,0.664,2.14,1.498,2.974c1.053,1.039,2.283,1.558,3.691,1.558c1.422,0,2.652-0.519,3.691-1.558
		l0.041-0.042l0.063-0.083l0.061-0.061l0.042-0.061l3.526,5.044c-1.011,0.821-2.037,1.443-3.076,1.866
		c-1.395,0.547-2.844,0.821-4.348,0.821c-2.038,0-3.93-0.484-5.681-1.457c-1.792-0.983-3.206-2.331-4.246-4.04
		c-1.067-1.709-1.601-3.631-1.601-5.763c0-1.6,0.309-3.078,0.924-4.431c0.615-1.366,1.463-2.557,2.543-3.568
		c1.094-1.039,2.324-1.825,3.691-2.359c1.409-0.546,2.865-0.82,4.369-0.82s2.953,0.273,4.348,0.82
		c1.381,0.534,2.618,1.313,3.713,2.339C670.342,147.159,671.189,148.356,671.805,149.75z M661.201,148.931
		c-0.916,0-1.777,0.232-2.584,0.697c-0.492,0.301-0.972,0.725-1.436,1.271h8.039c-0.464-0.546-0.943-0.97-1.436-1.271
		C662.979,149.163,662.117,148.931,661.201,148.931z"/>
	<path fill="#F7941E" d="M682.819,148.931c-1.669,0.067-2.503,1.23-2.503,3.486v12.41h-6.563v-12.41
		c0-5.975,3.022-9.112,9.066-9.413h0.368c6.044,0.301,9.066,3.438,9.066,9.413v12.41h-6.564v-12.41c0-2.255-0.833-3.418-2.502-3.486
		H682.819z"/>
	<path fill="#F7941E" d="M700.457,135.723l4.123,13.988l7.26-13.906l7.139,14.151l4.367-14.232h7.59l-10.953,29.739h-0.164
		l-7.896-15.381l-8.49,15.381h-0.123l-10.03-29.739H700.457z"/>
	<path fill="#F7941E" d="M745.189,164.21c-0.438,0.191-0.76,0.321-0.963,0.391c-1.451,0.561-2.969,0.84-4.555,0.84
		c-2.092,0-4.066-0.484-5.928-1.457c-1.859-0.983-3.336-2.323-4.43-4.019c-1.107-1.722-1.661-3.644-1.661-5.762
		c0-1.6,0.321-3.091,0.964-4.472c0.643-1.368,1.523-2.557,2.646-3.568c1.105-1.013,2.391-1.785,3.855-2.318
		c1.463-0.561,2.98-0.841,4.553-0.841c1.559,0,3.076,0.273,4.555,0.82c1.477,0.547,2.762,1.326,3.855,2.339
		c1.146,1.04,2.037,2.228,2.666,3.568c0.643,1.381,0.963,2.872,0.963,4.472l-0.02,10.685l-6.502-0.062V164.21z M734.955,151.555
		c-0.506,0.808-0.76,1.688-0.76,2.647c0,1.448,0.547,2.7,1.641,3.753c1.08,1.039,2.359,1.558,3.836,1.558
		c1.49,0,2.775-0.519,3.855-1.558c1.094-1.053,1.641-2.305,1.641-3.753c0-0.959-0.252-1.839-0.758-2.647
		c-0.506-0.805-1.184-1.449-2.031-1.927c-0.834-0.465-1.736-0.697-2.707-0.697c-0.943,0-1.838,0.232-2.686,0.697
		C736.137,150.106,735.461,150.75,734.955,151.555z"/>
	<path fill="#F7941E" d="M752.736,135.723l6.543-0.021v29.082l-6.543,0.083V135.723z"/>
	<path fill="#F7941E" d="M760.305,135.723l6.543-0.021v29.082l-6.543,0.083V135.723z"/>
	<path fill="#F7941E" d="M790.004,149.75c0.615,1.382,0.924,2.857,0.924,4.431v0.184c0,0.069-0.01,0.144-0.021,0.226l-0.041,0.348
		h-2.543v0.042h-14.111c0.164,1.148,0.662,2.14,1.496,2.974c1.053,1.039,2.283,1.558,3.693,1.558c1.422,0,2.652-0.519,3.691-1.558
		l0.041-0.042l0.061-0.083l0.063-0.061l0.041-0.061l3.527,5.044c-1.012,0.821-2.037,1.443-3.076,1.866
		c-1.395,0.547-2.844,0.821-4.348,0.821c-2.037,0-3.932-0.484-5.682-1.457c-1.791-0.983-3.207-2.331-4.246-4.04
		c-1.066-1.709-1.6-3.631-1.6-5.763c0-1.6,0.307-3.078,0.924-4.431c0.615-1.366,1.463-2.557,2.543-3.568
		c1.094-1.039,2.324-1.825,3.691-2.359c1.408-0.546,2.863-0.82,4.369-0.82c1.504,0,2.953,0.273,4.348,0.82
		c1.381,0.534,2.619,1.313,3.713,2.339C788.539,147.159,789.389,148.356,790.004,149.75z M779.4,148.931
		c-0.918,0-1.779,0.232-2.586,0.697c-0.49,0.301-0.969,0.725-1.436,1.271h8.041c-0.465-0.546-0.943-0.97-1.436-1.271
		C781.176,149.163,780.316,148.931,779.4,148.931z"/>
	<path fill="#F7941E" d="M796.279,149.423h-4.326l1.475-5.62h2.852v-8.081l6.541,0.04v8.041h4.35l-1.457,5.62h-2.893v6.951
		c0,1.861,1.164,2.791,3.488,2.791c0.752,0,1.326-0.09,1.723-0.266l-1.887,6.52c-0.342,0.056-0.676,0.083-1.006,0.083
		c-1.953,0-3.582-0.313-4.879-0.943c-1.314-0.627-2.305-1.579-2.975-2.85c-0.67-1.26-1.006-2.865-1.006-4.821V149.423z"/>
</g>
<g>
	<path fill="#F7941E" d="M92.861,243.313H86.08v-27.649h6.781v10.093h8.769v-10.093h6.781v27.649h-6.781v-11.301h-8.769V243.313z"/>
	<path fill="#F7941E" d="M115.426,219.383c-0.285,0.482-0.675,0.871-1.169,1.169c-0.494,0.301-1.039,0.45-1.637,0.45
		s-1.137-0.144-1.617-0.429c-0.494-0.298-0.883-0.695-1.169-1.189c-0.298-0.518-0.448-1.071-0.448-1.657
		c0-0.596,0.143-1.142,0.429-1.636c0.312-0.505,0.708-0.902,1.189-1.187c0.48-0.288,1.02-0.429,1.617-0.429s1.143,0.141,1.637,0.429
		c0.481,0.285,0.871,0.682,1.169,1.187c0.286,0.495,0.429,1.04,0.429,1.636C115.855,218.35,115.712,218.903,115.426,219.383z
		 M115.835,223.377v19.975h-6.216v-19.955L115.835,223.377z"/>
	<path fill="#F7941E" d="M139.687,233.375c-0.013,1.975-0.539,3.76-1.579,5.358c-1.039,1.624-2.442,2.896-4.209,3.818
		c-1.767,0.937-3.644,1.404-5.631,1.404c-1.52,0-2.962-0.268-4.326-0.8c-1.351-0.493-2.579-1.24-3.683-2.24
		c-1.091-1-1.936-2.144-2.534-3.43c-0.597-1.285-0.896-2.702-0.896-4.248c0-1.507,0.305-2.917,0.915-4.23
		c0.598-1.298,1.436-2.434,2.514-3.409c1.091-0.988,2.319-1.735,3.683-2.24c1.403-0.507,2.845-0.76,4.326-0.76
		c1.468,0,2.904,0.253,4.306,0.76l0.448,0.194l0.448,0.195v-8.223l6.216,0.018V233.375z M133.47,233.239
		c0-0.909-0.24-1.742-0.721-2.495c-0.48-0.766-1.124-1.376-1.929-1.831c-0.792-0.455-1.644-0.682-2.553-0.682
		c-0.91,0-1.767,0.227-2.572,0.682c-0.806,0.455-1.449,1.065-1.93,1.831c-0.48,0.752-0.721,1.585-0.721,2.495
		c0,1.389,0.52,2.583,1.559,3.586c1.027,1,2.248,1.5,3.664,1.5c1.403,0,2.618-0.5,3.644-1.5
		C132.951,235.822,133.47,234.628,133.47,233.239z"/>
	<path fill="#F7941E" d="M163.518,233.375c-0.013,1.975-0.539,3.76-1.578,5.358c-1.04,1.624-2.442,2.896-4.209,3.818
		c-1.767,0.937-3.644,1.404-5.631,1.404c-1.521,0-2.962-0.268-4.327-0.8c-1.351-0.493-2.578-1.24-3.683-2.24
		c-1.091-1-1.936-2.144-2.533-3.43c-0.597-1.285-0.896-2.702-0.896-4.248c0-1.507,0.306-2.917,0.916-4.23
		c0.598-1.298,1.436-2.434,2.514-3.409c1.091-0.988,2.319-1.735,3.683-2.24c1.403-0.507,2.846-0.76,4.327-0.76
		c1.468,0,2.903,0.253,4.306,0.76l0.448,0.194l0.448,0.195v-8.223l6.216,0.018V233.375z M157.302,233.239
		c0-0.909-0.241-1.742-0.721-2.495c-0.481-0.766-1.124-1.376-1.93-1.831c-0.792-0.455-1.643-0.682-2.552-0.682
		c-0.91,0-1.767,0.227-2.573,0.682c-0.805,0.455-1.448,1.065-1.929,1.831c-0.481,0.752-0.721,1.585-0.721,2.495
		c0,1.389,0.52,2.583,1.559,3.586c1.026,1,2.248,1.5,3.664,1.5c1.403,0,2.617-0.5,3.643-1.5
		C156.783,235.822,157.302,234.628,157.302,233.239z"/>
	<path fill="#F7941E" d="M185.518,228.991c0.584,1.311,0.877,2.715,0.877,4.207v0.177c0,0.063-0.006,0.136-0.02,0.214l-0.039,0.331
		h-2.416v0.038h-13.406c0.155,1.091,0.63,2.033,1.422,2.826c1,0.988,2.169,1.482,3.507,1.482c1.351,0,2.52-0.495,3.508-1.482
		l0.039-0.038l0.059-0.078l0.058-0.058l0.039-0.058l3.352,4.793c-0.961,0.778-1.936,1.371-2.923,1.772
		c-1.325,0.521-2.702,0.781-4.131,0.781c-1.936,0-3.734-0.462-5.397-1.384c-1.702-0.937-3.047-2.214-4.034-3.838
		c-1.014-1.624-1.521-3.449-1.521-5.478c0-1.52,0.292-2.921,0.877-4.207c0.585-1.3,1.39-2.429,2.417-3.391
		c1.039-0.988,2.208-1.735,3.507-2.24c1.338-0.52,2.722-0.78,4.15-0.78c1.429,0,2.806,0.26,4.131,0.78
		c1.312,0.505,2.487,1.245,3.527,2.22C184.128,226.529,184.934,227.666,185.518,228.991z M175.443,228.211
		c-0.87,0-1.688,0.22-2.455,0.662c-0.468,0.286-0.923,0.689-1.364,1.209h7.638c-0.441-0.52-0.896-0.924-1.363-1.209
		C177.133,228.431,176.314,228.211,175.443,228.211z"/>
	<path fill="#F7941E" d="M195.982,228.211c-1.585,0.066-2.378,1.169-2.378,3.313v11.788h-6.235v-11.788
		c0-5.677,2.871-8.659,8.613-8.945h0.35c5.743,0.286,8.613,3.268,8.613,8.945v11.788h-6.236v-11.788
		c0-2.144-0.792-3.248-2.377-3.313H195.982z"/>
	<path fill="#F7941E" d="M212.74,215.663l3.917,13.288l6.898-13.212l6.781,13.447l4.15-13.522h7.21l-10.406,28.253h-0.156
		l-7.502-14.614l-8.067,14.614h-0.117l-9.529-28.253H212.74z"/>
	<path fill="#F7941E" d="M255.24,242.729c-0.416,0.182-0.721,0.306-0.916,0.369c-1.377,0.533-2.819,0.801-4.326,0.801
		c-1.987,0-3.864-0.462-5.631-1.384c-1.767-0.937-3.17-2.209-4.209-3.821c-1.052-1.636-1.578-3.462-1.578-5.475
		c0-1.521,0.305-2.937,0.916-4.248c0.61-1.301,1.448-2.429,2.514-3.392c1.052-0.959,2.273-1.694,3.663-2.202
		c1.39-0.533,2.832-0.798,4.326-0.798c1.481,0,2.923,0.26,4.326,0.78c1.403,0.518,2.624,1.26,3.664,2.22
		c1.091,0.987,1.936,2.119,2.533,3.392c0.611,1.311,0.916,2.727,0.916,4.248l-0.019,10.152l-6.177-0.058V242.729z M245.516,230.706
		c-0.48,0.765-0.721,1.604-0.721,2.513c0,1.376,0.52,2.565,1.559,3.565c1.027,0.988,2.241,1.482,3.644,1.482
		c1.416,0,2.638-0.495,3.664-1.482c1.039-1,1.559-2.189,1.559-3.565c0-0.909-0.24-1.748-0.721-2.513
		c-0.48-0.768-1.124-1.379-1.929-1.833c-0.792-0.442-1.65-0.662-2.573-0.662c-0.896,0-1.747,0.22-2.552,0.662
		C246.64,229.327,245.997,229.938,245.516,230.706z"/>
	<path fill="#F7941E" d="M262.411,215.663l6.216-0.021v27.632l-6.216,0.078V215.663z"/>
	<path fill="#F7941E" d="M269.601,215.663l6.216-0.021v27.632l-6.216,0.078V215.663z"/>
	<path fill="#F7941E" d="M297.817,228.991c0.584,1.311,0.877,2.715,0.877,4.207v0.177c0,0.063-0.007,0.136-0.02,0.214l-0.039,0.331
		h-2.417v0.038h-13.407c0.156,1.091,0.63,2.033,1.422,2.826c1.001,0.988,2.17,1.482,3.508,1.482c1.351,0,2.52-0.495,3.508-1.482
		l0.039-0.038l0.058-0.078l0.059-0.058l0.039-0.058l3.351,4.793c-0.961,0.778-1.936,1.371-2.922,1.772
		c-1.325,0.521-2.702,0.781-4.131,0.781c-1.936,0-3.735-0.462-5.398-1.384c-1.701-0.937-3.046-2.214-4.033-3.838
		c-1.014-1.624-1.52-3.449-1.52-5.478c0-1.52,0.292-2.921,0.877-4.207c0.585-1.3,1.39-2.429,2.416-3.391
		c1.04-0.988,2.208-1.735,3.508-2.24c1.338-0.52,2.722-0.78,4.15-0.78c1.429,0,2.806,0.26,4.131,0.78
		c1.312,0.505,2.487,1.245,3.527,2.22C296.427,226.529,297.233,227.666,297.817,228.991z M287.743,228.211
		c-0.871,0-1.689,0.22-2.455,0.662c-0.468,0.286-0.922,0.689-1.364,1.209h7.638c-0.442-0.52-0.896-0.924-1.364-1.209
		C289.432,228.431,288.613,228.211,287.743,228.211z"/>
	<path fill="#F7941E" d="M303.78,228.678h-4.112l1.403-5.338h2.709v-7.677l6.216,0.038v7.639h4.131l-1.383,5.338h-2.748v6.606
		c0,1.768,1.104,2.649,3.313,2.649c0.714,0,1.26-0.083,1.637-0.253l-1.793,6.197c-0.325,0.051-0.644,0.078-0.955,0.078
		c-1.858,0-3.404-0.3-4.638-0.896c-1.248-0.598-2.189-1.5-2.826-2.709c-0.636-1.194-0.955-2.72-0.955-4.578V228.678z"/>
</g>
<path fill="#F7941E" d="M246.604,151.712v-3.451c0-6.996,5.672-12.664,12.664-12.664h23.325V112.55
	c0-6.994-5.672-12.664-12.664-12.664h-69.043c-7.087,12.756-19.625,28.855-35.546,44.777c-16.821,16.822-33.84,29.865-46.908,36.693
	v6.066c0,6.994,5.671,12.664,12.665,12.664h138.832c6.992,0,12.664-5.67,12.664-12.664v-23.045h-23.325
	C252.276,164.378,246.604,158.708,246.604,151.712z"/>
<path fill="#F7941E" d="M281.376,137.786h-1.229h-19.775c-5.928,0-10.736,4.806-10.736,10.736v2.926
	c0,5.932,4.809,10.738,10.736,10.738h19.775h1.229c5.932,0,10.736-4.807,10.736-10.738v-2.926
	C292.112,142.592,287.308,137.786,281.376,137.786z"/>
<path fill="#FFFFFF" d="M266.926,149.986c0,3.459-2.805,6.263-6.263,6.263l0,0c-3.458,0-6.261-2.804-6.261-6.263l0,0
	c0-3.459,2.802-6.264,6.261-6.264l0,0C264.121,143.723,266.926,146.527,266.926,149.986L266.926,149.986z"/>
<path fill="#F7941E" d="M200.602,79.423c-4.404-4.405-16.719,0.128-31.964,10.65c-0.307,0.213-0.61,0.417-0.919,0.634
	l-56.333,56.333h0c-0.216,0.309-0.42,0.613-0.633,0.919c-10.524,15.246-15.057,27.562-10.653,31.967
	c3.158,3.158,10.378,1.726,19.83-3.213c12.108-6.326,27.877-18.411,43.463-33.998c14.752-14.753,26.369-29.67,32.936-41.49
	C202.113,90.809,203.976,82.797,200.602,79.423z"/>
<path fill="#F7941E" d="M139.539,60.976c-8.432-8.432-22.103-8.432-30.533,0L81.653,88.327c-8.431,8.432-8.431,22.103,0,30.533
	l19.72,19.718l18.556-18.554l18.8-18.8l20.529-20.528L139.539,60.976z"/>
<g>
	<path fill="#FFFFFF" d="M222.168,149.267c1.537-1.984,2.462-4.467,2.462-7.166v-0.643c0-6.23-4.883-11.328-11.022-11.697v-4.438
		h-7.821v4.4h-3.205v-4.4h-7.825v4.4h-1.823h-3.881v7.822h3.881v8.465v7.822v9.398h-3.881v7.824h3.881h1.823v3.592h7.825v-3.592
		h3.205v3.592h7.821v-3.592h0.297c6.717,0,12.183-5.467,12.183-12.184v-0.678C226.087,154.667,224.57,151.493,222.168,149.267z
		 M200.755,137.546h1.66h10.479c2.157,0,3.913,1.756,3.913,3.912v0.643c0,2.154-1.756,3.91-3.913,3.91h-12.14V137.546z
		 M218.265,158.872c0,2.404-1.954,4.359-4.36,4.359h-11.489h-1.66v-9.398h12.14h1.01c2.406,0,4.36,1.957,4.36,4.361V158.872z"/>
</g>
<path fill="#F7941E" d="M512.007,151.712v-3.451c0-6.996,5.672-12.664,12.664-12.664h23.325V112.55
	c0-6.994-5.672-12.664-12.664-12.664H466.29c-7.087,12.756-19.625,28.855-35.546,44.777c-16.821,16.822-33.84,29.865-46.908,36.693
	v6.066c0,6.994,5.671,12.664,12.665,12.664h138.832c6.992,0,12.664-5.67,12.664-12.664v-23.045h-23.325
	C517.679,164.378,512.007,158.708,512.007,151.712z"/>
<path fill="#F7941E" d="M546.779,137.786h-1.229h-19.775c-5.928,0-10.736,4.806-10.736,10.736v2.926
	c0,5.932,4.809,10.738,10.736,10.738h19.775h1.229c5.932,0,10.736-4.807,10.736-10.738v-2.926
	C557.515,142.592,552.711,137.786,546.779,137.786z"/>
<path fill="#FFFFFF" d="M532.329,149.986c0,3.459-2.805,6.263-6.263,6.263l0,0c-3.458,0-6.261-2.804-6.261-6.263l0,0
	c0-3.459,2.802-6.264,6.261-6.264l0,0C529.524,143.723,532.329,146.527,532.329,149.986L532.329,149.986z"/>
<path fill="#F7941E" d="M466.005,79.423c-4.404-4.405-16.719,0.128-31.964,10.65c-0.307,0.213-0.61,0.417-0.919,0.634
	l-56.333,56.333h0c-0.216,0.309-0.42,0.613-0.633,0.919c-10.524,15.246-15.057,27.562-10.653,31.967
	c3.158,3.158,10.378,1.726,19.83-3.213c12.108-6.326,27.877-18.411,43.463-33.998c14.752-14.753,26.369-29.67,32.936-41.49
	C467.516,90.809,469.379,82.797,466.005,79.423z"/>
<path fill="#F7941E" d="M404.942,60.976c-8.432-8.432-22.103-8.432-30.533,0l-27.353,27.352c-8.431,8.432-8.431,22.103,0,30.533
	l19.72,19.718l18.556-18.554l18.8-18.8l20.529-20.528L404.942,60.976z"/>
<g>
	<path fill="#FFFFFF" d="M487.572,149.267c1.537-1.984,2.462-4.467,2.462-7.166v-0.643c0-6.23-4.883-11.328-11.022-11.697v-4.438
		h-7.821v4.4h-3.205v-4.4h-7.825v4.4h-1.823h-3.881v7.822h3.881v8.465v7.822v9.398h-3.881v7.824h3.881h1.823v3.592h7.825v-3.592
		h3.205v3.592h7.821v-3.592h0.297c6.717,0,12.183-5.467,12.183-12.184v-0.678C491.491,154.667,489.973,151.493,487.572,149.267z
		 M466.159,137.546h1.66h10.479c2.157,0,3.913,1.756,3.913,3.912v0.643c0,2.154-1.756,3.91-3.913,3.91h-12.14V137.546z
		 M483.668,158.872c0,2.404-1.954,4.359-4.36,4.359h-11.489h-1.66v-9.398h12.14h1.01c2.406,0,4.36,1.957,4.36,4.361V158.872z"/>
</g>
<g>
	<path fill="#FFFFFF" d="M574.28,424.131h-7.137v-29.104h7.137v10.623h9.229v-10.623h7.138v29.104h-7.138v-11.896h-9.229V424.131z"
		/>
	<path fill="#FFFFFF" d="M598.03,398.943c-0.3,0.506-0.711,0.916-1.23,1.23s-1.094,0.473-1.723,0.473
		c-0.628,0-1.196-0.15-1.702-0.451c-0.52-0.314-0.929-0.732-1.231-1.252c-0.313-0.547-0.472-1.127-0.472-1.742
		c0-0.629,0.15-1.203,0.452-1.723c0.328-0.533,0.746-0.951,1.25-1.252c0.506-0.301,1.074-0.451,1.702-0.451
		c0.629,0,1.203,0.15,1.723,0.451c0.506,0.301,0.917,0.719,1.23,1.252c0.302,0.52,0.452,1.094,0.452,1.723
		C598.482,397.857,598.332,398.438,598.03,398.943z M598.462,403.148v21.021h-6.544v-21.002L598.462,403.148z"/>
	<path fill="#FFFFFF" d="M623.565,413.67c-0.013,2.078-0.567,3.959-1.661,5.639c-1.094,1.709-2.57,3.049-4.43,4.021
		c-1.861,0.984-3.836,1.477-5.928,1.477c-1.6,0-3.117-0.279-4.553-0.84c-1.422-0.521-2.715-1.307-3.876-2.359
		c-1.148-1.055-2.037-2.256-2.667-3.611c-0.628-1.354-0.942-2.844-0.942-4.471c0-1.584,0.32-3.07,0.963-4.449
		c0.628-1.367,1.511-2.564,2.646-3.59c1.148-1.039,2.44-1.824,3.876-2.359c1.477-0.533,2.994-0.799,4.553-0.799
		c1.545,0,3.056,0.266,4.532,0.799l0.472,0.205l0.473,0.207v-8.656l6.542,0.021V413.67z M617.023,413.525
		c0-0.957-0.254-1.832-0.76-2.623c-0.505-0.809-1.183-1.449-2.03-1.93c-0.833-0.479-1.729-0.719-2.687-0.719
		s-1.859,0.24-2.707,0.719c-0.848,0.48-1.525,1.121-2.03,1.93c-0.507,0.791-0.759,1.666-0.759,2.623
		c0,1.465,0.547,2.723,1.641,3.775c1.08,1.051,2.365,1.578,3.855,1.578c1.477,0,2.756-0.527,3.836-1.578
		C616.477,416.248,617.023,414.99,617.023,413.525z"/>
	<path fill="#FFFFFF" d="M648.65,413.67c-0.016,2.078-0.568,3.959-1.662,5.639c-1.095,1.709-2.571,3.049-4.431,4.021
		c-1.858,0.984-3.835,1.477-5.927,1.477c-1.601,0-3.118-0.279-4.553-0.84c-1.423-0.521-2.715-1.307-3.877-2.359
		c-1.148-1.055-2.037-2.256-2.666-3.611c-0.629-1.354-0.943-2.844-0.943-4.471c0-1.584,0.321-3.07,0.963-4.449
		c0.63-1.367,1.512-2.564,2.646-3.59c1.148-1.039,2.441-1.824,3.877-2.359c1.476-0.533,2.994-0.799,4.553-0.799
		c1.545,0,3.055,0.266,4.533,0.799l0.471,0.205l0.473,0.207v-8.656l6.543,0.021V413.67z M642.107,413.525
		c0-0.957-0.254-1.832-0.76-2.623c-0.506-0.809-1.182-1.449-2.029-1.93c-0.836-0.479-1.73-0.719-2.688-0.719
		s-1.859,0.24-2.707,0.719c-0.848,0.48-1.525,1.121-2.031,1.93c-0.506,0.791-0.759,1.666-0.759,2.623
		c0,1.465,0.548,2.723,1.642,3.775c1.078,1.051,2.365,1.578,3.855,1.578c1.477,0,2.754-0.527,3.835-1.578
		C641.56,416.248,642.107,414.99,642.107,413.525z"/>
	<path fill="#FFFFFF" d="M671.805,409.055c0.615,1.383,0.924,2.857,0.924,4.432v0.184c0,0.068-0.007,0.143-0.021,0.225l-0.041,0.35
		h-2.543v0.041h-14.111c0.164,1.148,0.664,2.141,1.498,2.975c1.053,1.039,2.283,1.559,3.691,1.559c1.422,0,2.652-0.52,3.691-1.559
		l0.041-0.043l0.063-0.082l0.061-0.061l0.042-0.061l3.526,5.043c-1.011,0.822-2.037,1.443-3.076,1.867
		c-1.395,0.547-2.844,0.82-4.348,0.82c-2.038,0-3.93-0.482-5.681-1.455c-1.792-0.984-3.206-2.332-4.246-4.041
		c-1.067-1.709-1.601-3.631-1.601-5.762c0-1.602,0.309-3.078,0.924-4.432c0.615-1.365,1.463-2.557,2.543-3.568
		c1.094-1.039,2.324-1.824,3.691-2.359c1.409-0.545,2.865-0.818,4.369-0.818s2.953,0.273,4.348,0.818
		c1.381,0.535,2.618,1.314,3.713,2.34C670.342,406.463,671.189,407.66,671.805,409.055z M661.201,408.234
		c-0.916,0-1.777,0.232-2.584,0.697c-0.492,0.301-0.972,0.725-1.436,1.271h8.039c-0.464-0.547-0.943-0.971-1.436-1.271
		C662.979,408.467,662.117,408.234,661.201,408.234z"/>
	<path fill="#FFFFFF" d="M682.819,408.234c-1.669,0.068-2.503,1.23-2.503,3.486v12.41h-6.563v-12.41
		c0-5.975,3.022-9.111,9.066-9.412h0.368c6.044,0.301,9.066,3.438,9.066,9.412v12.41h-6.564v-12.41c0-2.256-0.833-3.418-2.502-3.486
		H682.819z"/>
	<path fill="#FFFFFF" d="M700.457,395.027l4.123,13.988l7.26-13.906l7.139,14.15l4.367-14.232h7.59l-10.953,29.738h-0.164
		l-7.896-15.381l-8.49,15.381h-0.123l-10.03-29.738H700.457z"/>
	<path fill="#FFFFFF" d="M745.189,423.514c-0.438,0.191-0.76,0.322-0.963,0.391c-1.451,0.561-2.969,0.84-4.555,0.84
		c-2.092,0-4.066-0.482-5.928-1.455c-1.859-0.984-3.336-2.324-4.43-4.02c-1.107-1.723-1.661-3.645-1.661-5.762
		c0-1.602,0.321-3.092,0.964-4.473c0.643-1.367,1.523-2.557,2.646-3.568c1.105-1.014,2.391-1.785,3.855-2.318
		c1.463-0.561,2.98-0.84,4.553-0.84c1.559,0,3.076,0.273,4.555,0.818c1.477,0.549,2.762,1.326,3.855,2.34
		c1.146,1.039,2.037,2.227,2.666,3.568c0.643,1.381,0.963,2.871,0.963,4.473l-0.02,10.684l-6.502-0.061V423.514z M734.955,410.859
		c-0.506,0.809-0.76,1.688-0.76,2.648c0,1.447,0.547,2.699,1.641,3.752c1.08,1.039,2.359,1.559,3.836,1.559
		c1.49,0,2.775-0.52,3.855-1.559c1.094-1.053,1.641-2.305,1.641-3.752c0-0.961-0.252-1.84-0.758-2.648
		c-0.506-0.805-1.184-1.449-2.031-1.928c-0.834-0.465-1.736-0.697-2.707-0.697c-0.943,0-1.838,0.232-2.686,0.697
		C736.137,409.41,735.461,410.055,734.955,410.859z"/>
	<path fill="#FFFFFF" d="M752.736,395.027l6.543-0.021v29.082l-6.543,0.082V395.027z"/>
	<path fill="#FFFFFF" d="M760.305,395.027l6.543-0.021v29.082l-6.543,0.082V395.027z"/>
	<path fill="#FFFFFF" d="M790.004,409.055c0.615,1.383,0.924,2.857,0.924,4.432v0.184c0,0.068-0.01,0.143-0.021,0.225l-0.041,0.35
		h-2.543v0.041h-14.111c0.164,1.148,0.662,2.141,1.496,2.975c1.053,1.039,2.283,1.559,3.693,1.559c1.422,0,2.652-0.52,3.691-1.559
		l0.041-0.043l0.061-0.082l0.063-0.061l0.041-0.061l3.527,5.043c-1.012,0.822-2.037,1.443-3.076,1.867
		c-1.395,0.547-2.844,0.82-4.348,0.82c-2.037,0-3.932-0.482-5.682-1.455c-1.791-0.984-3.207-2.332-4.246-4.041
		c-1.066-1.709-1.6-3.631-1.6-5.762c0-1.602,0.307-3.078,0.924-4.432c0.615-1.365,1.463-2.557,2.543-3.568
		c1.094-1.039,2.324-1.824,3.691-2.359c1.408-0.545,2.863-0.818,4.369-0.818c1.504,0,2.953,0.273,4.348,0.818
		c1.381,0.535,2.619,1.314,3.713,2.34C788.539,406.463,789.389,407.66,790.004,409.055z M779.4,408.234
		c-0.918,0-1.779,0.232-2.586,0.697c-0.49,0.301-0.969,0.725-1.436,1.271h8.041c-0.465-0.547-0.943-0.971-1.436-1.271
		C781.176,408.467,780.316,408.234,779.4,408.234z"/>
	<path fill="#FFFFFF" d="M796.279,408.729h-4.326l1.475-5.621h2.852v-8.08l6.541,0.039v8.041h4.35l-1.457,5.621h-2.893v6.949
		c0,1.861,1.164,2.791,3.488,2.791c0.752,0,1.326-0.09,1.723-0.266l-1.887,6.52c-0.342,0.057-0.676,0.084-1.006,0.084
		c-1.953,0-3.582-0.314-4.879-0.943c-1.314-0.629-2.305-1.58-2.975-2.85c-0.67-1.26-1.006-2.865-1.006-4.822V408.729z"/>
</g>
<g>
	<path fill="#FFFFFF" d="M92.861,502.617H86.08v-27.65h6.781v10.094h8.769v-10.094h6.781v27.65h-6.781v-11.301h-8.769V502.617z"/>
	<path fill="#FFFFFF" d="M115.426,478.688c-0.285,0.482-0.675,0.871-1.169,1.168c-0.494,0.301-1.039,0.451-1.637,0.451
		s-1.137-0.145-1.617-0.43c-0.494-0.299-0.883-0.695-1.169-1.189c-0.298-0.518-0.448-1.07-0.448-1.656
		c0-0.598,0.143-1.143,0.429-1.637c0.312-0.506,0.708-0.902,1.189-1.188c0.48-0.287,1.02-0.43,1.617-0.43s1.143,0.143,1.637,0.43
		c0.481,0.285,0.871,0.682,1.169,1.188c0.286,0.494,0.429,1.039,0.429,1.637C115.855,477.654,115.712,478.207,115.426,478.688z
		 M115.835,482.682v19.975h-6.216v-19.953L115.835,482.682z"/>
	<path fill="#FFFFFF" d="M139.687,492.68c-0.013,1.975-0.539,3.76-1.579,5.359c-1.039,1.623-2.442,2.896-4.209,3.818
		c-1.767,0.936-3.644,1.402-5.631,1.402c-1.52,0-2.962-0.268-4.326-0.799c-1.351-0.494-2.579-1.24-3.683-2.24
		c-1.091-1-1.936-2.145-2.534-3.43c-0.597-1.285-0.896-2.703-0.896-4.248c0-1.508,0.305-2.916,0.915-4.23
		c0.598-1.297,1.436-2.434,2.514-3.408c1.091-0.988,2.319-1.734,3.683-2.24c1.403-0.508,2.845-0.76,4.326-0.76
		c1.468,0,2.904,0.252,4.306,0.76l0.448,0.195l0.448,0.193v-8.223l6.216,0.018V492.68z M133.47,492.543
		c0-0.908-0.24-1.742-0.721-2.494c-0.48-0.766-1.124-1.377-1.929-1.832c-0.792-0.453-1.644-0.682-2.553-0.682
		c-0.91,0-1.767,0.229-2.572,0.682c-0.806,0.455-1.449,1.066-1.93,1.832c-0.48,0.752-0.721,1.586-0.721,2.494
		c0,1.389,0.52,2.584,1.559,3.586c1.027,1,2.248,1.5,3.664,1.5c1.403,0,2.618-0.5,3.644-1.5
		C132.951,495.127,133.47,493.932,133.47,492.543z"/>
	<path fill="#FFFFFF" d="M163.518,492.68c-0.013,1.975-0.539,3.76-1.578,5.359c-1.04,1.623-2.442,2.896-4.209,3.818
		c-1.767,0.936-3.644,1.402-5.631,1.402c-1.521,0-2.962-0.268-4.327-0.799c-1.351-0.494-2.578-1.24-3.683-2.24
		c-1.091-1-1.936-2.145-2.533-3.43c-0.597-1.285-0.896-2.703-0.896-4.248c0-1.508,0.306-2.916,0.916-4.23
		c0.598-1.297,1.436-2.434,2.514-3.408c1.091-0.988,2.319-1.734,3.683-2.24c1.403-0.508,2.846-0.76,4.327-0.76
		c1.468,0,2.903,0.252,4.306,0.76l0.448,0.195l0.448,0.193v-8.223l6.216,0.018V492.68z M157.302,492.543
		c0-0.908-0.241-1.742-0.721-2.494c-0.481-0.766-1.124-1.377-1.93-1.832c-0.792-0.453-1.643-0.682-2.552-0.682
		c-0.91,0-1.767,0.229-2.573,0.682c-0.805,0.455-1.448,1.066-1.929,1.832c-0.481,0.752-0.721,1.586-0.721,2.494
		c0,1.389,0.52,2.584,1.559,3.586c1.026,1,2.248,1.5,3.664,1.5c1.403,0,2.617-0.5,3.643-1.5
		C156.783,495.127,157.302,493.932,157.302,492.543z"/>
	<path fill="#FFFFFF" d="M185.518,488.295c0.584,1.311,0.877,2.715,0.877,4.207v0.178c0,0.063-0.006,0.137-0.02,0.215l-0.039,0.33
		h-2.416v0.039h-13.406c0.155,1.09,0.63,2.033,1.422,2.824c1,0.988,2.169,1.482,3.507,1.482c1.351,0,2.52-0.494,3.508-1.482
		l0.039-0.037l0.059-0.078l0.058-0.059l0.039-0.057l3.352,4.793c-0.961,0.777-1.936,1.371-2.923,1.771
		c-1.325,0.521-2.702,0.781-4.131,0.781c-1.936,0-3.734-0.463-5.397-1.385c-1.702-0.936-3.047-2.215-4.034-3.838
		c-1.014-1.623-1.521-3.449-1.521-5.479c0-1.52,0.292-2.92,0.877-4.207c0.585-1.299,1.39-2.428,2.417-3.391
		c1.039-0.988,2.208-1.734,3.507-2.24c1.338-0.52,2.722-0.779,4.15-0.779c1.429,0,2.806,0.26,4.131,0.779
		c1.312,0.506,2.487,1.246,3.527,2.221C184.128,485.834,184.934,486.971,185.518,488.295z M175.443,487.516
		c-0.87,0-1.688,0.219-2.455,0.662c-0.468,0.285-0.923,0.689-1.364,1.209h7.638c-0.441-0.52-0.896-0.924-1.363-1.209
		C177.133,487.734,176.314,487.516,175.443,487.516z"/>
	<path fill="#FFFFFF" d="M195.982,487.516c-1.585,0.066-2.378,1.17-2.378,3.313v11.789h-6.235v-11.789
		c0-5.676,2.871-8.658,8.613-8.943h0.35c5.743,0.285,8.613,3.268,8.613,8.943v11.789h-6.236v-11.789
		c0-2.143-0.792-3.246-2.377-3.313H195.982z"/>
	<path fill="#FFFFFF" d="M212.74,474.967l3.917,13.289l6.898-13.213l6.781,13.447l4.15-13.523h7.21l-10.406,28.254h-0.156
		l-7.502-14.615l-8.067,14.615h-0.117l-9.529-28.254H212.74z"/>
	<path fill="#FFFFFF" d="M255.24,502.033c-0.416,0.182-0.721,0.307-0.916,0.369c-1.377,0.533-2.819,0.801-4.326,0.801
		c-1.987,0-3.864-0.463-5.631-1.385c-1.767-0.936-3.17-2.209-4.209-3.82c-1.052-1.637-1.578-3.463-1.578-5.475
		c0-1.521,0.305-2.938,0.916-4.248c0.61-1.301,1.448-2.43,2.514-3.391c1.052-0.961,2.273-1.695,3.663-2.203
		c1.39-0.533,2.832-0.797,4.326-0.797c1.481,0,2.923,0.26,4.326,0.779c1.403,0.518,2.624,1.26,3.664,2.221
		c1.091,0.986,1.936,2.117,2.533,3.391c0.611,1.311,0.916,2.727,0.916,4.248l-0.019,10.152l-6.177-0.059V502.033z M245.516,490.01
		c-0.48,0.766-0.721,1.604-0.721,2.514c0,1.377,0.52,2.564,1.559,3.564c1.027,0.988,2.241,1.482,3.644,1.482
		c1.416,0,2.638-0.494,3.664-1.482c1.039-1,1.559-2.188,1.559-3.564c0-0.91-0.24-1.748-0.721-2.514
		c-0.48-0.768-1.124-1.379-1.929-1.832c-0.792-0.443-1.65-0.662-2.573-0.662c-0.896,0-1.747,0.219-2.552,0.662
		C246.64,488.631,245.997,489.242,245.516,490.01z"/>
	<path fill="#FFFFFF" d="M262.411,474.967l6.216-0.02v27.631l-6.216,0.078V474.967z"/>
	<path fill="#FFFFFF" d="M269.601,474.967l6.216-0.02v27.631l-6.216,0.078V474.967z"/>
	<path fill="#FFFFFF" d="M297.817,488.295c0.584,1.311,0.877,2.715,0.877,4.207v0.178c0,0.063-0.007,0.137-0.02,0.215l-0.039,0.33
		h-2.417v0.039h-13.407c0.156,1.09,0.63,2.033,1.422,2.824c1.001,0.988,2.17,1.482,3.508,1.482c1.351,0,2.52-0.494,3.508-1.482
		l0.039-0.037l0.058-0.078l0.059-0.059l0.039-0.057l3.351,4.793c-0.961,0.777-1.936,1.371-2.922,1.771
		c-1.325,0.521-2.702,0.781-4.131,0.781c-1.936,0-3.735-0.463-5.398-1.385c-1.701-0.936-3.046-2.215-4.033-3.838
		c-1.014-1.623-1.52-3.449-1.52-5.479c0-1.52,0.292-2.92,0.877-4.207c0.585-1.299,1.39-2.428,2.416-3.391
		c1.04-0.988,2.208-1.734,3.508-2.24c1.338-0.52,2.722-0.779,4.15-0.779c1.429,0,2.806,0.26,4.131,0.779
		c1.312,0.506,2.487,1.246,3.527,2.221C296.427,485.834,297.233,486.971,297.817,488.295z M287.743,487.516
		c-0.871,0-1.689,0.219-2.455,0.662c-0.468,0.285-0.922,0.689-1.364,1.209h7.638c-0.442-0.52-0.896-0.924-1.364-1.209
		C289.432,487.734,288.613,487.516,287.743,487.516z"/>
	<path fill="#FFFFFF" d="M303.78,487.982h-4.112l1.403-5.338h2.709v-7.678l6.216,0.039v7.639h4.131l-1.383,5.338h-2.748v6.605
		c0,1.77,1.104,2.65,3.313,2.65c0.714,0,1.26-0.084,1.637-0.254l-1.793,6.197c-0.325,0.051-0.644,0.078-0.955,0.078
		c-1.858,0-3.404-0.299-4.638-0.896c-1.248-0.598-2.189-1.5-2.826-2.709c-0.636-1.193-0.955-2.719-0.955-4.578V487.982z"/>
</g>
<path fill="#FFFFFF" d="M246.604,411.016v-3.451c0-6.996,5.672-12.664,12.664-12.664h23.325v-23.047
	c0-6.994-5.672-12.664-12.664-12.664h-69.043c-7.087,12.756-19.625,28.855-35.546,44.777c-16.821,16.822-33.84,29.865-46.908,36.693
	v6.066c0,6.994,5.671,12.664,12.665,12.664h138.832c6.992,0,12.664-5.67,12.664-12.664v-23.045h-23.325
	C252.276,423.682,246.604,418.012,246.604,411.016z"/>
<path fill="#FFFFFF" d="M281.376,397.09h-1.229h-19.775c-5.928,0-10.736,4.807-10.736,10.736v2.926
	c0,5.932,4.809,10.738,10.736,10.738h19.775h1.229c5.932,0,10.736-4.807,10.736-10.738v-2.926
	C292.112,401.896,287.308,397.09,281.376,397.09z"/>
<path d="M266.926,409.291c0,3.459-2.805,6.262-6.263,6.262l0,0c-3.458,0-6.261-2.803-6.261-6.262l0,0
	c0-3.459,2.802-6.264,6.261-6.264l0,0C264.121,403.027,266.926,405.832,266.926,409.291L266.926,409.291z"/>
<path fill="#FFFFFF" d="M200.602,338.727c-4.404-4.404-16.719,0.129-31.964,10.65c-0.307,0.213-0.61,0.418-0.919,0.635
	l-56.333,56.332h0c-0.216,0.309-0.42,0.613-0.633,0.92c-10.524,15.246-15.057,27.561-10.653,31.967
	c3.158,3.158,10.378,1.725,19.83-3.213c12.108-6.326,27.877-18.412,43.463-33.998c14.752-14.754,26.369-29.67,32.936-41.49
	C202.113,350.113,203.976,342.102,200.602,338.727z"/>
<path fill="#FFFFFF" d="M139.539,320.279c-8.432-8.431-22.103-8.431-30.533,0l-27.353,27.352c-8.431,8.432-8.431,22.104,0,30.533
	l19.72,19.719l18.556-18.555l18.8-18.799L159.258,340L139.539,320.279z"/>
<g>
	<path d="M222.168,408.57c1.537-1.984,2.462-4.467,2.462-7.166v-0.643c0-6.23-4.883-11.328-11.022-11.697v-4.438h-7.821v4.4h-3.205
		v-4.4h-7.825v4.4h-1.823h-3.881v7.822h3.881v8.465v7.822v9.398h-3.881v7.824h3.881h1.823v3.592h7.825v-3.592h3.205v3.592h7.821
		v-3.592h0.297c6.717,0,12.183-5.467,12.183-12.184v-0.678C226.087,413.971,224.57,410.797,222.168,408.57z M200.755,396.85h1.66
		h10.479c2.157,0,3.913,1.756,3.913,3.912v0.643c0,2.154-1.756,3.91-3.913,3.91h-12.14V396.85z M218.265,418.176
		c0,2.404-1.954,4.359-4.36,4.359h-11.489h-1.66v-9.398h12.14h1.01c2.406,0,4.36,1.957,4.36,4.361V418.176z"/>
</g>
<path fill="#FFFFFF" d="M512.007,411.016v-3.451c0-6.996,5.672-12.664,12.664-12.664h23.325v-23.047
	c0-6.994-5.672-12.664-12.664-12.664H466.29c-7.087,12.756-19.625,28.855-35.546,44.777c-16.821,16.822-33.84,29.865-46.908,36.693
	v6.066c0,6.994,5.671,12.664,12.665,12.664h138.832c6.992,0,12.664-5.67,12.664-12.664v-23.045h-23.325
	C517.679,423.682,512.007,418.012,512.007,411.016z"/>
<path fill="#FFFFFF" d="M546.779,397.09h-1.229h-19.775c-5.928,0-10.736,4.807-10.736,10.736v2.926
	c0,5.932,4.809,10.738,10.736,10.738h19.775h1.229c5.932,0,10.736-4.807,10.736-10.738v-2.926
	C557.515,401.896,552.711,397.09,546.779,397.09z"/>
<path d="M532.329,409.291c0,3.459-2.805,6.262-6.263,6.262l0,0c-3.458,0-6.261-2.803-6.261-6.262l0,0
	c0-3.459,2.802-6.264,6.261-6.264l0,0C529.524,403.027,532.329,405.832,532.329,409.291L532.329,409.291z"/>
<path fill="#FFFFFF" d="M466.005,338.727c-4.404-4.404-16.719,0.129-31.964,10.65c-0.307,0.213-0.61,0.418-0.919,0.635
	l-56.333,56.332h0c-0.216,0.309-0.42,0.613-0.633,0.92c-10.524,15.246-15.057,27.561-10.653,31.967
	c3.158,3.158,10.378,1.725,19.83-3.213c12.108-6.326,27.877-18.412,43.463-33.998c14.752-14.754,26.369-29.67,32.936-41.49
	C467.516,350.113,469.379,342.102,466.005,338.727z"/>
<path fill="#FFFFFF" d="M404.942,320.279c-8.432-8.431-22.103-8.431-30.533,0l-27.353,27.352c-8.431,8.432-8.431,22.104,0,30.533
	l19.72,19.719l18.556-18.555l18.8-18.799L424.662,340L404.942,320.279z"/>
<g>
	<path d="M487.572,408.57c1.537-1.984,2.462-4.467,2.462-7.166v-0.643c0-6.23-4.883-11.328-11.022-11.697v-4.438h-7.821v4.4h-3.205
		v-4.4h-7.825v4.4h-1.823h-3.881v7.822h3.881v8.465v7.822v9.398h-3.881v7.824h3.881h1.823v3.592h7.825v-3.592h3.205v3.592h7.821
		v-3.592h0.297c6.717,0,12.183-5.467,12.183-12.184v-0.678C491.491,413.971,489.973,410.797,487.572,408.57z M466.159,396.85h1.66
		h10.479c2.157,0,3.913,1.756,3.913,3.912v0.643c0,2.154-1.756,3.91-3.913,3.91h-12.14V396.85z M483.668,418.176
		c0,2.404-1.954,4.359-4.36,4.359h-11.489h-1.66v-9.398h12.14h1.01c2.406,0,4.36,1.957,4.36,4.361V418.176z"/>
</g>
<g>
	<path d="M574.28,683.434h-7.137V654.33h7.137v10.623h9.229V654.33h7.138v29.104h-7.138v-11.896h-9.229V683.434z"/>
	<path d="M598.03,658.248c-0.3,0.504-0.711,0.916-1.23,1.23s-1.094,0.471-1.723,0.471c-0.628,0-1.196-0.15-1.702-0.451
		c-0.52-0.314-0.929-0.73-1.231-1.25c-0.313-0.547-0.472-1.129-0.472-1.744c0-0.629,0.15-1.203,0.452-1.723
		c0.328-0.533,0.746-0.951,1.25-1.252c0.506-0.301,1.074-0.451,1.702-0.451c0.629,0,1.203,0.15,1.723,0.451
		c0.506,0.301,0.917,0.719,1.23,1.252c0.302,0.52,0.452,1.094,0.452,1.723C598.482,657.16,598.332,657.742,598.03,658.248z
		 M598.462,662.451v21.023h-6.544v-21.002L598.462,662.451z"/>
	<path d="M623.565,672.973c-0.013,2.078-0.567,3.961-1.661,5.641c-1.094,1.709-2.57,3.049-4.43,4.021
		c-1.861,0.982-3.836,1.475-5.928,1.475c-1.6,0-3.117-0.279-4.553-0.84c-1.422-0.521-2.715-1.305-3.876-2.357
		c-1.148-1.057-2.037-2.258-2.667-3.613c-0.628-1.352-0.942-2.844-0.942-4.471c0-1.584,0.32-3.068,0.963-4.449
		c0.628-1.367,1.511-2.564,2.646-3.59c1.148-1.039,2.44-1.824,3.876-2.357c1.477-0.533,2.994-0.801,4.553-0.801
		c1.545,0,3.056,0.268,4.532,0.801l0.472,0.203l0.473,0.207v-8.654l6.542,0.02V672.973z M617.023,672.828
		c0-0.957-0.254-1.83-0.76-2.623c-0.505-0.809-1.183-1.449-2.03-1.93c-0.833-0.479-1.729-0.717-2.687-0.717
		s-1.859,0.238-2.707,0.717c-0.848,0.48-1.525,1.121-2.03,1.93c-0.507,0.793-0.759,1.666-0.759,2.623
		c0,1.465,0.547,2.723,1.641,3.775c1.08,1.053,2.365,1.578,3.855,1.578c1.477,0,2.756-0.525,3.836-1.578
		C616.477,675.551,617.023,674.293,617.023,672.828z"/>
	<path d="M648.65,672.973c-0.016,2.078-0.568,3.961-1.662,5.641c-1.095,1.709-2.571,3.049-4.431,4.021
		c-1.858,0.982-3.835,1.475-5.927,1.475c-1.601,0-3.118-0.279-4.553-0.84c-1.423-0.521-2.715-1.305-3.877-2.357
		c-1.148-1.057-2.037-2.258-2.666-3.613c-0.629-1.352-0.943-2.844-0.943-4.471c0-1.584,0.321-3.068,0.963-4.449
		c0.63-1.367,1.512-2.564,2.646-3.59c1.148-1.039,2.441-1.824,3.877-2.357c1.476-0.533,2.994-0.801,4.553-0.801
		c1.545,0,3.055,0.268,4.533,0.801l0.471,0.203l0.473,0.207v-8.654l6.543,0.02V672.973z M642.107,672.828
		c0-0.957-0.254-1.83-0.76-2.623c-0.506-0.809-1.182-1.449-2.029-1.93c-0.836-0.479-1.73-0.717-2.688-0.717
		s-1.859,0.238-2.707,0.717c-0.848,0.48-1.525,1.121-2.031,1.93c-0.506,0.793-0.759,1.666-0.759,2.623
		c0,1.465,0.548,2.723,1.642,3.775c1.078,1.053,2.365,1.578,3.855,1.578c1.477,0,2.754-0.525,3.835-1.578
		C641.56,675.551,642.107,674.293,642.107,672.828z"/>
	<path d="M671.805,668.357c0.615,1.383,0.924,2.857,0.924,4.432v0.184c0,0.068-0.007,0.143-0.021,0.227l-0.041,0.348h-2.543v0.043
		h-14.111c0.164,1.146,0.664,2.139,1.498,2.973c1.053,1.039,2.283,1.559,3.691,1.559c1.422,0,2.652-0.52,3.691-1.559l0.041-0.041
		l0.063-0.084l0.061-0.061l0.042-0.061l3.526,5.045c-1.011,0.82-2.037,1.443-3.076,1.865c-1.395,0.547-2.844,0.822-4.348,0.822
		c-2.038,0-3.93-0.484-5.681-1.457c-1.792-0.984-3.206-2.332-4.246-4.041c-1.067-1.709-1.601-3.631-1.601-5.762
		c0-1.6,0.309-3.078,0.924-4.432c0.615-1.365,1.463-2.557,2.543-3.568c1.094-1.039,2.324-1.824,3.691-2.357
		c1.409-0.547,2.865-0.82,4.369-0.82s2.953,0.273,4.348,0.82c1.381,0.533,2.618,1.313,3.713,2.338
		C670.342,665.766,671.189,666.965,671.805,668.357z M661.201,667.539c-0.916,0-1.777,0.232-2.584,0.697
		c-0.492,0.301-0.972,0.725-1.436,1.27h8.039c-0.464-0.545-0.943-0.969-1.436-1.27C662.979,667.771,662.117,667.539,661.201,667.539
		z"/>
	<path d="M682.819,667.539c-1.669,0.066-2.503,1.23-2.503,3.484v12.41h-6.563v-12.41c0-5.975,3.022-9.111,9.066-9.412h0.368
		c6.044,0.301,9.066,3.438,9.066,9.412v12.41h-6.564v-12.41c0-2.254-0.833-3.418-2.502-3.484H682.819z"/>
	<path d="M700.457,654.33l4.123,13.988l7.26-13.906l7.139,14.15l4.367-14.232h7.59l-10.953,29.738h-0.164l-7.896-15.381
		l-8.49,15.381h-0.123l-10.03-29.738H700.457z"/>
	<path d="M745.189,682.818c-0.438,0.189-0.76,0.32-0.963,0.391c-1.451,0.561-2.969,0.84-4.555,0.84
		c-2.092,0-4.066-0.484-5.928-1.457c-1.859-0.984-3.336-2.324-4.43-4.02c-1.107-1.723-1.661-3.645-1.661-5.762
		c0-1.6,0.321-3.092,0.964-4.473c0.643-1.367,1.523-2.557,2.646-3.568c1.105-1.012,2.391-1.785,3.855-2.318
		c1.463-0.561,2.98-0.84,4.553-0.84c1.559,0,3.076,0.273,4.555,0.82c1.477,0.547,2.762,1.326,3.855,2.338
		c1.146,1.039,2.037,2.229,2.666,3.568c0.643,1.381,0.963,2.873,0.963,4.473l-0.02,10.686l-6.502-0.063V682.818z M734.955,670.162
		c-0.506,0.809-0.76,1.689-0.76,2.648c0,1.447,0.547,2.699,1.641,3.752c1.08,1.039,2.359,1.559,3.836,1.559
		c1.49,0,2.775-0.52,3.855-1.559c1.094-1.053,1.641-2.305,1.641-3.752c0-0.959-0.252-1.84-0.758-2.648
		c-0.506-0.805-1.184-1.447-2.031-1.926c-0.834-0.465-1.736-0.697-2.707-0.697c-0.943,0-1.838,0.232-2.686,0.697
		C736.137,668.715,735.461,669.357,734.955,670.162z"/>
	<path d="M752.736,654.33l6.543-0.021v29.082l-6.543,0.084V654.33z"/>
	<path d="M760.305,654.33l6.543-0.021v29.082l-6.543,0.084V654.33z"/>
	<path d="M790.004,668.357c0.615,1.383,0.924,2.857,0.924,4.432v0.184c0,0.068-0.01,0.143-0.021,0.227l-0.041,0.348h-2.543v0.043
		h-14.111c0.164,1.146,0.662,2.139,1.496,2.973c1.053,1.039,2.283,1.559,3.693,1.559c1.422,0,2.652-0.52,3.691-1.559l0.041-0.041
		l0.061-0.084l0.063-0.061l0.041-0.061l3.527,5.045c-1.012,0.82-2.037,1.443-3.076,1.865c-1.395,0.547-2.844,0.822-4.348,0.822
		c-2.037,0-3.932-0.484-5.682-1.457c-1.791-0.984-3.207-2.332-4.246-4.041c-1.066-1.709-1.6-3.631-1.6-5.762
		c0-1.6,0.307-3.078,0.924-4.432c0.615-1.365,1.463-2.557,2.543-3.568c1.094-1.039,2.324-1.824,3.691-2.357
		c1.408-0.547,2.863-0.82,4.369-0.82c1.504,0,2.953,0.273,4.348,0.82c1.381,0.533,2.619,1.313,3.713,2.338
		C788.539,665.766,789.389,666.965,790.004,668.357z M779.4,667.539c-0.918,0-1.779,0.232-2.586,0.697
		c-0.49,0.301-0.969,0.725-1.436,1.27h8.041c-0.465-0.545-0.943-0.969-1.436-1.27C781.176,667.771,780.316,667.539,779.4,667.539z"
		/>
	<path d="M796.279,668.031h-4.326l1.475-5.621h2.852v-8.08l6.541,0.041v8.039h4.35l-1.457,5.621h-2.893v6.951
		c0,1.859,1.164,2.791,3.488,2.791c0.752,0,1.326-0.092,1.723-0.268l-1.887,6.521c-0.342,0.055-0.676,0.082-1.006,0.082
		c-1.953,0-3.582-0.314-4.879-0.943c-1.314-0.627-2.305-1.58-2.975-2.85c-0.67-1.26-1.006-2.865-1.006-4.822V668.031z"/>
</g>
<g>
	<path d="M92.861,761.92H86.08v-27.648h6.781v10.092h8.769v-10.092h6.781v27.648h-6.781v-11.301h-8.769V761.92z"/>
	<path d="M115.426,737.99c-0.285,0.482-0.675,0.871-1.169,1.17c-0.494,0.301-1.039,0.449-1.637,0.449s-1.137-0.145-1.617-0.43
		c-0.494-0.299-0.883-0.695-1.169-1.189c-0.298-0.518-0.448-1.07-0.448-1.656c0-0.596,0.143-1.143,0.429-1.637
		c0.312-0.506,0.708-0.902,1.189-1.188c0.48-0.287,1.02-0.428,1.617-0.428s1.143,0.141,1.637,0.428
		c0.481,0.285,0.871,0.682,1.169,1.188c0.286,0.494,0.429,1.041,0.429,1.637C115.855,736.957,115.712,737.51,115.426,737.99z
		 M115.835,741.984v19.977h-6.216v-19.955L115.835,741.984z"/>
	<path d="M139.687,751.982c-0.013,1.975-0.539,3.76-1.579,5.359c-1.039,1.623-2.442,2.896-4.209,3.818
		c-1.767,0.938-3.644,1.404-5.631,1.404c-1.52,0-2.962-0.268-4.326-0.801c-1.351-0.492-2.579-1.24-3.683-2.24
		c-1.091-1-1.936-2.145-2.534-3.43c-0.597-1.285-0.896-2.701-0.896-4.248c0-1.506,0.305-2.916,0.915-4.229
		c0.598-1.299,1.436-2.436,2.514-3.41c1.091-0.986,2.319-1.734,3.683-2.24c1.403-0.506,2.845-0.76,4.326-0.76
		c1.468,0,2.904,0.254,4.306,0.76l0.448,0.195l0.448,0.195v-8.223l6.216,0.018V751.982z M133.47,751.846
		c0-0.908-0.24-1.742-0.721-2.494c-0.48-0.766-1.124-1.377-1.929-1.83c-0.792-0.455-1.644-0.682-2.553-0.682
		c-0.91,0-1.767,0.227-2.572,0.682c-0.806,0.453-1.449,1.064-1.93,1.83c-0.48,0.752-0.721,1.586-0.721,2.494
		c0,1.391,0.52,2.584,1.559,3.586c1.027,1,2.248,1.5,3.664,1.5c1.403,0,2.618-0.5,3.644-1.5
		C132.951,754.43,133.47,753.236,133.47,751.846z"/>
	<path d="M163.518,751.982c-0.013,1.975-0.539,3.76-1.578,5.359c-1.04,1.623-2.442,2.896-4.209,3.818
		c-1.767,0.938-3.644,1.404-5.631,1.404c-1.521,0-2.962-0.268-4.327-0.801c-1.351-0.492-2.578-1.24-3.683-2.24
		c-1.091-1-1.936-2.145-2.533-3.43c-0.597-1.285-0.896-2.701-0.896-4.248c0-1.506,0.306-2.916,0.916-4.229
		c0.598-1.299,1.436-2.436,2.514-3.41c1.091-0.986,2.319-1.734,3.683-2.24c1.403-0.506,2.846-0.76,4.327-0.76
		c1.468,0,2.903,0.254,4.306,0.76l0.448,0.195l0.448,0.195v-8.223l6.216,0.018V751.982z M157.302,751.846
		c0-0.908-0.241-1.742-0.721-2.494c-0.481-0.766-1.124-1.377-1.93-1.83c-0.792-0.455-1.643-0.682-2.552-0.682
		c-0.91,0-1.767,0.227-2.573,0.682c-0.805,0.453-1.448,1.064-1.929,1.83c-0.481,0.752-0.721,1.586-0.721,2.494
		c0,1.391,0.52,2.584,1.559,3.586c1.026,1,2.248,1.5,3.664,1.5c1.403,0,2.617-0.5,3.643-1.5
		C156.783,754.43,157.302,753.236,157.302,751.846z"/>
	<path d="M185.518,747.6c0.584,1.311,0.877,2.715,0.877,4.207v0.176c0,0.064-0.006,0.137-0.02,0.215l-0.039,0.332h-2.416v0.037
		h-13.406c0.155,1.09,0.63,2.033,1.422,2.826c1,0.986,2.169,1.482,3.507,1.482c1.351,0,2.52-0.496,3.508-1.482l0.039-0.039
		l0.059-0.078l0.058-0.057l0.039-0.059l3.352,4.793c-0.961,0.777-1.936,1.371-2.923,1.771c-1.325,0.521-2.702,0.781-4.131,0.781
		c-1.936,0-3.734-0.463-5.397-1.385c-1.702-0.936-3.047-2.213-4.034-3.838c-1.014-1.623-1.521-3.449-1.521-5.477
		c0-1.521,0.292-2.922,0.877-4.207c0.585-1.301,1.39-2.43,2.417-3.393c1.039-0.986,2.208-1.734,3.507-2.24
		c1.338-0.52,2.722-0.779,4.15-0.779c1.429,0,2.806,0.26,4.131,0.779c1.312,0.506,2.487,1.246,3.527,2.221
		C184.128,745.137,184.934,746.273,185.518,747.6z M175.443,746.818c-0.87,0-1.688,0.221-2.455,0.662
		c-0.468,0.285-0.923,0.689-1.364,1.209h7.638c-0.441-0.52-0.896-0.924-1.363-1.209
		C177.133,747.039,176.314,746.818,175.443,746.818z"/>
	<path d="M195.982,746.818c-1.585,0.066-2.378,1.17-2.378,3.314v11.787h-6.235v-11.787c0-5.678,2.871-8.66,8.613-8.945h0.35
		c5.743,0.285,8.613,3.268,8.613,8.945v11.787h-6.236v-11.787c0-2.145-0.792-3.248-2.377-3.314H195.982z"/>
	<path d="M212.74,734.271l3.917,13.287l6.898-13.213l6.781,13.447l4.15-13.521h7.21l-10.406,28.252h-0.156l-7.502-14.613
		l-8.067,14.613h-0.117l-9.529-28.252H212.74z"/>
	<path d="M255.24,761.336c-0.416,0.182-0.721,0.307-0.916,0.369c-1.377,0.533-2.819,0.801-4.326,0.801
		c-1.987,0-3.864-0.463-5.631-1.385c-1.767-0.936-3.17-2.209-4.209-3.82c-1.052-1.637-1.578-3.461-1.578-5.475
		c0-1.52,0.305-2.938,0.916-4.248c0.61-1.301,1.448-2.428,2.514-3.391c1.052-0.959,2.273-1.695,3.663-2.203
		c1.39-0.531,2.832-0.797,4.326-0.797c1.481,0,2.923,0.26,4.326,0.779c1.403,0.518,2.624,1.262,3.664,2.221
		c1.091,0.986,1.936,2.119,2.533,3.391c0.611,1.311,0.916,2.729,0.916,4.248l-0.019,10.152l-6.177-0.059V761.336z M245.516,749.314
		c-0.48,0.764-0.721,1.604-0.721,2.512c0,1.377,0.52,2.566,1.559,3.566c1.027,0.986,2.241,1.482,3.644,1.482
		c1.416,0,2.638-0.496,3.664-1.482c1.039-1,1.559-2.189,1.559-3.566c0-0.908-0.24-1.748-0.721-2.512
		c-0.48-0.768-1.124-1.379-1.929-1.834c-0.792-0.441-1.65-0.662-2.573-0.662c-0.896,0-1.747,0.221-2.552,0.662
		C246.64,747.936,245.997,748.547,245.516,749.314z"/>
	<path d="M262.411,734.271l6.216-0.021v27.633l-6.216,0.078V734.271z"/>
	<path d="M269.601,734.271l6.216-0.021v27.633l-6.216,0.078V734.271z"/>
	<path d="M297.817,747.6c0.584,1.311,0.877,2.715,0.877,4.207v0.176c0,0.064-0.007,0.137-0.02,0.215l-0.039,0.332h-2.417v0.037
		h-13.407c0.156,1.09,0.63,2.033,1.422,2.826c1.001,0.986,2.17,1.482,3.508,1.482c1.351,0,2.52-0.496,3.508-1.482l0.039-0.039
		l0.058-0.078l0.059-0.057l0.039-0.059l3.351,4.793c-0.961,0.777-1.936,1.371-2.922,1.771c-1.325,0.521-2.702,0.781-4.131,0.781
		c-1.936,0-3.735-0.463-5.398-1.385c-1.701-0.936-3.046-2.213-4.033-3.838c-1.014-1.623-1.52-3.449-1.52-5.477
		c0-1.521,0.292-2.922,0.877-4.207c0.585-1.301,1.39-2.43,2.416-3.393c1.04-0.986,2.208-1.734,3.508-2.24
		c1.338-0.52,2.722-0.779,4.15-0.779c1.429,0,2.806,0.26,4.131,0.779c1.312,0.506,2.487,1.246,3.527,2.221
		C296.427,745.137,297.233,746.273,297.817,747.6z M287.743,746.818c-0.871,0-1.689,0.221-2.455,0.662
		c-0.468,0.285-0.922,0.689-1.364,1.209h7.638c-0.442-0.52-0.896-0.924-1.364-1.209
		C289.432,747.039,288.613,746.818,287.743,746.818z"/>
	<path d="M303.78,747.285h-4.112l1.403-5.338h2.709v-7.676l6.216,0.037v7.639h4.131l-1.383,5.338h-2.748v6.607
		c0,1.768,1.104,2.648,3.313,2.648c0.714,0,1.26-0.084,1.637-0.252l-1.793,6.197c-0.325,0.051-0.644,0.078-0.955,0.078
		c-1.858,0-3.404-0.301-4.638-0.896c-1.248-0.6-2.189-1.5-2.826-2.711c-0.636-1.193-0.955-2.719-0.955-4.578V747.285z"/>
</g>
<path d="M246.604,670.32v-3.451c0-6.996,5.672-12.664,12.664-12.664h23.325v-23.047c0-6.994-5.672-12.664-12.664-12.664h-69.043
	c-7.087,12.756-19.625,28.855-35.546,44.777c-16.821,16.822-33.84,29.865-46.908,36.693v6.066c0,6.994,5.671,12.664,12.665,12.664
	h138.832c6.992,0,12.664-5.67,12.664-12.664v-23.045h-23.325C252.276,682.986,246.604,677.316,246.604,670.32z"/>
<path d="M281.376,656.395h-1.229h-19.775c-5.928,0-10.736,4.805-10.736,10.736v2.926c0,5.932,4.809,10.738,10.736,10.738h19.775
	h1.229c5.932,0,10.736-4.807,10.736-10.738v-2.926C292.112,661.199,287.308,656.395,281.376,656.395z"/>
<path fill="#FFFFFF" d="M266.926,668.594c0,3.459-2.805,6.264-6.263,6.264l0,0c-3.458,0-6.261-2.805-6.261-6.264l0,0
	c0-3.459,2.802-6.264,6.261-6.264l0,0C264.121,662.33,266.926,665.135,266.926,668.594L266.926,668.594z"/>
<path d="M200.602,598.031c-4.404-4.406-16.719,0.127-31.964,10.65c-0.307,0.213-0.61,0.416-0.919,0.633l-56.333,56.334h0
	c-0.216,0.309-0.42,0.613-0.633,0.918c-10.524,15.246-15.057,27.563-10.653,31.967c3.158,3.158,10.378,1.727,19.83-3.213
	c12.108-6.326,27.877-18.41,43.463-33.998c14.752-14.752,26.369-29.67,32.936-41.49
	C202.113,609.416,203.976,601.404,200.602,598.031z"/>
<path d="M139.539,579.584c-8.432-8.432-22.103-8.432-30.533,0l-27.353,27.352c-8.431,8.432-8.431,22.102,0,30.533l19.72,19.719
	l18.556-18.555l18.8-18.801l20.529-20.527L139.539,579.584z"/>
<g>
	<path fill="#FFFFFF" d="M222.168,667.875c1.537-1.984,2.462-4.467,2.462-7.166v-0.643c0-6.23-4.883-11.328-11.022-11.697v-4.438
		h-7.821v4.4h-3.205v-4.4h-7.825v4.4h-1.823h-3.881v7.822h3.881v8.465v7.822v9.398h-3.881v7.824h3.881h1.823v3.592h7.825v-3.592
		h3.205v3.592h7.821v-3.592h0.297c6.717,0,12.183-5.467,12.183-12.184v-0.678C226.087,673.275,224.57,670.102,222.168,667.875z
		 M200.755,656.154h1.66h10.479c2.157,0,3.913,1.756,3.913,3.912v0.643c0,2.154-1.756,3.91-3.913,3.91h-12.14V656.154z
		 M218.265,677.48c0,2.404-1.954,4.359-4.36,4.359h-11.489h-1.66v-9.398h12.14h1.01c2.406,0,4.36,1.957,4.36,4.361V677.48z"/>
</g>
<path d="M512.007,670.32v-3.451c0-6.996,5.672-12.664,12.664-12.664h23.325v-23.047c0-6.994-5.672-12.664-12.664-12.664H466.29
	c-7.087,12.756-19.625,28.855-35.546,44.777c-16.821,16.822-33.84,29.865-46.908,36.693v6.066c0,6.994,5.671,12.664,12.665,12.664
	h138.832c6.992,0,12.664-5.67,12.664-12.664v-23.045h-23.325C517.679,682.986,512.007,677.316,512.007,670.32z"/>
<path d="M546.779,656.395h-1.229h-19.775c-5.928,0-10.736,4.805-10.736,10.736v2.926c0,5.932,4.809,10.738,10.736,10.738h19.775
	h1.229c5.932,0,10.736-4.807,10.736-10.738v-2.926C557.515,661.199,552.711,656.395,546.779,656.395z"/>
<path fill="#FFFFFF" d="M532.329,668.594c0,3.459-2.805,6.264-6.263,6.264l0,0c-3.458,0-6.261-2.805-6.261-6.264l0,0
	c0-3.459,2.802-6.264,6.261-6.264l0,0C529.524,662.33,532.329,665.135,532.329,668.594L532.329,668.594z"/>
<path d="M466.005,598.031c-4.404-4.406-16.719,0.127-31.964,10.65c-0.307,0.213-0.61,0.416-0.919,0.633l-56.333,56.334h0
	c-0.216,0.309-0.42,0.613-0.633,0.918c-10.524,15.246-15.057,27.563-10.653,31.967c3.158,3.158,10.378,1.727,19.83-3.213
	c12.108-6.326,27.877-18.41,43.463-33.998c14.752-14.752,26.369-29.67,32.936-41.49
	C467.516,609.416,469.379,601.404,466.005,598.031z"/>
<path d="M404.942,579.584c-8.432-8.432-22.103-8.432-30.533,0l-27.353,27.352c-8.431,8.432-8.431,22.102,0,30.533l19.72,19.719
	l18.556-18.555l18.8-18.801l20.529-20.527L404.942,579.584z"/>
<g>
	<path fill="#FFFFFF" d="M487.572,667.875c1.537-1.984,2.462-4.467,2.462-7.166v-0.643c0-6.23-4.883-11.328-11.022-11.697v-4.438
		h-7.821v4.4h-3.205v-4.4h-7.825v4.4h-1.823h-3.881v7.822h3.881v8.465v7.822v9.398h-3.881v7.824h3.881h1.823v3.592h7.825v-3.592
		h3.205v3.592h7.821v-3.592h0.297c6.717,0,12.183-5.467,12.183-12.184v-0.678C491.491,673.275,489.973,670.102,487.572,667.875z
		 M466.159,656.154h1.66h10.479c2.157,0,3.913,1.756,3.913,3.912v0.643c0,2.154-1.756,3.91-3.913,3.91h-12.14V656.154z
		 M483.668,677.48c0,2.404-1.954,4.359-4.36,4.359h-11.489h-1.66v-9.398h12.14h1.01c2.406,0,4.36,1.957,4.36,4.361V677.48z"/>
</g>
</svg>
